<?xml version="1.0" encoding="UTF-8"?>
<svg version="1.1" xmlns="http://www.w3.org/2000/svg" width="512" height="512">
<path d="M0 0 C24.09 0 48.18 0 73 0 C73 73.26 73 146.52 73 222 C-59 222 -191 222 -327 222 C-327 209.79 -327 197.58 -327 185 C-318.60626953 184.94392578 -318.60626953 184.94392578 -310.04296875 184.88671875 C-306.50192206 184.85644948 -302.96092629 184.82530855 -299.41992188 184.79101562 C-293.79714483 184.73664514 -288.1744685 184.68553733 -282.55151367 184.65356445 C-278.01910335 184.6275909 -273.4870303 184.58723115 -268.95482826 184.53681374 C-267.2240855 184.52010463 -265.49328436 184.50861559 -263.76247215 184.50238609 C-261.34153097 184.49278868 -258.92146051 184.46478329 -256.50073242 184.43237305 C-255.78216064 184.43380814 -255.06358887 184.43524323 -254.32324219 184.4367218 C-251.49118382 184.38295551 -249.46588246 184.30345183 -247.05822754 182.73522949 C-245.76225269 180.61015365 -245.60492809 179.28821093 -245.56762695 176.80395508 C-245.54783279 175.96331009 -245.52803864 175.1226651 -245.50764465 174.25654602 C-245.50125473 173.35333115 -245.49486481 172.45011627 -245.48828125 171.51953125 C-245.47033005 170.59154221 -245.45237885 169.66355316 -245.43388367 168.70744324 C-245.37968709 165.74250843 -245.345855 162.77773545 -245.3125 159.8125 C-245.27933518 157.80271181 -245.24484631 155.792945 -245.20898438 153.78320312 C-245.12395521 148.85558535 -245.05718862 143.92801636 -245 139 C-244.04199997 138.98969254 -243.08399994 138.97938507 -242.0969696 138.96876526 C-233.076844 138.87108711 -224.05678825 138.7683583 -215.03677654 138.66066074 C-210.39929777 138.60545295 -205.76181267 138.55203632 -201.12426758 138.50268555 C-196.65033756 138.45501045 -192.17648447 138.40266641 -187.70264626 138.34705925 C-185.99420902 138.32664997 -184.2857507 138.30793452 -182.57727623 138.29092598 C-180.18775168 138.26685042 -177.79837243 138.23680015 -175.40893555 138.20532227 C-174.69971451 138.1995668 -173.99049347 138.19381134 -173.25978088 138.18788147 C-170.23700348 138.14249989 -167.89179244 137.96393081 -165 137 C-164.09683675 134.29051025 -163.853425 132.59864666 -163.79467773 129.80395508 C-163.77473251 128.96331009 -163.75478729 128.1226651 -163.73423767 127.25654602 C-163.71752518 126.35333115 -163.70081268 125.45011627 -163.68359375 124.51953125 C-163.6524221 123.12754768 -163.6524221 123.12754768 -163.62062073 121.70744324 C-163.55522677 118.7425376 -163.49628738 115.77754328 -163.4375 112.8125 C-163.39430513 110.8027252 -163.35069053 108.79295937 -163.30664062 106.78320312 C-163.19955573 101.85555968 -163.09825955 96.92782701 -163 92 C-161.51875389 91.9845388 -161.51875389 91.9845388 -160.00758362 91.96876526 C-150.72194457 91.87120126 -141.4363751 91.76848377 -132.15084934 91.66066074 C-127.37655052 91.60538912 -122.60224562 91.55196248 -117.82788086 91.50268555 C-113.22428307 91.45510435 -108.62076219 91.40276407 -104.01725578 91.34705925 C-102.25692587 91.3266073 -100.49657485 91.30789902 -98.73620796 91.29092598 C-96.27922012 91.26694456 -93.82237901 91.23688191 -91.36547852 91.20532227 C-90.63036545 91.1995668 -89.89525238 91.19381134 -89.13786316 91.18788147 C-85.78273479 91.42956431 -85.78273479 91.42956431 -83 90 C-82.87802192 88.61949142 -82.82231101 87.23302353 -82.79467773 85.84741211 C-82.77449585 84.95421265 -82.75431396 84.06101318 -82.73352051 83.14074707 C-82.71704468 82.19582397 -82.70056885 81.25090088 -82.68359375 80.27734375 C-82.65561707 78.98141296 -82.65561707 78.98141296 -82.6270752 77.65930176 C-82.55855715 74.41880941 -82.49854945 71.17814165 -82.4375 67.9375 C-82.293125 60.698125 -82.14875 53.45875 -82 46 C-41.905 45.505 -41.905 45.505 -1 45 C-0.67 30.15 -0.34 15.3 0 0 Z " fill="#D69F5A" transform="translate(382,221)"/>
<path d="M0 0 C3.12694762 2.51515352 5.88144669 5.08506341 7 9 C6.92530507 13.86617238 6.63998804 16.79920953 3.25350952 20.39312744 C2.03211737 21.54692392 0.79169801 22.68078977 -0.46337891 23.79785156 C-1.47550194 24.74163414 -1.47550194 24.74163414 -2.5080719 25.70448303 C-3.97016226 27.06652783 -5.43936861 28.42096541 -6.914814 29.7685318 C-9.25809025 31.91956622 -11.56804826 34.10139635 -13.87045288 36.29608154 C-20.41490619 42.5333982 -26.97140379 48.75369519 -33.65039062 54.84716797 C-54.15512163 71.57924918 -54.15512163 71.57924918 -64.95996094 94.37304688 C-65.10595824 102.34117534 -63.50127033 109.49618902 -61 117 C-59.17098157 118.5512359 -59.17098157 118.5512359 -56.88671875 119.99609375 C-56.05076172 120.55490234 -55.21480469 121.11371094 -54.35351562 121.68945312 C-53.03383789 122.55473633 -53.03383789 122.55473633 -51.6875 123.4375 C-49.95952919 124.57793508 -48.23417603 125.72234826 -46.51171875 126.87109375 C-45.74303467 127.37568115 -44.97435059 127.88026855 -44.18237305 128.40014648 C-38.28990649 132.71979447 -36.4755791 137.15378413 -34.03125 143.8828125 C-33.66906372 144.852258 -33.30687744 145.82170349 -32.93371582 146.82052612 C-31.77881527 149.91829394 -30.63905534 153.02137523 -29.5 156.125 C-28.35759271 159.20587682 -27.21213246 162.28560542 -26.06628418 165.36520386 C-25.35561567 167.27867743 -24.6475205 169.19310952 -23.94250488 171.1086731 C-21.99994636 176.37727404 -19.97063725 181.59255525 -17.8026123 186.7729187 C-16.41687657 190.61804557 -16.25297999 192.9253454 -17 197 C-20.25801593 200.97720562 -23.90678456 203.59452232 -29.0859375 204.2734375 C-29.84132813 204.30695313 -30.59671875 204.34046875 -31.375 204.375 C-32.12523437 204.42398438 -32.87546875 204.47296875 -33.6484375 204.5234375 C-37.24089507 203.72378748 -38.66087704 201.7784125 -41 199 C-42.81640625 195.9609375 -42.81640625 195.9609375 -44.5625 192.375 C-44.88476562 191.71419434 -45.20703125 191.05338867 -45.5390625 190.37255859 C-48.9954549 183.18715243 -52.24482166 175.90323136 -55.5 168.625 C-55.77329132 168.01565613 -56.04658264 167.40631226 -56.32815552 166.77850342 C-57.10862969 165.03400395 -57.88257373 163.28658743 -58.65625 161.5390625 C-59.10806641 160.52021973 -59.55988281 159.50137695 -60.02539062 158.45166016 C-61 156 -61 156 -61 154 C-65.12565928 155.10171287 -69.25040154 156.20682285 -73.375 157.3125 C-74.53128906 157.62123047 -75.68757813 157.92996094 -76.87890625 158.24804688 C-79.17040808 158.86299793 -81.4592233 159.48805535 -83.74511719 160.12353516 C-85.82171018 160.68271374 -87.91105365 161.19771488 -90.01269531 161.65380859 C-90.90827148 161.86473145 -91.80384766 162.0756543 -92.7265625 162.29296875 C-93.50854004 162.45692139 -94.29051758 162.62087402 -95.09619141 162.78979492 C-98.14844915 164.73004135 -98.15085847 167.58682957 -99 171 C-99.42703817 173.18893452 -99.81720797 175.38533145 -100.17333984 177.58691406 C-100.38050629 178.85222961 -100.58767273 180.11754517 -100.80111694 181.42120361 C-100.90844524 182.0879435 -101.01577354 182.75468338 -101.12635422 183.4416275 C-101.46724725 185.55473752 -101.81446043 187.66672171 -102.16348267 189.77850342 C-103.15449633 195.77871464 -104.13811155 201.78009191 -105.10839844 207.78369141 C-105.70458254 211.46970029 -106.31129192 215.15385408 -106.924366 218.83708954 C-107.15389569 220.22847488 -107.37957224 221.62050232 -107.60105515 223.01319122 C-110.98490355 244.27040355 -110.98490355 244.27040355 -115.9546814 248.76959229 C-120.15196273 251.2945619 -125.28970521 250.58485636 -130 250 C-133.19616185 248.72273457 -135.42299908 247.15400183 -137 244 C-137.49838299 235.44296053 -136.69112432 226.89811454 -135.8984375 218.38452148 C-135.72287323 216.42865364 -135.72287323 216.42865364 -135.54376221 214.43327332 C-135.22618452 210.89626447 -134.9021131 207.35987834 -134.57685089 203.82356906 C-134.23649395 200.10979919 -133.90250296 196.39545692 -133.56787109 192.6811676 C-132.93456265 185.66177143 -132.29604494 178.64286017 -131.65540886 171.62412935 C-130.71376695 161.30549977 -129.77900751 150.9862461 -128.8454895 140.6668787 C-128.77699232 139.90970175 -128.70849514 139.15252479 -128.63792229 138.37240309 C-128.50139582 136.86314946 -128.3648867 135.35389427 -128.22839546 133.84463745 C-127.82878093 129.42802072 -127.42727612 125.01158094 -127.0241394 120.59528434 C-126.83438039 118.5150261 -126.64519418 116.43471666 -126.45623779 114.35438538 C-126.2257244 111.81741907 -125.9942127 109.2805432 -125.76153564 106.74377441 C-125.61008087 105.07235634 -125.61008087 105.07235634 -125.45556641 103.36717224 C-125.36707428 102.39736136 -125.27858215 101.42755049 -125.18740845 100.4283514 C-124.96152682 97.9074111 -124.96152682 97.9074111 -125 95 C-129.55408691 95.87597535 -132.25596044 98.54728027 -135.625 101.5625 C-136.88301344 102.66531987 -138.14213276 103.76687949 -139.40234375 104.8671875 C-140.01706543 105.40569336 -140.63178711 105.94419922 -141.26513672 106.49902344 C-144.29817007 109.12315643 -147.44381619 111.5998084 -150.58984375 114.0859375 C-153.16749337 116.13301742 -155.70953526 118.21948247 -158.25 120.3125 C-159.1575 121.05113281 -160.065 121.78976563 -161 122.55078125 C-162.58523114 123.84497386 -164.16884437 125.14128859 -165.73828125 126.45458984 C-167.56517996 127.98271042 -169.40641292 129.49207935 -171.25 131 C-171.8162207 131.48122314 -172.38244141 131.96244629 -172.96582031 132.45825195 C-176.87191196 135.61671994 -179.82930423 136.80894926 -185 137 C-188.85174864 135.71608379 -190.68629204 134.35498532 -193.375 131.3125 C-195.33861439 127.30974759 -196.37803172 124.28367846 -195 120 C-193.35496521 117.8842926 -193.35496521 117.8842926 -191.16577148 115.59985352 C-187.49287173 111.65972391 -184.00842587 107.63816893 -180.60961914 103.46459961 C-173.99432285 95.41010543 -167.12770616 87.60005469 -160.0625 79.9375 C-159.42338306 79.24413166 -158.78426613 78.55076332 -158.12578201 77.83638382 C-131.79419218 49.54752451 -131.79419218 49.54752451 -114.37420654 48.65403748 C-106.63981619 48.55938368 -99.02686248 49.28130893 -91.35498047 50.18198776 C-76.63681207 51.89032731 -63.73213351 53.36729631 -51.38096142 43.86391926 C-36.74678274 31.88010774 -24.34490978 16.92885932 -12.81483459 2.01171875 C-9.267381 -1.92058391 -4.76538345 -1.36818627 0 0 Z " fill="#D69F5A" transform="translate(365,55)"/>
<path d="M0 0 C0.58910156 0.29777344 1.17820313 0.59554687 1.78515625 0.90234375 C6.41444913 3.19657884 10.86442268 5.22188222 16 6 C14.4887938 10.20304225 12.37865965 13.86857508 10 17.625 C9.37532837 18.61947144 9.37532837 18.61947144 8.73803711 19.6340332 C3.36430578 28.11171131 -2.24705334 36.43722157 -7.84179688 44.77001953 C-8.41704857 45.62780251 -8.41704857 45.62780251 -9.00392151 46.50291443 C-10.05669494 48.07198757 -11.11117778 49.63991338 -12.16577148 51.20776367 C-16.85026373 58.33894134 -17.63465932 63.46401691 -17.86669922 71.86035156 C-18.00336578 74.05402512 -18.339286 76.14155879 -18.72265625 78.3046875 C-19.35226385 82.72944366 -19.8719057 86.82262977 -18 91 C-14.60777781 94.45576795 -10.55984982 96.87134859 -6.28613281 99.10009766 C1.63821627 103.41209951 3.83900053 108.76902235 7 117 C7.55239969 118.31440003 8.11101098 119.62620403 8.67529297 120.93554688 C10.15291375 124.36632914 11.58899784 127.81218686 13.00683594 131.26806641 C13.59095925 132.685666 14.18058375 134.10100998 14.77539062 135.51416016 C15.65137526 137.59581645 16.51094983 139.68359393 17.3671875 141.7734375 C17.6327243 142.39648773 17.89826111 143.01953796 18.17184448 143.66146851 C19.88270818 147.90962583 20.38566042 151.43972242 20 156 C17.55714325 159.34761851 14.95623181 160.86964805 11 162 C6.87015488 162.61508332 5.47021802 162.33888888 2.03930664 159.86621094 C-1.02806781 157.19025874 -2.8099283 154.33036773 -4.69140625 150.703125 C-5.00399887 150.11005554 -5.31659149 149.51698608 -5.63865662 148.90594482 C-6.62575731 147.02684294 -7.59450687 145.13900335 -8.5625 143.25 C-9.21425656 141.99935393 -9.86724293 140.74934796 -10.52148438 139.5 C-11.77843486 137.09812925 -13.02976633 134.69364287 -14.27783203 132.28710938 C-16.44557584 128.14952749 -18.69610146 124.0630795 -21 120 C-28.14417649 121.31013743 -35.0887199 123.03975926 -42.0625 125.0625 C-43.01060547 125.33126953 -43.95871094 125.60003906 -44.93554688 125.87695312 C-49.29874056 126.81639689 -49.29874056 126.81639689 -53 129 C-53.34547626 131.14081913 -53.63055077 133.29140564 -53.89208984 135.4440918 C-53.97519913 136.11735001 -54.05830841 136.79060822 -54.14393616 137.48426819 C-54.32467692 138.95131077 -54.50354719 140.4185847 -54.68079758 141.88605309 C-54.96240794 144.21136047 -55.25042012 146.53578854 -55.54043579 148.86006165 C-56.36456925 155.47053656 -57.18085192 162.08193636 -57.98339844 168.69506836 C-58.47436575 172.73690234 -58.97613806 176.77727457 -59.48466873 180.81693459 C-59.67612063 182.3549371 -59.86348243 183.89345466 -60.04661179 185.43247032 C-60.30396864 187.59268692 -60.57504425 189.75078554 -60.84912109 191.90893555 C-60.99932709 193.13613815 -61.14953308 194.36334076 -61.30429077 195.62773132 C-62.20159557 199.97718186 -63.70629532 203.50726383 -66.625 206.875 C-70.37809699 208.65278278 -73.93023152 208.65482434 -78 208 C-83.46341463 205.07317073 -83.46341463 205.07317073 -85 202 C-84.96241629 199.26679418 -84.85612955 196.57402822 -84.69165039 193.84765625 C-84.643686 193.00509781 -84.59572161 192.16253937 -84.54630375 191.29444885 C-83.97038863 181.72047959 -83.10939736 172.172365 -82.22750664 162.62255859 C-81.92554303 159.35025644 -81.62845639 156.07754129 -81.33253479 152.8046875 C-80.49167355 143.5151877 -79.64157425 134.22653729 -78.7902832 124.93798828 C-78.26629659 119.21709531 -77.74712782 113.49578038 -77.23069954 107.77420044 C-76.93980261 104.56842358 -76.64324468 101.36320291 -76.34654236 98.15795898 C-76.16748797 96.17825048 -75.98872611 94.19851548 -75.81030273 92.21875 C-75.68642433 90.90620995 -75.68642433 90.90620995 -75.56004333 89.56715393 C-75.01007327 83.36653226 -74.91339501 77.2231504 -75 71 C-78.88732485 72.826323 -81.90501511 75.32184164 -85.125 78.125 C-86.29076648 79.12604926 -87.45744121 80.12604175 -88.625 81.125 C-89.48544922 81.86169922 -89.48544922 81.86169922 -90.36328125 82.61328125 C-93.36385244 85.15553131 -96.44897377 87.58944676 -99.53125 90.03125 C-102.25261102 92.20144929 -104.93897711 94.41124487 -107.625 96.625 C-109.41655174 98.08347452 -111.20821081 99.54181721 -113 101 C-113.73476562 101.61617188 -114.46953125 102.23234375 -115.2265625 102.8671875 C-119.36305474 106.20512912 -122.45729566 108.20528535 -128 108 C-131.16483536 106.38772538 -133.27108725 104.99397194 -135.375 102.125 C-136.29082083 99.01120919 -136.5644039 97.26100032 -136 94 C-134.78117371 92.36643982 -134.78117371 92.36643982 -133.11791992 90.56811523 C-130.05500117 87.18611128 -127.09131271 83.74387296 -124.1652832 80.24243164 C-118.06761244 73.01155305 -111.76313348 65.97985079 -105.3125 59.0625 C-104.73665791 58.44439075 -104.16081581 57.82628151 -103.56752396 57.18944168 C-90.00734878 42.75315556 -78.12299407 30.54174862 -57.44895935 29.19352722 C-48.63201373 29.03303378 -39.71524982 29.72149924 -31.02774048 31.2527771 C-26.02570912 32.29480635 -26.02570912 32.29480635 -21.56787109 30.34277344 C-21.05047363 29.5696582 -20.53307617 28.79654297 -20 28 C-19.49299561 27.32171143 -18.98599121 26.64342285 -18.46362305 25.94458008 C-17.74493042 24.86793091 -17.74493042 24.86793091 -17.01171875 23.76953125 C-16.46966797 22.96580078 -15.92761719 22.16207031 -15.36914062 21.33398438 C-14.81419922 20.50189453 -14.25925781 19.66980469 -13.6875 18.8125 C-9.359028 12.33776311 -4.85991518 6.08839628 0 0 Z " fill="#D69F5A" transform="translate(169,190)"/>
<path d="M0 0 C144.87 0 289.74 0 439 0 C439 8.25 439 16.5 439 25 C294.13 25 149.26 25 0 25 C0 16.75 0 8.5 0 0 Z " fill="#D69F5A" transform="translate(35,452)"/>
<path d="M0 0 C4.14182881 0.862881 5.56226471 2.18349135 8 5.625 C8 8.265 8 10.905 8 13.625 C31.76 13.625 55.52 13.625 80 13.625 C74.39368999 24.83762003 74.39368999 24.83762003 71.703125 28.984375 C71.13722656 29.87253906 70.57132812 30.76070312 69.98828125 31.67578125 C68.81773126 33.4934218 67.643169 35.30848401 66.46484375 37.12109375 C65.62373047 38.44560547 65.62373047 38.44560547 64.765625 39.796875 C64.25805664 40.5815918 63.75048828 41.36630859 63.22753906 42.17480469 C61.7348051 45.15433492 61.11329422 47.28006042 61 50.625 C62.37548253 53.91474989 62.37548253 53.91474989 64.55078125 57.16015625 C64.92478561 57.76129745 65.29878998 58.36243866 65.68412781 58.98179626 C66.87788789 60.8941132 68.09396079 62.79089685 69.3125 64.6875 C70.51566434 66.59024017 71.71395577 68.49590106 72.90873718 70.40391541 C73.99604221 72.13548261 75.09596492 73.85910777 76.1965332 75.58227539 C78 78.625 78 78.625 80 83.625 C56.24 83.625 32.48 83.625 8 83.625 C8 108.045 8 132.465 8 157.625 C9.98 157.625 11.96 157.625 14 157.625 C15 158.625 15 158.625 15.11352539 160.48266602 C15.10828857 161.27342529 15.10305176 162.06418457 15.09765625 162.87890625 C15.09515869 163.6479126 15.09266113 164.41691895 15.09008789 165.20922852 C15.08098389 166.19205811 15.07187988 167.1748877 15.0625 168.1875 C15.041875 171.301875 15.02125 174.41625 15 177.625 C5.1 177.625 -4.8 177.625 -15 177.625 C-15.0309375 172.9534375 -15.0309375 172.9534375 -15.0625 168.1875 C-15.071604 167.20467041 -15.08070801 166.22184082 -15.09008789 165.20922852 C-15.09258545 164.44022217 -15.09508301 163.67121582 -15.09765625 162.87890625 C-15.10289307 162.08814697 -15.10812988 161.2973877 -15.11352539 160.48266602 C-15 158.625 -15 158.625 -14 157.625 C-12.00041636 157.58419217 -9.99954746 157.58245644 -8 157.625 C-8.00460896 156.84624166 -8.00921793 156.06748331 -8.01396656 155.26512623 C-8.12436843 136.31982835 -8.2071189 117.37459464 -8.25906086 98.42904377 C-8.28484703 89.26711287 -8.32000537 80.10539664 -8.37719727 70.94360352 C-8.42701969 62.95855145 -8.45928801 54.97365484 -8.47044247 46.98845166 C-8.47696326 42.75991554 -8.49229709 38.53182418 -8.52865028 34.30343056 C-8.56259172 30.32330734 -8.57305692 26.34381201 -8.56553841 22.36355782 C-8.56691381 20.90303383 -8.57685805 19.44248883 -8.59602737 17.98209 C-8.62092848 15.98714143 -8.61193717 13.99185586 -8.60127258 11.9967804 C-8.60588155 10.88048909 -8.61049051 9.76419779 -8.61523914 8.61407948 C-7.61515754 3.75528037 -4.83266682 1.00680559 0 0 Z " fill="#D69F5A" transform="translate(399,34.375)"/>
<path d="M0 0 C5.91320747 7.49734619 5.47641349 16.12586852 4.69140625 25.14453125 C2.97540745 32.93802578 -1.43108103 39.76779167 -8.03515625 44.33984375 C-11.69462104 46.19464097 -15.23940149 46.57648041 -19.26171875 45.8359375 C-26.11377552 43.52140687 -30.06453981 38.73445355 -33.30078125 32.48828125 C-37.01173368 23.85815933 -38.28969398 14.10238763 -34.74609375 5.14453125 C-32.05297465 0.08787056 -28.52507765 -3.51028496 -23.20703125 -5.734375 C-14.2181679 -8.25951506 -6.85109788 -6.10734613 0 0 Z " fill="#D69F5A" transform="translate(286.30859375,49.85546875)"/>
<path d="M0 0 C4.15237835 3.81273791 6.65375864 8.15357391 7.3359375 13.76171875 C7.46897208 23.7260089 5.20445993 31.11669747 -1.4375 38.625 C-4.30418075 41.14767906 -6.57860629 41.95317848 -10.375 42.375 C-15.49517842 41.84532637 -18.22681494 39.98901427 -21.63671875 36.1640625 C-27.83591802 28.32875495 -28.96472339 20.86429661 -28 11 C-26.32647276 5.04756787 -23.01910378 1.45063385 -18 -2 C-11.91906123 -4.5500711 -5.5550889 -3.0861605 0 0 Z " fill="#D69F5A" transform="translate(132,169)"/>
</svg>
