<?xml version="1.0" encoding="UTF-8"?>
<svg version="1.1" xmlns="http://www.w3.org/2000/svg" width="512" height="512">
<path d="M0 0 C1.31943604 0.1853833 1.31943604 0.1853833 2.66552734 0.37451172 C24.93867751 3.59769167 51.94000575 8.29333717 71 21 C69.61517189 24.12126015 68.01545632 26.22529237 65.59179688 28.61938477 C64.897677 29.31012589 64.20355713 30.000867 63.48840332 30.71253967 C62.73941772 31.44806564 61.99043213 32.18359161 61.21875 32.94140625 C60.44946167 33.70549301 59.68017334 34.46957977 58.88757324 35.25682068 C56.42974543 37.69684018 53.96534007 40.13007277 51.5 42.5625 C49.0355324 44.99934981 46.57253337 47.43763846 44.11242676 49.87889099 C42.58156142 51.39750147 41.0480308 52.91343077 39.51159668 54.42640686 C38.81747681 55.11399582 38.12335693 55.80158478 37.40820312 56.51000977 C36.49125671 57.41457664 36.49125671 57.41457664 35.55578613 58.3374176 C33.79991505 60.12301629 33.79991505 60.12301629 32 63 C31.35788574 62.80889648 30.71577148 62.61779297 30.05419922 62.42089844 C11.50894493 56.94723255 -7.54274972 51.55858135 -27 51 C-28.11084961 50.96132812 -28.11084961 50.96132812 -29.24414062 50.921875 C-68.46741943 49.70659138 -104.9952626 59.61346309 -139 79 C-140.04027344 79.59296875 -141.08054688 80.1859375 -142.15234375 80.796875 C-156.76582164 89.67483751 -169.9123006 100.97266807 -182 113 C-182.49693359 113.49290527 -182.99386719 113.98581055 -183.50585938 114.49365234 C-196.98370014 128.05050114 -207.31549066 144.06045596 -216 161 C-216.35400879 161.67820801 -216.70801758 162.35641602 -217.07275391 163.05517578 C-240.51748336 208.37138443 -245.16238742 264.22867163 -229.7578125 312.87890625 C-219.83358428 342.50850803 -204.3551766 372.67081462 -181 394 C-176 399 -176 399 -174.2578125 400.8828125 C-140.60261986 436.31601532 -87.89081001 454.52396965 -40 455.9609375 C-13.48033241 456.37202733 12.34272148 451.638005 37 442 C38.06734375 441.60167969 39.1346875 441.20335937 40.234375 440.79296875 C63.43627578 431.72371748 86.90896126 417.27123835 104 399 C106.35441898 396.61500415 108.71647125 394.26070443 111.18359375 391.9921875 C144.6092026 360.59412858 164.78588798 309.52534052 166.23304749 264.15263367 C166.8224534 240.68771954 164.42914145 218.62430172 158.89404297 195.77978516 C158.63510254 194.69358887 158.37616211 193.60739258 158.109375 192.48828125 C157.87186523 191.52446533 157.63435547 190.56064941 157.38964844 189.56762695 C156.99065577 186.93842528 157.0510156 185.46302312 158 183 C160.00390625 180.66796875 160.00390625 180.66796875 162.5625 178.1875 C163.46742188 177.30835938 164.37234375 176.42921875 165.3046875 175.5234375 C168.18971247 172.82238513 171.13441399 170.21363773 174.13671875 167.64453125 C176.00451793 165.99601248 177.75455624 164.27696419 179.5 162.5 C184.65784499 157.2597237 190.24603319 152.56932659 196 148 C206.57691504 166.7740242 212.3145178 187.87990143 216 209 C216.16371094 209.93231445 216.32742188 210.86462891 216.49609375 211.82519531 C227.29388332 276.67886118 211.59629698 345.27645339 173.875 399 C169.18179263 405.55549604 164.26774418 411.89331879 159 418 C158.36578125 418.74507813 157.7315625 419.49015625 157.078125 420.2578125 C145.26698485 433.76279833 132.51639772 446.43418743 118 457 C116.85005169 457.85649066 115.70031411 458.71326433 114.55078125 459.5703125 C106.36065742 465.61034209 97.85620382 470.99367614 89 476 C88.29278809 476.4021875 87.58557617 476.804375 86.85693359 477.21875 C74.04894981 484.42975472 60.82405625 490.03575038 47 495 C46.18563477 495.29390625 45.37126953 495.5878125 44.53222656 495.890625 C34.9705211 499.27897696 25.31300992 501.72662058 15.375 503.75 C13.91054443 504.04825684 13.91054443 504.04825684 12.41650391 504.35253906 C-3.62610653 507.44285523 -19.319328 508.37773804 -35.625 508.3125 C-36.59588562 508.31034485 -37.56677124 508.3081897 -38.56707764 508.30596924 C-52.90585186 508.25491637 -66.90546967 507.85949913 -81 505 C-82.01545898 504.80132324 -83.03091797 504.60264648 -84.07714844 504.39794922 C-132.31766466 494.74840035 -176.53871361 472.15428469 -212 438 C-212.65935547 437.36787598 -213.31871094 436.73575195 -213.99804688 436.08447266 C-223.48630305 426.94002521 -232.2262044 417.64265991 -240 407 C-240.85806152 405.84894983 -241.71613451 404.69790823 -242.57421875 403.546875 C-248.61236829 395.35569386 -253.97095521 386.84195895 -259 378 C-259.36448242 377.36819824 -259.72896484 376.73639648 -260.10449219 376.08544922 C-281.18575998 339.253702 -291.51553643 296.24139127 -291.3125 253.9375 C-291.31067719 253.13906677 -291.30885437 252.34063354 -291.30697632 251.51800537 C-291.25355327 237.51351001 -290.39247401 223.82025317 -288 210 C-287.8443457 209.07751465 -287.68869141 208.1550293 -287.52832031 207.20458984 C-277.21484199 148.46305211 -244.2532573 91.69387019 -197 55 C-195.99453125 54.20078125 -194.9890625 53.4015625 -193.953125 52.578125 C-139.68858312 9.73329722 -68.61649736 -9.9708562 0 0 Z " fill="#D69F5A" transform="translate(292,4)"/>
<path d="M0 0 C-0.52414394 3.98122861 -1.4704692 5.98760579 -4.24365234 8.87231445 C-5.27140274 9.95286858 -5.27140274 9.95286858 -6.31991577 11.05525208 C-7.44159653 12.19772652 -7.44159653 12.19772652 -8.5859375 13.36328125 C-9.35749176 14.15526413 -10.12904602 14.94724701 -10.92398071 15.76322937 C-12.56105861 17.43369031 -14.20391071 19.09850909 -15.85205078 20.75805664 C-18.35795872 23.295246 -20.82105335 25.86954486 -23.28515625 28.44726562 C-24.88292564 30.06756434 -26.48311171 31.68548424 -28.0859375 33.30078125 C-28.81348236 34.07255203 -29.54102722 34.84432281 -30.2906189 35.63948059 C-34.37146623 39.65154444 -36.99658937 41.46763523 -42.83154297 41.51123047 C-46.91606306 41.22079015 -50.95295207 40.62011218 -55 40 C-82.3845701 38.08663983 -107.53328464 45.77815034 -128.734375 63.25390625 C-147.7063048 79.78248145 -161.41695362 102.62223509 -164 128 C-165.14503182 149.53711802 -162.72401972 167.72052427 -153 187 C-152.47664063 188.04671875 -151.95328125 189.0934375 -151.4140625 190.171875 C-138.46990899 214.03963122 -115.93038429 229.80690157 -90.3125 237.5859375 C-65.05569814 244.66771082 -37.07994946 240.69322526 -14.25073242 227.97631836 C9.19321766 214.2114272 24.70026397 193.48520595 33.02734375 167.7578125 C35.63284169 157.69159153 36.2855826 148.27175566 36.1875 137.875 C36.18685547 136.56917969 36.18621094 135.26335937 36.18554688 133.91796875 C36.16086942 128.49441357 36.11763956 123.27071833 35.20703125 117.91796875 C35 114 35 114 36.78125 111.05859375 C37.6784375 110.19363281 38.575625 109.32867187 39.5 108.4375 C40.51888042 107.41861958 41.53707159 106.39904961 42.5546875 105.37890625 C43.10866211 104.84023926 43.66263672 104.30157227 44.23339844 103.74658203 C47.46459064 100.55200643 50.52884578 97.19960377 53.625 93.875 C54.26614746 93.19695312 54.90729492 92.51890625 55.56787109 91.8203125 C58.37956497 88.84466935 61.15504523 85.86416604 63.78125 82.72265625 C64.5546875 81.80355469 65.328125 80.88445312 66.125 79.9375 C66.76695312 79.14214844 67.40890625 78.34679687 68.0703125 77.52734375 C70 76 70 76 72.48828125 75.6875 C76.66012773 77.86750065 77.49897697 81.79724965 79.0625 86.0625 C79.40684082 86.96556885 79.75118164 87.8686377 80.10595703 88.79907227 C94.089197 126.39351966 92.10097954 167.66030974 75.78442383 204.14428711 C66.74132797 223.70450584 53.61790454 242.15174621 37 256 C36.21109375 256.68835938 35.4221875 257.37671875 34.609375 258.0859375 C13.38182189 276.19926875 -12.59890732 287.40005811 -40 292 C-40.93585938 292.17660156 -41.87171875 292.35320312 -42.8359375 292.53515625 C-81.22991598 298.17575309 -122.59558152 288.07297895 -154.00390625 265.16015625 C-160.08712016 260.54029368 -165.79202883 255.59595756 -171 250 C-171.78375 249.236875 -172.5675 248.47375 -173.375 247.6875 C-203.24324499 217.10810632 -217.86683783 178.07863375 -217.40429688 135.56030273 C-217.22984103 125.47545311 -216.46670753 115.78741416 -214 106 C-213.82839355 105.29955566 -213.65678711 104.59911133 -213.47998047 103.87744141 C-210.76599524 93.09668686 -206.81774025 83.00374756 -202 73 C-201.70254883 72.37383789 -201.40509766 71.74767578 -201.09863281 71.10253906 C-183.99980636 35.5924357 -151.68594316 8.37244822 -114.79882812 -4.78515625 C-78.30608103 -17.36467107 -35.17985905 -16.7606938 0 0 Z " fill="#D69F5A" transform="translate(320,117)"/>
<path d="M0 0 C-0.03410477 0.81780441 -0.06820953 1.63560883 -0.10334778 2.47819519 C-0.40948882 10.28656748 -0.60903791 18.08776078 -0.69690418 25.90139294 C-0.74561158 29.91702692 -0.83161321 33.92372139 -1.01147461 37.93579102 C-1.9921489 59.59715776 -1.9921489 59.59715776 6.81863403 78.86941528 C15.51243703 88.24073026 24.45678937 91.57458056 36.86390114 92.20209694 C43.0629533 92.38539225 49.23476974 92.18314868 55.42773438 91.90551758 C59.44997178 91.74863055 63.47328 91.7151814 67.49804688 91.66992188 C75.33790407 91.56426349 83.16589892 91.32670427 91 91 C89.70766177 93.82788646 88.33551511 95.92978269 86.17845154 98.16299438 C85.60286499 98.76300766 85.02727844 99.36302094 84.43424988 99.98121643 C83.80424576 100.62759567 83.17424164 101.27397491 82.52514648 101.93994141 C81.5269136 102.97475395 81.5269136 102.97475395 80.5085144 104.0304718 C73.53525655 111.24126936 66.49414526 118.38641593 59.44848633 125.52636719 C56.11412242 128.90966562 52.80174759 132.31241649 49.50708008 135.734375 C45.51813834 139.87704671 41.49292166 143.98105054 37.43995857 148.06107712 C35.90847823 149.61509218 34.38985963 151.18190084 32.88519096 152.76189041 C18.8356268 167.47791456 18.8356268 167.47791456 7.57623577 168.09833717 C5.37848048 168.12775314 3.19649356 168.07715857 1 168 C-0.58089713 167.96450407 -2.16183804 167.9309145 -3.74281311 167.89907837 C-4.55385655 167.8823086 -5.3649 167.86553883 -6.20052052 167.84826088 C-28.04397864 167.46808813 -43.34838081 170.17308263 -59.58653259 185.63677979 C-66.0765602 192.03309857 -72.27807589 198.65904048 -78.3873291 205.41796875 C-81.58138767 208.90857721 -84.86085903 212.3122444 -88.14715195 215.71582031 C-94.91547029 222.72642626 -101.6317217 229.78897772 -108.18652344 237 C-109.10046371 237.97888184 -109.10046371 237.97888184 -110.03286743 238.97753906 C-111.87296143 240.9705043 -111.87296143 240.9705043 -114 244 C-113.71223257 246.07514971 -113.71223257 246.07514971 -113 248 C-111.67612043 264.75710599 -114.60814376 277.22900947 -124.1875 291.1875 C-135.11832399 302.11832399 -148.26208499 308.67702439 -163.8125 309.4375 C-175.8065479 308.96867728 -186.48843929 305.2651117 -196 298 C-197.26070312 297.06414062 -197.26070312 297.06414062 -198.546875 296.109375 C-207.51500042 288.39792958 -214.09058463 276.48319248 -215.22314453 264.6730957 C-215.9148856 249.90846658 -214.29904892 237.9591134 -205 226 C-204.46375 225.30003906 -203.9275 224.60007813 -203.375 223.87890625 C-195.71347602 214.49708638 -184.07815986 207.70687074 -172 206 C-170.51288355 206.05227916 -169.02651766 206.12811102 -167.54130554 206.21972656 C-157.12509093 206.69399491 -149.93923078 205.67938192 -142.03833008 198.546875 C-139.02213335 195.6996242 -136.14195126 192.74132898 -133.26953125 189.75 C-131.69336088 188.17460651 -130.11383824 186.60256063 -128.53117371 185.03369141 C-125.24259922 181.75199875 -121.9912535 178.43858631 -118.76391602 175.09667969 C-114.64788216 170.83851689 -110.45835169 166.66295788 -106.23910999 162.50732422 C-102.97354251 159.27671333 -99.74613719 156.01000614 -96.52915001 152.7310791 C-94.99779149 151.17732488 -93.45613125 149.63364784 -91.90369606 148.10095215 C-83.08247437 139.33960509 -77.12693039 132.63739516 -76.93754578 119.82418823 C-76.95815567 118.56220612 -76.97876556 117.300224 -77 116 C-76.90604837 114.13567856 -76.80455958 112.27170186 -76.69140625 110.40844727 C-76.64598222 108.79450083 -76.6029939 107.18048391 -76.5625 105.56640625 C-75.21871815 73.15813704 -75.21871815 73.15813704 -66.62695312 63.96655273 C-63.60308197 61.29645514 -60.48427719 58.89615958 -57.15966797 56.61376953 C-54.28612036 54.46656744 -52.1761729 51.94493202 -49.8918457 49.19799805 C-45.19505695 43.7411405 -39.8622418 38.82882962 -34.73828125 33.77734375 C-30.23921175 29.31722723 -25.89553039 24.81972572 -21.77392578 20.00976562 C-18.24598881 16.01279657 -14.45442102 12.26999104 -10.6875 8.5 C-9.87732422 7.67757813 -9.06714844 6.85515625 -8.23242188 6.0078125 C-7.07129883 4.84378906 -7.07129883 4.84378906 -5.88671875 3.65625 C-5.18764404 2.95306641 -4.48856934 2.24988281 -3.76831055 1.52539062 C-2 0 -2 0 0 0 Z " fill="#D69F5A" transform="translate(420,0)"/>
</svg>
