<?xml version="1.0" encoding="UTF-8"?>
<svg version="1.1" xmlns="http://www.w3.org/2000/svg" width="1920" height="148">
<path d="M0 0 C15.05886367 0 29.98150784 0.0112468 45 0.75 C46.33996536 0.81435242 46.33996536 0.81435242 47.70700073 0.88000488 C126.2027052 4.7112766 203.27374967 17.03325583 280.46899414 31.15185547 C312.86672295 37.06938087 345.33509838 42.868002 378 47.125 C378.88650238 47.24218384 379.77300476 47.35936768 380.68637085 47.48010254 C425.58994291 53.38464576 470.71580769 57.12958776 516 58 C517.20785156 58.02336426 518.41570313 58.04672852 519.66015625 58.07080078 C601.58857218 59.39690001 681.91155192 46.83707056 762.00518799 30.85888672 C819.21799763 19.44661182 876.70816221 9.7412045 935 6 C935.70626526 5.95267731 936.41253052 5.90535461 937.14019775 5.8565979 C952.15115523 4.87634373 967.16742019 4.81242049 982.20458984 4.81469727 C984.96702698 4.81477802 987.72929644 4.80789885 990.49169922 4.79418945 C1015.78937672 4.67086237 1040.92811435 5.71616513 1066.0625 8.8125 C1067.10546234 8.93896912 1067.10546234 8.93896912 1068.16949463 9.06799316 C1109.10739503 14.05669299 1148.74607599 24.06947247 1188.56016541 34.52630615 C1241.61957828 48.45314133 1294.17037815 59.37100971 1349 63 C1349.77446472 63.05220703 1350.54892944 63.10441406 1351.34686279 63.15820312 C1447.19719621 69.54215009 1543.61626009 62.4060249 1663.45785141 50.56973648 C1742.14785503 42.73523331 1820.80483933 35.11808362 1899.76953125 30.62890625 C1900.90155472 30.56369278 1902.03357819 30.49847931 1903.1999054 30.43128967 C1904.25002304 30.37347824 1905.30014069 30.31566681 1906.38208008 30.25610352 C1907.28042068 30.20615738 1908.17876129 30.15621124 1909.10432434 30.10475159 C1912.73400987 29.97344706 1916.36794027 30 1920 30 C1920 68.94 1920 107.88 1920 148 C1286.4 148 652.8 148 0 148 C0 99.16 0 50.32 0 0 Z " fill="#0A1B2F" transform="translate(0,0)"/>
<path d="M0 0 C18.66386007 0.64358138 37.0678639 1.45533308 55.625 3.1875 C56.81488525 3.29670776 58.00477051 3.40591553 59.23071289 3.51843262 C129.7995825 10.01457534 199.57977987 21.13741582 268.9375 35.6875 C317.21968544 45.79634197 365.91847924 53.46199894 415.0625 57.875 C416.66986023 58.0213942 416.66986023 58.0213942 418.30969238 58.17074585 C452.69863378 61.25169584 487.07532403 62.34280002 521.58984375 62.26074219 C526.40428657 62.24936509 531.21850754 62.25612694 536.03294277 62.26763439 C560.19793952 62.31630717 584.25200359 61.66951725 608.38053608 60.35278606 C614.47447717 60.02109592 620.56863919 59.75530897 626.66796875 59.54296875 C650.50166598 58.67240423 674.2746187 57.18116341 698.0625 55.5 C698.83221004 55.44585812 699.60192009 55.39171623 700.39495468 55.33593369 C715.42666006 54.27839242 730.4538533 53.21728047 745.44985962 51.7244873 C767.1254067 49.58335928 788.89112731 48.27825003 810.61645508 46.75 C827.27649038 45.57879708 827.27649038 45.57879708 843.92630005 44.27235413 C873.45233645 41.83193838 903.04672957 40.21256921 932.61903572 38.44519901 C937.84058378 38.13228503 943.06133179 37.80895538 948.28173828 37.47753906 C1013.83283003 33.3406478 1080.51759442 32.28666011 1146 38 C1146.90169922 38.07732361 1147.80339844 38.15464722 1148.73242188 38.23431396 C1160.44078176 39.24370036 1172.12599362 40.415762 1183.80175781 41.74932861 C1185.94301009 41.99350129 1188.0847171 42.23326117 1190.2265625 42.47216797 C1216.20928389 45.39074968 1242.02346785 49.56702365 1267.6784668 54.6015625 C1274.99173499 56.03013864 1282.33447111 57.25456457 1289.69238281 58.43017578 C1296.03187781 59.45744009 1302.335604 60.63015292 1308.640625 61.84765625 C1343.09924618 68.47651045 1377.78723053 74.14764956 1412.6975708 77.75714111 C1414.90778626 77.99027335 1417.11575215 78.23834329 1419.32373047 78.49169922 C1469.02336707 84.12179217 1521.31475386 83.13588067 1571 78 C1573.0411919 77.79225452 1575.08247646 77.58543322 1577.12376022 77.37859249 C1596.66650296 75.39681164 1616.1989975 73.32321901 1635.72838974 71.21440601 C1648.4201809 69.84411498 1661.11530547 68.50678832 1673.8125 67.1875 C1674.76941742 67.08798035 1675.72633484 66.98846069 1676.71224976 66.88592529 C1688.61813656 65.64880692 1700.52532769 64.42518204 1712.4375 63.25 C1713.59161377 63.13422607 1714.74572754 63.01845215 1715.93481445 62.89916992 C1719.28822388 62.57404028 1722.6423788 62.27822006 1726 62 C1727.1562085 61.90283691 1728.31241699 61.80567383 1729.50366211 61.70556641 C1743.12396715 60.73299486 1756.77048439 60.84762617 1770.41772461 60.86962891 C1773.95941222 60.87529836 1777.50102435 60.87194122 1781.04270935 60.86621189 C1803.56080438 60.8348433 1825.79579511 61.20152481 1848.125 64.3125 C1848.94683777 64.42459808 1849.76867554 64.53669617 1850.61541748 64.65219116 C1874.00774382 67.84781622 1898.07703511 71.87108349 1920 81 C1920 81.99 1920 82.98 1920 84 C1286.4 84 652.8 84 0 84 C0 56.28 0 28.56 0 0 Z " fill="#FEFEFE" transform="translate(0,64)"/>
</svg>
