<?xml version="1.0" encoding="UTF-8"?>
<svg version="1.1" xmlns="http://www.w3.org/2000/svg" width="512" height="512">
<path d="M0 0 C4.24937666 3.6827931 6.73305901 6.50130815 7.3359375 12.14453125 C7.42643792 20.64252095 6.34685601 27.81659897 3.875 35.953125 C2.86198856 38.95223767 2.86198856 38.95223767 3 42 C3.89460937 42.40089844 4.78921875 42.80179688 5.7109375 43.21484375 C26.86987034 53.02342608 39.75645939 71.71490225 49 92.5625 C49.29084473 93.21694092 49.58168945 93.87138184 49.88134766 94.5456543 C51.56197993 98.49783771 52.27605554 101.65633322 53 106 C99.53 106 146.06 106 194 106 C194.33 104.35 194.66 102.7 195 101 C195.42644252 99.58450104 195.88146839 98.17732284 196.36352539 96.77978516 C196.63793961 95.98190582 196.91235382 95.18402649 197.19508362 94.36196899 C198.46768913 90.73423325 199.74954878 87.10999369 201.04467773 83.49023438 C201.72070151 81.58718448 202.38681047 79.68058207 203.04272461 77.77050781 C203.99592052 74.99696415 204.98073839 72.23646002 205.97265625 69.4765625 C206.39817528 68.20904648 206.39817528 68.20904648 206.83229065 66.91592407 C210.19203317 57.80281009 217.43004502 53.143001 225.25 47.9375 C226.65686188 46.9852784 228.06308154 46.03210744 229.46875 45.078125 C230.20480469 44.57990234 230.94085938 44.08167969 231.69921875 43.56835938 C235.74236503 40.81229277 239.74492217 37.99847129 243.75 35.1875 C244.58950195 34.5989624 245.42900391 34.0104248 246.29394531 33.40405273 C248.00797135 32.20237498 249.72183788 31.00046968 251.43554688 29.79833984 C256.44308682 26.28676909 261.45447146 22.78068554 266.46606445 19.27490234 C270.82344724 16.22615262 275.1776223 13.17295385 279.52734375 10.11328125 C280.43291016 9.47712891 281.33847656 8.84097656 282.27148438 8.18554688 C284.00422945 6.96818239 285.73605295 5.74950475 287.46679688 4.52929688 C299.51167744 -3.92690322 299.51167744 -3.92690322 306 -3 C308.9375 -0.9375 308.9375 -0.9375 311 2 C311.62189384 5.86956168 311.64801456 7.98070919 309.52734375 11.31640625 C306.07544069 14.98171909 302.15492557 17.61990139 298 20.4375 C296.18736344 21.68599967 294.37486731 22.93470325 292.5625 24.18359375 C291.17417969 25.13468018 291.17417969 25.13468018 289.7578125 26.10498047 C285.48491202 29.04108648 281.24330574 32.02136413 277 35 C275.33350182 36.16690732 273.66683463 37.33357331 272 38.5 C271.175 39.0775 270.35 39.655 269.5 40.25 C262 45.5 262 45.5 259.49633789 47.25048828 C257.83926942 48.41181372 256.18477873 49.57682653 254.53295898 50.74560547 C250.23385187 53.78021941 245.90138403 56.7275428 241.47265625 59.5703125 C231.54887419 66.01975288 225.14587615 70.22125441 222 82 C220.45870232 86.27392952 218.81430334 90.50801841 217.1875 94.75 C216.3866 96.88960773 215.58821677 99.03016012 214.79296875 101.171875 C214.27512817 102.5655127 214.27512817 102.5655127 213.74682617 103.98730469 C213.50037354 104.65149414 213.2539209 105.31568359 213 106 C214.97407837 105.9685791 214.97407837 105.9685791 216.98803711 105.93652344 C221.90247583 105.863751 226.81686756 105.81806522 231.73168945 105.78027344 C233.85286487 105.76024254 235.97398565 105.73300975 238.0949707 105.69824219 C241.15589941 105.64934786 244.21609376 105.62694548 247.27734375 105.609375 C248.21521225 105.58872986 249.15308075 105.56808472 250.11936951 105.54681396 C257.78540329 105.54424125 263.27415145 107.71368385 269.75 111.6875 C274.1911515 116.25201681 277.0729189 121.69443747 278 128 C277.96196427 130.58106558 277.8633157 133.10314295 277.68434143 135.67382812 C277.61191313 136.79150951 277.61191313 136.79150951 277.53802162 137.93177032 C276.95665866 146.38768216 276.01694755 154.79982097 275.05053711 163.21875 C274.85294578 164.97013393 274.65576903 166.72156468 274.45896912 168.47303772 C274.03865621 172.2064512 273.61560643 175.93954005 273.19035149 179.6723938 C272.51729587 185.58172664 271.85135176 191.4918483 271.18641663 197.40209961 C269.53537788 212.06727593 267.87430173 226.73131353 266.21295166 241.39532471 C264.91812346 252.82568594 263.62571919 264.25631168 262.33998877 275.68770027 C261.67953699 281.55729926 261.01433351 287.42633379 260.34543788 293.29497623 C259.93039294 296.94535252 259.51950641 300.59618825 259.10973549 304.24715996 C258.91960467 305.93355391 258.72776548 307.61975632 258.53404999 309.30574226 C258.10970625 313.00235327 257.70181509 316.69747909 257.35663891 320.40239143 C257 324 257 324 256.52920246 326.66460991 C256.03632102 330.51939081 256.51959718 332.31954229 258.78785038 335.53236771 C261.48082592 338.56787958 264.31164952 341.38032192 267.23364258 344.19189453 C268.33416861 345.28332654 269.43268634 346.37678675 270.52934265 347.47210693 C272.89011088 349.82139209 275.26436867 352.15578031 277.65024757 354.47955704 C281.4248414 358.15611682 285.16733919 361.86424911 288.90617371 365.57711792 C294.82486268 371.44721435 300.76440479 377.29568433 306.71322507 383.13522899 C317.36275489 393.58980621 327.98360501 404.07340016 338.58604354 414.57572258 C342.30598372 418.25867668 346.03720082 421.92969594 349.77810442 425.59135079 C352.10604342 427.87342004 354.42581734 430.16366223 356.74371529 432.45592499 C357.81768734 433.51446287 358.89513528 434.56948789 359.97633743 435.6206398 C361.45610978 437.06011916 362.92286901 438.51174998 364.38728333 439.96682739 C365.21044446 440.77461199 366.03360559 441.58239658 366.88171101 442.4146595 C370.1387801 446.38986433 371.78206801 450.28767718 372.4375 455.4375 C371.47607248 463.26626692 367.69490615 467.9616076 361.73046875 472.93359375 C346.05462722 484.79699885 328.98479005 492.9875276 310 498 C309.33516602 498.17934082 308.67033203 498.35868164 307.98535156 498.54345703 C285.42267925 504.3365756 259.3258963 502.60904912 237.296875 495.453125 C233.12186633 494.62948383 229.90901585 495.80536002 226.375 498 C221.66868653 500.7889265 218.60966248 501.12975874 213.21470642 501.15390015 C212.52091135 501.1582824 211.82711628 501.16266465 211.11229712 501.1671797 C208.78181186 501.18056001 206.45136442 501.1867449 204.12084961 501.19287109 C202.45192291 501.20077286 200.78299791 501.20904186 199.11407471 501.21765137 C193.62684765 501.24386959 188.13961298 501.25918189 182.65234375 501.2734375 C180.76210589 501.27879785 178.87186808 501.28417536 176.98163033 501.28956985 C169.11603805 501.31120103 161.25044783 501.32993587 153.38483334 501.34119225 C142.12128474 501.35741814 130.85808184 501.39056016 119.59466356 501.44759309 C111.67094546 501.48634309 103.74731962 501.5058311 95.82350928 501.51111281 C91.09355153 501.51476022 86.36396252 501.52671585 81.63410759 501.55921555 C77.17951635 501.58938419 72.72551523 501.59557684 68.27084351 501.58383179 C66.64149839 501.58361176 65.01212521 501.59185749 63.38287544 501.60948563 C55.15686804 501.69359803 48.24115946 501.61254875 40.98803043 497.17089272 C38.93295083 495.96050997 37.35556079 495.34208334 35 495 C31.62607738 495.939804 31.62607738 495.939804 28.0625 497.375 C20.70515355 500.19203746 14.68737914 501.2185634 6.875 501.25 C6.02768311 501.25394775 5.18036621 501.25789551 4.30737305 501.26196289 C-1.40630236 501.2089725 -6.27116346 500.3916101 -11.71875 498.609375 C-16.58384951 497.30979363 -20.8984296 498.69146644 -25.66796875 500.02734375 C-42.70110355 504.28710039 -60.18801142 499.71768265 -75 491 C-105.46871772 471.30990944 -123.91389788 438.43153695 -131.83911133 403.62426758 C-136.12168593 382.65233392 -136.8443497 357.42958199 -130 337 C-129.78037598 336.30825684 -129.56075195 335.61651367 -129.33447266 334.90380859 C-122.70470431 314.32009045 -110.75933071 299.66395125 -91.58203125 289.75 C-91.05996094 289.5025 -90.53789063 289.255 -90 289 C-90.83402344 288.3709375 -91.66804688 287.741875 -92.52734375 287.09375 C-95.47346841 284.86101308 -98.3957256 282.59921873 -101.30664062 280.32080078 C-102.79491867 279.15996107 -104.29499676 278.0142832 -105.796875 276.87109375 C-110.42685104 273.12626019 -113.20734076 270.21388756 -113.9765625 264.1640625 C-114.02227808 259.9429909 -113.47147455 256.73718018 -110.68310547 253.4453125 C-105.71975313 248.84956077 -101.15157623 247.67562728 -94.5625 246.6875 C-93.65951172 246.53216797 -92.75652344 246.37683594 -91.82617188 246.21679688 C-89.22146904 245.77733579 -86.61359064 245.38253369 -84 245 C-82.77410156 244.80664062 -81.54820313 244.61328125 -80.28515625 244.4140625 C-74.52403942 243.73221755 -68.71534451 243.7388129 -62.92089844 243.70483398 C-61.56760151 243.6933681 -60.21434787 243.67300218 -58.86132812 243.64331055 C-40.83858465 243.24988724 -25.84740696 248.47784684 -12 260 C-11.34 260.66 -10.68 261.32 -10 262 C-8.96939453 260.84371094 -8.96939453 260.84371094 -7.91796875 259.6640625 C-7.00798599 258.65088582 -6.09782013 257.63787357 -5.1875 256.625 C-4.73568359 256.11710937 -4.28386719 255.60921875 -3.81835938 255.0859375 C-1.64829248 252.67827204 0.28592791 250.80938139 3 249 C3.26021101 246.10992014 3.26021101 246.10992014 2.87890625 242.58984375 C2.82416641 241.89882065 2.76942657 241.20779755 2.71302795 240.49583435 C1.6234049 227.59376364 0.00298735 214.73102774 -1.49145508 201.87133789 C-1.90606605 198.29099694 -2.31458833 194.70999793 -2.72265625 191.12890625 C-2.85076187 190.04436661 -2.97886749 188.95982697 -3.1108551 187.84242249 C-3.79195661 181.84811306 -4.12871185 176.03292501 -4 170 C-4.6592749 169.85224121 -5.3185498 169.70448242 -5.99780273 169.55224609 C-25.05043781 165.12613327 -42.33329295 154.68888491 -57 142 C-58.02673828 141.16855469 -58.02673828 141.16855469 -59.07421875 140.3203125 C-66.18967463 134.02963441 -69.88082765 125.39090664 -74 117 C-74.80824219 117.27714844 -75.61648437 117.55429688 -76.44921875 117.83984375 C-78.05216797 118.38318359 -78.05216797 118.38318359 -79.6875 118.9375 C-81.27111328 119.47697266 -81.27111328 119.47697266 -82.88671875 120.02734375 C-90.81784203 122.50519782 -100.65138746 123.89840298 -108.65234375 121.05859375 C-113.17698285 118.37077276 -116.06626972 115.23825608 -117.55078125 110.08984375 C-120.60712419 95.87120485 -114.39369011 80.87305402 -107 69 C-100.30048333 59.58016123 -88.88454103 54.85632542 -78 52 C-81.58019126 48.19099953 -85.33106 45.18623009 -89.75 42.375 C-90.67099487 41.78090332 -90.67099487 41.78090332 -91.6105957 41.17480469 C-95.71802062 38.60059581 -99.61426727 36.97222703 -104.2890625 35.66015625 C-106 35 -106 35 -108.0625 32.6875 C-109.18390608 29.47280257 -109.49312987 27.38146194 -109 24 C-107.5 21.1875 -107.5 21.1875 -105 19 C-98.06449701 16.96718016 -93.26017231 18.70608013 -87 22 C-78.46414353 27.00377793 -70.56278653 32.60474042 -63 39 C-62.93683594 38.42894531 -62.87367187 37.85789063 -62.80859375 37.26953125 C-61.25277389 26.96836607 -56.27246588 16.96082143 -48.5703125 9.84765625 C-35.61571787 0.53531087 -15.18713856 -8.30994374 0 0 Z M-38 25 C-44.39074776 32.5950344 -46.4626405 41.28454943 -46 51 C-36.50353086 51.13566384 -28.76218869 48.23828685 -21 43 C-14.38480732 36.39585105 -10.87814883 27.69713342 -10.8125 18.375 C-10.874375 17.26125 -10.93625 16.1475 -11 15 C-20.57181767 14.5391347 -30.92566342 18.59165745 -38 25 Z M-19.5625 61.3125 C-26.4655445 65.05496772 -33.24940137 66.71318286 -41 68 C-42.66777955 68.3277198 -44.33490173 68.65891842 -46 69 C-46.15855469 70.01578125 -46.31710938 71.0315625 -46.48046875 72.078125 C-48.15587379 82.18229567 -50.62493646 91.26239199 -55.875 100.1875 C-57.88111354 105.20278385 -56.91961891 109.60386149 -55.01953125 114.5546875 C-51.08130382 122.94094526 -45.60267207 129.04817779 -38.125 134.4375 C-37.16303711 135.13637329 -37.16303711 135.13637329 -36.18164062 135.84936523 C-27.27696908 142.13457205 -17.5778463 147.26011971 -7 150 C-7.06900513 149.12432373 -7.06900513 149.12432373 -7.1394043 148.23095703 C-7.34124135 145.53001993 -7.5144688 142.82792951 -7.6875 140.125 C-7.76033203 139.2071875 -7.83316406 138.289375 -7.90820312 137.34375 C-8.36482018 129.71555916 -7.38363298 123.08799231 -3.4921875 116.4140625 C-2.95851562 115.82367188 -2.42484375 115.23328125 -1.875 114.625 C-1.35679687 114.01914063 -0.83859375 113.41328125 -0.3046875 112.7890625 C6.90230411 107.19448257 14.15634379 106.37361857 23.0625 106.25 C24.64708008 106.20552734 24.64708008 106.20552734 26.26367188 106.16015625 C28.84252138 106.09014224 31.42050303 106.03711046 34 106 C33.18745155 101.42352692 31.57469626 97.57256041 29.5 93.4375 C29.14760254 92.73439697 28.79520508 92.03129395 28.43212891 91.30688477 C24.97171688 84.61325947 20.76789286 78.84133965 16 73 C15.48824219 72.31292969 14.97648437 71.62585938 14.44921875 70.91796875 C9.50529311 64.5256818 1.90038355 59.75564079 -6 58 C-11.60157843 57.57787148 -14.71354668 58.54739439 -19.5625 61.3125 Z M-91 78 C-96.78141896 85.54454673 -100.30942755 94.42493634 -100 104 C-90.26713874 104.63822041 -81.44791839 102.10970793 -73.78515625 95.89453125 C-67.56894317 89.2974561 -64.19548739 80.47364684 -63.875 71.5 C-63.91625 70.675 -63.9575 69.85 -64 69 C-73.68540611 68.3648914 -83.99466965 70.83665468 -91 78 Z M10 127 C7.73480079 136.92540899 9.54436027 147.67493106 10.44433594 157.69824219 C10.64759171 160.14315589 10.81576934 162.59124689 10.94824219 165.04101562 C11.20860774 178.48242308 11.20860774 178.48242308 16.93548584 190.07019043 C21.45911979 193.40718145 26.35935344 195.45082623 31.6701355 197.20794678 C35.12070695 198.38099192 38.3333949 199.93930071 41.625 201.5 C56.20754354 207.81787781 75.08018064 208.64132473 90 203 C93.13783605 201.69619001 96.25613333 200.34843501 99.375 199 C111.11055184 193.94989311 121.64741607 191.77483502 134.4375 191.625 C135.3543457 191.61082031 136.27119141 191.59664063 137.21582031 191.58203125 C145.39775095 191.63950881 153.04233268 193.21991544 161 195 C165.29329049 183.46828256 169.58516462 171.93603961 173.87445068 160.40283203 C175.76002777 155.33291629 177.64651451 150.26334207 179.53457642 145.1943512 C180.69102504 142.08838645 181.84539962 138.98165227 183 135.875 C183.41427246 134.76406982 183.82854492 133.65313965 184.25537109 132.50854492 C184.8095874 131.015448 184.8095874 131.015448 185.375 129.4921875 C185.85066406 128.21384033 185.85066406 128.21384033 186.3359375 126.90966797 C187.05474095 125.17955178 187.05474095 125.17955178 187 124 C164.51270685 123.92996363 142.02543164 123.87703818 119.53805161 123.84456348 C109.09710803 123.82908511 98.65623216 123.80797705 88.21533203 123.77368164 C79.11657264 123.743809 70.01786229 123.72443206 60.91905522 123.71773452 C56.09991338 123.71381864 51.28091182 123.70459564 46.46181488 123.68280983 C41.92778437 123.6624784 37.39395221 123.65615942 32.85988045 123.66067696 C31.1941654 123.65985025 29.52844386 123.65386469 27.86276817 123.64238358 C25.59118938 123.62749148 23.32036273 123.63103396 21.04876709 123.63923645 C19.77669277 123.63647107 18.50461845 123.63370569 17.19399643 123.63085651 C13.7666764 124.02696618 12.3600048 124.51712661 10 127 Z M206 124 C201.00510514 136.69080643 196.19879056 149.44505599 191.48339844 162.2421875 C190.37091844 165.26107596 189.2559549 168.27903841 188.140625 171.296875 C184.36917178 181.5109921 180.62673119 191.73349276 177 202 C194.41689947 208.23479253 213.17320946 208.35360185 230.15380859 200.55078125 C242.87363033 195.38528155 242.87363033 195.38528155 254 188 C254.26912731 186.45146487 254.47912271 184.89258737 254.66430664 183.33178711 C254.78435562 182.33662582 254.9044046 181.34146454 255.02809143 180.31614685 C255.21721352 178.68818932 255.21721352 178.68818932 255.41015625 177.02734375 C255.54191757 175.9157338 255.67367889 174.80412384 255.80943298 173.65882874 C256.08808197 171.29762673 256.36450851 168.93616158 256.63891602 166.57446289 C257.05795134 162.97655559 257.48647082 159.37986899 257.91601562 155.78320312 C258.18547329 153.4896511 258.45437114 151.19603323 258.72265625 148.90234375 C258.85076187 147.83120834 258.97886749 146.76007294 259.1108551 145.65647888 C259.44220598 142.77309108 259.73402666 139.89007621 260 137 C260.08385956 136.2274588 260.16771912 135.4549176 260.25411987 134.65896606 C260.49235131 131.05593251 260.08168356 129.13478729 258.20043945 126.03051758 C253.45601927 123.02042202 249.2991353 123.3758743 243.79296875 123.51171875 C242.71243729 123.51879349 241.63190582 123.52586823 240.51863098 123.53315735 C237.07421055 123.56110153 233.63142745 123.62384367 230.1875 123.6875 C227.84963288 123.71258267 225.51174024 123.73539589 223.17382812 123.75585938 C217.44866199 123.81092824 211.72444797 123.89455581 206 124 Z M101.23022461 216.43823242 C81.94136629 224.59462656 58.87928127 226.38209803 39 219 C33.1075449 216.5123513 27.37673561 213.70870396 21.70141602 210.76269531 C20.00658683 209.86364929 20.00658683 209.86364929 18 210 C18.69292534 223.27201475 20.16990854 236.4438065 21.63623047 249.64868164 C21.90761549 252.11400689 22.17874702 254.57936006 22.449646 257.04473877 C23.25799181 264.39088966 24.07186993 271.73641886 24.88672704 279.08184949 C25.27133325 282.55025218 25.65521636 286.0187349 26.03915787 289.48721123 C27.3165687 301.02512243 28.59540459 312.56287403 29.87893486 324.10010624 C29.96073817 324.83544048 30.04254148 325.57077472 30.12682367 326.32839182 C30.20880774 327.0653495 30.2907918 327.80230719 30.37526023 328.56159693 C30.54135475 330.05465479 30.70744639 331.54771298 30.87353516 333.04077148 C30.99711233 334.15165337 30.99711233 334.15165337 31.12318601 335.28497731 C32.46132833 347.31651877 33.78938003 359.34915151 35.11322854 371.38227326 C36.47535319 383.76189629 37.84611782 396.14053807 39.22548211 408.51825231 C39.99865434 415.45819319 40.76808062 422.39850408 41.52788925 429.33992195 C42.24133806 435.8574687 42.9665266 442.37363311 43.69972992 448.88899231 C43.96696665 451.2806848 44.23025704 453.67282199 44.48933029 456.06541252 C44.84325925 459.32839276 45.21131121 462.5894787 45.58297729 465.85047913 C45.6825032 466.7993983 45.78202911 467.74831748 45.88457096 468.72599179 C46.46378909 473.66313881 47.10374754 477.81564213 50 482 C53.74080262 484.22920605 57.19557014 484.24745657 61.485672 484.24050903 C63.4522728 484.24463303 63.4522728 484.24463303 65.45860291 484.24884033 C66.90445038 484.24176289 68.35029693 484.23449328 69.79614258 484.22705078 C71.32395419 484.22648642 72.85176634 484.22680371 74.37957764 484.22793579 C78.52175906 484.22850935 82.66382453 484.21675455 86.80597901 484.20278788 C91.13681592 484.19028103 95.46765551 484.18911005 99.79850769 484.18673706 C107.99716323 484.18052216 116.1957654 484.1641112 124.39439744 484.14403808 C133.72927387 484.1216794 143.06415286 484.11068573 152.3990494 484.10064721 C171.59939652 484.07974499 190.79969397 484.0445688 210 484 C207.24183295 481.13264386 204.25568023 479.08184692 200.9375 476.875 C194.81441109 472.71307311 189.35303669 468.12524789 184 463 C182.80310547 461.91525391 182.80310547 461.91525391 181.58203125 460.80859375 C160.70348994 441.19139516 146.85237781 411.45156603 144 383 C143.86722656 381.69546875 143.73445313 380.3909375 143.59765625 379.046875 C140.65342795 344.64976574 150.12946633 309.86936601 171.640625 282.734375 C176.71177123 276.85721877 179.93621453 273.3997166 187.8125 272.625 C197.19444432 272.94837676 203.1496853 279.61400364 209.27734375 285.921875 C210.12929825 286.78186096 210.98125275 287.64184692 211.85902405 288.52789307 C214.56151644 291.25925138 217.2499387 294.0039559 219.9375 296.75 C222.65266739 299.50761811 225.37064676 302.26240959 228.09095764 305.01495361 C229.77947188 306.72524533 231.46448786 308.43899885 233.14573669 310.15643311 C234.27810509 311.30828094 234.27810509 311.30828094 235.43334961 312.48339844 C236.09983017 313.16416443 236.76631073 313.84493042 237.45298767 314.54632568 C238.76765286 316.11413011 238.76765286 316.11413011 240 316 C241.43876465 303.21340502 242.87336348 290.42635017 244.30266571 277.63869381 C244.96649817 271.70071081 245.63175722 265.76289492 246.30029297 259.82543945 C246.94557259 254.0940539 247.58708332 248.36225785 248.22599792 242.63015938 C248.47025242 240.44478928 248.71585794 238.25956973 248.96284485 236.07450676 C249.30890034 233.01091654 249.65012165 229.94682323 249.99023438 226.88256836 C250.14452156 225.53173409 250.14452156 225.53173409 250.30192566 224.15361023 C250.82398799 219.4007725 251.10469187 214.78142658 251 210 C246.46604356 211.38977117 242.41623006 213.2396545 238.1875 215.375 C218.71317558 224.65205322 197.74006432 225.438631 177 220 C175.00177745 219.65617193 173.00194138 219.32146825 171 219 C166.59346004 229.09295473 162.84523782 239.41362793 159.07467651 249.75619507 C157.08681796 255.20806906 155.08966361 260.65653969 153.09375 266.10546875 C152.46907082 267.81187279 152.46907082 267.81187279 151.83177185 269.55274963 C147.23256514 282.10960533 142.58670623 294.64908967 137.9375 307.1875 C137.08899527 309.47663103 136.24052524 311.76577492 135.39208984 314.05493164 C134.13404067 317.44921495 132.8759716 320.84349085 131.61776733 324.23771667 C127.59373729 335.09390602 123.5764365 345.95257513 119.5625 356.8125 C119.05905563 358.17421829 119.05905563 358.17421829 118.54544067 359.56344604 C114.43025879 370.69501488 110.32512688 381.83024277 106.23023033 392.96928978 C105.51993494 394.90124574 104.8094244 396.83312243 104.09883118 398.76496887 C103.86448585 399.40207511 103.63014051 400.03918135 103.38869381 400.69559383 C102.91609171 401.98042135 102.44347934 403.26524509 101.97085667 404.55006504 C100.38446029 408.86320525 98.80054229 413.17725094 97.21704102 417.49145508 C96.37166175 419.79132738 95.52588776 422.09105464 94.6796875 424.390625 C94.27703171 425.48485275 93.87437592 426.57908051 93.45951843 427.70646667 C90.72705623 435.10345031 87.9169726 442.46649215 84.98580933 449.78717041 C83.50687537 453.28510574 83.50687537 453.28510574 83 457 C79.28759918 458.23746694 75.85825935 458.54341681 72 458 C69.5 456.4375 69.5 456.4375 68 454 C67.23642568 447.31651145 69.53521508 441.92976393 71.890625 435.74609375 C72.30223877 434.63797333 72.71385254 433.52985291 73.13793945 432.38815308 C74.26305504 429.36533382 75.39809502 426.34647199 76.53749084 423.32901382 C77.74019572 420.13616657 78.92961584 416.93837979 80.12011719 413.7409668 C82.09630961 408.43739257 84.0791907 403.13636703 86.06640625 397.83691406 C90.08117015 387.12698921 94.04324773 376.39759397 98.00863647 365.66931152 C100.08214529 360.06226882 102.16041626 354.45699201 104.23828125 348.8515625 C116.12402442 316.78036036 127.9615396 284.6913926 139.78295898 252.59643555 C140.20679367 251.44591202 140.63062836 250.29538849 141.06730652 249.11000061 C141.89235215 246.86930501 142.71676042 244.62837461 143.54048157 242.38719177 C145.40240652 237.32322022 147.27277653 232.26292948 149.17089844 227.21240234 C149.5017746 226.32783859 149.83265076 225.44327484 150.17355347 224.53190613 C150.78302853 222.9041656 151.39630781 221.27784212 152.01419067 219.65327454 C153.14289755 216.63108035 154 214.25449674 154 211 C135.41603071 206.27398552 118.58748401 209.06029327 101.23022461 216.43823242 Z M-76.8125 261.875 C-77.53002441 261.95339111 -78.24754883 262.03178223 -78.98681641 262.11254883 C-83.20711724 262.62545651 -87.01881975 263.51252606 -91 265 C-83.27500142 273.06331969 -73.90597705 278.70700812 -64.125 283.9375 C-63.42407227 284.31487305 -62.72314453 284.69224609 -62.00097656 285.08105469 C-51.49371114 290.55681249 -39.50525697 291.98170345 -27.8984375 289.27734375 C-24.41388458 287.87557735 -22.4873306 286.66137724 -20.25 283.625 C-19.88620219 279.80512296 -20.85869641 278.17951139 -23 275 C-32.673245 264.47166152 -45.88986079 261.55974747 -59.55859375 260.87109375 C-65.36247581 260.73858503 -71.05244191 261.22929514 -76.8125 261.875 Z M6 271 C-0.20291911 279.8004802 -6.48408833 289.86596835 -6 301 C-3.68628057 299.85657478 -1.37400323 298.71038936 0.9375 297.5625 C1.9265332 297.07426758 1.9265332 297.07426758 2.93554688 296.57617188 C6.18290035 295.10888654 6.18290035 295.10888654 9 293 C8.93440606 290.60880275 8.80689666 288.25784624 8.625 285.875 C8.53476563 284.57304687 8.44453125 283.27109375 8.3515625 281.9296875 C8.02241592 278.25056023 7.55918985 274.6489507 7 271 C6.67 271 6.34 271 6 271 Z M188 290 C173.70702301 307.07651081 164.59509358 327.02678805 161 349 C160.86980469 349.75796875 160.73960937 350.5159375 160.60546875 351.296875 C156.43977844 380.84550495 165.00329191 411.52838581 182.5 435.4375 C201.87797975 460.03004028 227.65420309 477.79544214 259.0625 482.65625 C292.15286377 486.52852661 322.84344978 478.85469197 349.76171875 459.05078125 C350.50035156 458.37402344 351.23898437 457.69726562 352 457 C352 452.86218946 350.28490393 451.79080004 347.5 448.8125 C346.6646875 447.91144531 345.829375 447.01039063 344.96875 446.08203125 C344.3190625 445.39496094 343.669375 444.70789063 343 444 C342.46632813 444.36351562 341.93265625 444.72703125 341.3828125 445.1015625 C316.23437474 462.07023157 290.1542244 470.7312852 259.58984375 465.74609375 C234.07780924 460.44381019 210.4190141 446.78596536 195.16015625 425.3515625 C187.76698395 413.88078162 182.34427121 402.23656925 179 389 C178.75507813 388.03320312 178.51015625 387.06640625 178.2578125 386.0703125 C173.04760308 360.8757382 178.48122769 333.68982387 192 312 C194.2626568 308.61287134 196.59155012 305.28489762 199 302 C197.52651292 298.57472113 195.59092154 296.35044942 192.9375 293.75 C191.86822266 292.69039063 191.86822266 292.69039063 190.77734375 291.609375 C189.27607496 289.88813135 189.27607496 289.88813135 188 290 Z M-97 315 C-97.68835938 315.63550781 -98.37671875 316.27101563 -99.0859375 316.92578125 C-110.68668727 328.72654395 -116.3693336 347.70778478 -117 364 C-117.07734375 365.66289062 -117.07734375 365.66289062 -117.15625 367.359375 C-118.01640563 403.05583349 -105.24443484 437.50142872 -80.82543945 463.55786133 C-69.95579057 474.81690218 -56.37432056 482.96493345 -40.44140625 484.0390625 C-34.72879215 483.94766067 -29.62209155 482.73990141 -24.4375 480.375 C-19.47990708 478.39196283 -14.84681749 477.83194522 -9.80078125 479.90234375 C-9.04152344 480.26457031 -8.28226562 480.62679687 -7.5 481 C2.60607767 485.40763512 14.59980489 483.83210435 24.6796875 480.16796875 C27.12760187 478.93576943 28.38849394 478.20950361 30 476 C30.16391793 472.99842068 30.16391793 472.99842068 29.68414307 469.54051208 C29.61390796 468.88190801 29.54367286 468.22330394 29.47130942 467.54474217 C29.23122281 465.33174457 28.96762597 463.12218518 28.70410156 460.91186523 C28.52742477 459.3286371 28.3521866 457.74524786 28.17828369 456.16171265 C27.70122555 451.85639127 27.20371798 447.55365119 26.70238972 443.25109744 C26.18170475 438.75428906 25.67902472 434.25546871 25.17425537 429.7568512 C24.32400052 422.20227261 23.46159695 414.64916328 22.59082031 407.09692383 C21.36177212 396.4370111 20.15621027 385.77453486 18.9545598 375.11150444 C18.1224621 367.73638337 17.28430821 360.36194872 16.4453001 352.98761106 C16.2416176 351.19662472 16.03815622 349.40561322 15.8349123 347.61457705 C15.2555701 342.50984251 14.67253911 337.40555975 14.08321381 332.30196762 C13.90493983 330.75328843 13.7279579 329.20445989 13.55233765 327.65547752 C13.31305717 325.54738999 13.06907679 323.43990029 12.8237915 321.33250427 C12.68807865 320.15097495 12.5523658 318.96944563 12.41254044 317.75211239 C12.15217515 315.04628409 12.15217515 315.04628409 11 313 C6.65328707 314.41367259 2.3864361 315.97260641 -1.875 317.625 C-3.02742188 318.07101562 -4.17984375 318.51703125 -5.3671875 318.9765625 C-6.23601562 319.31429688 -7.10484375 319.65203125 -8 320 C-8.01417969 321.18078125 -8.02835937 322.3615625 -8.04296875 323.578125 C-8.08987629 325.13545542 -8.13812365 326.6927459 -8.1875 328.25 C-8.19620117 329.41595703 -8.19620117 329.41595703 -8.20507812 330.60546875 C-8.36275182 334.70498492 -8.47615364 336.42508962 -11.32421875 339.55078125 C-14.98421675 341.53305754 -17.04727002 341.09798055 -21 340 C-23.82765805 338.02063936 -24.3385814 336.29597673 -25 333 C-25.2198223 330.75292759 -25.40483987 328.50228762 -25.5625 326.25 C-25.64628906 325.07953125 -25.73007813 323.9090625 -25.81640625 322.703125 C-25.87699219 321.81109375 -25.93757813 320.9190625 -26 320 C-26.59425781 319.78085937 -27.18851562 319.56171875 -27.80078125 319.3359375 C-32.51022173 317.534192 -36.9274727 315.55809642 -41.3125 313.0625 C-60.08046775 302.52891126 -80.11441088 299.15790234 -97 315 Z M212 314 C201.88520797 326.59472726 196.04548928 341.0208808 194 357 C214.66935674 358.15517363 235.3065423 358.10567841 256 358 C251.37936741 352.45569952 246.463966 347.31781443 241.35546875 342.22265625 C240.13988029 341.00563271 240.13988029 341.00563271 238.8997345 339.76402283 C237.19911444 338.06272598 235.49724579 336.3626764 233.79418945 334.66381836 C231.17477713 332.04980335 228.56079589 329.43044145 225.94726562 326.81054688 C224.29198759 325.15592889 222.63639978 323.50162073 220.98046875 321.84765625 C220.19512253 321.0602858 219.40977631 320.27291534 218.60063171 319.46168518 C217.87930557 318.7435112 217.15797943 318.02533722 216.41479492 317.28540039 C215.77781174 316.6492128 215.14082855 316.01302521 214.48454285 315.3575592 C213.21228514 313.8875266 213.21228514 313.8875266 212 314 Z M194 375 C198.50786835 398.93559804 198.50786835 398.93559804 213 418 C218.4790434 412.54407957 223.95541999 407.08549486 229.42835999 401.62345219 C231.96947564 399.08756546 234.51151741 396.55262152 237.05566406 394.01977539 C239.97735598 391.11098062 242.89503627 388.19819184 245.8125 385.28515625 C246.73119873 384.3716188 247.64989746 383.45808136 248.59643555 382.51686096 C249.43730713 381.67606491 250.27817871 380.83526886 251.14453125 379.96899414 C251.89065674 379.22508926 252.63678223 378.48118439 253.40551758 377.71473694 C255.1134936 376.26819947 255.1134936 376.26819947 255 375 C234.87 375 214.74 375 194 375 Z M286 388 C286 408.13 286 428.26 286 449 C291.56433973 449 295.74115264 448.59741172 300.9375 447.0625 C301.66606201 446.84795166 302.39462402 446.63340332 303.14526367 446.41235352 C312.92791085 443.3206033 322.84243285 438.43416929 330 431 C324.41369424 425.39057155 318.8247281 419.78381339 313.23230076 414.18048859 C310.63588001 411.57883884 308.04040187 408.97626277 305.44702148 406.37158203 C302.94642254 403.86015478 300.44342177 401.35114505 297.93870354 398.84382629 C296.98130439 397.88457279 296.02478891 396.92443652 295.06915474 395.96342468 C293.73534331 394.62240364 292.39815344 393.28474539 291.06079102 391.94726562 C290.29912125 391.18337524 289.53745148 390.41948486 288.75270081 389.63244629 C287.2772343 387.88640709 287.2772343 387.88640709 286 388 Z M265.28526306 390.59448242 C264.54135818 391.34060791 263.79745331 392.0867334 263.03100586 392.85546875 C262.19020981 393.69634033 261.34941376 394.53721191 260.48313904 395.40356445 C259.56960159 396.32226318 258.65606415 397.24096191 257.71484375 398.1875 C256.78402481 399.11973389 255.85320587 400.05196777 254.8941803 401.01245117 C252.41448602 403.49597131 249.93780878 405.98247942 247.46173096 408.46960449 C244.93657602 411.00497208 242.40860275 413.53752602 239.88085938 416.0703125 C234.91779817 421.04411223 229.957916 426.02107164 225 431 C233.90181769 440.19603335 245.94615419 444.5496977 258 448 C258.65742188 448.20753906 259.31484375 448.41507812 259.9921875 448.62890625 C262.98844677 449.18268958 265.96036456 449.02089172 269 449 C269.02546706 441.90161917 269.0429159 434.80325023 269.05493164 427.70483398 C269.05994374 425.29272013 269.06675516 422.88060929 269.07543945 420.46850586 C269.08764223 416.99071507 269.09325968 413.51296463 269.09765625 410.03515625 C269.10281754 408.96604507 269.10797882 407.8969339 269.11329651 406.79542542 C269.11374196 400.77760568 268.78641433 394.96749698 268 389 C266.73180053 388.8865064 266.73180053 388.8865064 265.28526306 390.59448242 Z " fill="#D69F5A" transform="translate(134,7)"/>
<path d="M0 0 C6.82867486 5.53381636 10.5198709 13.01284725 11.6875 21.6484375 C12.09073777 30.64568014 9.56462352 38.47814068 3.8125 45.4375 C-3.56559855 52.09999702 -10.95555807 54.94834764 -20.890625 54.69140625 C-30.43012324 53.63686988 -37.60916039 48.84048325 -43.640625 41.5546875 C-48.97278783 34.25662626 -49.07873676 26.25871842 -48.1875 17.4375 C-46.28512833 9.83933695 -41.32030227 3.29430843 -34.91015625 -1.13671875 C-23.63138482 -7.68628818 -10.87113395 -7.2818032 0 0 Z M-28.1875 16.4375 C-30.5667967 19.4656958 -30.55025446 22.68519379 -30.4375 26.4765625 C-29.91749704 30.55533569 -28.05621913 32.73769848 -24.9375 35.25 C-21.3763795 36.78775658 -19.03831154 36.91040668 -15.1875 36.4375 C-11.50742485 34.59746243 -9.58302348 33.01164699 -7.25 29.625 C-5.93518352 25.68055056 -6.09635221 23.43837524 -7.1875 19.4375 C-9.36325885 16.06132247 -11.30676774 13.65715871 -15.1875 12.4375 C-20.86262676 11.80693036 -23.81235816 12.77459055 -28.1875 16.4375 Z " fill="#D69F5A" transform="translate(224.1875,252.5625)"/>
<path d="M0 0 C2.4375 1.5625 2.4375 1.5625 4 4 C4.55398008 6.78132265 4.56301556 9.21939252 4 12 C1.96868765 14.81258633 0.17722764 15.91327158 -2.9375 17.4375 C-9.60362162 23.01527523 -11.6801392 33.60186688 -13 42 C-13.28834421 45.77565758 -13.3325425 49.52697341 -13.3125 53.3125 C-13.31056641 54.83327148 -13.31056641 54.83327148 -13.30859375 56.38476562 C-13.22628319 62.79264236 -12.54716496 68.53126607 -10.6875 74.69140625 C-9.70937402 77.97590883 -9.44751399 80.61602322 -10 84 C-11.99524923 86.93052231 -13.42836485 88.64521503 -16.97265625 89.4453125 C-20.23245775 89.62810511 -22.45823709 89.39829607 -25.109375 87.44921875 C-27.55431811 84.28190609 -28.34362065 81.08128346 -29.1875 77.25 C-29.35185547 76.57195312 -29.51621094 75.89390625 -29.68554688 75.1953125 C-34.44782579 54.91224603 -33.36520183 32.78648271 -24 14 C-23.63132812 13.23945313 -23.26265625 12.47890625 -22.8828125 11.6953125 C-18.1688352 3.08011262 -9.76856992 -2.22791946 0 0 Z " fill="#D69F5A" transform="translate(65,328)"/>
<path d="M0 0 C2.69990662 1.79993774 4.5418865 3.083773 6 6 C6.40820726 9.67386532 6.24841035 11.55286137 4.4375 14.8125 C1.24450523 17.67800813 -0.74119188 18 -5 18 C-8.57387602 16.41161066 -9.81089572 15.28365642 -12 12 C-12.50835292 8.1026276 -12.32962183 6.49443274 -10.125 3.1875 C-6.82233621 -0.21230096 -4.68601439 -0.45941318 0 0 Z " fill="#D69F5A" transform="translate(196,331)"/>
<path d="M0 0 C2.4375 0.9375 2.4375 0.9375 4 3 C5.32609753 7.49833084 5.63011703 10.7901753 3.4375 15 C0.44866676 17.45237599 -1.13696371 18 -5 18 C-8.17764131 16.83893875 -10.27876647 15.87802343 -12.4375 13.25 C-13.28441764 9.86232946 -12.84213994 7.36855977 -12 4 C-8.95803311 -0.74546835 -5.18876386 -0.83105458 0 0 Z " fill="#D69F5A" transform="translate(113,113)"/>
<path d="M0 0 C2.93052231 1.99524923 4.64521503 3.42836485 5.4453125 6.97265625 C5.63409202 10.33922437 5.25759307 12.59815481 3.4375 15.4375 C0.19100111 17.51858903 -2.15247539 17.93249957 -6 18 C-8.94755732 16.65437601 -10.54277272 15.91445456 -12 13 C-12.68839635 6.00130378 -12.68839635 6.00130378 -9.9375 2 C-6.22192774 -0.52975133 -4.4117517 -0.7878128 0 0 Z " fill="#D69F5A" transform="translate(205,373)"/>
<path d="M0 0 C3.40513815 0.099239 4.217095 0.45784656 7.1875 2.5 C9.71725133 6.21557226 9.9753128 8.0257483 9.1875 12.4375 C7.19225077 15.36802231 5.75913515 17.08271503 2.21484375 17.8828125 C-1.19006097 18.07374174 -3.4104553 17.7055298 -6.25 15.8125 C-8.18481132 12.8715868 -8.74059193 10.96099544 -8.8125 7.4375 C-6.62525373 2.85469829 -5.19079345 0.59566482 0 0 Z " fill="#D69F5A" transform="translate(133.8125,87.5625)"/>
</svg>
