<?xml version="1.0" encoding="UTF-8"?>
<svg version="1.1" xmlns="http://www.w3.org/2000/svg" width="512" height="512">
<path d="M0 0 C2.09705978 1.34374704 3.03525081 2.48014744 4.38671875 4.5390625 C6.66751345 7.5172496 6.66751345 7.5172496 9.4765625 7.56640625 C11.39527477 7.50587075 13.31343376 7.42470849 15.23046875 7.32421875 C21.09526674 7.25008507 25.32000845 9.35526993 29.51171875 13.3515625 C32.01171875 16.2890625 32.01171875 16.2890625 32.01171875 18.2890625 C32.86813965 18.26811523 33.72456055 18.24716797 34.60693359 18.22558594 C37.83117584 18.15679049 41.05503994 18.10696424 44.27978516 18.06933594 C45.66663031 18.04940908 47.05339357 18.0222569 48.43994141 17.98730469 C58.43159396 17.74202224 66.53481386 18.36407289 74.8515625 24.32421875 C75.54378906 24.99324219 76.23601562 25.66226563 76.94921875 26.3515625 C78.01462891 27.35896484 78.01462891 27.35896484 79.1015625 28.38671875 C80.29151915 29.57180851 81.47286381 30.76568965 82.640625 31.97265625 C85.53215616 34.74885568 88.04687939 34.4116281 91.91748047 34.40690613 C93.17631546 34.40802399 94.43515045 34.40914185 95.73213196 34.41029358 C97.1352235 34.40662841 98.53831493 34.40291903 99.94140625 34.39916992 C101.41314189 34.39892786 102.88487769 34.39920477 104.35661316 34.39996338 C107.53178423 34.40107127 110.70694087 34.39963246 113.8821106 34.39659691 C118.90898656 34.39296783 123.93578708 34.40209759 128.96264648 34.41438293 C129.81103057 34.41640486 130.65941465 34.41842679 131.53350735 34.42050999 C133.26878619 34.42467896 135.00406496 34.42888172 136.73934364 34.43311751 C148.44394886 34.46125315 160.14839198 34.48142741 171.85302734 34.46411133 C179.74488373 34.45253133 187.63640229 34.46221297 195.52819824 34.49616891 C199.70265597 34.51328545 203.8765044 34.51967206 208.05096436 34.5000515 C211.9845574 34.48173242 215.91710471 34.49157382 219.85061073 34.52230835 C221.28803025 34.52863987 222.72553801 34.52490401 224.1628933 34.50991249 C233.23838837 34.42234498 239.89311968 35.34150639 247.01171875 41.2890625 C252.07409065 46.90621683 252.36181892 52.72072313 252.2890625 59.98828125 C251.77094971 66.15455315 249.53176228 69.69831927 245.32421875 74.1015625 C236.59670836 79.86501276 227.73145837 79.76116246 217.65380859 79.68017578 C215.25301104 79.66400384 212.85387336 79.68013023 210.453125 79.69921875 C208.9153609 79.69723777 207.37759782 79.69339709 205.83984375 79.6875 C205.12830139 79.69357269 204.41675903 79.69964539 203.68365479 79.7059021 C199.29947431 79.64414289 196.49999108 78.98125949 193.01171875 76.2890625 C191.58509656 73.43581813 191.70138007 71.45451701 192.01171875 68.2890625 C193.53710938 65.62963867 193.53710938 65.62963867 196.01171875 63.2890625 C198.84286193 62.79591419 201.09076377 62.61294311 203.91796875 62.65234375 C205.06054138 62.63677681 205.06054138 62.63677681 206.22619629 62.62089539 C208.65516424 62.59123779 211.08260267 62.59458366 213.51171875 62.6015625 C215.94040513 62.59266004 218.36868326 62.57666842 220.79724121 62.5500946 C222.30636772 62.53522002 223.81565333 62.53135248 225.3248291 62.53987122 C229.04999711 62.51965421 231.84781327 62.3588353 235.01171875 60.2890625 C235.17852984 57.37254076 235.17852984 57.37254076 235.01171875 54.2890625 C232.3224909 51.59983465 230.98125637 52.03648703 227.21984863 52.03077698 C225.9862561 52.02394897 224.75266357 52.01712097 223.48168945 52.01008606 C222.1069333 52.01250577 220.73217744 52.01509007 219.35742188 52.01782227 C217.91523952 52.01343683 216.47305969 52.00813534 215.03088379 52.00198364 C211.91954498 51.99046312 208.80827446 51.98502268 205.69691467 51.98410225 C200.7708211 51.98216335 195.84486858 51.96411715 190.91882324 51.94334412 C178.67557649 51.89411737 166.43229109 51.86332948 154.18896484 51.84204102 C144.68862324 51.82549108 135.18840174 51.80257839 125.68814039 51.75902027 C120.79856853 51.73731376 115.90922518 51.72917971 111.0196085 51.73141301 C107.96421315 51.72973706 104.90896466 51.71563123 101.85362244 51.69820023 C100.44523189 51.69263657 99.03681043 51.69208212 97.62841797 51.69713783 C79.03662579 51.75683453 79.03662579 51.75683453 71.63671875 45.9140625 C69.01171875 43.2890625 69.01171875 43.2890625 67.01171875 40.6640625 C63.97582621 37.05894011 61.00117448 35.53038071 56.27441406 34.95703125 C53.05913115 34.77057929 49.85690902 34.66846036 46.63671875 34.6015625 C40.88234375 34.446875 40.88234375 34.446875 35.01171875 34.2890625 C35.01171875 49.4690625 35.01171875 64.6490625 35.01171875 80.2890625 C52.14753663 80.77518518 52.14753663 80.77518518 66.734375 73.9140625 C67.89259766 72.6146875 67.89259766 72.6146875 69.07421875 71.2890625 C73.05359805 66.8395735 77.03126956 63.8458407 83.02577782 63.00733948 C85.26515444 62.88738357 87.48667626 62.8607371 89.72924805 62.86914062 C90.99398453 62.85643631 90.99398453 62.85643631 92.28427124 62.84347534 C95.05164958 62.82020882 97.81846907 62.81908024 100.5859375 62.8203125 C102.51691407 62.81320784 104.44788853 62.8055084 106.37886047 62.79724121 C110.41612633 62.78382256 114.45319665 62.7822173 118.49047852 62.78808594 C123.66592486 62.79399864 128.84043849 62.76331358 134.01570415 62.72296906 C137.99883588 62.69714245 141.98174093 62.69420969 145.96494484 62.69786072 C147.87355722 62.69616668 149.78217976 62.68649697 151.69071007 62.66871643 C154.35523891 62.64661145 157.0178515 62.65618229 159.68237305 62.67382812 C160.47050888 62.66056488 161.25864471 62.64730164 162.07066345 62.63363647 C165.93470982 62.69317799 167.64352198 62.94191154 170.50105286 65.6361084 C172.34836806 68.88026878 172.63744553 70.6129177 172.01171875 74.2890625 C170.14461965 76.59181806 168.65524134 77.96730121 166.01171875 79.2890625 C163.47024557 79.35938232 160.95660253 79.36969374 158.41601562 79.33569336 C156.79048916 79.32291482 155.16496 79.31047466 153.53942871 79.29832458 C152.67496628 79.29040831 151.81050385 79.28249203 150.91984558 79.27433586 C145.37706456 79.23223062 139.83407078 79.24406417 134.29116058 79.24422359 C129.42371374 79.24123159 124.55755035 79.22067302 119.69042969 79.16235352 C114.98015815 79.10696454 110.27203571 79.1007954 105.5615387 79.12704659 C103.77226701 79.12827621 101.98288811 79.11193176 100.19395447 79.07713127 C89.95388461 78.69683267 89.95388461 78.69683267 80.76513672 82.50515747 C78.07910607 85.11861985 78.07910607 85.11861985 75.93347168 87.89820862 C71.08436151 93.93098926 64.40093291 94.64701491 57.01171875 96.2890625 C49.75171875 96.2890625 42.49171875 96.2890625 35.01171875 96.2890625 C35.01171875 136.8790625 35.01171875 177.4690625 35.01171875 219.2890625 C37.32171875 219.2890625 39.63171875 219.2890625 42.01171875 219.2890625 C51.52719596 220.94772366 59.69983745 225.82108587 65.73046875 233.359375 C70.36558771 240.34031636 72.17146228 246.98239881 72.01171875 255.2890625 C73.03007812 255.24265625 74.0484375 255.19625 75.09765625 255.1484375 C99.71439411 254.37787772 122.88556156 262.46885842 141.38671875 278.8515625 C142.93606442 280.32268388 144.47828492 281.80136266 146.01171875 283.2890625 C146.68460937 283.88847656 147.3575 284.48789062 148.05078125 285.10546875 C151.97850307 288.72804884 154.80504342 292.46201059 157.57080078 296.99584961 C161.71783766 303.75598823 164.38081578 307.50978755 172.40625 309.55859375 C179.75484242 311.6188438 185.30362765 317.84927115 189.01171875 324.2890625 C193.01171875 333.46918672 193.01171875 333.46918672 193.01171875 337.2890625 C194.29046875 337.4334375 195.56921875 337.5778125 196.88671875 337.7265625 C203.93417304 339.29885847 209.40816002 344.30530397 213.30859375 350.2734375 C216.27455063 357.04477302 216.13189421 365.20331585 213.51171875 372.0390625 C210.63304803 377.74518204 205.99819622 381.72471716 200.38671875 384.6640625 C195.56304902 385.93344927 190.93728115 386.41239014 185.95703125 386.38671875 C184.8484375 386.38349609 183.73984375 386.38027344 182.59765625 386.37695312 C181.45554687 386.36857422 180.3134375 386.36019531 179.13671875 386.3515625 C177.97140625 386.34705078 176.80609375 386.34253906 175.60546875 386.33789062 C172.7408323 386.32615031 169.87630242 386.3097282 167.01171875 386.2890625 C166.62342896 387.34202515 166.62342896 387.34202515 166.22729492 388.41625977 C164.13153297 393.36922841 161.20963831 397.86617686 158.40942383 402.44506836 C157.33357733 404.21119927 156.2751885 405.98704196 155.21679688 407.76367188 C150.39487275 415.7373494 146.05062235 422.15466006 137.01171875 425.2890625 C134.35334361 425.5409115 134.35334361 425.5409115 131.43409157 425.54353809 C129.75882926 425.55228638 129.75882926 425.55228638 128.04972327 425.56121141 C126.82784981 425.55743208 125.60597635 425.55365276 124.34707642 425.54975891 C123.04509005 425.55358446 121.74310368 425.55741001 120.40166318 425.56135148 C116.78934191 425.57164667 113.17711971 425.5694458 109.56479025 425.56517088 C105.66830972 425.5627064 101.77185323 425.57171438 97.87538147 425.57920837 C90.24224756 425.59196532 82.60914882 425.59374781 74.97600605 425.59140811 C68.77194738 425.58962584 62.5678994 425.59137264 56.36384201 425.59563255 C55.03987942 425.59652534 55.03987942 425.59652534 53.68917011 425.59743616 C51.8961349 425.5986479 50.10309969 425.59986203 48.31006448 425.60107853 C31.49028462 425.61195799 14.67052481 425.60978971 -2.14925618 425.60369369 C-17.53780086 425.59852464 -32.92628222 425.60977893 -48.31481437 425.62879191 C-64.11371584 425.64816233 -79.91258734 425.65642767 -95.71150076 425.65266865 C-104.58218762 425.65075534 -113.4528206 425.65325681 -122.32349777 425.66738319 C-129.87552747 425.67928786 -137.42747012 425.6807122 -144.97950099 425.66859303 C-148.83251652 425.66269778 -152.68537277 425.66162262 -156.53837776 425.67359543 C-160.71560239 425.68642483 -164.89244677 425.6760051 -169.06967163 425.6632843 C-170.28708365 425.67065859 -171.50449567 425.67803287 -172.75879896 425.68563062 C-180.27243483 425.63737341 -185.48649466 425.1069064 -191.48828125 420.27734375 C-195.10615092 415.95285891 -198.01703091 411.26040253 -200.98828125 406.4765625 C-201.5915625 405.51685547 -202.19484375 404.55714844 -202.81640625 403.56835938 C-203.409375 402.62412109 -204.00234375 401.67988281 -204.61328125 400.70703125 C-205.49367065 399.3312793 -205.49367065 399.3312793 -206.3918457 397.92773438 C-207.98828125 395.2890625 -207.98828125 395.2890625 -209.10620117 392.83789062 C-210.21206493 390.52794411 -211.06576124 388.98856101 -212.98828125 387.2890625 C-217.1007861 386.21672203 -221.07278304 386.3064674 -225.30078125 386.4140625 C-236.77729152 386.4677224 -245.971631 386.20862983 -254.98828125 378.2890625 C-260.41640259 372.25501134 -260.70122366 365.68557335 -260.40234375 357.8203125 C-259.54912662 350.54381928 -256.63366804 346.05761197 -250.92578125 341.54296875 C-246.93179351 338.95815007 -242.79671043 337.2890625 -237.98828125 337.2890625 C-237.78203125 336.0103125 -237.57578125 334.7315625 -237.36328125 333.4140625 C-235.25914771 324.12080604 -229.8258133 316.63219014 -221.98828125 311.2890625 C-214.56988362 307.2890625 -214.56988362 307.2890625 -210.98828125 307.2890625 C-213.8072698 304.38198056 -216.66684826 301.72931337 -219.80078125 299.1640625 C-230.39997947 289.9447599 -238.27156468 276.05485168 -240.30859375 262.09375 C-240.5029483 258.68606681 -239.98414213 256.27965541 -238.61328125 253.1640625 C-230.89355611 244.70912544 -219.11548333 240.7785305 -207.98828125 239.2890625 C-206.19760319 239.22601046 -204.40490546 239.20235136 -202.61328125 239.2265625 C-201.73929688 239.23558594 -200.8653125 239.24460937 -199.96484375 239.25390625 C-198.98644531 239.27130859 -198.98644531 239.27130859 -197.98828125 239.2890625 C-197.94960937 238.32419922 -197.94960937 238.32419922 -197.91015625 237.33984375 C-197.05439158 223.70595667 -192.55636392 208.40375169 -182.67578125 198.4765625 C-179.19677061 195.94427378 -176.10815121 195.4241814 -171.8515625 195.71484375 C-155.27235478 199.03973261 -141.59896807 210.51109995 -132.0546875 224.02734375 C-125.45176985 234.52101288 -122.03288117 246.00350519 -120.98828125 258.2890625 C-120.15635254 258.41752563 -120.15635254 258.41752563 -119.30761719 258.54858398 C-116.78420589 258.93933808 -114.26124378 259.33292176 -111.73828125 259.7265625 C-110.42923828 259.92862305 -110.42923828 259.92862305 -109.09375 260.13476562 C-108.24941406 260.26689453 -107.40507812 260.39902344 -106.53515625 260.53515625 C-105.76010742 260.65560303 -104.98505859 260.7760498 -104.18652344 260.90014648 C-102.08831479 261.27136443 -100.04784373 261.74545288 -97.98828125 262.2890625 C-97.87742188 261.55558594 -97.7665625 260.82210938 -97.65234375 260.06640625 C-95.89745686 252.72684989 -90.17002789 246.40186757 -83.98828125 242.2890625 C-74.68327317 237.29222511 -65.26161126 235.67716047 -54.92578125 238.4140625 C-45.05586499 241.72985854 -37.62961797 248.00638905 -32.98828125 257.2890625 C-32.65828125 242.7690625 -32.32828125 228.2490625 -31.98828125 213.2890625 C-35.28828125 213.2890625 -38.58828125 213.2890625 -41.98828125 213.2890625 C-48.04821079 211.00561079 -51.35976724 208.62511251 -54.98828125 203.2890625 C-57.29014895 197.96159357 -57.32597192 192.95818065 -57.359375 187.25390625 C-57.36840347 186.29762833 -57.37743195 185.3413504 -57.38673401 184.35609436 C-57.40119516 182.3415132 -57.41011292 180.32688551 -57.41381836 178.31225586 C-57.42575722 175.23276206 -57.47501873 172.15524593 -57.52539062 169.07617188 C-57.53485099 167.11459307 -57.54208787 165.15300202 -57.546875 163.19140625 C-57.56640732 162.27358871 -57.58593964 161.35577118 -57.60606384 160.41014099 C-57.57409861 155.88090293 -57.46363228 153.91272899 -54.64086914 150.20922852 C-51.98828125 148.2890625 -51.98828125 148.2890625 -48.98828125 147.6640625 C-44.82834421 148.53071605 -43.56885389 149.91718197 -40.98828125 153.2890625 C-40.24902863 156.58535916 -40.26677063 159.81557404 -40.28125 163.18359375 C-40.26612869 164.13094894 -40.25100739 165.07830414 -40.23542786 166.05436707 C-40.19255378 169.07034106 -40.18371305 172.08531413 -40.17578125 175.1015625 C-40.15263675 177.15041723 -40.12727151 179.19924816 -40.09960938 181.24804688 C-40.03675966 186.26180722 -40.00442214 191.274943 -39.98828125 196.2890625 C-37.98873379 196.33160606 -35.98786489 196.32987033 -33.98828125 196.2890625 C-31.92796217 194.22874342 -32.80266832 189.84319085 -32.78295898 187.00561523 C-32.77305939 186.13740143 -32.76315979 185.26918762 -32.75296021 184.37466431 C-32.72124757 181.49068983 -32.69654937 178.60669885 -32.671875 175.72265625 C-32.65131389 173.72867899 -32.63031765 171.73470618 -32.60890198 169.74073792 C-32.55359418 164.48165474 -32.50422345 159.22253167 -32.45605469 153.96337891 C-32.40590307 148.60120068 -32.35018399 143.23908069 -32.29492188 137.87695312 C-32.18723387 127.34770595 -32.08581269 116.8184083 -31.98828125 106.2890625 C-34.95828125 106.2890625 -37.92828125 106.2890625 -40.98828125 106.2890625 C-40.90126953 108.04283203 -40.90126953 108.04283203 -40.8125 109.83203125 C-40.76558676 111.3801683 -40.72008827 112.92834867 -40.67578125 114.4765625 C-40.63388672 115.24548828 -40.59199219 116.01441406 -40.54882812 116.80664062 C-40.45630702 121.11812401 -40.58653567 122.77022525 -43.3203125 126.30078125 C-45.98828125 128.2890625 -45.98828125 128.2890625 -48.98828125 128.9140625 C-53.13891063 128.04934805 -54.40946042 126.64666423 -56.98828125 123.2890625 C-57.71532539 120.08136298 -57.66175643 116.94664749 -57.61938477 113.66870117 C-57.63011772 112.2238459 -57.63011772 112.2238459 -57.6410675 110.74980164 C-57.65796296 107.56839428 -57.63854184 104.38839475 -57.6171875 101.20703125 C-57.61801632 98.99131656 -57.62047619 96.77560194 -57.62449646 94.55989075 C-57.62735533 89.91530861 -57.61264763 85.27120844 -57.58520508 80.62670898 C-57.55118241 74.68492975 -57.55712015 68.74401574 -57.57586765 62.80219555 C-57.58645986 58.22525378 -57.57747854 53.64851174 -57.56248283 49.07158852 C-57.55731287 46.88162136 -57.55776838 44.69163324 -57.56402779 42.50166893 C-57.56950425 39.43319607 -57.54902394 36.36594135 -57.52172852 33.29760742 C-57.53151733 31.94992279 -57.53151733 31.94992279 -57.54150391 30.57501221 C-57.43877858 23.7517661 -55.71778984 18.51711147 -51.27734375 13.265625 C-45.71621386 8.74883875 -41.66564353 7.17076964 -34.42578125 7.5390625 C-31.57801378 7.66992085 -31.57801378 7.66992085 -28.98828125 7.2890625 C-26.48405887 4.831041 -26.48405887 4.831041 -25.28125 2.890625 C-18.94093893 -4.96293252 -8.06488079 -3.80651419 0 0 Z M-14.08192444 14.81140137 C-16.62824837 18.12081742 -16.54396057 20.9232467 -16.48999023 24.93164062 C-16.49539322 25.69633163 -16.5007962 26.46102264 -16.50636292 27.24888611 C-16.51885608 29.77309032 -16.50235618 32.29615521 -16.484375 34.8203125 C-16.48452998 36.57621317 -16.48601871 38.33211419 -16.48878479 40.0880127 C-16.49016904 43.76667415 -16.47760655 47.44494584 -16.45483398 51.12353516 C-16.42644915 55.83816428 -16.42918626 60.55214577 -16.4419241 65.26682281 C-16.44888013 68.89224781 -16.44109288 72.51752319 -16.42866707 76.14292908 C-16.42415183 77.88125535 -16.42381641 79.61959769 -16.42773247 81.35792542 C-16.43064399 83.78777977 -16.41414139 86.21674268 -16.39233398 88.64648438 C-16.39683563 89.36452744 -16.40133728 90.0825705 -16.40597534 90.82237244 C-16.34485135 94.92277606 -15.87845046 97.30562344 -12.98828125 100.2890625 C-10.55110867 100.01871616 -10.55110867 100.01871616 -7.98828125 99.2890625 C-5.56445833 95.65332813 -5.69247492 92.96304787 -5.69775391 88.76000977 C-5.69103668 87.99546478 -5.68431946 87.2309198 -5.67739868 86.44320679 C-5.65838856 83.91389482 -5.65449312 81.38484773 -5.65234375 78.85546875 C-5.64591834 77.09813833 -5.63919018 75.34080899 -5.63217163 73.58348083 C-5.62019164 69.89897175 -5.61649159 66.21455649 -5.61767578 62.5300293 C-5.61787911 57.80747655 -5.59056591 53.08552463 -5.55613136 48.36311436 C-5.53390103 44.73342624 -5.52983703 41.10388367 -5.53089523 37.47413445 C-5.52853386 35.73299016 -5.51968022 33.99184219 -5.5042305 32.25076485 C-5.4846463 29.81591745 -5.49037762 27.38237796 -5.50244141 24.94750977 C-5.49120239 24.22789566 -5.47996338 23.50828156 -5.46838379 22.76686096 C-5.51170879 19.32790632 -5.77040881 17.5724886 -7.89364624 14.81040955 C-10.70612044 12.76769123 -11.27045508 12.76711364 -14.08192444 14.81140137 Z M-39.65151978 24.42077637 C-41.53661507 27.05542545 -41.36926054 28.95812342 -41.37646484 32.18164062 C-41.38592133 33.39299683 -41.39537781 34.60435303 -41.40512085 35.85241699 C-41.39904816 37.16182251 -41.39297546 38.47122803 -41.38671875 39.8203125 C-41.38873976 41.17647457 -41.39165143 42.53263559 -41.39541626 43.88879395 C-41.39983841 46.73016717 -41.39341248 49.57125735 -41.37939453 52.41259766 C-41.36230222 56.05458353 -41.37214405 59.6959062 -41.39011192 63.33786774 C-41.400953 66.13801062 -41.39750204 68.9379963 -41.38972855 71.73814392 C-41.38675423 73.734003 -41.39586465 75.72986818 -41.40512085 77.72570801 C-41.39566437 78.93706421 -41.38620789 80.14842041 -41.37646484 81.39648438 C-41.37407806 82.46443237 -41.37169128 83.53238037 -41.36923218 84.63269043 C-41.19511936 87.30979257 -41.19511936 87.30979257 -39.62808228 89.17297363 C-37.95407742 90.56768507 -37.95407742 90.56768507 -35.36328125 90.0390625 C-33.05704055 89.51160605 -33.05704055 89.51160605 -31.98828125 88.2890625 C-31.8785226 86.33641041 -31.8391685 84.37976975 -31.82714844 82.42407227 C-31.81273712 80.54190758 -31.81273712 80.54190758 -31.79803467 78.62171936 C-31.79318758 77.24130433 -31.78890853 75.8608872 -31.78515625 74.48046875 C-31.77940756 73.07421363 -31.77364979 71.66795854 -31.7678833 70.26170349 C-31.75736521 67.31012607 -31.75152774 64.35857596 -31.74804688 61.40698242 C-31.7425579 57.61918218 -31.71852515 53.83174068 -31.69007492 50.04405308 C-31.67148021 47.13847285 -31.66624467 44.23297961 -31.664711 41.32734489 C-31.66167714 39.93064346 -31.65362401 38.53394381 -31.64052582 37.13730049 C-31.62353195 35.18608793 -31.62718068 33.23472827 -31.63183594 31.28344727 C-31.62819031 30.17171646 -31.62454468 29.05998566 -31.62078857 27.91456604 C-31.74206116 27.04814987 -31.86333374 26.1817337 -31.98828125 25.2890625 C-35.75024823 22.76850747 -35.75024823 22.76850747 -39.65151978 24.42077637 Z M10.01171875 25.2890625 C9.55803371 28.02126657 9.55803371 28.02126657 9.6394043 31.26757812 C9.63317551 32.52227905 9.62694672 33.77697998 9.62052917 35.06970215 C9.629217 36.44490962 9.63853495 37.82011324 9.6484375 39.1953125 C9.64895596 40.60013834 9.64843879 42.00496492 9.64692688 43.40979004 C9.64701666 46.3554974 9.65745708 49.30093138 9.67553711 52.24658203 C9.69822476 56.02646614 9.69876909 59.80595064 9.69201946 63.58588409 C9.68868134 66.48719854 9.69530655 69.38842152 9.7051487 72.28971863 C9.70900372 73.68360414 9.71014766 75.07749983 9.70856285 76.47138977 C9.70819288 78.41779862 9.72227403 80.36419416 9.73706055 82.31054688 C9.74166794 83.41926147 9.74627533 84.52797607 9.75102234 85.67028809 C9.7482648 88.44799743 9.7482648 88.44799743 12.01171875 90.2890625 C15.08163556 90.12463973 15.08163556 90.12463973 18.01171875 89.2890625 C19.35394555 86.6046089 19.15367333 84.51585769 19.17285156 81.51000977 C19.18245911 80.29857803 19.19206665 79.0871463 19.20196533 77.83900452 C19.20621521 76.52443771 19.21046509 75.20987091 19.21484375 73.85546875 C19.22059498 72.497879 19.22635272 71.14028928 19.2321167 69.78269958 C19.24262489 66.93545147 19.24846894 64.08823158 19.25195312 61.2409668 C19.25744185 57.59117127 19.28147815 53.94174808 19.30992508 50.29206944 C19.32853989 47.48767503 19.33375639 44.68337058 19.335289 41.8789196 C19.3397917 39.87859155 19.35844244 37.87831164 19.3772583 35.87806702 C19.3742572 34.66348312 19.3712561 33.44889923 19.36816406 32.19750977 C19.37363251 30.59106346 19.37363251 30.59106346 19.37921143 28.9521637 C19.21976081 26.2744737 19.21976081 26.2744737 17.67694092 24.41978455 C14.50795551 22.26797458 13.04027033 23.27002811 10.01171875 25.2890625 Z M10.01171875 106.2890625 C10.01171875 157.1090625 10.01171875 207.9290625 10.01171875 260.2890625 C12.98171875 260.6190625 15.95171875 260.9490625 19.01171875 261.2890625 C19.01171875 210.1390625 19.01171875 158.9890625 19.01171875 106.2890625 C16.04171875 106.2890625 13.07171875 106.2890625 10.01171875 106.2890625 Z M-15.98828125 116.2890625 C-15.98828125 163.4790625 -15.98828125 210.6690625 -15.98828125 259.2890625 C-12.68828125 259.2890625 -9.38828125 259.2890625 -5.98828125 259.2890625 C-5.98828125 212.0990625 -5.98828125 164.9090625 -5.98828125 116.2890625 C-9.28828125 116.2890625 -12.58828125 116.2890625 -15.98828125 116.2890625 Z M-172.98828125 212.2890625 C-181.19362345 227.2658036 -184.14788549 240.39877813 -179.98828125 257.1171875 C-178.5122232 261.79905914 -176.41799287 266.03466627 -173.98828125 270.2890625 C-172.50343713 269.89310407 -171.02539815 269.47155544 -169.55078125 269.0390625 C-168.31521484 268.69101562 -168.31521484 268.69101562 -167.0546875 268.3359375 C-164.82744674 267.48370147 -164.82744674 267.48370147 -164.14453125 265.34765625 C-163.83904559 263.14092161 -163.83904559 263.14092161 -164.92578125 260.6015625 C-166.26861069 256.41509424 -166.66215278 252.64790237 -165.98828125 248.2890625 C-164.42578125 246.1640625 -164.42578125 246.1640625 -161.98828125 245.2890625 C-158.42578125 245.3515625 -158.42578125 245.3515625 -154.98828125 246.2890625 C-152.28241762 249.20255428 -151.08709268 252.31319492 -149.80078125 256.0390625 C-149.45660156 257.02390625 -149.11242187 258.00875 -148.7578125 259.0234375 C-148.50386719 259.77109375 -148.24992187 260.51875 -147.98828125 261.2890625 C-146.50859801 261.14856732 -145.02953609 261.00151424 -143.55078125 260.8515625 C-142.72707031 260.77035156 -141.90335938 260.68914062 -141.0546875 260.60546875 C-139.001661 260.49975435 -139.001661 260.49975435 -137.98828125 259.2890625 C-136.78849537 248.73094675 -141.58956087 238.40338182 -147.98828125 230.2890625 C-148.75785156 229.25845703 -148.75785156 229.25845703 -149.54296875 228.20703125 C-155.62520777 220.59695707 -163.95179586 215.70284587 -172.98828125 212.2890625 Z M35.01171875 235.2890625 C35.01171875 244.5290625 35.01171875 253.7690625 35.01171875 263.2890625 C38.31171875 262.2990625 41.61171875 261.3090625 45.01171875 260.2890625 C47.05070486 259.71692206 49.09179875 259.15211788 51.13671875 258.6015625 C52.06742187 258.35019531 52.998125 258.09882813 53.95703125 257.83984375 C54.63507813 257.65808594 55.313125 257.47632813 56.01171875 257.2890625 C56.50642775 251.35255455 55.52198459 247.17377045 52.01171875 242.2890625 C46.47284901 236.51263401 43.53769704 236.23639342 35.01171875 235.2890625 Z M-79.98828125 260.2890625 C-82.49625776 263.74834045 -82.98828125 264.90159626 -82.98828125 269.2890625 C-82.26382813 269.67578125 -81.539375 270.0625 -80.79296875 270.4609375 C-79.82617188 270.98171875 -78.859375 271.5025 -77.86328125 272.0390625 C-76.8578125 272.58046875 -75.85234375 273.121875 -74.81640625 273.6796875 C-72.59110144 274.94602118 -70.63367407 276.23655012 -68.61328125 277.7890625 C-67.74703125 278.2840625 -66.88078125 278.7790625 -65.98828125 279.2890625 C-61.42045839 278.01168903 -57.59742418 275.2488735 -53.67578125 272.6640625 C-53.03060547 272.24382812 -52.38542969 271.82359375 -51.72070312 271.390625 C-50.14067401 270.36068009 -48.56412078 269.32540622 -46.98828125 268.2890625 C-47.89686094 262.46230144 -50.65450061 259.22276646 -55.17578125 255.4765625 C-64.49639112 251.54119389 -72.63078468 253.34031574 -79.98828125 260.2890625 Z M-222.98828125 261.2890625 C-222.51058357 272.03726027 -215.52061196 281.085524 -207.98828125 288.2890625 C-206.03436544 289.82073379 -204.14584758 291.04846186 -201.98828125 292.2890625 C-198.33686769 290.7634719 -196.08710013 288.56425341 -193.36328125 285.7265625 C-189.18272569 281.38628472 -189.18272569 281.38628472 -186.98828125 280.2890625 C-188.13111333 277.41817998 -189.28925512 274.55459045 -190.4609375 271.6953125 C-190.9909644 270.39326131 -191.52091076 269.09117734 -192.05078125 267.7890625 C-192.31955078 267.13808594 -192.58832031 266.48710937 -192.86523438 265.81640625 C-194.27730363 262.33025022 -195.40866611 259.01004856 -195.98828125 255.2890625 C-205.86122671 254.58940495 -214.23351034 256.69436004 -222.98828125 261.2890625 Z M52.01171875 274.2890625 C51.68171875 274.9490625 51.35171875 275.6090625 51.01171875 276.2890625 C52.39406753 277.32808283 53.79327666 278.34469696 55.19921875 279.3515625 C55.97652344 279.92003906 56.75382812 280.48851562 57.5546875 281.07421875 C60.62863806 282.59408937 61.73016171 282.02274395 65.01171875 281.2890625 C87.0455416 279.61756291 107.43280668 283.50303341 124.68359375 298.09765625 C134.56797865 307.40158231 134.56797865 307.40158231 137.01171875 312.2890625 C141.09136156 310.98751244 141.09136156 310.98751244 145.01171875 309.2890625 C140.10695278 294.83155862 123.92777147 284.92442597 111.01171875 278.2890625 C107.73189874 276.70686194 104.47670923 275.40627906 101.01171875 274.2890625 C100.12226563 273.99128906 99.2328125 273.69351562 98.31640625 273.38671875 C84.37296784 269.43668463 65.63881568 268.84820695 52.01171875 274.2890625 Z M-190.98828125 305.2890625 C-191.31828125 306.2790625 -191.64828125 307.2690625 -191.98828125 308.2890625 C-189.22222486 310.00583803 -189.22222486 310.00583803 -185.98828125 311.2890625 C-182.70693488 310.15024229 -180.89203023 308.27855513 -178.61328125 305.7265625 C-165.61574906 292.46377456 -147.50124613 285.21781055 -129.04931641 284.90820312 C-113.25103003 284.94188219 -101.0975699 288.22458694 -87.15625 295.6796875 C-84.28331841 297.44003615 -84.28331841 297.44003615 -81.98828125 297.2890625 C-79.7261569 295.02393027 -79.7261569 295.02393027 -77.98828125 292.2890625 C-79.30077942 288.35156798 -81.61072717 287.35373662 -85.05078125 285.4140625 C-85.66695313 285.06400146 -86.283125 284.71394043 -86.91796875 284.35327148 C-122.26311505 265.12682229 -165.24177593 275.55448802 -190.98828125 305.2890625 Z M-58.98828125 295.2890625 C-59.92414063 296.15789062 -60.86 297.02671875 -61.82421875 297.921875 C-66.87910064 302.73528433 -71.26745969 307.6062681 -74.8671875 313.609375 C-75.98828125 315.2890625 -75.98828125 315.2890625 -77.98828125 316.2890625 C-83.28575642 316.89104831 -85.89529343 315.3146979 -89.98828125 312.2890625 C-105.30419685 301.71028105 -121.27050455 297.60613446 -139.73828125 300.97265625 C-152.68871457 304.72392359 -162.84058894 311.54478156 -171.98828125 321.2890625 C-173.29091636 324.14208449 -173.29091636 324.14208449 -172.2109375 326.33203125 C-171.63666016 327.39357422 -171.63666016 327.39357422 -171.05078125 328.4765625 C-170.67050781 329.19199219 -170.29023438 329.90742188 -169.8984375 330.64453125 C-169.44791016 331.45857422 -169.44791016 331.45857422 -168.98828125 332.2890625 C-166.55927373 329.92752741 -164.266634 327.68081823 -162.30078125 324.9140625 C-155.10830697 316.74963224 -144.01033193 310.87394185 -133.06762695 310.16455078 C-124.08222021 309.83654931 -115.33547316 309.52855284 -106.98828125 313.2890625 C-106.08851563 313.69125 -105.18875 314.0934375 -104.26171875 314.5078125 C-93.95254542 319.61979927 -86.87635517 326.89883503 -81.98828125 337.2890625 C-80.00828125 337.2890625 -78.02828125 337.2890625 -75.98828125 337.2890625 C-75.58738281 336.35707031 -75.18648438 335.42507813 -74.7734375 334.46484375 C-65.56712819 313.6074875 -52.52530919 298.14374105 -30.98828125 289.2890625 C-11.45445007 282.34035383 9.32257481 283.40008342 28.1328125 291.92236328 C45.83004153 300.41552778 57.90284179 314.0725653 65.01171875 332.2890625 C65.38296875 333.21589844 65.75421875 334.14273438 66.13671875 335.09765625 C66.56984375 336.18240234 66.56984375 336.18240234 67.01171875 337.2890625 C69.98171875 337.2890625 72.95171875 337.2890625 76.01171875 337.2890625 C73.14289098 318.80106131 60.41835158 302.58231562 46.01171875 291.2890625 C37.87510264 285.51927729 29.50000997 281.33639691 20.01171875 278.2890625 C19.05523437 277.969375 18.09875 277.6496875 17.11328125 277.3203125 C-8.72211008 269.99689448 -39.38163169 276.86274636 -58.98828125 295.2890625 Z M74.01171875 296.2890625 C75.59708358 299.74211739 77.33306913 302.57638285 80.01171875 305.2890625 C83.18315448 306.45407971 86.23104516 306.99271428 89.55859375 307.5625 C101.90577962 310.1604373 110.65248126 317.63733558 117.5 327.80859375 C119.37856204 330.89098882 120.76185318 333.9070733 122.01171875 337.2890625 C125.41666883 333.88411242 126.84070969 330.09704794 127.01171875 325.2890625 C125.0636267 320.96860068 122.2260553 317.73669767 119.01171875 314.2890625 C118.356875 313.56589844 117.70203125 312.84273438 117.02734375 312.09765625 C108.32965632 303.48424874 94.89709186 296.7985449 82.60546875 296.09375 C81.58453125 296.11695313 80.56359375 296.14015625 79.51171875 296.1640625 C77.949375 296.19113281 77.949375 296.19113281 76.35546875 296.21875 C75.1953125 296.25355469 75.1953125 296.25355469 74.01171875 296.2890625 Z M-49.98828125 321.2890625 C-55.73942022 328.64542136 -55.73942022 328.64542136 -57.98828125 337.2890625 C-54.7129312 338.19501039 -52.24288231 338.34581559 -48.98828125 337.2890625 C-47.26976484 335.2930773 -45.92887837 333.49887597 -44.55078125 331.2890625 C-37.63757606 320.22101196 -28.3614612 314.04005786 -15.67578125 310.67578125 C-5.65175829 309.23337097 5.68024877 309.0851238 15.01171875 313.2890625 C15.91148437 313.69125 16.81125 314.0934375 17.73828125 314.5078125 C28.17875127 319.68490507 34.90261502 326.90604523 40.01171875 337.2890625 C43.31171875 337.2890625 46.61171875 337.2890625 50.01171875 337.2890625 C46.96173428 324.41135028 35.59575572 314.01632611 24.80078125 307.30810547 C-0.27973707 293.02234081 -31.36400719 299.88268449 -49.98828125 321.2890625 Z M-217.98828125 329.2890625 C-220.10674217 332.28412793 -220.98828125 333.59556814 -220.98828125 337.2890625 C-209.10828125 337.2890625 -197.22828125 337.2890625 -184.98828125 337.2890625 C-186.19889114 331.23601303 -188.47102882 328.37478594 -193.17578125 324.4765625 C-202.49639112 320.54119389 -210.63078468 322.34031574 -217.98828125 329.2890625 Z M143.01171875 329.2890625 C140.89325783 332.28412793 140.01171875 333.59556814 140.01171875 337.2890625 C151.89171875 337.2890625 163.77171875 337.2890625 176.01171875 337.2890625 C174.80110886 331.23601303 172.52897118 328.37478594 167.82421875 324.4765625 C158.50360888 320.54119389 150.36921532 322.34031574 143.01171875 329.2890625 Z M90.01171875 324.2890625 C90.32042997 326.08138587 90.63380939 327.87290571 90.94921875 329.6640625 C91.12324219 330.66179687 91.29726563 331.65953125 91.4765625 332.6875 C91.88883937 335.25815906 91.88883937 335.25815906 93.01171875 337.2890625 C96.64171875 337.2890625 100.27171875 337.2890625 104.01171875 337.2890625 C100.97247668 331.21057836 96.75558161 327.81370562 91.01171875 324.2890625 C90.68171875 324.2890625 90.35171875 324.2890625 90.01171875 324.2890625 Z M-150.98828125 335.2890625 C-150.98828125 335.9490625 -150.98828125 336.6090625 -150.98828125 337.2890625 C-134.48828125 337.2890625 -117.98828125 337.2890625 -100.98828125 337.2890625 C-105.51198539 331.63850502 -105.51198539 331.63850502 -111.11328125 328.4765625 C-111.96148437 328.07824219 -112.8096875 327.67992187 -113.68359375 327.26953125 C-126.57832625 321.78380607 -141.16251522 325.68286666 -150.98828125 335.2890625 Z M-28.98828125 335.2890625 C-28.98828125 335.9490625 -28.98828125 336.6090625 -28.98828125 337.2890625 C-12.48828125 337.2890625 4.01171875 337.2890625 21.01171875 337.2890625 C16.48801461 331.63850502 16.48801461 331.63850502 10.88671875 328.4765625 C10.03851563 328.07824219 9.1903125 327.67992187 8.31640625 327.26953125 C-4.57832625 321.78380607 -19.16251522 325.68286666 -28.98828125 335.2890625 Z M-242.98828125 356.2890625 C-244.53415001 359.38080002 -244.28187646 361.88335802 -243.98828125 365.2890625 C-241.76965096 368.19623323 -240.46883196 369.12887893 -236.98828125 370.2890625 C-235.25618484 370.38166732 -233.52070273 370.4156497 -231.78613281 370.41655445 C-230.70215714 370.4195621 -229.61818146 370.42256975 -228.50135803 370.42566854 C-227.30594894 370.42391817 -226.11053986 370.42216779 -224.87890625 370.42036438 C-222.97938454 370.42353795 -222.97938454 370.42353795 -221.04148865 370.42677563 C-218.2558735 370.43137745 -215.47028059 370.43279256 -212.68466187 370.43181038 C-208.15280278 370.43021944 -203.6209658 370.43541566 -199.08911133 370.44143677 C-192.51009121 370.44955387 -185.93107498 370.45449494 -179.35205078 370.45772743 C-168.95864221 370.46321936 -158.56526653 370.48011134 -148.171875 370.49906921 C-144.61791998 370.50542603 -141.06396487 370.51173442 -137.51000977 370.51804638 C-136.62183028 370.51963014 -135.7336508 370.5212139 -134.81855679 370.52284566 C-124.70586313 370.54078625 -114.59316716 370.55701153 -104.48046875 370.57202148 C-103.55586161 370.57339736 -102.63125446 370.57477323 -101.67862892 370.57619079 C-86.68497309 370.59813521 -71.69132569 370.60888051 -56.69765663 370.61639223 C-41.31465035 370.62445448 -25.93171667 370.64771478 -10.54875183 370.6843459 C-1.05392079 370.70640725 8.44076111 370.7160245 17.93561649 370.70984557 C24.43792988 370.70667849 30.9401156 370.71795112 37.44238949 370.74073998 C41.19771715 370.75344645 44.9527605 370.7595314 48.70809937 370.74832344 C52.77310396 370.73634668 56.83738043 370.75499561 60.90234375 370.77680969 C62.09775284 370.76836716 63.29316193 370.75992462 64.52479553 370.75122625 C65.60877121 370.76205714 66.69274689 370.77288803 67.80957031 370.78404713 C69.21798187 370.78551234 69.21798187 370.78551234 70.65484619 370.78700715 C73.01171875 371.2890625 73.01171875 371.2890625 74.82122803 373.12921971 C76.40409296 376.00092576 76.28696332 378.05493879 76.01171875 381.2890625 C75.68171875 382.2790625 75.35171875 383.2690625 75.01171875 384.2890625 C71.71093949 385.02494522 68.65305021 385.41649994 65.27349377 385.4277277 C63.87913626 385.43593937 63.87913626 385.43593937 62.4566099 385.44431692 C61.44396376 385.44529503 60.43131762 385.44627314 59.38798523 385.44728088 C58.30565528 385.45221886 57.22332533 385.45715684 56.10819751 385.46224445 C52.47537216 385.47762325 48.84256449 385.48598116 45.2097168 385.49438477 C42.60802555 385.50396298 40.00633587 385.51397303 37.40464783 385.52438354 C31.80022097 385.5461267 26.19579172 385.56427908 20.59134483 385.57998848 C12.4882691 385.6027068 4.38521932 385.6308469 -3.71783438 385.66030776 C-16.86469387 385.70795962 -30.01156399 385.75123032 -43.15844727 385.79174805 C-55.92896348 385.83111522 -68.69947027 385.87254437 -81.4699707 385.91674805 C-82.65085053 385.92083446 -82.65085053 385.92083446 -83.85558651 385.92500342 C-87.80502826 385.9386831 -91.75446988 385.95240333 -95.70391142 385.96614373 C-128.46534857 386.08007071 -161.22680531 386.18688841 -193.98828125 386.2890625 C-192.97050891 388.06165688 -191.94883749 389.83201247 -190.92578125 391.6015625 C-190.35730469 392.58769531 -189.78882813 393.57382812 -189.203125 394.58984375 C-188.86301832 395.14158195 -188.52291164 395.69332016 -188.1724987 396.2617777 C-186.98828125 398.2890625 -186.98828125 398.2890625 -185.62719917 401.11275071 C-182.62961567 406.92262755 -182.62961567 406.92262755 -177.29803085 410.30230963 C-173.91286783 410.71026403 -170.68219181 410.75100853 -167.27294922 410.67915344 C-165.34803304 410.70383494 -165.34803304 410.70383494 -163.38422966 410.72901505 C-159.83235582 410.77292111 -156.28377706 410.74841807 -152.73193645 410.71237481 C-148.89801374 410.68539886 -145.06461477 410.72182693 -141.23077393 410.75007629 C-133.7245161 410.79512081 -126.21949135 410.7808663 -118.71322584 410.74551222 C-112.61257424 410.71792811 -106.51226312 410.71220765 -100.41156006 410.7220974 C-99.10881915 410.72419266 -99.10881915 410.72419266 -97.77976024 410.72633025 C-96.015393 410.72927495 -94.25102586 410.73227559 -92.48665881 410.73533156 C-75.9446335 410.76152228 -59.40328748 410.72107534 -42.8613975 410.65731164 C-28.66968439 410.60407956 -14.47884923 410.60558871 -0.28710938 410.64770508 C16.19589353 410.69658317 32.67839009 410.71324831 49.16144371 410.67732114 C50.91929492 410.67356548 52.6771462 410.66984453 54.43499756 410.66615868 C55.73231865 410.66340206 55.73231865 410.66340206 57.05584824 410.66058976 C63.14868846 410.64980616 69.24123912 410.66185099 75.33404541 410.68258095 C82.76014937 410.70714933 90.18517403 410.69582395 97.61111593 410.63872144 C101.39985742 410.61046289 105.18684903 410.59811773 108.97560883 410.62915802 C113.08409562 410.66226293 117.18809921 410.61782843 121.29638672 410.56562805 C122.49297976 410.58725315 123.68957279 410.60887825 124.92242622 410.63115865 C131.21999823 410.50987737 131.21999823 410.50987737 136.27122879 407.09431303 C138.06437509 404.56261288 139.56591503 402.03066349 141.01171875 399.2890625 C142.10806641 397.649375 142.10806641 397.649375 143.2265625 395.9765625 C143.79503906 395.0896875 144.36351562 394.2028125 144.94921875 393.2890625 C145.53574219 392.3815625 146.12226563 391.4740625 146.7265625 390.5390625 C148.17704428 388.43147773 148.17704428 388.43147773 148.01171875 386.2890625 C146.70501221 386.26400635 145.39830566 386.2389502 144.05200195 386.21313477 C139.19708705 386.11885716 134.34230843 386.01868625 129.48754883 385.91674805 C127.3876464 385.87347615 125.28771054 385.83179567 123.18774414 385.79174805 C120.16672702 385.73385773 117.14587696 385.6702174 114.125 385.60546875 C113.18836014 385.58875626 112.25172028 385.57204376 111.28669739 385.55482483 C107.08574289 385.45966799 103.10686618 385.34188631 99.01171875 384.2890625 C98.76111685 382.87603012 98.53709954 381.45826776 98.32421875 380.0390625 C98.13279297 378.85570312 98.13279297 378.85570312 97.9375 377.6484375 C98.01171875 375.2890625 98.01171875 375.2890625 98.97793579 373.17274475 C102.12434565 370.25855159 105.55606894 370.74311915 109.62646484 370.79077148 C110.94643715 370.78249329 110.94643715 370.78249329 112.29307556 370.77404785 C114.2049982 370.76471744 116.11698297 370.76463126 118.02891159 370.77264214 C121.05528648 370.78524005 124.08074498 370.77401154 127.10708618 370.75660706 C132.44158283 370.72985898 137.77585614 370.72431301 143.1104126 370.72570801 C151.64226535 370.7279332 160.17384113 370.71384248 168.70558548 370.67012215 C171.68646999 370.66027578 174.66692096 370.66900647 177.64779663 370.67881775 C179.47792851 370.67267307 181.30805803 370.66576118 183.13818359 370.65795898 C183.96641129 370.66567825 184.79463898 370.67339752 185.64796448 370.68135071 C190.25563 370.64082053 193.28045518 370.28870846 197.01171875 367.2890625 C199.34049237 364.41311414 199.34049237 364.41311414 198.94921875 360.8515625 C197.80676067 356.5102218 196.77236556 355.63470741 193.01171875 353.2890625 C189.55035328 352.69235962 189.55035328 352.69235962 185.67935944 352.78849125 C184.58141899 352.78022 184.58141899 352.78022 183.46129793 352.77178165 C181.00107933 352.75815308 178.54186525 352.77310103 176.08166504 352.78785706 C174.30311974 352.78396538 172.52457755 352.77832601 170.74604273 352.77108616 C165.852804 352.75629432 160.95988585 352.76653487 156.0666573 352.78082287 C150.79187367 352.79190761 145.51713593 352.77999835 140.24235535 352.77098083 C129.9067292 352.75702931 119.57122501 352.76461868 109.23560464 352.77965642 C97.2059575 352.79649438 85.17634094 352.79330905 73.14668566 352.78956234 C51.68647018 352.78368025 30.22631332 352.79786901 8.76611328 352.82250977 C-12.0701721 352.84643154 -32.90637914 352.85351446 -53.74267578 352.84301758 C-76.41779168 352.83161485 -99.09287132 352.82967033 -121.76798677 352.84411567 C-124.18470541 352.84564156 -126.60142405 352.84716191 -129.0181427 352.84867668 C-130.20729573 352.8494345 -131.39644875 352.85019231 -132.62163672 352.85097309 C-141.01210146 352.8557209 -149.40255003 352.85386096 -157.79301453 352.84961128 C-168.01454686 352.84469061 -178.23600504 352.85064221 -188.45752037 352.87050558 C-193.67529675 352.88039453 -198.8929601 352.88546542 -204.11074257 352.87761307 C-208.8837484 352.8705769 -213.65652574 352.87731239 -218.42950135 352.8952167 C-220.15957311 352.89927463 -221.88966555 352.89823892 -223.6197297 352.89169783 C-225.96540284 352.88358577 -228.31029891 352.8938127 -230.65592194 352.90874577 C-231.96058867 352.9097749 -233.2652554 352.91080402 -234.60945749 352.91186434 C-238.22224033 353.31518074 -240.11564944 354.1031084 -242.98828125 356.2890625 Z " fill="#D69F5A" transform="translate(259.98828125,44.7109375)"/>
</svg>
