<?xml version="1.0" encoding="UTF-8"?>
<svg version="1.1" xmlns="http://www.w3.org/2000/svg" width="512" height="512">
<path d="M0 0 C12.70531248 3.45099951 21.33170878 2.47866075 33.81005859 -1.27026367 C43.96208408 -4.27107625 54.15695516 -4.83480572 63.98193359 -0.46166992 C69.08694099 2.54446175 73.87628971 5.96065921 78.61474609 9.51098633 C79.43716797 10.11813477 80.25958984 10.7252832 81.10693359 11.35083008 C81.81076172 11.89352539 82.51458984 12.4362207 83.23974609 12.99536133 C90.4698195 17.06356503 98.21140729 17.95792387 106.35693359 18.47583008 C119.85637305 19.6030552 129.78414759 21.92879088 138.98193359 32.53833008 C142.00416692 36.53372048 144.79585581 40.67475658 147.53662109 44.86645508 C151.34713413 50.6165997 154.60030022 54.29505937 160.85693359 57.41333008 C161.51314697 57.75428711 162.16936035 58.09524414 162.84545898 58.4465332 C166.13179644 60.14341826 169.44511167 61.76714344 172.79833984 63.32739258 C183.37331488 68.28670093 190.46827448 73.60834812 194.98193359 84.53833008 C196.59535705 89.53703014 197.91384458 94.61590222 199.24951172 99.69458008 C202.23375863 110.51162152 206.89059889 116.89485523 214.98193359 124.53833008 C223.19306059 132.29496665 229.82030261 139.7366022 230.21240234 151.59692383 C230.20907842 153.05662573 230.19430861 154.51633635 230.16943359 155.97583008 C230.16411621 157.14674194 230.16411621 157.14674194 230.15869141 158.34130859 C230.11253488 162.90849727 229.84511397 167.40746845 229.41479492 171.95288086 C228.69322665 179.93541051 229.50504943 185.36848421 232.98193359 192.53833008 C233.88195271 194.44090214 234.7775534 196.3454907 235.67138672 198.25097656 C236.27579316 199.52682305 236.89097787 200.79764404 237.51904297 202.06201172 C242.91366721 213.13811244 243.23859157 223.24128964 239.39990234 234.88208008 C237.42328828 239.97880393 235.1231254 244.89757782 232.71240234 249.80224609 C232.37466797 250.48988037 232.03693359 251.17751465 231.68896484 251.88598633 C231.38450439 252.49450439 231.08004395 253.10302246 230.76635742 253.72998047 C228.82508351 258.20524217 229.02281796 261.81580572 229.41943359 266.66333008 C231.62027439 297.62254317 231.62027439 297.62254317 222.41552734 308.88598633 C218.56176711 313.08615198 214.47094956 317.06001114 210.31298828 320.95874023 C202.84935163 328.14119939 200.43655373 335.63892799 197.98193359 345.53833008 C195.27314881 356.46276981 192.25348117 365.53346424 182.98193359 372.53833008 C176.71727515 376.23460289 169.98932136 379.17459039 163.37255859 382.17504883 C154.69957343 386.37920713 150.17349801 391.50474324 144.98193359 399.53833008 C138.53730482 409.31784318 132.34066286 417.3793982 120.69287109 420.80786133 C115.07929274 421.91284991 109.42617471 422.40594861 103.71923828 422.76831055 C92.83874668 423.52555336 85.18049782 426.51156587 76.41943359 432.97583008 C66.22627545 440.40956067 56.90593541 445.7529919 43.98193359 444.53833008 C39.25071346 443.62885467 34.60889586 442.34533871 29.96386719 441.07666016 C17.25855471 437.62566065 8.63215841 438.5979994 -3.84619141 442.34692383 C-14.93793582 445.62712338 -24.49515551 445.54924003 -35.01806641 440.53833008 C-39.74780162 437.86212136 -44.21826851 434.87446053 -48.58056641 431.63598633 C-49.81806641 430.72139648 -49.81806641 430.72139648 -51.08056641 429.78833008 C-51.79341797 429.23661133 -52.50626953 428.68489258 -53.24072266 428.11645508 C-60.47123666 424.00797736 -68.23005419 423.11984807 -76.39306641 422.60083008 C-89.89250586 421.47360496 -99.8202804 419.14786928 -109.01806641 408.53833008 C-112.04029973 404.54293968 -114.83198862 400.40190358 -117.57275391 396.21020508 C-121.71418417 389.78199268 -121.71418417 389.78199268 -127.70556641 385.22583008 C-128.48416016 384.81204102 -129.26275391 384.39825195 -130.06494141 383.97192383 C-132.37374544 382.85111552 -134.68514914 381.79270641 -137.03369141 380.76098633 C-149.07216443 375.42670206 -159.73519981 369.61795071 -164.75219727 356.63916016 C-165.40616822 354.67873302 -166.00369841 352.71025598 -166.58056641 350.72583008 C-166.79326172 350.02586914 -167.00595703 349.3259082 -167.22509766 348.60473633 C-168.13453918 345.59914299 -169.00442631 342.58860734 -169.82666016 339.55786133 C-170.05482422 338.72641602 -170.28298828 337.8949707 -170.51806641 337.03833008 C-170.69337891 336.34739258 -170.86869141 335.65645508 -171.04931641 334.94458008 C-174.09279237 327.38497849 -179.17304403 322.05982723 -185.01806641 316.53833008 C-193.2291934 308.78169351 -199.85643543 301.34005796 -200.24853516 289.47973633 C-200.24521123 288.02003442 -200.23044142 286.5603238 -200.20556641 285.10083008 C-200.20202148 284.32022217 -200.19847656 283.53961426 -200.19482422 282.73535156 C-200.14866769 278.16816289 -199.88124678 273.6691917 -199.45092773 269.1237793 C-198.72935946 261.14124965 -199.54118225 255.70817594 -203.01806641 248.53833008 C-203.91808553 246.63575802 -204.81368621 244.73116945 -205.70751953 242.82568359 C-206.31192597 241.54983711 -206.92711068 240.27901611 -207.55517578 239.01464844 C-212.94980002 227.93854772 -213.27472439 217.83537052 -209.43603516 206.19458008 C-207.4594211 201.09785622 -205.15925821 196.17908233 -202.74853516 191.27441406 C-202.41080078 190.58677979 -202.07306641 189.89914551 -201.72509766 189.19067383 C-201.26840698 188.27789673 -201.26840698 188.27789673 -200.80249023 187.34667969 C-198.86121633 182.87141799 -199.05895078 179.26085443 -199.45556641 174.41333008 C-201.6564072 143.45411699 -201.6564072 143.45411699 -192.45166016 132.19067383 C-188.59789992 127.99050818 -184.50708238 124.01664902 -180.34912109 120.11791992 C-172.88548445 112.93546077 -170.47268654 105.43773216 -168.01806641 95.53833008 C-165.30977298 84.61587196 -162.29015813 75.53998292 -153.01806641 68.53833008 C-147.88019217 65.49613041 -142.43163851 63.04195009 -137.01806641 60.53833008 C-135.11801165 59.63044587 -133.22137846 58.7153099 -131.33056641 57.78833008 C-130.60482422 57.44286133 -129.87908203 57.09739258 -129.13134766 56.74145508 C-121.93596421 52.64500757 -118.41149442 46.48775216 -114.01025391 39.7121582 C-106.98912848 29.12196068 -99.69939632 22.27077963 -87.01806641 19.53833008 C-82.7000111 18.99601508 -78.3605764 18.71517622 -74.02001953 18.4152832 C-63.04860229 17.52700653 -55.31009399 14.63405529 -46.45556641 8.10083008 C-30.40337718 -3.60581161 -18.88373273 -5.15764021 0 0 Z M-43.20947266 25.48754883 C-53.06738675 32.68560849 -64.13322099 33.65319569 -76.01416016 34.29223633 C-79.06680237 34.42251378 -79.06680237 34.42251378 -82.01806641 35.53833008 C-80.6020158 39.3235174 -78.86385575 42.73582329 -76.85009766 46.23754883 C-76.21193115 47.35081543 -75.57376465 48.46408203 -74.91625977 49.61108398 C-74.22111107 50.8160469 -73.5258777 52.02096098 -72.83056641 53.22583008 C-72.10838023 54.48267807 -71.38646051 55.73967919 -70.66479492 56.99682617 C-68.81063573 60.22470156 -66.95242687 63.45022357 -65.09265137 66.67486572 C-63.44414457 69.53358212 -61.79774953 72.39351462 -60.15087891 75.25317383 C-57.06327464 80.61111116 -53.97085708 85.96625509 -50.87695312 91.32055664 C-47.75482036 96.72503653 -44.63665436 102.1318042 -41.51806641 107.53833008 C-40.26808519 109.70500758 -39.0180852 111.87167425 -37.76806641 114.03833008 C-30.26806641 127.03833008 -30.26806641 127.03833008 -28.39282227 130.28881836 C-27.14371123 132.45390078 -25.89452511 134.6189399 -24.64526367 136.78393555 C-21.50604331 142.22448714 -18.36816078 147.66580224 -15.23291016 153.10864258 C-8.38333848 164.99624866 -1.50914682 176.86874176 5.41577148 188.71264648 C8.29644537 193.64053243 11.16101108 198.57597733 13.98193359 203.53833008 C14.64193359 203.53833008 15.30193359 203.53833008 15.98193359 203.53833008 C16.39330566 202.81581055 16.80467773 202.09329102 17.22851562 201.34887695 C24.42603217 188.71381325 31.6336685 176.08654445 38.98193359 163.53833008 C44.03827166 154.90337127 49.02800492 146.2322667 53.98193359 137.53833008 C59.52179292 127.81708502 65.11568291 118.12938139 70.76538086 108.47143555 C75.00810638 101.21621272 79.22189969 93.94478865 83.41943359 86.66333008 C84.03560547 85.59453613 84.65177734 84.52574219 85.28662109 83.42456055 C87.86100291 78.95760585 90.43419283 74.48996586 93.00634766 70.02172852 C94.36308617 67.66486717 95.7202658 65.30826083 97.07788086 62.9519043 C98.34739478 60.74826139 99.61616627 58.54419052 100.8840332 56.33959961 C104.14811179 50.67449001 107.46612642 45.05524962 110.91333008 39.49926758 C112.14143606 37.61783584 112.14143606 37.61783584 111.98193359 35.53833008 C109.34063661 34.65789775 107.4355159 34.33684237 104.70068359 34.14379883 C90.1549408 32.99924794 80.06785232 30.4480961 68.14208984 21.79614258 C57.5572052 14.11413893 57.5572052 14.11413893 44.98193359 12.53833008 C40.00849823 13.61246618 35.12091553 15.02212513 30.22607422 16.40551758 C18.26695781 19.60273521 8.50266294 18.88266733 -3.33056641 15.53833008 C-20.74642279 10.70844861 -29.05707805 14.53738656 -43.20947266 25.48754883 Z M-97.01806641 43.53833008 C-98.12214844 45.16641602 -98.12214844 45.16641602 -99.24853516 46.82739258 C-100.23405063 48.27281528 -101.21973681 49.7181216 -102.20556641 51.16333008 C-102.92969727 52.23260742 -102.92969727 52.23260742 -103.66845703 53.32348633 C-112.21156294 65.82279564 -121.76333388 71.9629546 -135.7355957 77.61010742 C-142.71007261 80.52012423 -146.8784378 84.30784793 -150.09765625 91.19165039 C-152.29402377 96.79151369 -153.64794005 102.69308972 -155.10986328 108.51879883 C-158.25111797 120.09803741 -164.67844922 127.67947504 -173.26806641 135.78833008 C-181.1132338 142.95593151 -181.1132338 142.95593151 -184.34619141 152.80786133 C-184.30751953 154.56163086 -184.30751953 154.56163086 -184.26806641 156.35083008 C-184.24486328 157.66051758 -184.22166016 158.97020508 -184.19775391 160.31958008 C-184.09372287 163.20002373 -183.92251271 166.06994095 -183.71337891 168.94458008 C-183.66149414 169.6795874 -183.60960937 170.41459473 -183.55615234 171.171875 C-183.45119304 172.574213 -183.33309224 173.97566142 -183.19873047 175.37548828 C-182.42626882 185.17639536 -185.48164858 193.36835486 -189.64306641 202.10083008 C-190.46986865 203.87236801 -191.29546052 205.64447153 -192.11962891 207.41723633 C-192.66611084 208.57074585 -192.66611084 208.57074585 -193.22363281 209.74755859 C-194.08565207 211.36416519 -194.08565207 211.36416519 -194.01806641 212.53833008 C-129.66806641 212.53833008 -65.31806641 212.53833008 0.98193359 212.53833008 C-8.90399685 194.41412426 -19.01652513 176.43936205 -29.45556641 158.62817383 C-33.15019951 152.32262589 -36.80659322 145.99538572 -40.45556641 139.66333008 C-41.07810303 138.58317627 -41.70063965 137.50302246 -42.34204102 136.39013672 C-43.60383467 134.20036674 -44.86547174 132.01050653 -46.12695312 129.82055664 C-49.25486789 124.39173065 -52.38665088 118.96513727 -55.51806641 113.53833008 C-56.7680852 111.37167425 -58.01808519 109.20500758 -59.26806641 107.03833008 C-59.88681641 105.96583008 -60.50556641 104.89333008 -61.14306641 103.78833008 C-66.76806641 94.03833008 -66.76806641 94.03833008 -68.64575195 90.78320312 C-69.88625453 88.63331139 -71.12729596 86.48373049 -72.36889648 84.33447266 C-75.29350023 79.27036529 -78.21260407 74.20332106 -81.11239624 69.12496948 C-82.47870513 66.73295891 -83.84811926 64.342733 -85.21777344 61.95263672 C-86.18027655 60.27004045 -87.13829572 58.58488171 -88.09619141 56.8996582 C-88.68271484 55.87678711 -89.26923828 54.85391602 -89.87353516 53.80004883 C-90.38553467 52.9024585 -90.89753418 52.00486816 -91.42504883 51.08007812 C-93.11041449 48.39098359 -94.9916972 45.97781855 -97.01806641 43.53833008 Z M125.98193359 43.53833008 C125.57579834 44.25037598 125.16966309 44.96242187 124.7512207 45.69604492 C115.49163597 61.92594916 106.19418336 78.13313154 96.84521484 94.31176758 C94.96158309 97.57357015 93.08071038 100.83694852 91.20068359 104.10083008 C85.1775362 114.55545959 79.13670914 124.9988145 73.04443359 135.41333008 C67.62545542 144.67865396 62.28517473 153.98720296 56.97076416 163.31268311 C51.09944584 173.61282362 45.15402528 183.86834156 39.16552734 194.10083008 C38.39764893 195.41374023 38.39764893 195.41374023 37.61425781 196.75317383 C36.42115892 198.78890105 35.22435202 200.82245636 34.02539062 202.85473633 C33.38327637 203.94657227 32.74116211 205.0384082 32.07958984 206.16333008 C31.48799072 207.1662207 30.8963916 208.16911133 30.28686523 209.20239258 C28.90065117 211.23787997 28.90065117 211.23787997 28.98193359 212.53833008 C93.33193359 212.53833008 157.68193359 212.53833008 223.98193359 212.53833008 C220.85035904 204.66192662 220.85035904 204.66192662 217.35693359 197.03833008 C213.03295146 187.45617214 212.92124026 179.27605148 213.67333984 168.94067383 C213.97631343 164.76258516 214.19065484 160.6018406 214.29443359 156.41333008 C214.33181641 155.25575195 214.36919922 154.09817383 214.40771484 152.90551758 C213.2316574 143.60495324 205.69810928 138.04058255 199.26904297 131.94262695 C190.42521593 123.37881554 187.1176119 115.78312212 183.91943359 103.91333008 C180.15086713 89.72620651 180.15086713 89.72620651 169.98193359 79.53833008 C167.15019424 78.10057088 164.23740272 76.91529043 161.29443359 75.72583008 C146.41922953 69.33141637 138.44372148 61.11707693 129.84472656 47.77368164 C128.91413231 46.34618439 127.95111496 44.93991544 126.98193359 43.53833008 C126.65193359 43.53833008 126.32193359 43.53833008 125.98193359 43.53833008 Z M-194.01806641 228.53833008 C-190.27075879 237.5322869 -190.27075879 237.5322869 -186.26806641 246.41333008 C-182.57532991 255.28518757 -182.59165229 264.42442298 -183.74462891 273.83520508 C-184.09534391 277.30227335 -184.24176366 280.74202985 -184.33056641 284.22583008 C-184.36794922 285.44657227 -184.40533203 286.66731445 -184.44384766 287.92504883 C-183.32722758 297.40095319 -175.85222024 302.92417559 -169.30517578 309.1340332 C-160.46134874 317.69784461 -157.15374471 325.29353804 -153.95556641 337.16333008 C-150.18699994 351.35045365 -150.18699994 351.35045365 -140.01806641 361.53833008 C-137.18632706 362.97608927 -134.27353553 364.16136973 -131.33056641 365.35083008 C-117.26607499 371.39674221 -109.24180295 378.87679571 -101.01806641 391.53833008 C-100.25787474 392.68257525 -99.49624291 393.82586545 -98.73291016 394.96801758 C-98.16701172 395.8162207 -97.60111328 396.66442383 -97.01806641 397.53833008 C-94.26059641 394.23294431 -91.98911167 390.94890551 -89.91650391 387.17895508 C-89.34939697 386.15487549 -88.78229004 385.1307959 -88.19799805 384.07568359 C-87.60237061 382.99085693 -87.00674316 381.90603027 -86.39306641 380.78833008 C-82.36098366 373.51518715 -78.32793492 366.25082295 -74.08056641 359.10083008 C-69.94465003 352.13077422 -65.87685361 345.12331627 -61.83056641 338.10083008 C-60.87355835 336.4399939 -60.87355835 336.4399939 -59.8972168 334.74560547 C-58.58917164 332.4749594 -57.28131193 330.2042065 -55.97363281 327.93334961 C-52.8247459 322.46663033 -49.6712815 317.00255362 -46.51806641 311.53833008 C-42.75441275 305.01600569 -38.99162018 298.49319244 -35.23291016 291.96801758 C-29.10369517 281.33049126 -22.95869285 270.70275651 -16.76806641 260.10083008 C-16.19677002 259.12218994 -15.62547363 258.1435498 -15.03686523 257.13525391 C-10.06725187 248.6225498 -10.06725187 248.6225498 -8.34130859 245.66723633 C-6.77297909 242.97973645 -5.20759809 240.29054216 -3.64306641 237.60083008 C-2.93682129 236.39245483 -2.93682129 236.39245483 -2.21630859 235.15966797 C-0.02515621 232.0283116 -0.02515621 232.0283116 0.98193359 228.53833008 C-63.36806641 228.53833008 -127.71806641 228.53833008 -194.01806641 228.53833008 Z M28.98193359 228.53833008 C37.48290572 244.12344564 46.03543901 259.68501202 55.09350586 274.95507812 C58.83541199 281.26668178 62.5062603 287.61825273 66.16943359 293.97583008 C66.80743896 295.0830542 67.44544434 296.19027832 68.1027832 297.33105469 C69.41082836 299.60170075 70.71868807 301.87245366 72.02636719 304.14331055 C75.17525413 309.61002987 78.32876623 315.07407895 81.48193359 320.53833008 C82.73195709 322.70498319 83.98195706 324.87164987 85.23193359 327.03833008 C85.85068359 328.11083008 86.46943359 329.18333008 87.10693359 330.28833008 C92.73193359 340.03833008 92.73193359 340.03833008 94.60888672 343.29174805 C95.85233869 345.44704318 97.09582795 347.60231681 98.33935547 349.75756836 C101.22656234 354.76170682 104.1134379 359.76603528 106.99890137 364.7711792 C108.00812463 366.52174249 109.01747196 368.27223419 110.02685547 370.02270508 C111.28361019 372.20225173 112.54013945 374.3819284 113.79638672 376.56176758 C117.83609801 383.56694291 121.90130199 390.55691515 125.98193359 397.53833008 C129.14934721 394.45948375 131.52736636 391.38642879 133.91943359 387.66333008 C135.27154633 385.6203026 136.62549112 383.57848545 137.98193359 381.53833008 C138.39185547 380.92086914 138.80177734 380.3034082 139.22412109 379.66723633 C144.46941854 372.60331385 152.93871191 368.8973794 160.83007812 365.60620117 C171.7272992 361.31006745 171.7272992 361.31006745 178.98193359 352.53833008 C180.70441324 347.96693981 182.09885464 343.35715517 183.39794922 338.65063477 C187.70458396 323.07329203 194.09653908 314.01980681 205.73925781 302.94067383 C210.30543304 298.52472472 213.64987192 294.84708748 214.31005859 288.26879883 C214.27138672 286.5150293 214.27138672 286.5150293 214.23193359 284.72583008 C214.20873047 283.41614258 214.18552734 282.10645508 214.16162109 280.75708008 C214.05759006 277.87663643 213.88637989 275.00671921 213.67724609 272.13208008 C213.62536133 271.39707275 213.57347656 270.66206543 213.52001953 269.90478516 C213.41506023 268.50244715 213.29695943 267.10099874 213.16259766 265.70117188 C212.390136 255.9002648 215.44551577 247.7083053 219.60693359 238.97583008 C220.43373583 237.20429215 221.2593277 235.43218863 222.08349609 233.65942383 C222.44781738 232.89041748 222.81213867 232.12141113 223.1875 231.32910156 C224.04951926 229.71249497 224.04951926 229.71249497 223.98193359 228.53833008 C159.63193359 228.53833008 95.28193359 228.53833008 28.98193359 228.53833008 Z M13.98193359 237.53833008 C13.57579834 238.25037598 13.16966309 238.96242188 12.7512207 239.69604492 C0.04043375 261.97510612 -12.72922649 284.21816572 -25.67871094 306.35961914 C-30.17334068 314.05857841 -34.60406539 321.79301254 -39.01806641 329.53833008 C-44.55142238 339.24779752 -50.13687324 348.92486698 -55.78173828 358.57006836 C-60.8511753 367.23590883 -65.86843155 375.93126292 -70.86987305 384.63647461 C-74.15035571 390.33745936 -77.48304492 395.99283364 -80.95166016 401.58178711 C-82.17759166 403.45963026 -82.17759166 403.45963026 -82.01806641 405.53833008 C-79.37676942 406.41876241 -77.47164871 406.73981779 -74.73681641 406.93286133 C-60.19107362 408.07741222 -50.10398513 410.62856405 -38.17822266 419.28051758 C-27.59333801 426.96252122 -27.59333801 426.96252122 -15.01806641 428.53833008 C-10.04463104 427.46419397 -5.15704834 426.05453503 -0.26220703 424.67114258 C11.69690938 421.47392495 21.46120425 422.19399282 33.29443359 425.53833008 C44.02144585 428.51321667 50.65579478 429.7917575 60.79443359 424.45629883 C65.17914954 421.81794646 69.13070601 418.71702698 73.17333984 415.58911133 C83.03125393 408.39105167 94.09708818 407.42346446 105.97802734 406.78442383 C109.03066956 406.65414637 109.03066956 406.65414637 111.98193359 405.53833008 C110.56588299 401.75314276 108.82772294 398.34083686 106.81396484 394.83911133 C106.17579834 393.72584473 105.53763184 392.61257813 104.88012695 391.46557617 C104.18497826 390.26061325 103.48974489 389.05569918 102.79443359 387.85083008 C102.07224742 386.59398209 101.35032769 385.33698096 100.62866211 384.07983398 C98.77450292 380.8519586 96.91629406 377.62643659 95.05651855 374.40179443 C93.40801176 371.54307803 91.76161672 368.68314554 90.11474609 365.82348633 C87.02714183 360.46554899 83.93472426 355.11040507 80.84082031 349.75610352 C77.71868754 344.35162362 74.60052155 338.94485596 71.48193359 333.53833008 C70.23195238 331.37165257 68.98195238 329.2049859 67.73193359 327.03833008 C45.2319336 288.03833008 45.2319336 288.03833008 43.35400391 284.78320312 C42.11382598 282.63359373 40.87359233 280.48401649 39.63330078 278.33447266 C36.7084313 273.26523796 33.78412526 268.19568072 30.86181641 263.12496948 C29.48386422 260.73406411 28.10559187 258.34334336 26.72729492 255.95263672 C25.75652377 254.26849045 24.78621485 252.58407776 23.81591797 250.8996582 C23.22617187 249.87678711 22.63642578 248.85391602 22.02880859 247.80004883 C21.51157227 246.9024585 20.99433594 246.00486816 20.46142578 245.08007812 C19.72907715 243.82191284 19.72907715 243.82191284 18.98193359 242.53833008 C18.4653418 241.60480713 17.94875 240.67128418 17.41650391 239.70947266 C16.9430957 238.99299561 16.4696875 238.27651855 15.98193359 237.53833008 C15.32193359 237.53833008 14.66193359 237.53833008 13.98193359 237.53833008 Z " fill="#D69F5A" transform="translate(241.01806640625,35.461669921875)"/>
<path d="M0 0 C3.2885509 0.00462308 6.57673124 -0.00227016 9.86523438 -0.02050781 C78.14279987 -0.39551073 123.28572008 22.54249329 176.32373047 64.31567383 C177.17112793 64.98300537 177.17112793 64.98300537 178.03564453 65.66381836 C217.98987778 97.47922632 235.0035039 138.05411848 249.76123047 185.62817383 C250.01294006 186.43766479 250.26464966 187.24715576 250.52398682 188.08117676 C257.07857859 209.2709944 261.74960833 229.7547738 261.63623047 252.06567383 C261.63349625 253.18718842 261.63349625 253.18718842 261.63070679 254.33135986 C261.52650624 279.7515407 254.84185413 303.4216428 247.13623047 327.50317383 C246.7114592 328.83538971 246.7114592 328.83538971 246.27810669 330.19451904 C237.60996447 357.29061537 228.15044414 386.40318205 209.32373047 408.31567383 C208.65470703 409.10973633 207.98568359 409.90379883 207.29638672 410.72192383 C205.03323258 413.31801871 202.70020308 415.82267284 200.32373047 418.31567383 C199.78474121 418.88189453 199.24575195 419.44811523 198.69042969 420.03149414 C190.67483359 428.39731827 182.43272094 436.04196677 173.13916016 442.9621582 C171.24517216 444.37424393 169.36578434 445.80427035 167.48779297 447.23754883 C157.93417557 454.50136844 148.19368725 461.48895372 138.32373047 468.31567383 C137.68048828 468.76185059 137.03724609 469.20802734 136.37451172 469.66772461 C96.6839962 497.07259344 58.40916543 504.70423732 10.64746094 504.63134766 C7.35891004 504.62672458 4.0707297 504.63361781 0.78222656 504.65185547 C-56.91246637 504.96875649 -97.02419437 490.99044035 -143.36132812 457.00854492 C-145.74709859 455.26387793 -148.14261583 453.53324407 -150.53955078 451.80395508 C-207.15121435 410.79917742 -236.59433137 351.79160956 -248.67626953 283.31567383 C-248.85520752 282.3039209 -249.03414551 281.29216797 -249.21850586 280.24975586 C-250.70567003 270.97917339 -251.03634056 261.92687006 -250.98876953 252.56567383 C-250.98694672 251.81799744 -250.9851239 251.07032104 -250.98324585 250.29998779 C-250.87904531 224.87980696 -244.19439319 201.20970485 -236.48876953 177.12817383 C-236.06399826 175.79595795 -236.06399826 175.79595795 -235.63064575 174.43682861 C-226.91466217 147.19118303 -217.34941922 118.51268068 -198.67626953 96.31567383 C-197.84205083 95.27314962 -197.01010269 94.22880535 -196.18017578 93.18286133 C-192.07476389 88.06127387 -187.89761416 83.30490448 -182.82470703 79.12426758 C-180.25235176 76.95881214 -177.85946919 74.63641468 -175.42626953 72.31567383 C-167.11214569 64.56694294 -157.83924131 58.01020294 -148.67626953 51.31567383 C-147.89380859 50.73994629 -147.11134766 50.16421875 -146.30517578 49.57104492 C-99.52507459 15.15568415 -58.38868245 -0.08908494 0 0 Z M-113.67626953 46.31567383 C-114.95855827 47.20797946 -116.24112831 48.09988096 -117.52392578 48.99145508 C-135.12819369 61.27841412 -152.52781746 73.76888426 -168.39892578 88.26098633 C-170.35003113 90.02133181 -172.33640497 91.70751706 -174.36376953 93.37817383 C-196.32701192 112.22570044 -207.75417965 141.66084077 -216.67626953 168.31567383 C-216.92137268 169.04687439 -217.16647583 169.77807495 -217.41900635 170.53143311 C-241.95940041 243.9903392 -235.21179311 305.99559725 -200.57666016 375.83056641 C-195.81281362 385.13485036 -190.48606586 393.38038529 -183.67626953 401.31567383 C-182.97630859 402.15356445 -182.27634766 402.99145508 -181.55517578 403.85473633 C-177.90219178 408.11299058 -174.04998763 411.92020264 -169.76220703 415.53442383 C-168.36263128 416.72956717 -166.99242508 417.95991338 -165.65283203 419.22192383 C-156.96877147 427.3879878 -147.27342323 434.27486441 -137.67626953 441.31567383 C-136.87495605 441.90493652 -136.07364258 442.49419922 -135.24804688 443.10131836 C-76.41470422 486.27848891 -14.27760144 497.40677245 57.91137695 486.60668945 C82.3129072 482.66057504 104.22379464 472.49353118 124.32373047 458.31567383 C125.60601921 457.42336819 126.88858925 456.5314667 128.17138672 455.63989258 C145.77565463 443.35293353 163.1752784 430.86246339 179.04638672 416.37036133 C180.99749207 414.61001585 182.98386591 412.92383059 185.01123047 411.25317383 C222.92264077 378.71989383 241.40799923 308.10707381 246.11889648 260.02587891 C248.647947 226.56343585 235.83202727 193.32426168 224.99493408 162.24261475 C224.39116046 160.50925682 223.79242992 158.77414423 223.19433594 157.03881836 C216.48349274 137.73244045 207.80135568 118.84920798 194.32373047 103.31567383 C193.62505859 102.48036133 192.92638672 101.64504883 192.20654297 100.78442383 C188.55445023 96.52128055 184.69973968 92.71307623 180.40966797 89.09692383 C179.01009221 87.90178049 177.63988602 86.67143427 176.30029297 85.40942383 C167.6162324 77.24335986 157.92088417 70.35648325 148.32373047 63.31567383 C147.52241699 62.72641113 146.72110352 62.13714844 145.89550781 61.5300293 C77.66786137 11.45847813 -22.5281505 -6.28899297 -113.67626953 46.31567383 Z " fill="#D69F5A" transform="translate(250.67626953125,3.684326171875)"/>
<path d="M0 0 C1.39529983 0.9311254 2.78273258 1.87411539 4.16333008 2.8269043 C4.9023909 3.32651169 5.64145172 3.82611908 6.40290833 4.34086609 C7.95854616 5.39588826 9.51071233 6.45604548 11.05957031 7.52099609 C13.42724009 9.14726203 15.80684375 10.75474251 18.1887207 12.36010742 C19.70183313 13.38961574 21.21422807 14.42017955 22.72583008 15.4519043 C23.78993355 16.17087639 23.78993355 16.17087639 24.87553406 16.90437317 C29.41073177 20.03900782 32.76076309 22.36717202 33.87036133 28.02612305 C32.72682685 35.00168339 27.77246995 39.83101149 22.43286133 44.21362305 C15.49329972 49.00458962 8.31409922 50.5701098 -0.02026367 49.4753418 C-10.82369582 46.95968545 -18.76528438 40.22158992 -24.53198242 30.99487305 C-27.6626532 25.47369008 -28.71848376 20.10361612 -27.75463867 13.83862305 C-25.46711368 6.97604806 -22.24433972 2.15558136 -15.75463867 -1.16137695 C-9.85056828 -3.81218407 -5.46278281 -3.40740657 0 0 Z M-9.75463867 13.83862305 C-12.00887626 16.61905422 -12.00887626 16.61905422 -11.75463867 19.58862305 C-9.94683446 25.46398672 -6.13301651 29.33939236 -0.81713867 32.33862305 C3.13776901 34.1115127 6.02721251 33.99654625 10.24536133 32.83862305 C11.23536133 32.17862305 12.22536133 31.51862305 13.24536133 30.83862305 C13.24536133 30.17862305 13.24536133 29.51862305 13.24536133 28.83862305 C10.9143522 27.02480305 10.9143522 27.02480305 7.93286133 25.15112305 C6.84875977 24.44600586 5.7646582 23.74088867 4.64770508 23.0144043 C3.51415156 22.28826726 2.38003847 21.56300302 1.24536133 20.83862305 C0.17415039 20.15155273 -0.89706055 19.46448242 -2.00073242 18.7565918 C-4.58051698 17.10942116 -7.16484161 15.46999127 -9.75463867 13.83862305 Z " fill="#D69F5A" transform="translate(184.754638671875,193.161376953125)"/>
<path d="M0 0 C2.94252801 1.83251303 5.80381801 3.75111498 8.65673828 5.72021484 C9.67670898 6.40631836 10.69667969 7.09242188 11.74755859 7.79931641 C13.75922039 9.15389952 15.76669443 10.51472659 17.76953125 11.88232422 C20.01128178 13.40844992 22.26398204 14.91110998 24.53564453 16.39208984 C33.41800712 22.19014739 33.41800712 22.19014739 35.46923828 24.72021484 C36.24110593 29.78023608 35.95969617 32.59444413 32.96923828 36.78271484 C26.56058176 44.40706499 20.34238566 49.75142201 10.21533203 50.99755859 C-0.2278891 51.45161169 -8.90031609 46.78428428 -16.51123047 39.93896484 C-22.20991799 34.00941364 -24.91423002 27.19006967 -26.03076172 19.09521484 C-24.94502659 11.76650273 -22.16228206 6.40143319 -16.25341797 1.87255859 C-11.01892094 -1.6289757 -5.75095188 -2.90820854 0 0 Z M-7.53076172 15.72021484 C-9.82898787 17.55839078 -9.82898787 17.55839078 -9.59326172 20.34521484 C-7.73122872 26.2599079 -3.62501194 30.21781795 1.34423828 33.78271484 C5.43710091 35.01057363 9.40306621 35.20843382 13.46923828 33.72021484 C14.60394852 31.71698232 14.60394852 31.71698232 15.46923828 29.72021484 C12.01588624 27.37944158 8.55576524 25.04887844 5.09423828 22.72021484 C4.10939453 22.05248047 3.12455078 21.38474609 2.10986328 20.69677734 C1.16884766 20.06513672 0.22783203 19.43349609 -0.74169922 18.78271484 C-1.61101074 18.19619141 -2.48032227 17.60966797 -3.37597656 17.00537109 C-5.39888904 15.54947052 -5.39888904 15.54947052 -7.53076172 15.72021484 Z " fill="#D69F5A" transform="translate(255.53076171875,396.27978515625)"/>
<path d="M0 0 C1.12796824 0.99783739 2.23932546 2.01467645 3.3359375 3.046875 C3.93349854 3.58393066 4.53105957 4.12098633 5.14672852 4.67431641 C7.01821467 6.36448465 8.86574505 8.07807896 10.7109375 9.796875 C11.89382863 10.88357781 13.077406 11.96953418 14.26171875 13.0546875 C16.46579339 15.07932424 18.65970779 17.11421022 20.84765625 19.15625 C23.17754025 21.30495611 25.53380701 23.38526042 27.9609375 25.421875 C30.91830444 27.97596463 31.50188177 28.69933244 32.2109375 32.421875 C31.32744883 38.3854235 27.06210338 41.92090082 22.48828125 45.5703125 C15.43845838 50.52816392 8.35093316 52.9262862 -0.2890625 51.796875 C-10.26579241 49.07031527 -17.63618792 43.81388417 -23.0390625 35.01953125 C-26.71583317 28.48177341 -29.30403047 21.94720834 -27.81640625 14.3984375 C-25.94881411 8.25477373 -23.38619403 3.90754585 -17.7890625 0.546875 C-11.70385618 -2.49572816 -6.03578808 -4.04297444 0 0 Z M-10.2890625 14.796875 C-11.71942908 17.6124387 -12.44564783 19.13375189 -11.70703125 22.26171875 C-8.48786473 28.73071051 -4.95950538 32.79164013 1.7109375 35.796875 C5.49072023 36.4387249 6.86466449 36.33136322 10.0859375 34.296875 C10.6221875 33.801875 11.1584375 33.306875 11.7109375 32.796875 C5.47023657 26.38065435 -1.06583057 20.10807495 -8.2890625 14.796875 C-8.9490625 14.796875 -9.6090625 14.796875 -10.2890625 14.796875 Z " fill="#D69F5A" transform="translate(352.2890625,271.203125)"/>
<path d="M0 0 C5.94549695 4.88851972 7.30213377 11.93621453 8.3203125 19.32421875 C8.70852099 26.53195637 6.55624382 33.4573468 2.33984375 39.30078125 C-3.96226148 46.17227586 -12.83623899 50.60527639 -22.171875 51.203125 C-31.0846949 51.31988683 -36.72883847 50.73999041 -44.3125 45.875 C-49.29258259 40.54746979 -50.31650108 34.46440619 -50.3984375 27.3359375 C-49.79390662 23.79172703 -49.17078233 20.88337222 -47 18 C-43.64888493 15.68885985 -40.03796877 14.11771214 -36.3125 12.5 C-35.28116943 12.03295654 -34.24983887 11.56591309 -33.18725586 11.0847168 C-31.1064972 10.14600557 -29.02129902 9.21706896 -26.93164062 8.29833984 C-24.33566165 7.14865495 -21.76670358 5.95801305 -19.203125 4.73828125 C-17.82341445 4.09528496 -16.44324324 3.45327572 -15.0625 2.8125 C-13.28552734 1.98685547 -13.28552734 1.98685547 -11.47265625 1.14453125 C-7.25562196 -0.24533495 -4.41791805 -0.37894276 0 0 Z M-14.34765625 20.40625 C-15.42724609 20.90253906 -16.50683594 21.39882813 -17.61914062 21.91015625 C-19.32360352 22.69712891 -19.32360352 22.69712891 -21.0625 23.5 C-22.20267578 24.02464844 -23.34285156 24.54929687 -24.51757812 25.08984375 C-27.34583064 26.39154993 -30.1732609 27.6950114 -33 29 C-33 30.32 -33 31.64 -33 33 C-30.55049379 35.44950621 -29.75276979 35.32271254 -26.375 35.375 C-19.91128606 35.24423122 -15.75934911 32.91031862 -10.5625 29.3125 C-8.19209617 25.80430234 -8.17757715 22.15530534 -8 18 C-10.15633683 18 -12.45105338 19.5324225 -14.34765625 20.40625 Z " fill="#D69F5A" transform="translate(273,322)"/>
<path d="M0 0 C6.89773176 4.50106225 12.92283819 10.68267763 15.34765625 18.73828125 C16.67487356 25.29994442 16.05556362 30.90548722 12.765625 36.8046875 C8.89197468 41.4315476 4.10886133 45.4736939 -2.07763672 46.08618164 C-5.76281124 45.75756554 -8.04081156 44.7168353 -11.3046875 42.98828125 C-12.449375 42.38822266 -13.5940625 41.78816406 -14.7734375 41.16992188 C-15.96878733 40.52741319 -17.16409971 39.88483483 -18.359375 39.2421875 C-19.51953125 38.63310547 -20.6796875 38.02402344 -21.875 37.39648438 C-25.34524734 35.56237714 -28.79309223 33.69252468 -32.234375 31.8046875 C-33.3800293 31.18223145 -34.52568359 30.55977539 -35.70605469 29.91845703 C-36.78532227 29.31501465 -37.86458984 28.71157227 -38.9765625 28.08984375 C-39.94190918 27.55367432 -40.90725586 27.01750488 -41.90185547 26.46508789 C-44.37788169 24.70253249 -45.27428095 23.65599228 -46.234375 20.8046875 C-46.234375 13.44876091 -42.37601114 8.34588335 -37.66796875 3.0390625 C-26.67865095 -7.44712991 -12.69883647 -6.94779273 0 0 Z M-26.234375 14.8046875 C-22.51765762 19.24813733 -17.6695011 21.45665261 -12.609375 24.0546875 C-11.73796875 24.51359375 -10.8665625 24.9725 -9.96875 25.4453125 C-5.80834973 27.87355651 -5.80834973 27.87355651 -1.234375 28.8046875 C-0.0999655 26.20333766 -0.0999655 26.20333766 -0.234375 22.8046875 C-3.72061588 16.93430769 -8.80878869 12.98285235 -15.234375 10.8046875 C-19.99235219 9.89840613 -22.46940779 12.00285144 -26.234375 14.8046875 Z " fill="#D69F5A" transform="translate(146.234375,306.1953125)"/>
<path d="M0 0 C6.44074978 4.57115623 12.41457774 9.76386851 18.40234375 14.90625 C22.07134304 18.04806849 25.8454743 21.05139067 29.640625 24.0390625 C33.46892262 27.13742102 33.46892262 27.13742102 33.97265625 29.515625 C34.15288563 33.8786779 33.92498251 36.81523336 31.12890625 40.28515625 C24.24080299 47.28724704 16.67112622 51.57093518 6.81640625 51.97265625 C-2.72288434 51.76040998 -9.52140861 48.4120467 -16.390625 41.87109375 C-22.15447346 35.45702147 -26.24919321 28.13235053 -26.49609375 19.3828125 C-26.10433895 12.22104507 -23.06747117 7.16399836 -17.99609375 2.22265625 C-12.41003295 -1.31972377 -6.08614319 -3.50710338 0 0 Z M-8.43359375 15.59765625 C-9.86141243 17.65335849 -9.86141243 17.65335849 -10.43359375 20.59765625 C-8.75103675 26.85265822 -4.57732108 30.93623458 0.56640625 34.59765625 C3.69347584 36.16119105 7.14623068 35.99724112 10.56640625 35.59765625 C11.55640625 34.93765625 12.54640625 34.27765625 13.56640625 33.59765625 C12.17925848 29.43621294 9.19470643 27.71439738 5.81640625 25.16015625 C4.5715206 24.20324726 3.32672735 23.24621804 2.08203125 22.2890625 C1.48326172 21.83418457 0.88449219 21.37930664 0.26757812 20.91064453 C-1.26915514 19.72457228 -2.76807119 18.48989252 -4.26171875 17.25 C-6.24405153 15.39582878 -6.24405153 15.39582878 -8.43359375 15.59765625 Z " fill="#D69F5A" transform="translate(288.43359375,65.40234375)"/>
<path d="M0 0 C5.37254048 4.92106649 8.64236672 10.12784707 9.31640625 17.42578125 C9.56791302 25.49833734 8.91526676 31.90129204 5 39 C4.57589844 39.79148438 4.15179688 40.58296875 3.71484375 41.3984375 C-0.24786267 48.04342152 -5.61905055 52.53968352 -13 55 C-20.85403986 55.79149239 -26.63861102 54.09071886 -32.8125 49.0625 C-35.30482326 46.92377866 -36.99001666 45.15820189 -38 42 C-37.49728083 36.3188896 -36.36608857 31.00870058 -34.85546875 25.51953125 C-34.64440994 24.74365158 -34.43335114 23.96777191 -34.21589661 23.16838074 C-33.77086324 21.54152731 -33.32279921 19.91550014 -32.87182617 18.2902832 C-32.18738797 15.81209437 -31.52213525 13.32924492 -30.85742188 10.84570312 C-30.42043526 9.25749165 -29.98232263 7.66958948 -29.54296875 6.08203125 C-29.34801315 5.34547806 -29.15305756 4.60892487 -28.95219421 3.85005188 C-27.70235686 -0.56362529 -26.18442145 -3.68228455 -23 -7 C-15.2234493 -10.30884608 -6.07044604 -4.50121509 0 0 Z M-14 11 C-15.2013427 15.10024455 -16.38368348 19.20572777 -17.5625 23.3125 C-17.90474609 24.47974609 -18.24699219 25.64699219 -18.59960938 26.84960938 C-18.91865234 27.96787109 -19.23769531 29.08613281 -19.56640625 30.23828125 C-19.86490479 31.26993408 -20.16340332 32.30158691 -20.47094727 33.36450195 C-21.24540446 36.09171566 -21.24540446 36.09171566 -20 39 C-15.1357806 38.58306691 -13.10123327 36.67251308 -10 33 C-6.61144347 27.9755886 -5.94888743 22.90534153 -7 17 C-8.40457233 14.36772741 -9.73940104 13.04530382 -12 11 C-12.66 11 -13.32 11 -14 11 Z " fill="#D69F5A" transform="translate(262,122)"/>
<path d="M0 0 C2.04658278 1.22090598 3.76948314 2.50430535 5.54296875 4.09375 C6.06890625 4.56296875 6.59484375 5.0321875 7.13671875 5.515625 C9.56241532 8.02217812 10.51340223 9.72648606 10.79370117 13.20825195 C10.49932727 17.77004416 9.61967834 21.95761841 8.53125 26.38671875 C8.32114792 27.25516922 8.11104584 28.12361969 7.89457703 29.01838684 C7.44917755 30.84398582 6.99929363 32.66849595 6.54516602 34.49194336 C5.85610864 37.27866213 5.19625072 40.07130976 4.53710938 42.86523438 C4.09943056 44.64366677 3.66003562 46.42167788 3.21875 48.19921875 C3.02581863 49.0315654 2.83288727 49.86391205 2.6341095 50.72148132 C1.36024944 55.6805959 0.16171257 58.36163789 -4.45703125 61.09375 C-12.86090423 62.35079991 -20.63067436 57.67238182 -27.33203125 53.15625 C-32.4561088 48.18288062 -35.10915563 42.69790326 -35.79296875 35.61328125 C-35.92724609 22.87036203 -33.42293836 13.42838489 -24.45703125 4.09375 C-17.74090017 -1.54467632 -8.29946636 -3.06117042 0 0 Z M-11.83203125 14.96875 C-16.41113189 18.67564099 -18.95074172 23.1289185 -19.9453125 28.953125 C-20.17558594 33.82176345 -20.09087613 36.25974358 -17.08203125 40.21875 C-14.63465529 42.06992238 -14.63465529 42.06992238 -12.45703125 43.09375 C-11.44931609 39.17902676 -10.45220315 35.261679 -9.45703125 31.34375 C-9.17085937 30.23257813 -8.8846875 29.12140625 -8.58984375 27.9765625 C-8.18378906 26.37167969 -8.18378906 26.37167969 -7.76953125 24.734375 C-7.51816406 23.74985352 -7.26679687 22.76533203 -7.0078125 21.75097656 C-6.32172286 18.89324373 -6.32172286 18.89324373 -6.45703125 15.09375 C-9.36267627 13.77814886 -9.36267627 13.77814886 -11.83203125 14.96875 Z " fill="#D69F5A" transform="translate(128.45703125,139.90625)"/>
<path d="M0 0 C3.39842518 7.85885822 2.69194975 16.93260166 0.03515625 24.890625 C-3.5361344 33.24609747 -9.45554797 38.05188651 -17.73046875 41.42578125 C-25.86253216 43.63125125 -37.17349543 43.66277663 -45.07421875 40.42578125 C-50.60845531 37.22647614 -55.18104691 33.0943167 -58 27.3125 C-58.97743483 20.43523333 -58.64034281 14.03185321 -55.265625 7.8984375 C-51.5147205 3.19823001 -47.10938929 2.51678185 -41.39453125 1.671875 C-40.55589035 1.5405719 -39.71724945 1.4092688 -38.85319519 1.27398682 C-37.07968392 0.99951863 -35.30525676 0.73091307 -33.5300293 0.46777344 C-30.83669943 0.06610893 -28.14808003 -0.36006952 -25.45898438 -0.7890625 C-23.72939431 -1.05357613 -21.99958224 -1.31664302 -20.26953125 -1.578125 C-19.47545364 -1.7051178 -18.68137604 -1.8321106 -17.86323547 -1.96295166 C-4.59215955 -3.87463462 -4.59215955 -3.87463462 0 0 Z M-21.8828125 15.1875 C-23.04941406 15.36796875 -24.21601563 15.5484375 -25.41796875 15.734375 C-27.25294922 16.02054688 -27.25294922 16.02054688 -29.125 16.3125 C-30.35605469 16.50328125 -31.58710938 16.6940625 -32.85546875 16.890625 C-35.90385644 17.36324325 -38.95202007 17.83726033 -42 18.3125 C-41.49379231 22.26209447 -41.49379231 22.26209447 -38.83984375 25.09765625 C-33.70166577 27.29569387 -28.4776736 26.92572384 -23 26.3125 C-17.94821553 24.04790696 -16.00176884 21.42813147 -14 16.3125 C-14 15.6525 -14 14.9925 -14 14.3125 C-16.68598692 14.3125 -19.22769366 14.77505436 -21.8828125 15.1875 Z " fill="#D69F5A" transform="translate(417,162.6875)"/>
<path d="M0 0 C0.69360626 0.00187317 1.38721252 0.00374634 2.10183716 0.00567627 C3.57282303 0.01239112 5.04379121 0.02629458 6.51464844 0.046875 C8.71567272 0.07753794 10.91597237 0.08780612 13.1171875 0.09375 C17.37437752 0.11558974 21.62737018 0.20819685 25.8828125 0.328125 C26.5596106 0.34351318 27.23640869 0.35890137 27.93371582 0.37475586 C29.85756287 0.42569538 31.78046838 0.50905147 33.703125 0.59375 C34.80156738 0.63790039 35.90000977 0.68205078 37.03173828 0.72753906 C40.50394019 1.45896711 41.74221063 2.53925013 43.8828125 5.328125 C45.61392802 15.32022561 43.24886418 24.50226633 38.2578125 33.140625 C29.59669771 41.11796757 21.36889282 42.82341786 10 42.59765625 C1.04125372 42.18073156 -5.88748142 38.74146907 -12.296875 32.52734375 C-16.39051857 27.58158982 -17.40780119 22.59131627 -17.1171875 16.265625 C-16.28428403 10.38953681 -13.72671735 5.84165078 -9.47143555 1.74291992 C-6.21675426 -0.21299401 -3.78161114 -0.02777427 0 0 Z M-0.1171875 16.328125 C-0.4471875 17.318125 -0.7771875 18.308125 -1.1171875 19.328125 C1.38605935 23.27555272 3.48030864 24.92790171 7.8828125 26.328125 C10.83593848 26.67901501 10.83593848 26.67901501 13.8828125 26.640625 C14.8934375 26.65738281 15.9040625 26.67414063 16.9453125 26.69140625 C20.45564782 26.25728233 22.15514505 25.59043027 24.8828125 23.328125 C25.8728125 21.018125 26.8628125 18.708125 27.8828125 16.328125 C18.6428125 16.328125 9.4028125 16.328125 -0.1171875 16.328125 Z " fill="#D69F5A" transform="translate(367.1171875,348.671875)"/>
<path d="M0 0 C3.32274404 2.45594125 4.77618008 3.9256644 5.625 8 C4.77618008 12.0743356 3.32274404 13.54405875 0 16 C-3.37817188 16.55153827 -5.2135552 16.3613395 -8.3125 14.9375 C-10.82814308 12.04916906 -10.93488709 9.77654862 -11 6 C-8.47081745 0.45988584 -6.0357992 -0.71009402 0 0 Z " fill="#D69F5A" transform="translate(284,377)"/>
<path d="M0 0 C2.55078958 2.22165544 2.93332671 3.60829443 3.5 6.9375 C2.81810427 11.11411135 1.36996335 12.50915752 -2 15 C-5 15.625 -5 15.625 -8 15 C-11.36996335 12.50915752 -12.81810427 11.11411135 -13.5 6.9375 C-12.95255192 3.72124253 -12.2924309 2.2924309 -10 0 C-6.20519658 -1.26493447 -3.87641726 -0.89988258 0 0 Z " fill="#D69F5A" transform="translate(261,304)"/>
<path d="M0 0 C3.32274404 2.45594125 4.77618008 3.9256644 5.625 8 C4.77618008 12.0743356 3.32274404 13.54405875 0 16 C-3.37817188 16.55153827 -5.2135552 16.3613395 -8.3125 14.9375 C-10.82814308 12.04916906 -10.93488709 9.77654862 -11 6 C-8.47081745 0.45988584 -6.0357992 -0.71009402 0 0 Z " fill="#D69F5A" transform="translate(160,278)"/>
<path d="M0 0 C2.55078958 2.22165544 2.93332671 3.60829443 3.5 6.9375 C2.81810427 11.11411135 1.36996335 12.50915752 -2 15 C-5 15.625 -5 15.625 -8 15 C-11.36996335 12.50915752 -12.81810427 11.11411135 -13.5 6.9375 C-12.95255192 3.72124253 -12.2924309 2.2924309 -10 0 C-6.20519658 -1.26493447 -3.87641726 -0.89988258 0 0 Z " fill="#D69F5A" transform="translate(311,221)"/>
<path d="M0 0 C3.32274404 2.45594125 4.77618008 3.9256644 5.625 8 C4.7607855 12.14822958 3.48304057 13.60540961 0 16 C-2.91696592 16.38022707 -5.26062629 16.0649833 -8 15 C-10.0625 12.875 -10.0625 12.875 -11 10 C-10.93488709 6.22345138 -10.82814308 3.95083094 -8.3125 1.0625 C-5.2135552 -0.3613395 -3.37817188 -0.55153827 0 0 Z " fill="#D69F5A" transform="translate(423,210)"/>
<path d="M0 0 C3.32274404 2.45594125 4.77618008 3.9256644 5.625 8 C4.7607855 12.14822958 3.48304057 13.60540961 0 16 C-2.91696592 16.38022707 -5.26062629 16.0649833 -8 15 C-10.0625 12.875 -10.0625 12.875 -11 10 C-10.93488709 6.22345138 -10.82814308 3.95083094 -8.3125 1.0625 C-5.2135552 -0.3613395 -3.37817188 -0.55153827 0 0 Z " fill="#D69F5A" transform="translate(420,317)"/>
<path d="M0 0 C3.32274404 2.45594125 4.77618008 3.9256644 5.625 8 C4.7607855 12.14822958 3.48304057 13.60540961 0 16 C-2.91696592 16.38022707 -5.26062629 16.0649833 -8 15 C-10.0625 12.875 -10.0625 12.875 -11 10 C-10.93488709 6.22345138 -10.82814308 3.95083094 -8.3125 1.0625 C-5.2135552 -0.3613395 -3.37817188 -0.55153827 0 0 Z " fill="#D69F5A" transform="translate(203,288)"/>
<path d="M0 0 C3.32274404 2.45594125 4.77618008 3.9256644 5.625 8 C4.7607855 12.14822958 3.48304057 13.60540961 0 16 C-2.91696592 16.38022707 -5.26062629 16.0649833 -8 15 C-10.0625 12.875 -10.0625 12.875 -11 10 C-10.93488709 6.22345138 -10.82814308 3.95083094 -8.3125 1.0625 C-5.2135552 -0.3613395 -3.37817188 -0.55153827 0 0 Z " fill="#D69F5A" transform="translate(90,288)"/>
<path d="M0 0 C2.4375 1.5 2.4375 1.5 4 4 C4.61014545 6.8089715 4.65360928 9.19636021 4 12 C1.9375 14.5625 1.9375 14.5625 -1 16 C-4.49672962 15.93971156 -6.8982551 15.69777177 -9.875 13.8125 C-11.52261692 11.15800608 -11.87533099 9.11672513 -12 6 C-9.1840965 -0.03407893 -6.51096853 -0.56129039 0 0 Z " fill="#D69F5A" transform="translate(336,183)"/>
<path d="M0 0 C2.375 1.0625 2.375 1.0625 4 3 C4.87281149 6.42890226 5.32922829 8.89259577 4.3125 12.3125 C2.62884529 14.47719891 1.64816011 15.21270916 -1 16 C-4.68060775 15.87085587 -7.0716765 15.77859391 -9.9375 13.375 C-11.43699866 10.02317947 -11.45377473 7.63019782 -11 4 C-8.09912777 -0.52536068 -5.13093735 -0.64136717 0 0 Z " fill="#D69F5A" transform="translate(141,363)"/>
<path d="M0 0 C2.80618215 2.35357213 2.97918231 3.8542762 3.5 7.5 C3 11 3 11 0.875 13.4375 C-2.47831721 15.25995501 -4.23946276 15.56008001 -8 15 C-10.3125 13.9375 -10.3125 13.9375 -12 12 C-12.87281149 8.57109774 -13.32922829 6.10740423 -12.3125 2.6875 C-8.86456992 -1.74555296 -5.18817694 -1.32062686 0 0 Z " fill="#D69F5A" transform="translate(341,327)"/>
<path d="M0 0 C2.80618215 2.35357213 2.97918231 3.8542762 3.5 7.5 C3 11 3 11 0.875 13.4375 C-2.47831721 15.25995501 -4.23946276 15.56008001 -8 15 C-10.3125 13.9375 -10.3125 13.9375 -12 12 C-12.87281149 8.57109774 -13.32922829 6.10740423 -12.3125 2.6875 C-8.86456992 -1.74555296 -5.18817694 -1.32062686 0 0 Z " fill="#D69F5A" transform="translate(357,221)"/>
<path d="M0 0 C2.55078958 2.22165544 2.93332671 3.60829443 3.5 6.9375 C2.81810427 11.11411135 1.36996335 12.50915752 -2 15 C-5.37817188 15.55153827 -7.2135552 15.3613395 -10.3125 13.9375 C-12.79606431 11.08600024 -12.86954315 8.7180202 -13 5 C-12.21270916 2.35183989 -11.47719891 1.37115471 -9.3125 -0.3125 C-5.89259577 -1.32922829 -3.42890226 -0.87281149 0 0 Z " fill="#D69F5A" transform="translate(165,168)"/>
<path d="M0 0 C2.83336378 1.75863959 3.02887833 3.103962 3.9375 6.375 C4 10 4 10 2.5625 12.9375 C-0.51085323 15.41117455 -2.22957645 15.74390904 -6.09375 15.484375 C-8 15 -8 15 -10.5 12.875 C-12.25584708 9.50962644 -12.63656938 7.73984509 -12 4 C-8.18516492 -0.70496326 -5.84684214 -1.43187971 0 0 Z " fill="#D69F5A" transform="translate(300,270)"/>
<path d="M0 0 C2.375 1.125 2.375 1.125 4 3 C5.14364857 6.50718894 5.27206511 8.29583147 3.9375 11.75 C1.45577183 14.63200691 -0.27335387 15.3292037 -4 16 C-7.8665824 15.0333544 -8.74490465 14.38264302 -11 11 C-11.42255137 7.12661246 -11.56667558 4.88401391 -9.4375 1.5625 C-6.08147594 -0.58879747 -3.91578329 -0.48947291 0 0 Z " fill="#D69F5A" transform="translate(216,383)"/>
<path d="M0 0 C2.4375 1.5 2.4375 1.5 4 4 C4.62026592 7.50309274 4.69366901 10.73507415 2.9375 13.9375 C-0.11173251 15.60965977 -2.53241058 15.94021398 -6 16 C-9.14797818 14.22070799 -10.59507626 12.96169389 -12 9.625 C-12 6.09259999 -10.82931548 3.98110671 -9 1 C-5.90826248 -0.54586876 -3.40570448 -0.29359521 0 0 Z " fill="#D69F5A" transform="translate(261,195)"/>
<path d="M0 0 C2.4375 1.5 2.4375 1.5 4 4 C4.61014545 6.8089715 4.65360928 9.19636021 4 12 C1.9375 14.5625 1.9375 14.5625 -1 16 C-4.5241557 15.93923869 -6.91616966 15.72255356 -9.875 13.75 C-11.39898926 11.37935004 -11.86819981 9.83370413 -12 7 C-9.28600098 0.27962146 -7.19984817 -0.62067657 0 0 Z " fill="#D69F5A" transform="translate(148,117)"/>
<path d="M0 0 C2.59191186 1.69814915 2.96408796 2.8820033 3.875 5.875 C4.02405268 9.60131711 3.25133987 11.08159647 1 14 C-2.09173752 15.54586876 -4.59429552 15.29359521 -8 15 C-10.4375 13.4375 -10.4375 13.4375 -12 11 C-12.46918683 7.24650538 -12.53136381 4.96151547 -10.6875 1.625 C-7.29444212 -1.64238907 -4.28933391 -1.07233348 0 0 Z " fill="#D69F5A" transform="translate(228,102)"/>
<path d="M0 0 C2.4375 1.5625 2.4375 1.5625 4 4 C4.56921855 7.98452984 4.67149179 10.05493748 2.3125 13.375 C-0.31196417 15.21921807 -1.78929947 15.92169023 -5 16 C-8.48634601 14.37844371 -9.84302194 13.23546708 -12 10 C-11.86930146 6.34044098 -11.76812749 3.91584431 -9.375 1.0625 C-6.02317947 -0.43699866 -3.63019782 -0.45377473 0 0 Z " fill="#D69F5A" transform="translate(318,413)"/>
<path d="M0 0 C2.5 1.5625 2.5 1.5625 4 4 C4.55802097 7.90614682 4.58392818 10.05111671 2.5 13.4375 C-0.53037069 15.33148168 -2.55830934 15.64334247 -6.08984375 15.4453125 C-8 15 -8 15 -10.5625 12.9375 C-12.43625505 9.10852228 -12.12962701 7.06665724 -11 3 C-8.71707037 -1.16298932 -4.22696498 -0.74843646 0 0 Z " fill="#D69F5A" transform="translate(139,210)"/>
<path d="M0 0 C2.5 1.5625 2.5 1.5625 4 4 C4.55802097 7.90614682 4.58392818 10.05111671 2.5 13.4375 C-0.53037069 15.33148168 -2.55830934 15.64334247 -6.08984375 15.4453125 C-8 15 -8 15 -10.5625 12.9375 C-12.43625505 9.10852228 -12.12962701 7.06665724 -11 3 C-8.71707037 -1.16298932 -4.22696498 -0.74843646 0 0 Z " fill="#D69F5A" transform="translate(91,210)"/>
<path d="M0 0 C3.5 0.8125 3.5 0.8125 5.4375 1.875 C7.19957151 5.08818922 7.2470731 8.30971385 6.5 11.8125 C3.92627616 14.84041041 2.34753406 15.67412709 -1.5625 16.3125 C-5.21305549 15.69112885 -6.33229623 14.78305702 -8.5 11.8125 C-9.4375 9.375 -9.4375 9.375 -9.5 6.8125 C-7.32755651 2.1417465 -5.42336756 -0.29053755 0 0 Z " fill="#D69F5A" transform="translate(293.5,130.1875)"/>
<path d="M0 0 C2.3761363 1.7981572 3.65141783 3.22813948 4.875 5.9375 C5.04885552 8.806116 4.35779132 10.47838754 3 13 C1.3125 14.875 1.3125 14.875 -1 16 C-4.39685818 15.88081199 -6.94000615 15.58128695 -9.9375 13.9375 C-11.69957151 10.72431078 -11.7470731 7.50278615 -11 4 C-7.74010218 0.16482609 -4.95707565 -0.84375756 0 0 Z " fill="#D69F5A" transform="translate(225,69)"/>
<path d="M0 0 C2 2 2 2 2.375 5.875 C2.28294676 8.85319304 2.06485821 9.89622686 0.4375 12.5 C-2.94888329 14.58392818 -5.09385318 14.55802097 -9 14 C-11.4375 12.5 -11.4375 12.5 -13 10 C-13.62931082 6.44582412 -13.77244461 3.19728915 -11.75 0.0625 C-7.36405295 -2.60039643 -4.70861344 -1.94486207 0 0 Z " fill="#D69F5A" transform="translate(379,121)"/>
<path d="M0 0 C0.7734375 -0.00773437 1.546875 -0.01546875 2.34375 -0.0234375 C5.03046141 0.47302004 5.90813918 1.17433975 7.5 3.375 C8.25471698 10.16745283 8.25471698 10.16745283 5.9375 13.875 C2.55111671 15.95892818 0.40614682 15.93302097 -3.5 15.375 C-5.9375 13.875 -5.9375 13.875 -7.5 11.375 C-8.0149217 8.46686268 -7.83536988 6.39332892 -7.5 3.375 C-5.33078334 0.37617696 -3.6241667 -0.03624167 0 0 Z " fill="#D69F5A" transform="translate(215.5,423.625)"/>
<path d="M0 0 C1.9375 1.0625 1.9375 1.0625 3 3 C3.39309578 6.09562931 3.62338668 8.04336605 3 11 C0.9375 13.5625 0.9375 13.5625 -2 15 C-5.46758942 14.94021398 -7.88826749 14.60965977 -10.9375 12.9375 C-12.70141999 9.72094003 -12.73924763 6.50614591 -12 3 C-8.3655827 -1.51548816 -5.40521016 -1.50144727 0 0 Z " fill="#D69F5A" transform="translate(408,279)"/>
</svg>
