<?xml version="1.0" encoding="UTF-8"?>
<svg version="1.1" xmlns="http://www.w3.org/2000/svg" width="512" height="512">
<path d="M0 0 C1.18430764 -0.00694553 2.36861529 -0.01389106 3.58881104 -0.02104706 C6.84970427 -0.03609612 10.11000497 -0.03340991 13.37089753 -0.02289402 C16.89794935 -0.01586889 20.42491023 -0.031925 23.95193481 -0.04489136 C30.85149579 -0.06648209 37.75089151 -0.06641707 44.65047513 -0.05826581 C50.26132459 -0.05195368 55.87212603 -0.05311395 61.48297501 -0.05953789 C62.28301019 -0.06043954 63.08304538 -0.0613412 63.90732405 -0.06227018 C65.53284995 -0.06412147 67.15837583 -0.06598403 68.78390171 -0.06785773 C84.0115359 -0.08441931 99.23907733 -0.0757313 114.46670593 -0.05887216 C128.38047615 -0.04417968 142.29403032 -0.05880009 156.20777272 -0.08764232 C170.51412778 -0.11707624 184.82038328 -0.12799678 199.12676728 -0.11846012 C200.74676456 -0.11743763 202.36676187 -0.11644301 203.98675919 -0.11547661 C204.78371274 -0.11500022 205.5806663 -0.11452383 206.40176996 -0.114033 C212.00080431 -0.11187398 217.59974384 -0.12164572 223.19875717 -0.13624763 C230.02961264 -0.15381445 236.8601929 -0.15359174 243.69103776 -0.13089598 C247.17217044 -0.1197924 250.65281907 -0.11650169 254.13393021 -0.13519669 C257.91754432 -0.15117234 261.69984551 -0.13613055 265.48339844 -0.11352539 C266.56999815 -0.12536112 267.65659786 -0.13719685 268.77612484 -0.14939123 C280.30423293 -0.01007695 290.6396012 4.38374205 298.86868286 12.5146637 C301.23686193 15.35965734 303.1775129 18.22283709 304.86868286 21.5146637 C305.36204384 22.43306786 305.36204384 22.43306786 305.8653717 23.37002563 C309.72948394 31.54473702 309.37951925 39.6430121 309.25930786 48.4599762 C309.25183322 50.08235471 309.24614608 51.70474235 309.24215698 53.32713318 C309.22699664 57.56546126 309.1877999 61.80322758 309.14334106 66.04133606 C309.10217915 70.37872217 309.08410162 74.71620042 309.06399536 79.0537262 C309.02129441 87.54096111 308.95316224 96.02774222 308.86868286 104.5146637 C309.44181213 104.50942688 310.01494141 104.50419006 310.60543823 104.49879456 C313.2296334 104.47786722 315.85381092 104.46495376 318.47805786 104.4521637 C319.37959595 104.44378479 320.28113403 104.43540588 321.20999146 104.42677307 C337.79874455 104.36617489 353.58395845 111.39167379 365.86868286 122.5146637 C366.54028442 123.09474182 367.21188599 123.67481995 367.90383911 124.2724762 C379.40553294 134.86555837 388.03328514 151.56216876 389.04922867 167.31395149 C389.11346144 170.51740748 389.11617382 173.71516344 389.09573364 176.91920471 C389.0960257 178.1299617 389.09631775 179.34071869 389.09661865 180.58816528 C389.09547078 183.88098514 389.08549696 187.17363109 389.07147074 190.4664166 C389.05889873 193.91770742 389.05778781 197.36900231 389.05541992 200.8203125 C389.04922405 207.34366641 389.03283909 213.86695263 389.01272094 220.39027685 C388.99030273 227.82201538 388.97935367 235.25375728 388.96933007 242.68552125 C388.948471 257.96194223 388.91292542 273.23829154 388.86868286 288.5146637 C383.58868286 288.5146637 378.30868286 288.5146637 372.86868286 288.5146637 C372.86868286 306.9946637 372.86868286 325.4746637 372.86868286 344.5146637 C359.66868286 344.5146637 346.46868286 344.5146637 332.86868286 344.5146637 C332.86868286 326.0346637 332.86868286 307.5546637 332.86868286 288.5146637 C200.86868286 288.5146637 68.86868286 288.5146637 -67.13131714 288.5146637 C-67.13131714 306.9946637 -67.13131714 325.4746637 -67.13131714 344.5146637 C-80.33131714 344.5146637 -93.53131714 344.5146637 -107.13131714 344.5146637 C-107.13131714 326.0346637 -107.13131714 307.5546637 -107.13131714 288.5146637 C-112.41131714 288.5146637 -117.69131714 288.5146637 -123.13131714 288.5146637 C-123.20095472 272.55433992 -123.2543982 256.59407051 -123.28675365 240.63363266 C-123.30218045 233.2218532 -123.32318917 225.81017025 -123.3576355 218.39845276 C-123.38766687 211.93357182 -123.40692253 205.46876083 -123.41358262 199.00381207 C-123.4174718 195.58502616 -123.42652283 192.16644022 -123.44850731 188.74771881 C-123.47041543 184.91828759 -123.47327841 181.08926511 -123.47189331 177.25978088 C-123.48267914 176.14343262 -123.49346497 175.02708435 -123.50457764 173.87690735 C-123.4635284 163.32740289 -121.29327638 153.68007239 -116.38131714 144.3271637 C-116.03133667 143.64718323 -115.6813562 142.96720276 -115.32077026 142.26661682 C-112.46588484 136.86143591 -109.24283539 132.05560719 -105.13131714 127.5146637 C-104.55123901 126.84306213 -103.97116089 126.17146057 -103.37350464 125.47950745 C-92.8727959 114.0781103 -76.1759267 105.32114829 -60.52554321 104.3535614 C-57.87054602 104.31926251 -55.22350849 104.33902395 -52.56881714 104.3896637 C-51.65551636 104.39868713 -50.74221558 104.40771057 -49.80123901 104.41700745 C-47.57764395 104.44029116 -45.35463037 104.47298659 -43.13131714 104.5146637 C-43.1424202 103.62676147 -43.15352325 102.73885925 -43.16496277 101.8240509 C-43.2656169 93.41023937 -43.34151008 84.99663332 -43.390378 76.5823555 C-43.41634727 72.25760731 -43.45150956 67.93336127 -43.5085144 63.60890198 C-43.56329179 59.42671097 -43.59283266 55.24499948 -43.60570335 51.06247711 C-43.61486205 49.47581699 -43.63274452 47.88917975 -43.65996742 46.30272675 C-43.87381811 33.310222 -41.64260739 22.71524363 -33.07272339 12.47950745 C-23.89340096 3.18936824 -12.74955022 -0.09629715 0 0 Z M-20.13131714 23.5146637 C-27.96544724 32.62134285 -27.41510777 44.02507036 -27.32662964 55.39356995 C-27.32289204 56.81560058 -27.3200486 58.23763382 -27.3180542 59.65966797 C-27.31047645 63.37339082 -27.29087953 67.08695324 -27.26864624 70.8006134 C-27.2480604 74.60175914 -27.23902545 78.40293121 -27.22897339 82.20411682 C-27.20762707 89.64104683 -27.17249396 97.0778122 -27.13131714 104.5146637 C-19.21131714 104.5146637 -11.29131714 104.5146637 -3.13131714 104.5146637 C-3.09264526 100.4309137 -3.09264526 100.4309137 -3.05319214 96.2646637 C-3.0147001 93.60684693 -2.96956308 90.94921949 -2.92379761 88.29151917 C-2.89569783 86.45469817 -2.87442896 84.61775872 -2.86032104 82.78077698 C-2.83873817 80.12896056 -2.79201215 77.47855185 -2.74069214 74.8271637 C-2.7394635 74.01537659 -2.73823486 73.20358948 -2.73696899 72.36720276 C-2.5703068 65.77289573 -0.72827669 60.5241157 3.61477661 55.4912262 C4.45202271 54.82220276 4.45202271 54.82220276 5.30618286 54.1396637 C5.8617688 53.67817932 6.41735474 53.21669495 6.98977661 52.7412262 C11.8975276 49.5374137 16.46636964 49.21741427 22.20388794 49.22413635 C23.0305748 49.21741913 23.85726166 49.2107019 24.70899963 49.20378113 C27.43546602 49.18482078 30.16168594 49.18087781 32.88821411 49.1787262 C34.79004517 49.17229646 36.69187523 49.16556797 38.59370422 49.15855408 C42.57902315 49.14658591 46.56425543 49.14287274 50.54959106 49.14405823 C55.64384763 49.14426129 60.73754552 49.11697046 65.83166981 49.08251381 C69.76004055 49.06022021 73.68827743 49.05622146 77.61670494 49.05727768 C79.49409598 49.054925 81.37149089 49.04612028 83.24881935 49.03061295 C85.88136955 49.01090477 88.51272261 49.01680974 91.14529419 49.02882385 C91.91284027 49.01758484 92.68038635 49.00634583 93.47119141 48.99476624 C99.87336206 49.06860249 105.02361836 51.05955977 109.89212036 55.26075745 C110.33813599 55.81892151 110.78415161 56.37708557 111.24368286 56.9521637 C111.93590942 57.7855426 111.93590942 57.7855426 112.64212036 58.63575745 C116.01818677 63.8073751 116.19903674 68.53917586 116.28274536 74.53419495 C116.31179459 75.82205147 116.31179459 75.82205147 116.34143066 77.13592529 C116.40099842 79.86623844 116.4475202 82.59659427 116.49368286 85.3271637 C116.53188366 87.18330142 116.57093661 89.03942182 116.61087036 90.89552307 C116.70827841 95.43514418 116.78802705 99.97459059 116.86868286 104.5146637 C127.42868286 104.5146637 137.98868286 104.5146637 148.86868286 104.5146637 C148.89446411 101.7921637 148.92024536 99.0696637 148.94680786 96.2646637 C148.9852999 93.60684693 149.03043692 90.94921949 149.07620239 88.29151917 C149.10430217 86.45469817 149.12557104 84.61775872 149.13967896 82.78077698 C149.16126183 80.12896056 149.20798785 77.47855185 149.25930786 74.8271637 C149.2605365 74.01537659 149.26176514 73.20358948 149.26303101 72.36720276 C149.4296932 65.77289573 151.27172331 60.5241157 155.61477661 55.4912262 C156.17294067 55.04521057 156.73110474 54.59919495 157.30618286 54.1396637 C157.8617688 53.67817932 158.41735474 53.21669495 158.98977661 52.7412262 C163.8975276 49.5374137 168.46636964 49.21741427 174.20388794 49.22413635 C175.0305748 49.21741913 175.85726166 49.2107019 176.70899963 49.20378113 C179.43546602 49.18482078 182.16168594 49.18087781 184.88821411 49.1787262 C186.79004517 49.17229646 188.69187523 49.16556797 190.59370422 49.15855408 C194.57902315 49.14658591 198.56425543 49.14287274 202.54959106 49.14405823 C207.64384763 49.14426129 212.73754552 49.11697046 217.83166981 49.08251381 C221.76004055 49.06022021 225.68827743 49.05622146 229.61670494 49.05727768 C231.49409598 49.054925 233.37149089 49.04612028 235.24881935 49.03061295 C237.88136955 49.01090477 240.51272261 49.01680974 243.14529419 49.02882385 C244.29661331 49.01196533 244.29661331 49.01196533 245.47119141 48.99476624 C251.87336206 49.06860249 257.02361836 51.05955977 261.89212036 55.26075745 C262.33813599 55.81892151 262.78415161 56.37708557 263.24368286 56.9521637 C263.93590942 57.7855426 263.93590942 57.7855426 264.64212036 58.63575745 C268.01818677 63.8073751 268.19903674 68.53917586 268.28274536 74.53419495 C268.31179459 75.82205147 268.31179459 75.82205147 268.34143066 77.13592529 C268.40099842 79.86623844 268.4475202 82.59659427 268.49368286 85.3271637 C268.53188366 87.18330142 268.57093661 89.03942182 268.61087036 90.89552307 C268.70827841 95.43514418 268.78802705 99.97459059 268.86868286 104.5146637 C276.78868286 104.5146637 284.70868286 104.5146637 292.86868286 104.5146637 C292.91402495 96.32553413 292.95065119 88.1365036 292.97230721 79.94728184 C292.98270556 76.1439297 292.99679182 72.34066856 293.01956177 68.53736877 C293.04143203 64.86097263 293.05328111 61.18466354 293.05843735 57.50820732 C293.06210782 56.11171538 293.06927473 54.71522774 293.08014297 53.31877327 C293.16048824 42.55877624 293.23233225 32.07443887 285.86868286 23.5146637 C277.73032438 16.51354309 267.80590719 16.215972 257.52078247 16.26069641 C255.85268351 16.25601644 255.85268351 16.25601644 254.15088558 16.25124192 C250.44087797 16.24329261 246.73103531 16.24957369 243.02102661 16.25587463 C240.35452803 16.25316341 237.68804065 16.24967381 235.02154541 16.24525452 C228.54065528 16.2363802 222.05981157 16.23827376 215.57891965 16.2440798 C210.30985208 16.24860402 205.04079748 16.24920591 199.77172852 16.24703217 C199.02064817 16.2467257 198.26956783 16.24641923 197.49572748 16.24610348 C195.96972886 16.245464 194.44373025 16.24481558 192.91773164 16.2441583 C178.62206452 16.23846075 164.32642308 16.24500386 150.03076017 16.25575903 C137.77522415 16.26469402 125.51972601 16.26314182 113.26419067 16.25392151 C99.01825748 16.24320871 84.77234677 16.23901002 70.5264101 16.24514604 C69.00615247 16.24578311 67.48589484 16.24641185 65.96563721 16.24703217 C65.21772051 16.24734072 64.46980382 16.24764927 63.69922298 16.24796717 C58.43896215 16.24969108 53.17871564 16.24678557 47.91845703 16.24207306 C41.50441761 16.236453 35.09042712 16.23800429 28.67639327 16.24863455 C25.4064035 16.25387615 22.13651166 16.25488988 18.86651993 16.24933624 C15.31646004 16.24386325 11.76662862 16.2507365 8.21658325 16.26069641 C7.19059997 16.25623497 6.16461668 16.25177352 5.10754299 16.24717689 C-4.18301995 16.29765846 -12.86760968 17.26597213 -20.13131714 23.5146637 Z M14.86868286 67.5146637 C10.28151101 78.98259332 12.86868286 92.16332549 12.86868286 104.5146637 C41.90868286 104.5146637 70.94868286 104.5146637 100.86868286 104.5146637 C103.25382204 76.16690806 103.25382204 76.16690806 97.86868286 66.5146637 C93.99107836 64.16927187 90.24400977 64.25643571 85.78689575 64.24000549 C85.0935463 64.23489456 84.40019684 64.22978363 83.68583679 64.22451782 C81.40424864 64.21066956 79.12296418 64.2115749 76.84133911 64.21388245 C75.24860015 64.20999298 73.65586221 64.20565779 72.06312561 64.20089722 C68.72850173 64.19344533 65.39398375 64.19371884 62.05935669 64.19898987 C57.7945068 64.20478409 53.53009125 64.18784991 49.26531315 64.1646452 C45.97696923 64.14988539 42.68872938 64.14903918 39.4003582 64.15215492 C37.82834449 64.15164287 36.25632478 64.14642693 34.68434334 64.136343 C32.48256642 64.12395146 30.28162884 64.13078561 28.0798645 64.14234924 C26.82919693 64.14171982 25.57852936 64.14109039 24.28996277 64.14044189 C20.44080502 64.56146525 18.08541846 65.36251978 14.86868286 67.5146637 Z M166.86868286 67.5146637 C162.28151101 78.98259332 164.86868286 92.16332549 164.86868286 104.5146637 C193.90868286 104.5146637 222.94868286 104.5146637 252.86868286 104.5146637 C255.25382204 76.16690806 255.25382204 76.16690806 249.86868286 66.5146637 C245.99107836 64.16927187 242.24400977 64.25643571 237.78689575 64.24000549 C237.0935463 64.23489456 236.40019684 64.22978363 235.68583679 64.22451782 C233.40424864 64.21066956 231.12296418 64.2115749 228.84133911 64.21388245 C227.24860015 64.20999298 225.65586221 64.20565779 224.06312561 64.20089722 C220.72850173 64.19344533 217.39398375 64.19371884 214.05935669 64.19898987 C209.7945068 64.20478409 205.53009125 64.18784991 201.26531315 64.1646452 C197.97696923 64.14988539 194.68872938 64.14903918 191.4003582 64.15215492 C189.82834449 64.15164287 188.25632478 64.14642693 186.68434334 64.136343 C184.48256642 64.12395146 182.28162884 64.13078561 180.0798645 64.14234924 C178.82919693 64.14171982 177.57852936 64.14109039 176.28996277 64.14044189 C172.44080502 64.56146525 170.08541846 65.36251978 166.86868286 67.5146637 Z M-92.44772339 138.8974762 C-111.70209023 161.62274408 -107.13131714 187.17523463 -107.13131714 216.5146637 C51.26868286 216.5146637 209.66868286 216.5146637 372.86868286 216.5146637 C374.94829346 173.51375619 374.94829346 173.51375619 356.86868286 137.5146637 C340.96078609 122.05010175 322.86945211 120.35616912 301.78964233 120.38095093 C300.27306237 120.37908005 298.75648289 120.37677824 297.23990417 120.37408561 C293.09374154 120.3679955 288.94759916 120.3680979 284.80143309 120.36927998 C280.32140514 120.36948469 275.84138358 120.36395852 271.36135864 120.35922241 C262.59224367 120.35093073 253.82313542 120.34816825 245.05401686 120.34761003 C237.92336734 120.34713419 230.79272004 120.34507604 223.66207123 120.34190941 C203.42786042 120.33310705 183.19365491 120.3284894 162.95944217 120.32923988 C161.86955996 120.32927984 160.77967774 120.32931979 159.6567688 120.32936096 C158.56554992 120.32940184 157.47433105 120.32944272 156.35004494 120.32948484 C138.66771306 120.32989124 120.98540249 120.3203221 103.30307677 120.3062226 C85.12983164 120.29184643 66.9565969 120.28495309 48.78334594 120.28581637 C38.58733835 120.2861479 28.3913531 120.28342008 18.19535065 120.27263832 C9.51425285 120.26351702 0.83318752 120.26137147 -7.847913 120.26814774 C-12.27292187 120.27140465 -16.69786851 120.27149968 -21.1228714 120.26279449 C-25.18183719 120.25489185 -29.24069179 120.25639904 -33.29965499 120.26507863 C-34.75989211 120.26660536 -36.22013768 120.26482901 -37.68036482 120.25921855 C-58.7698026 120.18362289 -77.17890757 123.19093716 -92.44772339 138.8974762 Z M-107.13131714 232.5146637 C-107.13131714 245.7146637 -107.13131714 258.9146637 -107.13131714 272.5146637 C51.26868286 272.5146637 209.66868286 272.5146637 372.86868286 272.5146637 C372.86868286 259.3146637 372.86868286 246.1146637 372.86868286 232.5146637 C214.46868286 232.5146637 56.06868286 232.5146637 -107.13131714 232.5146637 Z M-91.13131714 288.5146637 C-91.13131714 301.7146637 -91.13131714 314.9146637 -91.13131714 328.5146637 C-88.49131714 328.5146637 -85.85131714 328.5146637 -83.13131714 328.5146637 C-83.13131714 315.3146637 -83.13131714 302.1146637 -83.13131714 288.5146637 C-85.77131714 288.5146637 -88.41131714 288.5146637 -91.13131714 288.5146637 Z M348.86868286 288.5146637 C348.86868286 301.7146637 348.86868286 314.9146637 348.86868286 328.5146637 C351.50868286 328.5146637 354.14868286 328.5146637 356.86868286 328.5146637 C356.86868286 315.3146637 356.86868286 302.1146637 356.86868286 288.5146637 C354.22868286 288.5146637 351.58868286 288.5146637 348.86868286 288.5146637 Z " fill="#D69F5A" transform="translate(123.13131713867188,83.48533630371094)"/>
</svg>
