<?xml version="1.0" encoding="UTF-8"?>
<svg version="1.1" xmlns="http://www.w3.org/2000/svg" width="512" height="512">
<path d="M0 0 C3.33052409 0.98286183 6.66937688 1.93192972 10.01074219 2.87719727 C12.15454178 3.49697236 14.29779201 4.11865153 16.44042969 4.74243164 C17.42703583 5.02285812 18.41364197 5.30328461 19.43014526 5.59220886 C26.69521792 7.76664554 33.80208451 10.67101629 38.76074219 16.66821289 C39.43556641 17.45325195 39.43556641 17.45325195 40.12402344 18.25415039 C44.67892674 25.26789529 44.85654261 31.1487055 44.74121094 39.35180664 C44.73696609 40.49609634 44.73272125 41.64038605 44.72834778 42.8193512 C44.71162023 46.456716 44.67397783 50.09351691 44.63574219 53.73071289 C44.62068774 56.20401215 44.60700067 58.67732014 44.59472656 61.15063477 C44.56173605 67.19835163 44.51159532 73.24574196 44.44824219 79.29321289 C45.33027817 79.28433044 46.21231415 79.275448 47.12107849 79.26629639 C55.46227484 79.18591225 63.80333976 79.12512787 72.14483547 79.0859642 C76.43258217 79.06515232 80.72000691 79.03695297 85.00756836 78.99145508 C89.15082495 78.94776719 93.29377323 78.92402774 97.43724251 78.91370392 C99.0123994 78.90635346 100.58754077 78.89200022 102.16256523 78.87029266 C112.22182593 78.73725542 119.66807949 79.52005113 128.26074219 85.12915039 C130.92663413 87.76647921 132.68859399 90.64548011 134.44824219 93.91821289 C134.78855469 94.53341797 135.12886719 95.14862305 135.47949219 95.7824707 C143.44824219 110.29374556 143.44824219 110.29374556 143.44824219 113.29321289 C144.62386719 113.21071289 145.79949219 113.12821289 147.01074219 113.04321289 C151.91612107 113.05189498 154.46315724 114.45767168 158.44824219 117.29321289 C163.57721545 122.56080705 164.70011481 127.99667706 164.71386719 135.19555664 C164.71644531 136.4981543 164.71902344 137.80075195 164.72167969 139.14282227 C164.71749023 139.81466553 164.71330078 140.48650879 164.70898438 141.17871094 C164.69828917 143.22173885 164.70890018 145.26388411 164.72167969 147.30688477 C164.7178125 149.26271484 164.7178125 149.26271484 164.71386719 151.25805664 C164.71161133 152.44004639 164.70935547 153.62203613 164.70703125 154.83984375 C164.24037846 161.06701709 162.83622169 165.77986255 158.44824219 170.29321289 C154.56405266 173.23259956 151.21864846 173.68922241 146.44824219 174.29321289 C146.38765625 175.51137695 146.32707031 176.72954102 146.26464844 177.98461914 C146.18017816 179.60832566 146.09553347 181.23202311 146.01074219 182.85571289 C145.95176758 184.05550781 145.95176758 184.05550781 145.89160156 185.27954102 C145.64076062 190.00692795 145.19502405 194.6179819 144.44824219 199.29321289 C144.99695732 199.1311095 145.54567245 198.96900612 146.11101532 198.80199051 C148.75201257 198.22708685 151.14029094 198.16122651 153.84387207 198.152771 C154.93955002 198.14706085 156.03522797 198.14135071 157.16410828 198.13546753 C158.3619545 198.13434967 159.55980072 198.13323181 160.79394531 198.13208008 C162.05962845 198.12711517 163.32531158 198.12215027 164.62934875 198.11703491 C168.10348396 198.10392383 171.57759983 198.09746622 175.05175591 198.09302425 C177.23090241 198.09008599 179.41004374 198.08597935 181.58918762 198.08152008 C188.43107055 198.06783656 195.27294151 198.05817917 202.11483717 198.05431819 C209.96546378 198.04986221 217.81591412 198.03243361 225.66648722 198.00331759 C231.7602518 197.98151805 237.85396753 197.97160398 243.9477706 197.97027707 C247.57353089 197.96924019 251.19912577 197.96357827 254.82484436 197.94545746 C289.33923738 197.78311217 319.03712464 201.90548918 346.44824219 224.29321289 C347.24875 224.94032227 348.04925781 225.58743164 348.87402344 226.25415039 C368.89727724 243.1995638 382.59193613 269.23933787 385.44824219 295.29321289 C385.74776658 299.19104144 385.89325178 303.07213895 385.94824219 306.98071289 C385.96693359 307.88926025 385.985625 308.79780762 386.00488281 309.73388672 C385.94582193 315.85974988 384.6007603 320.06883279 381.44824219 325.29321289 C381.11824219 325.95321289 380.78824219 326.61321289 380.44824219 327.29321289 C381.20947993 328.73807198 382.03433526 330.14958204 382.88574219 331.54321289 C386.23759741 338.04036644 386.4976599 344.11945903 385.44824219 351.29321289 C383.75340688 356.09732326 381.25938211 360.076503 378.44824219 364.29321289 C378.78597656 364.80110352 379.12371094 365.30899414 379.47167969 365.83227539 C379.91769531 366.52063477 380.36371094 367.20899414 380.82324219 367.91821289 C381.26410156 368.59110352 381.70496094 369.26399414 382.15917969 369.95727539 C385.13867298 375.35647839 385.83618552 380.44758392 385.82324219 386.54321289 C385.82235596 387.29248047 385.82146973 388.04174805 385.82055664 388.8137207 C385.64579164 397.02856308 382.99220001 403.47727616 378.44824219 410.29321289 C378.86976563 410.9080957 379.29128906 411.52297852 379.72558594 412.15649414 C380.54736328 413.36885742 380.54736328 413.36885742 381.38574219 414.60571289 C381.93101562 415.4062207 382.47628906 416.20672852 383.03808594 417.03149414 C388.830521 426.32185397 386.80672843 444.98161365 384.54199219 455.31665039 C383.49746741 459.11760903 382.06719949 462.69792207 380.44824219 466.29321289 C380.02542969 467.27676758 379.60261719 468.26032227 379.16699219 469.27368164 C371.57841462 484.91409296 356.61587405 497.45011353 340.44824219 503.29321289 C331.07517026 506.28726871 322.08774971 506.7225529 312.34249878 506.68089294 C310.73884272 506.68507297 309.13518962 506.69055413 307.53154194 506.69721276 C303.15408992 506.71159782 298.77682728 506.70744454 294.39936519 506.70004594 C289.66721655 506.69529946 284.93510803 506.70783698 280.20297241 506.71806335 C270.94482882 506.73522612 261.68675316 506.73609683 252.42859779 506.73085045 C244.90321881 506.72680382 237.37785987 506.72825815 229.85248184 506.73359871 C228.24399126 506.73472134 228.24399126 506.73472134 226.60300592 506.73586665 C224.42440564 506.73739817 222.24580536 506.73893652 220.06720509 506.74048162 C199.65581541 506.75419683 179.2444641 506.74877522 158.8330753 506.73729641 C140.16522734 506.72735889 121.49747842 506.74031543 102.82964574 506.7642306 C83.64837675 506.78861799 64.4671539 506.79823073 45.28586972 506.79157788 C34.52214305 506.78808566 23.75849261 506.79031828 12.99477768 506.8078289 C3.83488049 506.82254608 -5.32488677 506.82319229 -14.4847814 506.80575799 C-19.15644976 506.79724285 -23.82788595 506.79511122 -28.49954224 506.81040955 C-32.77915016 506.8242505 -37.05832686 506.81950122 -41.3379098 506.80017031 C-42.88280504 506.79640827 -44.42773477 506.79933818 -45.97259928 506.80978196 C-58.20997355 506.88660342 -68.45599958 505.05643802 -77.55175781 496.29321289 C-85.63722945 486.90599866 -86.93066772 475.59659033 -87.78569031 463.6394043 C-87.88217529 462.41114017 -87.97866027 461.18287603 -88.07806903 459.91739178 C-88.34126918 456.53946075 -88.59493495 453.16106716 -88.84444344 449.78211427 C-89.11676155 446.12653741 -89.4015597 442.47192953 -89.68478394 438.81718445 C-90.23656079 431.67215388 -90.77706379 424.5263136 -91.31385025 417.38014299 C-91.93954426 409.05717361 -92.57722217 400.73513536 -93.21555743 392.41312754 C-94.35375964 377.56992157 -95.48224457 362.72599347 -96.60473633 347.8815918 C-97.69417151 333.47458463 -98.7887654 319.06798367 -99.88989258 304.66186523 C-99.95780531 303.77333972 -100.02571803 302.88481421 -100.09568872 301.96936369 C-100.36868051 298.39795508 -100.64170107 294.82654867 -100.91476158 291.25514531 C-103.00468988 263.91918551 -105.09015663 236.58287401 -107.15940475 209.24534035 C-107.37660614 206.37620123 -107.59431978 203.50710172 -107.81249809 200.63803673 C-108.10920559 196.7358385 -108.40410593 192.83350497 -108.69877625 188.93115234 C-108.7862217 187.78400064 -108.87366715 186.63684895 -108.96376246 185.45493507 C-109.04203046 184.41421034 -109.12029847 183.3734856 -109.20093822 182.30122375 C-109.26918055 181.40003469 -109.33742287 180.49884562 -109.40773314 179.57034779 C-109.51880904 177.81415699 -109.55175781 176.05291286 -109.55175781 174.29321289 C-110.43927734 174.14625977 -110.43927734 174.14625977 -111.34472656 173.99633789 C-116.37818094 173.04384081 -119.91899236 172.13967043 -123.55175781 168.29321289 C-126.64732682 163.28532871 -127.00679301 159.3130372 -126.98535156 153.60571289 C-126.99059341 152.78498291 -126.99583527 151.96425293 -127.00123596 151.11865234 C-127.00763336 149.39071784 -127.00634884 147.66273966 -126.99780273 145.93481445 C-126.98928263 143.30088405 -127.01809981 140.66911751 -127.04980469 138.03540039 C-127.05141677 136.3505052 -127.05083904 134.6656062 -127.04785156 132.98071289 C-127.06470253 131.80859253 -127.06470253 131.80859253 -127.08189392 130.61279297 C-127.01574831 125.3881775 -125.96976725 122.45569663 -122.55175781 118.29321289 C-118.89077054 115.1552238 -116.36158457 114.23545843 -111.69628906 113.85180664 C-108.39050961 113.22353988 -106.97852769 112.81306774 -104.82128906 110.18530273 C-103.33202377 107.3748316 -102.06801853 104.54971351 -100.86425781 101.60571289 C-96.6589231 91.79755859 -92.61429523 84.42751294 -82.45091248 80.10334778 C-76.12613337 78.33596218 -69.43758789 78.81279946 -62.92285156 78.90258789 C-61.32146414 78.91006076 -59.72006749 78.91574874 -58.1186676 78.91973877 C-53.93128614 78.93491304 -49.74447157 78.97412222 -45.55731201 79.01855469 C-41.27363755 79.05968611 -36.98987028 79.0777877 -32.70605469 79.09790039 C-24.32100164 79.14062615 -15.93651585 79.21090696 -7.55175781 79.29321289 C-7.55175781 70.71321289 -7.55175781 62.13321289 -7.55175781 53.29321289 C-9.84113281 52.73633789 -12.13050781 52.17946289 -14.48925781 51.60571289 C-16.73326862 51.0398055 -18.97459141 50.46426576 -21.21582031 49.88745117 C-22.75259558 49.49651148 -24.2916524 49.11441559 -25.83300781 48.74194336 C-35.16780212 46.47509552 -43.52432615 44.39806032 -49.55175781 36.29321289 C-53.67484856 29.06475633 -52.7764462 22.010978 -50.75878906 14.23852539 C-48.40986421 6.5493918 -45.82382284 1.00833068 -39.61425781 -4.14428711 C-27.53732445 -10.00111595 -11.85746543 -3.50749663 0 0 Z M-30.55175781 12.29321289 C-33.15202531 19.09889424 -33.15202531 19.09889424 -33.55175781 26.29321289 C-29.16074275 28.66387928 -24.96820834 30.13406545 -20.14160156 31.37915039 C-18.7254231 31.75614337 -17.30941229 32.13376663 -15.89355469 32.51196289 C-13.68788305 33.09378649 -11.48120226 33.67027355 -9.27124023 34.2355957 C-7.11953942 34.78911554 -4.97438125 35.36381639 -2.82910156 35.94165039 C-0.9147229 36.43930908 -0.9147229 36.43930908 1.03833008 36.94702148 C5.02570982 38.52119002 6.92492161 39.82018261 9.44824219 43.29321289 C9.95479419 46.26782277 10.17061077 48.68605893 10.15527344 51.65649414 C10.17039474 52.44847702 10.18551605 53.2404599 10.20109558 54.05644226 C10.24390599 56.57315692 10.25280351 59.08867071 10.26074219 61.60571289 C10.28389188 63.31733321 10.30925821 65.02892508 10.33691406 66.74047852 C10.40385616 70.92537361 10.42487894 75.10694291 10.44824219 79.29321289 C15.72824219 79.29321289 21.00824219 79.29321289 26.44824219 79.29321289 C26.54718304 72.5488716 26.61974615 65.80495359 26.66796875 59.06005859 C26.68807325 56.76603841 26.7153611 54.47206941 26.75 52.17822266 C26.79856778 48.87918463 26.82122295 45.58082467 26.83886719 42.28149414 C26.85951233 41.25735916 26.88015747 40.23322418 26.90142822 39.17805481 C26.90280012 34.8160266 26.88502498 32.06513412 24.70776367 28.21728516 C22.38827932 26.24215213 20.81626933 25.34652816 17.90527344 24.51977539 C17.0079248 24.25559814 16.11057617 23.9914209 15.18603516 23.71923828 C14.22068848 23.4548999 13.2553418 23.19056152 12.26074219 22.91821289 C11.25930176 22.63002686 10.25786133 22.34184082 9.22607422 22.04492188 C7.0873772 21.43242419 4.94632772 20.8280923 2.80322266 20.23120117 C-0.62281928 19.27334546 -4.03869387 18.28436187 -7.45410156 17.28930664 C-9.6946348 16.64355221 -11.93551183 15.99898923 -14.17675781 15.35571289 C-15.76653442 14.89575928 -15.76653442 14.89575928 -17.38842773 14.42651367 C-18.38334229 14.14662598 -19.37825684 13.86673828 -20.40332031 13.57836914 C-21.71550537 13.2053064 -21.71550537 13.2053064 -23.05419922 12.82470703 C-25.62652018 12.27730305 -27.93000682 12.19653546 -30.55175781 12.29321289 Z M-81.55175781 103.29321289 C-82.91389405 105.47542091 -82.91389405 105.47542091 -83.86425781 107.54321289 C-84.19039062 108.20836914 -84.51652344 108.87352539 -84.85253906 109.55883789 C-85.6763946 111.29069834 -85.6763946 111.29069834 -85.55175781 113.29321289 C-16.58175781 113.29321289 52.38824219 113.29321289 123.44824219 113.29321289 C118.35010812 100.20280094 118.35010812 100.20280094 113.44824219 97.29321289 C110.89902942 97.09153366 108.45803028 97.00625161 105.9079895 97.0123291 C105.13307911 97.00638686 104.35816871 97.00044461 103.55977619 96.9943223 C100.95500921 96.9769354 98.35042592 96.97393083 95.74560547 96.97094727 C93.88137417 96.96169189 92.01714666 96.95164271 90.15292358 96.94085693 C85.08268074 96.91459741 80.01249088 96.90171713 74.94219065 96.89283562 C71.77602707 96.88697672 68.60987804 96.87876766 65.44372177 96.86982727 C55.54187973 96.84247592 45.64007084 96.82314266 35.73819363 96.81542349 C24.29948343 96.80645773 12.86125072 96.77134206 1.42268574 96.7134223 C-7.41390781 96.67022732 -16.25036683 96.65001706 -25.08706486 96.64734125 C-30.36742247 96.64524259 -35.6473313 96.63337399 -40.92757797 96.59770203 C-45.89356633 96.56480582 -50.85876698 96.56039649 -55.82482529 96.57798004 C-57.64816392 96.5795243 -59.47154433 96.57078865 -61.29477692 96.55106354 C-63.78330756 96.52571794 -66.2690282 96.53731694 -68.75753784 96.55822754 C-69.84154226 96.53405833 -69.84154226 96.53405833 -70.94744575 96.50940084 C-76.8314717 96.62515515 -78.43541526 98.69509682 -81.55175781 103.29321289 Z M-108.55175781 131.29321289 C-108.55175781 139.54321289 -108.55175781 147.79321289 -108.55175781 156.29321289 C-24.40175781 156.29321289 59.74824219 156.29321289 146.44824219 156.29321289 C146.44824219 148.04321289 146.44824219 139.79321289 146.44824219 131.29321289 C62.29824219 131.29321289 -21.85175781 131.29321289 -108.55175781 131.29321289 Z M-91.55175781 174.29321289 C-87.54866145 227.44350784 -87.54866145 227.44350784 -83.52246094 280.59204102 C-82.97808384 287.75551961 -82.43386005 294.91900982 -81.88989258 302.08251953 C-81.82170832 302.98035379 -81.75352406 303.87818804 -81.68327361 304.80322939 C-80.58257753 319.29989681 -79.4905385 333.79720403 -78.40169182 348.29476572 C-77.28412799 363.17210688 -76.15727275 378.04872317 -75.02178127 392.92470688 C-74.32136229 402.10470276 -73.62820456 411.28518777 -72.94431207 420.46642988 C-72.47470789 426.76148351 -71.99608386 433.05581066 -71.51035675 439.34964062 C-71.230345 442.98137954 -70.95432456 446.61330634 -70.68900871 450.24615097 C-70.40117287 454.18591879 -70.09435168 458.1240772 -69.78569031 462.06227112 C-69.66456038 463.78261302 -69.66456038 463.78261302 -69.54098338 465.5377093 C-68.83140505 474.26580061 -67.49871047 480.36288745 -60.55175781 486.29321289 C-57.42844071 488.19413602 -55.11287607 488.541265 -51.47711182 488.53372192 C-50.45350052 488.53647125 -49.42988922 488.53922058 -48.3752594 488.54205322 C-47.25820114 488.53486267 -46.14114288 488.52767212 -44.99023438 488.52026367 C-43.80946823 488.52055573 -42.62870209 488.52084778 -41.41215515 488.52114868 C-38.17895473 488.51999464 -34.94592775 488.50996869 -31.71276188 488.49600077 C-28.33217689 488.48349265 -24.95158844 488.48232284 -21.57098389 488.47994995 C-15.17141898 488.47373542 -8.77192245 488.45732498 -2.37238765 488.43725097 C4.91413483 488.41489113 12.20066059 488.40389833 19.48720884 488.3938601 C34.47425805 488.37295871 49.46124328 488.33778327 64.44824219 488.29321289 C64.04058624 487.75328201 63.6329303 487.21335114 63.21292114 486.65705872 C62.67585541 485.94377914 62.13878967 485.23049957 61.58544922 484.49560547 C61.05404327 483.79067459 60.52263733 483.08574371 59.97512817 482.35945129 C49.09894673 467.64140163 44.36856004 453.29973476 44.13574219 435.16821289 C44.11801758 434.33298096 44.10029297 433.49774902 44.08203125 432.63720703 C44.09302279 423.3447753 46.74666548 416.53575628 52.44824219 409.29321289 C51.68511719 408.36508789 50.92199219 407.43696289 50.13574219 406.48071289 C45.22429834 399.57399498 43.38556927 390.66358178 44.44824219 382.29321289 C45.88077635 375.28601088 48.73669827 369.36664839 52.44824219 363.29321289 C52.03832031 362.79692383 51.62839844 362.30063477 51.20605469 361.78930664 C46.43919632 355.77941583 43.94644596 350.43347411 44.11621094 342.54711914 C44.79995069 337.90573284 46.70666292 333.62268103 48.44824219 329.29321289 C49.74742594 326.4613459 49.74742594 326.4613459 48.70605469 324.39086914 C48.33222656 323.71926758 47.95839844 323.04766602 47.57324219 322.35571289 C40.34444095 309.23771344 45.07948941 291.22618316 48.94824219 277.60571289 C53.30274628 263.13265816 60.25952784 249.5228175 70.44824219 238.29321289 C71.1559375 237.45661133 71.86363281 236.62000977 72.59277344 235.75805664 C87.16288639 218.84039484 105.9671986 209.97360424 126.44824219 202.29321289 C127.10824219 193.05321289 127.76824219 183.81321289 128.44824219 174.29321289 C55.84824219 174.29321289 -16.75175781 174.29321289 -91.55175781 174.29321289 Z M84.57324219 248.29321289 C80.26534614 253.28627705 76.73094795 258.58209588 73.44824219 264.29321289 C72.92359375 265.18266602 72.39894531 266.07211914 71.85839844 266.98852539 C64.80099155 279.88221024 60.3350448 296.50856011 61.44824219 311.29321289 C63.14514817 315.12185701 64.59662456 316.75767793 68.44824219 318.29321289 C70.86570892 318.59195396 70.86570892 318.59195396 73.50235653 318.54768848 C75.04062993 318.55643677 75.04062993 318.55643677 76.60997957 318.5653618 C78.2974584 318.55969281 78.2974584 318.55969281 80.01902771 318.5539093 C81.81358378 318.55964762 81.81358378 318.55964762 83.6443935 318.56550187 C86.96643985 318.5740459 90.28826529 318.57359416 93.61030543 318.56932127 C97.19251656 318.5668583 100.77470149 318.57586286 104.35690308 318.58335876 C111.37521681 318.59611963 118.39349231 318.59789774 125.4118157 318.5955585 C131.11534365 318.59377677 136.81885999 318.59552186 142.52238655 318.59978294 C143.33358182 318.60037813 144.14477709 318.60097332 144.98055403 318.60158655 C146.62840024 318.60279827 148.27624645 318.60401241 149.92409266 318.60522892 C165.3837092 318.61610976 180.84330394 318.61393937 196.30292172 318.60784408 C210.45131023 318.60267413 224.5996299 318.61393144 238.74800479 318.6329423 C253.26995145 318.65230579 267.79186553 318.66057934 282.31382519 318.65681905 C290.46905568 318.65490477 298.62422758 318.65741654 306.77944756 318.67153358 C313.72184181 318.68342939 320.6641414 318.68487256 327.60653692 318.67274342 C331.14943688 318.66684207 334.69216354 318.66578972 338.23505211 318.67774582 C342.07361229 318.69054933 345.91190795 318.68017 349.75047302 318.66743469 C350.87322819 318.67480898 351.99598335 318.68218326 353.1527614 318.68978101 C354.18088475 318.68257447 355.2090081 318.67536792 356.26828671 318.667943 C357.59728305 318.66802552 357.59728305 318.66802552 358.9531278 318.66810971 C362.03321954 318.20531866 363.92920255 317.09530642 366.44824219 315.29321289 C371.20228101 305.78513525 366.55102609 289.86271188 363.44824219 280.29321289 C359.69310603 269.53417123 354.41422301 260.29296784 347.44824219 251.29321289 C346.83464844 250.4952832 346.22105469 249.69735352 345.58886719 248.87524414 C329.82880571 229.84867419 306.35213855 218.90663645 282.07452393 216.48591232 C272.20650642 215.76186153 262.26136044 216.00563194 252.37245369 216.02456188 C248.84412469 216.0296938 245.3158051 216.02491077 241.78747559 216.02178955 C235.86692407 216.01817055 229.94642276 216.0228943 224.02587891 216.0324707 C217.22130543 216.04335125 210.4168519 216.0398242 203.61228132 216.02881789 C197.72643252 216.01968566 191.84061941 216.01848851 185.9547658 216.02369523 C182.45848665 216.02678256 178.96226351 216.02731503 175.46598816 216.02062225 C139.50964645 215.96113296 110.11554766 221.15988839 84.57324219 248.29321289 Z M63.21043396 339.14119244 C61.18900093 342.1550542 61.18900093 342.1550542 61.44824219 345.48071289 C62.44811657 348.29285959 63.06699937 349.55307391 65.44824219 351.29321289 C68.94712316 352.45950655 71.6782017 352.41790626 75.37193298 352.41778564 C76.08065113 352.41919579 76.78936928 352.42060594 77.51956373 352.42205882 C79.90067624 352.42571634 82.28172936 352.42237326 84.6628418 352.41918945 C86.36793057 352.42058411 88.07301899 352.42248334 89.77810669 352.42485046 C93.45471919 352.42935087 97.13132053 352.43120363 100.80793571 352.43131256 C106.62935589 352.43245295 112.45071264 352.44529327 118.27210999 352.46087646 C119.74627102 352.46473575 119.74627102 352.46473575 121.25021309 352.46867299 C123.26025586 352.47393986 125.27029859 352.47922534 127.28034127 352.48452902 C140.83346952 352.51961482 154.38651983 352.54619594 167.93969727 352.54370117 C177.08003448 352.54210913 186.22015597 352.55823199 195.3604241 352.5944078 C200.19435718 352.6128183 205.02793037 352.62225406 209.86189079 352.60993195 C214.4166954 352.59843492 218.97085792 352.61033902 223.52557755 352.63956642 C225.18952464 352.64616839 226.85353124 352.644407 228.51745415 352.63326836 C241.38380209 352.55434516 252.37744913 354.50045219 262.07324219 363.60571289 C263.15849759 364.56742067 264.24444291 365.52835042 265.33105469 366.48852539 C265.85344727 366.95935547 266.37583984 367.43018555 266.9140625 367.9152832 C269.21944538 369.98587216 271.56839238 371.99632774 273.94824219 373.98071289 C274.70105469 374.62395508 275.45386719 375.26719727 276.22949219 375.92993164 C279.01984924 377.64442919 280.22619841 377.93277647 283.44824219 377.29321289 C285.64805505 375.7134815 287.53321071 374.17616895 289.51074219 372.35571289 C290.66229195 371.34290803 291.81598374 370.33253403 292.97167969 369.32446289 C293.55143555 368.8152832 294.13119141 368.30610352 294.72851562 367.78149414 C297.304152 365.55249366 299.94298816 363.44311911 302.63574219 361.35571289 C303.51617187 360.66606445 304.39660156 359.97641602 305.30371094 359.26586914 C312.96023505 354.46270805 319.90227227 352.71472544 328.87402344 352.85961914 C330.82389408 352.85002404 332.77376386 352.84025335 334.72363281 352.83032227 C337.75635879 352.83895127 340.78887551 352.8559171 343.8215332 352.87792969 C346.77694958 352.89243217 349.73115068 352.87722516 352.68652344 352.85961914 C353.59179276 352.87610001 354.49706207 352.89258087 355.42976379 352.90956116 C359.92557098 352.87387951 361.84385826 352.75528143 365.51928711 349.9453125 C367.63718336 347.41525317 367.63718336 347.41525317 368.07324219 344.29321289 C367.19116973 340.05926507 365.94722826 338.86663563 362.44824219 336.29321289 C358.51986806 335.53648614 354.63356945 335.61471078 350.64331055 335.65156555 C348.82909686 335.63880727 348.82909686 335.63880727 346.97823238 335.62579125 C343.6238318 335.60735626 340.27081838 335.61136158 336.91648436 335.6249305 C333.29811537 335.63417974 329.67988468 335.61469868 326.06155396 335.59895325 C318.97446398 335.57285252 311.88762756 335.5739578 304.80050778 335.58499143 C299.04120586 335.59354626 293.28197736 335.59272193 287.52267456 335.58519554 C286.7032887 335.58414065 285.88390283 335.58308577 285.0396871 335.58199891 C283.3751714 335.57982801 281.71065573 335.57764124 280.04614007 335.57543876 C264.43434578 335.55600416 248.82269382 335.56801155 233.21091115 335.59022471 C219.81238107 335.60847743 206.41412651 335.59757039 193.015625 335.56591797 C177.4600697 335.5291719 161.90468651 335.51212759 146.34908772 335.52533025 C144.69066177 335.52667136 143.03223581 335.52798034 141.37380981 335.52925682 C140.1498126 335.53020282 140.1498126 335.53020282 138.90108818 335.53116793 C133.14802621 335.5341974 127.39509389 335.52292521 121.64205933 335.50600624 C114.63187805 335.48570094 107.62208572 335.48652051 100.61192489 335.51463864 C97.03441522 335.52843054 93.45758496 335.53255532 89.88010025 335.51068878 C86.00409619 335.48731028 82.12916769 335.51030557 78.25317383 335.53804016 C77.11942794 335.52397371 75.98568205 335.50990726 74.81758022 335.49541456 C68.28668035 335.48673578 68.28668035 335.48673578 63.21043396 339.14119244 Z M63.65136719 378.26977539 C61.53357827 381.83151129 61.15037417 385.20297644 61.44824219 389.29321289 C63.09026525 395.34817294 66.36452314 398.85014863 71.44824219 402.29321289 C74.34507307 403.25882319 76.17479283 403.42108725 79.18631363 403.42743397 C80.65704924 403.43412073 80.65704924 403.43412073 82.15749669 403.44094259 C83.2373398 403.44075822 84.31718291 403.44057386 85.42974854 403.44038391 C87.14740233 403.44589894 87.14740233 403.44589894 88.89975619 403.45152539 C92.08331256 403.460653 95.26683863 403.46526209 98.45040584 403.4679147 C101.88202004 403.47181788 105.31361932 403.48139617 108.745224 403.49012756 C117.03476789 403.50989098 125.324313 403.51995776 133.61387455 403.52885535 C137.51706657 403.53323822 141.42025724 403.53860501 145.32344818 403.54384422 C158.29746341 403.56085593 171.2714778 403.5753505 184.24550247 403.58259296 C187.61239879 403.58450287 190.97929511 403.5864232 194.34619141 403.58837891 C195.18302148 403.58886265 196.01985155 403.58934639 196.88204011 403.58984479 C210.4407019 403.5981466 223.99927551 403.62348631 237.55789879 403.65595958 C251.47639208 403.68902317 265.39484055 403.70704106 279.31337333 403.71023721 C287.12889559 403.71240289 294.94428925 403.7211601 302.75977325 403.74669838 C309.41521949 403.76839579 316.07050588 403.77646056 322.72598347 403.7667316 C326.12134328 403.76218412 329.5163732 403.76409856 332.91168785 403.78349304 C336.59433894 403.80112273 340.27615034 403.79414864 343.95880127 403.78096008 C345.5651816 403.79741395 345.5651816 403.79741395 347.20401406 403.81420022 C353.51157663 403.75957983 357.31077657 403.03378815 362.44824219 399.29321289 C367.12573876 394.12334826 367.80105582 390.89820389 367.72949219 384.05493164 C367.20743893 378.9286587 364.57260683 376.30788343 360.88574219 372.98071289 C355.15008111 369.00987061 347.91086519 369.95736341 341.18994141 369.88818359 C339.62265891 369.86668075 338.05549398 369.8326692 336.48876953 369.78564453 C326.97069616 369.50297928 319.82317923 369.57850651 312.44824219 376.29321289 C311.06145346 377.39277082 309.67211814 378.48912446 308.28027344 379.58227539 C306.93703649 380.6901533 305.59717102 381.80213184 304.26074219 382.91821289 C295.70128538 390.04151923 288.7550983 395.66119402 277.07714844 395.19946289 C268.41540256 393.4466644 261.88759091 386.44842179 255.36962891 380.89526367 C245.78134756 372.70519839 245.78134756 372.70519839 233.94610596 370.152771 C232.93308824 370.14831431 232.93308824 370.14831431 231.89960551 370.1437676 C229.62576628 370.13506285 227.35197959 370.13357085 225.078125 370.13208008 C223.45211677 370.12745309 221.82610963 370.1224286 220.20010376 370.11703491 C215.77434106 370.10389585 211.34859354 370.09746282 206.92281437 370.09302425 C204.15850939 370.09009546 201.39420858 370.08599098 198.6299057 370.08152008 C189.98334117 370.06784009 181.33678614 370.05817636 172.69021153 370.05431819 C162.70510243 370.04983852 152.72013029 370.03229696 142.73506284 370.00331759 C135.02034005 369.98170394 127.30565579 369.97161405 119.59090304 369.97027707 C114.98188693 369.96922865 110.37299947 369.96331324 105.7640152 369.94545746 C101.42692207 369.92898264 97.09005439 369.92681838 92.75294113 369.93559647 C91.16224692 369.93636721 89.57154063 369.93201923 87.98087692 369.92213821 C85.80642082 369.90942457 83.63276383 369.91529168 81.45831299 369.92572021 C80.2423003 369.92425365 79.02628761 369.92278709 77.77342606 369.92127609 C71.57576978 370.61451187 67.45343587 373.52719498 63.65136719 378.26977539 Z M62.44824219 425.29321289 C58.55445301 436.97458041 62.14975138 450.72075452 67.13574219 461.48071289 C73.74692634 473.92338381 83.68923839 482.10287634 97.00292969 486.56665039 C102.19730943 488.1100284 106.8934411 488.4415627 112.31445312 488.44038391 C113.22003621 488.4440606 114.1256193 488.44773729 115.05864429 488.45152539 C118.09997431 488.46255812 121.14127016 488.46640542 124.18261719 488.47021484 C126.36075448 488.47647992 128.5388907 488.48312676 130.71702576 488.49012756 C137.87742366 488.5111691 145.03782178 488.52153158 152.19824219 488.53149414 C154.66452038 488.53554198 157.13079846 488.53965891 159.59707642 488.54384422 C171.18669968 488.56289786 182.77631657 488.57712727 194.36595249 488.58545619 C195.69953474 488.5864247 197.03311698 488.58739895 198.36669922 488.58837891 C199.35894526 488.58910452 199.35894526 488.58910452 200.37123668 488.58984479 C211.73853721 488.59865014 223.10570201 488.62758062 234.47295189 488.66195709 C244.8111402 488.69214604 255.14928106 488.70692781 265.48751259 488.71023721 C271.65943381 488.71258494 277.83117791 488.72150944 284.00305176 488.74669838 C289.81432115 488.77003185 295.62529749 488.77419096 301.43660164 488.763937 C303.56337523 488.76344278 305.69016351 488.76972944 307.81689262 488.78349304 C325.45723994 488.89121907 339.87210467 486.65743655 353.19824219 474.04321289 C363.51443086 463.14480546 367.76679424 451.13007147 367.88574219 436.29321289 C367.89589355 435.37241943 367.90604492 434.45162598 367.91650391 433.50292969 C367.90506348 432.62934814 367.89362305 431.7557666 367.88183594 430.85571289 C367.8720874 430.07325195 367.86233887 429.29079102 367.85229492 428.48461914 C367.34262012 425.72036473 366.35634192 424.33570165 364.44824219 422.29321289 C361.49454346 421.30864665 359.58091383 421.16518538 356.5015583 421.15899181 C355.47455035 421.15453397 354.4475424 421.15007613 353.389413 421.1454832 C351.69172849 421.14575974 351.69172849 421.14575974 349.95974731 421.14604187 C348.76014748 421.14236518 347.56054764 421.13868849 346.32459629 421.13490039 C342.98895092 421.12577145 339.65335476 421.12116342 336.31770158 421.11851108 C332.72252528 421.11460852 329.12736324 421.10503029 325.53219604 421.09629822 C316.84814667 421.07653469 308.16409612 421.06646873 299.48002988 421.05757043 C295.3922835 421.05318822 291.30453842 421.04782132 287.21679306 421.04258156 C273.63199444 421.02557104 260.04719663 421.01107552 246.46238899 421.00383282 C242.93700281 421.00192288 239.41161663 421.00000255 235.88623047 420.99804688 C235.00999778 420.99756313 234.1337651 420.99707939 233.2309799 420.996581 C219.02754956 420.9882756 204.8242033 420.96292933 190.62080969 420.9304662 C176.04465891 420.89742208 161.46855092 420.87938655 146.89236248 420.87618858 C138.70578794 420.87402125 130.51933609 420.86523999 122.332798 420.8397274 C115.36292142 420.8180567 108.39319732 420.80995208 101.42329086 420.81969418 C97.8661633 420.82424922 94.30935062 420.82228342 90.75226593 420.80293274 C86.89828013 420.78214756 83.04473176 420.792253 79.19070435 420.8054657 C78.06337611 420.79449645 76.93604788 420.78352721 75.77455819 420.77222556 C68.2445479 420.77350658 68.2445479 420.77350658 62.44824219 425.29321289 Z " fill="#D69F5A" transform="translate(126.5517578125,5.706787109375)"/>
<path d="M0 0 C1.83498047 -0.03867187 1.83498047 -0.03867187 3.70703125 -0.078125 C7.41305603 0.27126454 9.25179871 1.01430881 12.1875 3.25 C13.76648053 6.40796107 14.00678171 9.85670636 13.1875 13.25 C10.44483035 16.94042615 8.94817402 18.11750555 4.375 18.9140625 C2.97916805 18.92723073 1.5828598 18.91361697 0.1875 18.875 C-0.86050781 18.90400391 -0.86050781 18.90400391 -1.9296875 18.93359375 C-5.82639781 18.89683233 -7.67112261 18.35896676 -10.77734375 15.96484375 C-13.82653627 11.89730287 -13.52296028 10.22322196 -12.8125 5.25 C-9.03966907 0.34531979 -5.98565338 0.0752124 0 0 Z " fill="#D69F5A" transform="translate(353.8125,263.75)"/>
<path d="M0 0 C0.75925781 -0.01998047 1.51851563 -0.03996094 2.30078125 -0.06054688 C5.90174043 -0.05739367 8.05034318 0.10150051 10.97265625 2.28515625 C12.98296612 5.11809932 13.43049401 6.96220036 13.5 10.4375 C12.28934672 13.93494281 11.58146795 15.88747506 8.2265625 17.59375 C5.33794377 18.48764921 3.01709639 18.70444998 0 18.6875 C-0.9178125 18.69265625 -1.835625 18.6978125 -2.78125 18.703125 C-6.57440538 18.33252936 -9.44197353 17.31918873 -12.375 14.875 C-14.10110983 11.13509537 -13.80896881 7.32148941 -12.5 3.4375 C-9.11839908 -0.43707087 -4.78903058 -0.0447193 0 0 Z " fill="#D69F5A" transform="translate(277.5,272.5625)"/>
<path d="M0 0 C2.63590225 2.45411589 2.97746954 3.82297499 3.4375 7.4375 C2.909349 11.73815818 2.19083789 13.08940519 -1 16 C-4.01658156 16.71593335 -6.9137739 16.65370636 -10 16.5625 C-11.21042969 16.57893555 -11.21042969 16.57893555 -12.4453125 16.59570312 C-16.22894199 16.54887603 -18.36826038 16.43773317 -21.53125 14.24609375 C-23.93364938 10.57221171 -23.77826196 7.23374506 -23 3 C-18.35652161 -3.63354055 -6.63664706 -4.02221034 0 0 Z " fill="#D69F5A" transform="translate(313,240)"/>
</svg>
