<?xml version="1.0" encoding="UTF-8"?>
<svg version="1.1" xmlns="http://www.w3.org/2000/svg" width="512" height="512">
<path d="M0 0 C0.7850248 -0.00235223 1.5700496 -0.00470446 2.37886304 -0.00712797 C5.02533682 -0.01381704 7.6717615 -0.01335977 10.31824303 -0.01294994 C12.22847645 -0.01624862 14.13870918 -0.0199742 16.04894102 -0.02409142 C21.31092878 -0.03411903 26.57290513 -0.03782944 31.83490109 -0.04048073 C37.50515494 -0.04438151 43.17539974 -0.05395998 48.84564781 -0.0626936 C62.54529589 -0.08246402 76.24494472 -0.09252478 89.9446035 -0.10142139 C96.39368842 -0.10580318 102.8427725 -0.11117026 109.29185677 -0.11641026 C130.7258859 -0.13342282 152.15991371 -0.14794245 173.59394836 -0.155159 C174.98012565 -0.15563375 176.36630294 -0.15610964 177.75248023 -0.15658666 C178.43989776 -0.15682303 179.12731528 -0.15705941 179.83556364 -0.15730295 C183.31834602 -0.15850414 186.80112839 -0.1597196 190.28391075 -0.16094494 C191.32066256 -0.16130516 191.32066256 -0.16130516 192.37835885 -0.16167267 C214.78659379 -0.16956522 237.19477579 -0.19299619 259.6029876 -0.22550088 C283.29525854 -0.25980543 306.98748912 -0.27950957 330.67978704 -0.28280324 C343.59433638 -0.28496969 356.50880791 -0.2937382 369.42333412 -0.31926441 C380.42061666 -0.34095071 391.41780249 -0.34903198 402.41510399 -0.33929763 C408.0264346 -0.33474702 413.63756559 -0.33668361 419.24886894 -0.35605907 C424.38735436 -0.37364877 429.52549391 -0.37272694 434.66398279 -0.35716178 C436.52136818 -0.35477936 438.37877725 -0.35914208 440.23612638 -0.37099043 C452.77235497 -0.44599779 463.0075406 0.23579561 472.53146935 9.20062733 C477.7560902 14.94771026 480.4033069 20.31069401 480.42908955 28.09069538 C480.43478079 29.09447711 480.44047203 30.09825885 480.44633573 31.13245821 C480.44751561 32.23321452 480.44869549 33.33397082 480.44991112 34.46808338 C480.45499894 35.63909737 480.46008676 36.81011136 480.46532875 38.01661062 C480.4783244 41.26806117 480.48681424 44.5194871 480.49330175 47.77095604 C480.49967821 50.55970339 480.50974758 53.34843243 480.51986241 56.13716835 C480.553169 65.325184 480.57470554 74.51321079 480.59306225 83.701267 C480.59785894 86.09466281 480.60284207 88.48805817 480.60786748 90.88145351 C480.63884226 105.75183059 480.66552091 120.62221159 480.68228626 135.49261189 C480.68623561 138.93629939 480.69023862 142.37998684 480.69431114 145.8236742 C480.6953195 146.67956152 480.69632786 147.53544885 480.69736678 148.41727215 C480.71436325 162.27323253 480.75546165 176.12901398 480.80633413 189.98488706 C480.85816317 204.21870728 480.88723553 218.45243562 480.89448315 232.68634939 C480.89913892 240.67479366 480.91382178 248.66294501 480.95422745 256.65129566 C480.98860818 263.45667083 481.00243447 270.2617002 480.98980331 277.06715721 C480.98399489 280.53620865 480.98770938 284.00452952 481.01797295 287.47346973 C481.0457027 291.24440925 481.03612089 295.01353368 481.01753807 298.78448963 C481.04273046 300.40885543 481.04273046 300.40885543 481.06843179 302.0660367 C480.96182351 310.76106154 478.31676206 318.33565631 472.66590589 325.06840181 C470.95871021 326.6509735 469.26075616 327.89985697 467.28928185 329.13422108 C466.73850434 329.49748851 466.18772684 329.86075595 465.62025911 330.23503149 C457.57385648 334.59335319 448.39884146 333.69492749 439.52065086 333.6556139 C437.5910231 333.6616582 435.66140012 333.66943781 433.7317856 333.67879903 C428.4392677 333.69936056 423.14702075 333.69499513 417.85448062 333.68643785 C412.14266976 333.68150363 406.43092416 333.69953136 400.71913719 333.71451283 C389.53282329 333.74001202 378.34660539 333.74359355 367.16026732 333.7389123 C358.06732391 333.73534615 348.97440965 333.73884481 339.88146973 333.74736118 C338.58728475 333.74855156 337.29309977 333.74974194 335.95969707 333.75096839 C333.33054365 333.7533919 330.70139023 333.75582016 328.07223681 333.75825314 C310.41914757 333.77382743 292.76607192 333.78166597 275.11297703 333.77361965 C274.42289519 333.7733069 273.73281336 333.77299415 273.02181995 333.77267192 C269.52436784 333.7710604 266.02691578 333.76936886 262.52946373 333.76764531 C261.48759323 333.76713205 261.48759323 333.76713205 260.42467483 333.76660842 C259.02006515 333.76591511 257.61545548 333.76521805 256.21084581 333.76451725 C234.35761416 333.75380407 212.50454393 333.76966168 190.65134239 333.80658436 C166.08744909 333.84803855 141.52366518 333.86940488 116.95973378 333.86143339 C103.95798038 333.85760835 90.95637403 333.86259411 77.95464706 333.89086246 C66.88575904 333.91468496 55.81710858 333.91750581 44.74821731 333.89328213 C39.10209574 333.88150079 33.45640876 333.87931548 27.81031609 333.90328693 C22.63783683 333.92499213 17.46615532 333.91881433 12.29371349 333.89076357 C10.42635241 333.88546607 8.55892894 333.89021431 6.69162907 333.90623529 C-4.83096712 333.99820498 -14.38968965 333.36408429 -23.61833698 325.51092398 C-30.8243126 317.86680264 -32.30215972 309.31649903 -32.22538185 299.14766407 C-32.23232738 297.96688327 -32.23927291 296.78610247 -32.24642891 295.56954044 C-32.26149417 292.31392842 -32.25878314 289.05890846 -32.24827588 285.80329692 C-32.24125792 282.2837639 -32.25730139 278.76432248 -32.27027321 275.24481678 C-32.29187523 268.35848999 -32.29179611 261.47232869 -32.28364766 254.58597917 C-32.2773386 248.98700695 -32.278493 243.38808286 -32.28491974 237.78911114 C-32.28582139 236.99113838 -32.28672305 236.19316562 -32.28765203 235.37101186 C-32.2895033 233.74974997 -32.29136586 232.12848809 -32.29323959 230.50722622 C-32.30980483 215.31637774 -32.30110974 200.12562222 -32.28425401 184.93477934 C-32.2695584 171.04869365 -32.2841857 157.16282437 -32.31302417 143.27676655 C-32.34244337 129.00435311 -32.35338309 114.73203947 -32.34384197 100.45959705 C-32.34281946 98.84411365 -32.34182485 97.22863022 -32.34085846 95.61314678 C-32.34038207 94.81838093 -32.33990568 94.02361507 -32.33941485 93.2047654 C-32.33725404 87.61582364 -32.34703703 82.02697673 -32.36162949 76.43805599 C-32.379178 69.62212396 -32.37899956 62.80646773 -32.35627783 55.99054641 C-32.34515821 52.51574388 -32.34192041 49.04142681 -32.36057854 45.56664562 C-32.37651575 41.7932225 -32.3615485 38.02112266 -32.33890724 34.24776173 C-32.35074297 33.15854516 -32.3625787 32.0693286 -32.37477309 30.94710547 C-32.26416501 21.85538855 -29.53178135 15.00320478 -23.39821815 8.25922108 C-16.45456041 1.83103138 -9.25288093 -0.01877819 0 0 Z M-0.71071815 31.13422108 C-0.71071815 40.70422108 -0.71071815 50.27422108 -0.71071815 60.13422108 C147.78928185 60.13422108 296.28928185 60.13422108 449.28928185 60.13422108 C449.28928185 50.56422108 449.28928185 40.99422108 449.28928185 31.13422108 C300.78928185 31.13422108 152.28928185 31.13422108 -0.71071815 31.13422108 Z M-0.71071815 91.13422108 C-0.71071815 161.09422108 -0.71071815 231.05422108 -0.71071815 303.13422108 C147.78928185 303.13422108 296.28928185 303.13422108 449.28928185 303.13422108 C449.28928185 233.17422108 449.28928185 163.21422108 449.28928185 91.13422108 C300.78928185 91.13422108 152.28928185 91.13422108 -0.71071815 91.13422108 Z " fill="#D69F5A" transform="translate(31.710718154907227,178.86577892303467)"/>
<path d="M0 0 C0.97839844 0.65742188 0.97839844 0.65742188 1.9765625 1.328125 C9.78199434 7.24457105 15.59304317 16.954314 19 26 C19 26.99 19 27.98 19 29 C34.18 29 49.36 29 65 29 C65 23.72 65 18.44 65 13 C67.80569424 7.38861152 69.52707905 4.73646048 75 2 C80.31135952 1.47059979 84.67272741 1.33636371 89.5 3.75 C92.75983476 6.68385128 94.61095276 8.83285829 96 13 C96.07056698 15.74082159 96.09336154 18.44846977 96.0625 21.1875 C96.041875 23.765625 96.02125 26.34375 96 29 C105.57 29 115.14 29 125 29 C124.84266735 21.13223705 124.84266735 21.13223705 124.63964844 13.265625 C124.57004574 6.33229842 125.23500981 1.87036722 129 -4 C132.63579495 -7.54711702 135.56629785 -8.28578227 140.5 -8.5 C146.75393745 -8.24542995 149.88665899 -6.24807131 154.14453125 -1.71875 C157.47814592 3.41073287 156.40854382 10.02107434 156.25 15.875 C156.23195313 17.13570313 156.21390625 18.39640625 156.1953125 19.6953125 C156.14830729 22.79765614 156.08260676 25.8984338 156 29 C156.91362305 29.1556543 156.91362305 29.1556543 157.84570312 29.31445312 C165.83695652 30.84605662 165.83695652 30.84605662 168.5 34.5 C168.9640625 35.1084375 169.428125 35.716875 169.90625 36.34375 C172.7561489 40.65931119 172.55078294 44.95762097 172 50 C169.7809878 54.60871765 166.80269709 58.085699 162 60 C157.4314055 60.60858251 152.88713477 60.56362651 148.28369141 60.54589844 C146.88379775 60.55463956 145.48391408 60.56512722 144.08404541 60.57722473 C140.29518553 60.60503995 136.50665239 60.60849042 132.71770525 60.60750484 C128.75381722 60.61063783 124.79007551 60.63626403 120.82626343 60.65948486 C113.32536329 60.70001897 105.82455003 60.72037945 98.32355726 60.73345876 C89.78178574 60.7493376 81.24016188 60.78775693 72.69847608 60.82805204 C55.13236146 60.91041552 37.56627061 60.96452978 20 61 C19.67749268 61.81114258 19.35498535 62.62228516 19.02270508 63.45800781 C18.58853271 64.52889648 18.15436035 65.59978516 17.70703125 66.703125 C17.06858276 68.29108887 17.06858276 68.29108887 16.41723633 69.91113281 C14.28454385 74.55933698 11.39716473 78.21357681 8 82 C7.38125 82.69996094 6.7625 83.39992188 6.125 84.12109375 C-3.59045427 94.48293913 -15.96543314 99.50175648 -30 101 C-48.01515147 101.09353661 -62.40431012 95.9185665 -75.67578125 83.48046875 C-87.03047125 71.36243825 -90.53963035 56.86137713 -90.27734375 40.72265625 C-89.64585961 25.16803953 -82.02509486 12.58482484 -71 2 C-50.06046455 -15.05769643 -21.83840728 -15.18609245 0 0 Z M-53 28 C-57.77593116 34.06672336 -59.48887184 39.77177338 -59.31640625 47.40625 C-58.35560945 55.28241145 -54.34078069 60.51151872 -48.2890625 65.375 C-42.2327686 69.72564378 -35.91908592 70.76166492 -28.578125 69.625 C-21.87952904 67.77711146 -16.63881399 63.74467534 -12.6484375 58.08203125 C-9.06942322 51.63208105 -8.22997907 45.16271767 -9.9375 38 C-12.23565331 31.35398909 -16.38309971 26.12657687 -22.46484375 22.55078125 C-33.56909406 17.67449259 -44.06288854 19.94977747 -53 28 Z " fill="#D69F5A" transform="translate(215,329)"/>
<path d="M0 0 C1.1232518 -0.00855011 1.1232518 -0.00855011 2.26919556 -0.01727295 C3.85083631 -0.02667245 5.43249621 -0.0332367 7.01416016 -0.03710938 C9.37309514 -0.0467083 11.73111653 -0.07773414 14.08984375 -0.109375 C46.66029714 -0.33705692 82.93340815 11.40862095 107.1015625 33.890625 C110.48619323 37.93034555 111.24418067 40.86338996 111.0390625 46.078125 C110.35713914 51.51727561 108.20894769 54.72314783 104.0390625 58.203125 C100.09236913 60.53066212 96.56477974 60.66336743 92.0390625 60.203125 C87.30166825 58.31510037 83.0571738 55.65018291 78.91894531 52.7019043 C53.1179922 34.34187714 20.54540846 28.01095107 -10.53515625 32.88671875 C-31.65978526 36.60158874 -49.78708077 45.94229472 -67.2265625 58.109375 C-71.06437005 60.52961399 -74.5395217 60.502882 -78.9609375 60.203125 C-83.8065886 58.4586906 -87.52958015 55.80533713 -89.9609375 51.203125 C-91.31583294 46.50037744 -91.60868231 41.84521806 -89.8984375 37.203125 C-79.54283436 19.72146276 -48.78793349 9.49679593 -30.33984375 4.69921875 C-20.24259029 2.19375486 -10.45716785 0.0636703 0 0 Z " fill="#D69F5A" transform="translate(245.9609375,-0.203125)"/>
<path d="M0 0 C9.13302434 8.23469407 9.13302434 8.23469407 9.859375 14.37890625 C10.05566981 20.28841326 9.15950041 23.58165062 5.62109375 28.36328125 C1.69874411 31.72529523 -3.28442608 32.7329123 -8.37890625 32.36328125 C-13.61414668 30.53214784 -17.21023397 28.12518106 -21.50390625 24.55078125 C-36.60705341 12.43824704 -52.55845883 9.94821002 -71.37890625 11.36328125 C-82.27273229 13.26537786 -91.8085625 18.3815663 -100.31787109 25.30541992 C-109.38605483 32.67578125 -109.38605483 32.67578125 -115.3828125 32.67578125 C-120.8481187 31.82015601 -124.89483205 29.62159416 -128.37890625 25.36328125 C-130.06684464 22.47921385 -130.67383969 20.32592859 -130.69140625 16.98828125 C-130.70816406 16.25867188 -130.72492188 15.5290625 -130.7421875 14.77734375 C-129.48582499 6.42861224 -122.74721406 1.18902646 -116.37890625 -3.63671875 C-80.8834006 -27.97709202 -33.53093881 -27.46546962 0 0 Z " fill="#D69F5A" transform="translate(316.37890625,80.63671875)"/>
<path d="M0 0 C4.50397908 2.13346378 6.98482656 4.43934432 9 9 C10.26792733 14.26677507 10.04764782 17.97395535 8 23 C4.94276825 26.52757509 2.08717572 29.74098541 -2.70703125 30.3359375 C-13.28938098 30.46904882 -13.28938098 30.46904882 -18 26 C-21.88937897 20.55860924 -21.79042609 15.48149391 -21 9 C-16.63929544 -0.20593186 -9.3488659 -1.1401056 0 0 Z " fill="#D69F5A" transform="translate(262,120)"/>
</svg>
