<?xml version="1.0" encoding="UTF-8"?>
<svg version="1.1" xmlns="http://www.w3.org/2000/svg" width="512" height="512">
<path d="M0 0 C7.46864116 4.45352306 11.91082173 10.20113998 15.359375 18.1328125 C16.40064675 22.47144479 16.7757223 26.81496344 17.109375 31.2578125 C18.0065625 31.5259375 18.90375 31.7940625 19.828125 32.0703125 C48.49853314 41.07424233 71.16378607 58.37100033 85.37548828 85.20922852 C91.72408311 97.63831372 96.35552967 111.16545783 96.109375 125.2578125 C96.92921875 125.21140625 97.7490625 125.165 98.59375 125.1171875 C99.67140625 125.08109375 100.7490625 125.045 101.859375 125.0078125 C102.92671875 124.96140625 103.9940625 124.915 105.09375 124.8671875 C108.109375 125.2578125 108.109375 125.2578125 110.47265625 126.6640625 C112.98998269 130.65333399 112.65124188 134.38873651 112.546875 139.0078125 C112.55396484 139.87664062 112.56105469 140.74546875 112.56835938 141.640625 C112.51076148 147.54219359 111.29586776 151.78523821 109.109375 157.2578125 C110.19766602 157.2263916 111.28595703 157.1949707 112.40722656 157.16259766 C116.49969095 157.05283436 120.59202945 156.98470055 124.68554688 156.92822266 C126.44683816 156.8983103 128.2079839 156.85756384 129.96875 156.80517578 C142.16427095 156.45178284 151.9469585 156.91766307 161.56347656 165.43017578 C169.33258133 173.08246585 171.53845421 183.3381443 172.66162109 193.87084961 C172.77936386 194.87157501 172.89710663 195.87230042 173.01841736 196.90335083 C173.40261592 200.19595725 173.76777141 203.49037559 174.1328125 206.78515625 C174.40301022 209.13364477 174.67440851 211.48199544 174.94692993 213.83021545 C175.66336355 220.03133185 176.36372825 226.23415981 177.06060791 232.4375 C177.74975499 238.54860575 178.45344432 244.65803079 179.15625 250.76757812 C180.12850533 259.22990596 181.09388581 267.69296469 182.05069351 276.15705299 C183.29386501 287.15239488 184.56123836 298.14442301 185.86035156 309.13330078 C186.28008115 312.701096 186.6994918 316.26892861 187.11888504 319.83676338 C187.38535747 322.09272836 187.65383898 324.34845708 187.92448044 326.6039257 C188.29803947 329.71787171 188.66457843 332.83257481 189.02978516 335.94750977 C189.13997608 336.84884455 189.25016701 337.75017933 189.36369705 338.67882729 C190.49578928 348.45798621 191.32896271 357.51940162 186.109375 366.2578125 C181.77321266 371.3614372 176.66936144 374.82254322 170.109375 376.2578125 C168.52610741 376.32726123 166.94006499 376.34900084 165.35546875 376.32421875 C164.15748657 376.30983765 164.15748657 376.30983765 162.93530273 376.29516602 C162.33274658 376.28283936 161.73019043 376.2705127 161.109375 376.2578125 C161.10572937 377.26370422 161.10208374 378.26959595 161.09832764 379.30596924 C161.06139833 388.78211381 161.00364845 398.25793279 160.92547226 407.7338295 C160.88595036 412.60560714 160.85378507 417.47720276 160.83837891 422.34912109 C160.82324327 427.0501753 160.78885308 431.75072923 160.74106598 436.45156097 C160.72622017 438.24567061 160.71833216 440.03985166 160.71749115 441.83402252 C160.71512929 444.34594662 160.6881146 446.85647935 160.65527344 449.36816406 C160.6603038 450.11119278 160.66533417 450.8542215 160.67051697 451.61976624 C160.60230254 454.98834414 160.32981472 456.9479261 158.3560791 459.72253418 C155.82698763 461.45078104 154.64559228 461.74673454 151.61621094 461.71191406 C150.73559998 461.71161194 149.85498901 461.71130981 148.94769287 461.71099854 C148.00589172 461.69035339 147.06409058 461.66970825 146.09375 461.6484375 C145.12278381 461.64277771 144.15181763 461.63711792 143.15142822 461.63128662 C140.05357331 461.60891561 136.95687967 461.55871723 133.859375 461.5078125 C131.75782922 461.48774847 129.65626528 461.46949753 127.5546875 461.453125 C122.4058033 461.4090483 117.25778597 461.34001508 112.109375 461.2578125 C112.12750244 462.41539062 112.14562988 463.57296875 112.16430664 464.765625 C112.17896993 466.30468354 112.19318788 467.84374637 112.20703125 469.3828125 C112.22012329 470.14335937 112.23321533 470.90390625 112.2467041 471.6875 C112.31887374 482.40324845 108.48239755 490.53438888 101.109375 498.2578125 C91.88224323 507.06632203 82.25893176 509.88355551 69.74462891 509.72851562 C57.91739993 509.26030778 49.26830393 504.709443 41.13671875 496.19140625 C31.83894912 485.15647371 32.109375 476.24059178 32.109375 461.2578125 C-41.810625 461.2578125 -115.730625 461.2578125 -191.890625 461.2578125 C-191.890625 466.8678125 -191.890625 472.4778125 -191.890625 478.2578125 C-194.96790657 490.07457371 -201.4945297 498.77494855 -211.890625 505.2578125 C-221.60524856 510.63185958 -233.46848783 510.74930023 -244.17578125 508.59765625 C-255.30849609 504.98069826 -263.61388377 496.98884472 -269.2109375 486.87109375 C-273.50567295 477.0652817 -273.62580038 464.34530035 -270.328125 454.1953125 C-265.70833738 443.64733587 -257.50110163 435.44010012 -246.953125 430.8203125 C-236.87610976 427.5417343 -224.4331718 427.54367695 -214.8359375 432.1875 C-214.19398438 432.54070312 -213.55203125 432.89390625 -212.890625 433.2578125 C-211.570625 433.9178125 -210.250625 434.5778125 -208.890625 435.2578125 C-208.890625 413.4778125 -208.890625 391.6978125 -208.890625 369.2578125 C-212.850625 371.2378125 -216.810625 373.2178125 -220.890625 375.2578125 C-229.21448435 377.33877734 -236.39651587 376.66756928 -243.890625 372.2578125 C-249.00850553 367.91769618 -252.45056568 362.82261245 -253.890625 356.2578125 C-254.40071822 348.82501627 -253.49659461 341.44939522 -252.62133789 334.07861328 C-252.4863942 332.90339615 -252.3514505 331.72817902 -252.2124176 330.51734924 C-251.7682584 326.66194221 -251.31593742 322.80754289 -250.86328125 318.953125 C-250.5507896 316.26426603 -250.23985841 313.5752271 -249.92881775 310.88619995 C-249.27779525 305.26579883 -248.62240289 299.64592131 -247.96411133 294.02636719 C-247.20362413 287.53414906 -246.44899233 281.04127176 -245.69770247 274.54798329 C-244.89584783 267.61806834 -244.08995592 260.68862739 -243.28276515 253.75933218 C-243.05100475 251.76754578 -242.81997471 249.77567578 -242.58909798 247.78378677 C-242.15851912 244.07575301 -241.72443956 240.36814628 -241.28930664 236.66064453 C-241.16199158 235.55929672 -241.03467651 234.45794891 -240.90350342 233.32322693 C-240.7843306 232.31406723 -240.66515778 231.30490753 -240.54237366 230.26516724 C-240.44005464 229.38954699 -240.33773561 228.51392673 -240.23231602 227.61177254 C-239.9169416 225.43911148 -239.4668589 223.37451707 -238.890625 221.2578125 C-239.67465698 221.26669495 -240.45868896 221.27557739 -241.26647949 221.284729 C-248.68088943 221.36511329 -256.09508595 221.42589715 -263.50981903 221.46506119 C-267.32118935 221.48587329 -271.13219746 221.51407247 -274.94335938 221.55957031 C-278.62626164 221.60325829 -282.30881708 221.62699749 -285.99195862 221.63732147 C-287.39210972 221.644672 -288.79224336 221.65902548 -290.19224548 221.68073273 C-299.38832009 221.8175567 -305.98262297 221.55872717 -313.1328125 215.29296875 C-313.94105469 214.31650391 -313.94105469 214.31650391 -314.765625 213.3203125 C-315.31992187 212.67191406 -315.87421875 212.02351562 -316.4453125 211.35546875 C-320.92474597 204.85423693 -320.56526228 197.88640333 -319.890625 190.2578125 C-318.20976917 183.59821917 -313.42684178 179.07233803 -307.890625 175.2578125 C-303.76384207 173.22344242 -300.43113655 173.03557619 -295.85644531 173.09765625 C-295.16791473 173.10367355 -294.47938416 173.10969086 -293.76998901 173.1158905 C-292.28093922 173.12904106 -290.7919202 173.14615198 -289.30295563 173.16680908 C-286.12622419 173.20560074 -282.94980372 173.20755468 -279.77286911 173.21160889 C-273.86689873 173.21932498 -267.96200633 173.24079483 -262.05664062 173.32958984 C-257.93941205 173.39007333 -253.82452161 173.40131868 -249.70693207 173.38088989 C-248.14565954 173.38216009 -246.58428821 173.40126196 -245.02347565 173.43917847 C-235.99800038 173.78889924 -235.99800038 173.78889924 -228.04463196 170.06523132 C-225.65452155 167.45773621 -225.65452155 167.45773621 -223.76197815 164.70903015 C-220.39878771 160.30370891 -216.1865432 158.52513749 -210.890625 157.2578125 C-204.84358044 156.5651628 -198.77454874 156.78191986 -192.703125 156.9453125 C-191.06709168 156.97044732 -189.43102082 156.99325127 -187.79492188 157.01367188 C-183.82587917 157.06821108 -179.85867708 157.15418719 -175.890625 157.2578125 C-175.89950745 156.62269241 -175.90838989 155.98757233 -175.9175415 155.33320618 C-176.0067024 148.66485686 -176.0666418 141.99667953 -176.11035156 135.32788086 C-176.1303469 132.84603994 -176.15755226 130.36424541 -176.19238281 127.88256836 C-176.24143464 124.29529303 -176.26371558 120.70864572 -176.28125 117.12109375 C-176.30189514 116.02888016 -176.32254028 114.93666656 -176.34381104 113.81135559 C-176.34683206 103.21094215 -173.57243471 93.49085525 -168.390625 84.2578125 C-167.8234375 83.2265625 -167.25625 82.1953125 -166.671875 81.1328125 C-164.890625 78.2578125 -164.890625 78.2578125 -162.80859375 76.36547852 C-159.74759144 71.4057664 -160.36739358 66.37118086 -160.421875 60.66015625 C-160.41482544 59.43373917 -160.40777588 58.20732208 -160.4005127 56.94374084 C-160.37845548 53.02738591 -160.38149418 49.11171159 -160.390625 45.1953125 C-160.40263413 40.03738955 -160.38904585 34.88048899 -160.359375 29.72265625 C-160.37635437 27.93975441 -160.37635437 27.93975441 -160.39367676 26.12083435 C-160.38346497 24.46375206 -160.38346497 24.46375206 -160.37304688 22.77319336 C-160.37622925 21.80232285 -160.37941162 20.83145233 -160.38269043 19.8311615 C-159.7415157 16.47801726 -158.58462838 15.30232771 -155.890625 13.2578125 C-153.91796875 12.74987793 -153.91796875 12.74987793 -151.828125 12.74023438 C-150.64669922 12.72132141 -150.64669922 12.72132141 -149.44140625 12.70202637 C-148.59964844 12.71012329 -147.75789062 12.71822021 -146.890625 12.7265625 C-145.58158203 12.72082214 -145.58158203 12.72082214 -144.24609375 12.71496582 C-142.40363408 12.7122476 -140.56113576 12.71960256 -138.71875 12.73632812 C-135.90016566 12.75774002 -133.08413015 12.73652449 -130.265625 12.7109375 C-128.47395271 12.71358079 -126.68228201 12.71870581 -124.890625 12.7265625 C-124.04886719 12.71846558 -123.20710937 12.71036865 -122.33984375 12.70202637 C-121.55222656 12.71463501 -120.76460937 12.72724365 -119.953125 12.74023438 C-119.26347656 12.74341675 -118.57382813 12.74659912 -117.86328125 12.74987793 C-114.91742087 13.50840052 -113.72552411 14.86930445 -111.890625 17.2578125 C-111.37164307 19.86480713 -111.37164307 19.86480713 -111.34472656 22.85253906 C-111.32500793 23.97339905 -111.30528931 25.09425903 -111.28497314 26.24908447 C-111.28313019 28.05551422 -111.28313019 28.05551422 -111.28125 29.8984375 C-111.26471375 31.13575623 -111.24817749 32.37307495 -111.23114014 33.64788818 C-111.19080115 36.92932781 -111.16747739 40.2103088 -111.15240479 43.49194336 C-111.13281829 46.84377091 -111.09051603 50.19522564 -111.05078125 53.546875 C-110.97677871 60.11711733 -110.9252059 66.68725084 -110.890625 73.2578125 C-108.38434502 70.76957026 -105.98889293 68.26243917 -103.703125 65.5703125 C-88.78083009 48.53428871 -70.85158478 36.97367874 -48.890625 31.2578125 C-48.74367188 29.989375 -48.74367188 29.989375 -48.59375 28.6953125 C-47.27435818 18.68613315 -45.06034769 11.59048343 -37.890625 4.2578125 C-27.12030102 -3.79205697 -12.34612405 -5.92448235 0 0 Z M-29.265625 21.1953125 C-31.28122151 24.41611676 -31.28122151 24.41611676 -30.890625 29.2578125 C-20.990625 29.2578125 -11.090625 29.2578125 -0.890625 29.2578125 C-1.95615193 21.79912401 -2.08330973 21.06512777 -6.890625 16.2578125 C-15.11933623 11.20327918 -23.53632403 14.10907183 -29.265625 21.1953125 Z M-143.890625 29.2578125 C-143.890625 34.5378125 -143.890625 39.8178125 -143.890625 45.2578125 C-138.610625 45.2578125 -133.330625 45.2578125 -127.890625 45.2578125 C-127.890625 39.9778125 -127.890625 34.6978125 -127.890625 29.2578125 C-133.170625 29.2578125 -138.450625 29.2578125 -143.890625 29.2578125 Z M-83.890625 69.2578125 C-84.52226562 69.80824219 -85.15390625 70.35867187 -85.8046875 70.92578125 C-99.61456648 83.6951899 -107.58110424 102.04517032 -110.890625 120.2578125 C-110.890625 121.9078125 -110.890625 123.5578125 -110.890625 125.2578125 C-48.190625 125.2578125 14.509375 125.2578125 79.109375 125.2578125 C77.08679254 105.03198792 69.77862671 88.30148623 56.109375 73.2578125 C55.55894531 72.62617187 55.00851562 71.99453125 54.44140625 71.34375 C39.90817095 55.62632516 17.47264199 46.51967846 -3.65234375 45.34765625 C-5.25529297 45.30318359 -5.25529297 45.30318359 -6.890625 45.2578125 C-7.54756348 45.23734863 -8.20450195 45.21688477 -8.88134766 45.19580078 C-37.15525626 44.42020728 -62.44223546 49.76899344 -83.890625 69.2578125 Z M-143.890625 61.2578125 C-143.85839844 62.56234375 -143.82617188 63.866875 -143.79296875 65.2109375 C-143.77328123 76.03078544 -144.36309349 82.38976086 -151.6640625 90.67578125 C-162.21475397 102.91088135 -160.15413049 122.50588078 -160.015625 137.5703125 C-160.0055706 139.48632342 -159.99644912 141.40233948 -159.98828125 143.31835938 C-159.96819168 147.96507752 -159.92901023 152.6110674 -159.890625 157.2578125 C-153.620625 157.2578125 -147.350625 157.2578125 -140.890625 157.2578125 C-141.550625 154.6178125 -142.210625 151.9778125 -142.890625 149.2578125 C-143.2410659 145.81726166 -143.21588126 142.40225887 -143.203125 138.9453125 C-143.21923828 138.05263672 -143.23535156 137.15996094 -143.25195312 136.24023438 C-143.25259766 135.38365234 -143.25324219 134.52707031 -143.25390625 133.64453125 C-143.25688721 132.87326904 -143.25986816 132.10200684 -143.26293945 131.30737305 C-142.79118121 128.7103826 -141.97448681 127.83710877 -139.890625 126.2578125 C-136.97265625 125.74609375 -136.97265625 125.74609375 -133.703125 125.5703125 C-132.61644531 125.50457031 -131.52976563 125.43882812 -130.41015625 125.37109375 C-129.57871094 125.33371094 -128.74726563 125.29632813 -127.890625 125.2578125 C-127.79040039 124.67926514 -127.69017578 124.10071777 -127.58691406 123.50463867 C-124.03242315 103.25169753 -124.03242315 103.25169753 -120.52734375 95.31640625 C-119.74514412 92.78745406 -120.0278969 91.74238839 -120.890625 89.2578125 C-121.85035594 88.02528016 -122.85754473 86.82886364 -123.8984375 85.6640625 C-127.62014466 80.86788758 -127.78282757 76.67549755 -127.765625 70.7578125 C-127.78625 69.84 -127.806875 68.9221875 -127.828125 67.9765625 C-127.87477488 65.73736815 -127.88635081 63.49748865 -127.890625 61.2578125 C-133.170625 61.2578125 -138.450625 61.2578125 -143.890625 61.2578125 Z M-126.890625 141.2578125 C-125.80786808 148.96464708 -125.80786808 148.96464708 -120.890625 154.2578125 C-112.12227154 158.34924093 -102.85151166 157.68042609 -93.38671875 157.64599609 C-91.50838924 157.65006548 -89.63006212 157.65540941 -87.7517395 157.66192627 C-82.66912552 157.67556202 -77.58669495 157.67031667 -72.50407791 157.66078901 C-67.17515839 157.65317302 -61.84625415 157.66024341 -56.51733398 157.66494751 C-47.56979566 157.67039941 -38.62233171 157.66322828 -29.67480469 157.64892578 C-19.34270612 157.63260039 -9.01078518 157.63788929 1.32130909 157.654405 C10.20564954 157.66803596 19.08993664 157.66993164 27.97428417 157.66208899 C33.27464393 157.65742134 38.57492031 157.65676264 43.87527466 157.66669846 C48.85925705 157.67538927 53.8430113 157.66930758 58.82696915 157.65201569 C60.65183255 157.64806214 62.47671528 157.64916542 64.30157089 157.65580368 C78.25034122 158.24383451 78.25034122 158.24383451 90.70506287 152.98296165 C94.40779447 149.093455 94.30178042 146.91097454 95.109375 141.2578125 C21.849375 141.2578125 -51.410625 141.2578125 -126.890625 141.2578125 Z M-214.890625 179.2578125 C-217.25663566 183.37953758 -218.3596445 186.82875328 -218.89868164 191.53491211 C-219.04672241 192.77837906 -219.19476318 194.02184601 -219.34729004 195.30299377 C-219.49865263 196.67202596 -219.64980917 198.04108094 -219.80078125 199.41015625 C-219.97009002 200.86855783 -220.14040633 202.32684274 -220.31164551 203.78501892 C-220.77513404 207.75650066 -221.22456139 211.72946196 -221.67143631 215.70284271 C-222.14474843 219.89085667 -222.63052 224.07742499 -223.11499023 228.26416016 C-223.9440588 235.44243861 -224.76511851 242.62159836 -225.58203125 249.80126953 C-226.81959108 260.67140395 -228.08260702 271.53850846 -229.34941292 282.40526772 C-230.27423372 290.34360011 -231.1945364 298.2824579 -232.1152153 306.22127151 C-232.45307121 309.13234904 -232.791688 312.04333734 -233.13040161 314.95431519 C-233.66472643 319.54956583 -234.19539754 324.14522506 -234.7233429 328.74121284 C-234.91857208 330.43604756 -235.11497589 332.13074744 -235.31263733 333.82530022 C-235.58344355 336.14864109 -235.84999252 338.47243276 -236.11547852 340.79638672 C-236.2659816 342.09937714 -236.41648468 343.40236755 -236.57154846 344.74484253 C-237.40708854 351.36679251 -237.40708854 351.36679251 -234.828125 357.1953125 C-232.06920371 359.51510595 -232.06920371 359.51510595 -228.828125 359.4453125 C-224.20843057 358.41422096 -220.08389286 355.96613699 -215.953125 353.73046875 C-204.5900494 348.26633673 -187.49874126 348.01096898 -175.453125 351.6953125 C-171.36577235 353.3578627 -167.58042141 355.52124913 -163.72875977 357.65917969 C-153.60338943 363.25745394 -144.90802625 366.4665788 -133.16943359 364.25317383 C-132.1804306 364.06821854 -131.19142761 363.88326324 -130.17245483 363.69270325 C-129.41945099 363.5491893 -128.66644714 363.40567535 -127.890625 363.2578125 C-127.88823665 362.6730524 -127.88584829 362.08829229 -127.88338757 361.48581219 C-127.82427945 347.26441948 -127.74875648 333.04319344 -127.65491009 318.8219862 C-127.60992363 311.94473489 -127.57051568 305.06753569 -127.54418945 298.19018555 C-127.51878255 291.55707178 -127.47789721 284.92417142 -127.42743874 278.29119301 C-127.41071327 275.75660384 -127.39923452 273.22197459 -127.39301109 270.68733788 C-127.38343181 267.14572077 -127.3554461 263.60470329 -127.32299805 260.06323242 C-127.32515068 258.48043488 -127.32515068 258.48043488 -127.3273468 256.86566162 C-127.30853958 255.42065529 -127.30853958 255.42065529 -127.28935242 253.94645691 C-127.28474345 253.10854709 -127.28013449 252.27063726 -127.27538586 251.40733624 C-126.80276658 248.76697837 -125.99003865 247.87805515 -123.890625 246.2578125 C-121.953125 245.859375 -121.953125 245.859375 -119.890625 245.8828125 C-118.8696875 245.87121094 -118.8696875 245.87121094 -117.828125 245.859375 C-115.2906201 246.38120061 -114.50321568 247.25126399 -112.890625 249.2578125 C-112.50586414 251.2667799 -112.50586414 251.2667799 -112.49189758 253.6047821 C-112.47935944 254.49239227 -112.46682129 255.38000244 -112.4539032 256.29450989 C-112.45533829 257.26555161 -112.45677338 258.23659332 -112.45825195 259.23706055 C-112.44296448 260.77390503 -112.44296448 260.77390503 -112.42736816 262.34179688 C-112.39713045 265.73442985 -112.38795563 269.12678098 -112.37890625 272.51953125 C-112.36206759 274.86937913 -112.34391846 277.21921797 -112.32450867 279.56904602 C-112.2769145 285.7586077 -112.24716598 291.9481327 -112.22106934 298.13781738 C-112.19131134 304.45197804 -112.1447647 310.76601213 -112.09960938 317.08007812 C-112.01346908 329.47259018 -111.94617149 341.86512821 -111.890625 354.2578125 C-111.21515625 354.05285156 -110.5396875 353.84789062 -109.84375 353.63671875 C-108.95171875 353.36730469 -108.0596875 353.09789062 -107.140625 352.8203125 C-106.25890625 352.55347656 -105.3771875 352.28664063 -104.46875 352.01171875 C-100.77396891 350.93127519 -97.41168744 350.13386562 -93.5625 349.94140625 C-92.8415918 349.90329834 -92.12068359 349.86519043 -91.37792969 349.82592773 C-90.47461914 349.78282471 -89.57130859 349.73972168 -88.640625 349.6953125 C-87.07973916 349.61753821 -85.51886765 349.53947612 -83.95800781 349.46118164 C-82.60221354 349.39339193 -81.24641927 349.32560221 -79.890625 349.2578125 C-79.87604248 348.18297607 -79.86145996 347.10813965 -79.84643555 346.00073242 C-79.7884761 342.01406533 -79.71124371 338.02796449 -79.62817383 334.04174805 C-79.59491328 332.31625557 -79.56688481 330.59065401 -79.54418945 328.86499023 C-79.51066347 326.38478084 -79.45835094 323.9055722 -79.40234375 321.42578125 C-79.39595383 320.65380905 -79.3895639 319.88183685 -79.38298035 319.08647156 C-79.23621666 313.7441764 -79.23621666 313.7441764 -77.47973633 311.2722168 C-75.4942697 310.00480032 -74.2373339 309.85614535 -71.890625 309.8828125 C-71.21 309.87507812 -70.529375 309.86734375 -69.828125 309.859375 C-67.3002245 310.37922551 -66.50857248 311.27166999 -64.890625 313.2578125 C-64.49189758 315.13713074 -64.49189758 315.13713074 -64.45825195 317.27026367 C-64.43845779 318.07086716 -64.41866364 318.87147064 -64.39826965 319.69633484 C-64.38868477 320.98553581 -64.38868477 320.98553581 -64.37890625 322.30078125 C-64.36095505 323.1843782 -64.34300385 324.06797516 -64.32450867 324.97834778 C-64.27032504 327.8006208 -64.23648439 330.62272394 -64.203125 333.4453125 C-64.16995901 335.35874764 -64.13547002 337.27216034 -64.09960938 339.18554688 C-64.01459401 343.87617965 -63.94782138 348.56676134 -63.890625 353.2578125 C-48.37456555 362.3256058 -48.37456555 362.3256058 -30.890625 365.2578125 C-29.94703125 365.2578125 -29.0034375 365.2578125 -28.03125 365.2578125 C-20.13938103 364.56018872 -13.67798641 360.84113807 -6.9152832 356.97753906 C2.59444123 351.59501697 11.07254453 349.70846299 21.984375 349.8203125 C23.04793213 349.83006104 24.11148926 349.83980957 25.20727539 349.84985352 C39.1959235 350.1667276 49.33893015 355.65244793 61.28515625 362.3815918 C68.72985346 365.95747754 79.99223551 365.36137143 87.953125 363.64453125 C90.45509611 362.67201851 92.74410862 361.53006574 95.109375 360.2578125 C97.12015453 359.23466341 99.13633825 358.22277969 101.15380859 357.21289062 C102.54619245 356.51114693 103.93360804 355.79942506 105.31494141 355.07617188 C117.66129246 348.69870863 132.47944881 348.48337391 146.03125 350.98046875 C151.51206942 352.73404698 156.20448225 355.43360029 161.140625 358.33984375 C163.25713988 359.49551944 163.25713988 359.49551944 166.484375 359.2578125 C169.89531016 357.98392622 169.89531016 357.98392622 172.109375 355.2578125 C173.01452814 350.50035035 173.115843 346.35967205 172.55973816 341.56095886 C172.41254837 340.25317978 172.26535858 338.9454007 172.1137085 337.59799194 C171.94340965 336.16581202 171.77293251 334.73365328 171.60229492 333.30151367 C171.42759639 331.77986638 171.25367164 330.25813008 171.08045959 328.73631287 C170.60909125 324.61537923 170.12662617 320.49581415 169.64190841 316.37643218 C169.13510002 312.05496838 168.63778995 307.73241084 168.13923645 303.4099884 C167.30030118 296.148832 166.45451022 288.88850042 165.60424805 281.62866211 C164.62345541 273.25389892 163.65172774 264.87812461 162.6852867 256.5016939 C161.65386902 247.56273788 160.61607711 238.6245304 159.57628846 229.68654466 C159.27832184 227.12170044 158.98150117 224.55672576 158.68492699 221.9917202 C158.21694043 217.94716526 157.7446392 213.90313564 157.26910973 209.85946083 C157.09598244 208.38188136 156.92422615 206.90414045 156.75400162 205.42622375 C155.97199784 190.10189887 155.97199784 190.10189887 149.109375 177.2578125 C144.01335988 173.59913498 139.32699931 173.133374 133.17254829 173.12917805 C131.97558866 173.1259536 130.77862902 173.12272915 129.54539788 173.119407 C127.57834997 173.1217299 127.57834997 173.1217299 125.57156372 173.12409973 C124.16155495 173.12223131 122.7515467 173.11993048 121.34153926 173.11723441 C117.46700614 173.11111389 113.59249459 173.1112503 109.71795774 173.11242878 C105.53927353 173.11263273 101.36059626 173.10711468 97.18191528 173.10237122 C88.99532927 173.09406286 80.80875045 173.0913163 72.62216057 173.09075884 C65.96854337 173.09028379 59.31492855 173.08822961 52.6613121 173.08505821 C33.80087657 173.07625134 14.94044672 173.07163892 -3.91999088 173.07238869 C-4.93687729 173.07242864 -5.9537637 173.0724686 -7.00146484 173.07250977 C-8.01959142 173.07255065 -9.03771799 173.07259153 -10.08669688 173.07263365 C-26.59070189 173.07304019 -43.09468409 173.06346872 -59.59868251 173.0493714 C-76.54115215 173.03501362 -93.48361066 173.02810088 -110.42608654 173.02896518 C-119.93951259 173.02929734 -129.45291473 173.02654174 -138.9663353 173.01578712 C-147.06548413 173.00669002 -155.16459821 173.00450039 -163.26374994 173.01129655 C-167.39621998 173.01456567 -171.52862331 173.01460429 -175.66108704 173.0059433 C-179.44479279 172.99809477 -183.22837875 172.99949282 -187.01208152 173.00822743 C-189.02777826 173.01049441 -191.04347866 173.00292088 -193.05916107 172.99498779 C-205.03778817 173.00060047 -205.03778817 173.00060047 -214.890625 179.2578125 Z M-301.890625 192.2578125 C-303.31104321 195.09864891 -303.20514772 197.11258528 -302.890625 200.2578125 C-300.65856069 203.10561869 -299.34069501 204.10778916 -295.890625 205.2578125 C-293.97343652 205.34646426 -292.05326587 205.37543007 -290.1340332 205.37133789 C-288.95303543 205.37126236 -287.77203766 205.37118683 -286.55525208 205.37110901 C-284.64264839 205.36336708 -284.64264839 205.36336708 -282.69140625 205.35546875 C-281.38608444 205.3540538 -280.08076263 205.35263885 -278.73588562 205.35118103 C-275.26872844 205.3473663 -271.80161326 205.33754494 -268.33447266 205.32647705 C-264.79525318 205.31624048 -261.2560269 205.3116786 -257.71679688 205.30664062 C-250.7747206 205.29592173 -243.83267915 205.27833337 -236.890625 205.2578125 C-236.230625 199.9778125 -235.570625 194.6978125 -234.890625 189.2578125 C-242.74039585 189.18991996 -250.59000501 189.13492932 -258.43998909 189.10237598 C-262.0854296 189.08674859 -265.73065807 189.06556445 -269.37597656 189.03149414 C-272.89675849 188.99879533 -276.41733701 188.98093749 -279.93825912 188.97318077 C-281.92905135 188.96497518 -283.91976225 188.94157252 -285.91043091 188.91792297 C-287.13124359 188.91769638 -288.35205627 188.91746979 -289.60986328 188.91723633 C-291.21536545 188.90724358 -291.21536545 188.90724358 -292.853302 188.89704895 C-296.41972418 189.32065721 -298.82404439 190.41586272 -301.890625 192.2578125 Z M-110.91577148 373.53833008 C-120.18833861 378.81907527 -128.54296858 380.8104272 -139.203125 380.6953125 C-140.21713379 380.68556396 -141.23114258 380.67581543 -142.27587891 380.66577148 C-156.4341317 380.33126207 -167.01337959 375.00338089 -179.08227539 368.1340332 C-183.57345289 365.95787065 -186.6018596 366.2578125 -191.890625 366.2578125 C-191.890625 381.7678125 -191.890625 397.2778125 -191.890625 413.2578125 C-81.010625 413.2578125 29.869375 413.2578125 144.109375 413.2578125 C144.109375 398.4078125 144.109375 383.5578125 144.109375 368.2578125 C135.80643105 364.93663492 124.48054908 364.47552986 115.984375 367.7578125 C114.34023558 368.55271817 112.71769003 369.39271586 111.109375 370.2578125 C109.09859547 371.28096159 107.08241175 372.29284531 105.06494141 373.30273438 C103.67255755 374.00447807 102.28514196 374.71619994 100.90380859 375.43945312 C88.45762293 381.86848558 71.15642363 382.9447764 57.671875 378.8203125 C53.57470402 377.15131785 49.76595463 374.98895008 45.8972168 372.85644531 C34.99934846 366.86411223 25.37347504 363.80796328 12.76953125 366.08984375 C7.1786311 367.87391968 2.16265194 370.62146899 -2.91650391 373.53808594 C-12.40088114 378.94218616 -20.86782446 380.80533004 -31.765625 380.6953125 C-32.82555664 380.68701416 -33.88548828 380.67871582 -34.97753906 380.67016602 C-46.94344577 380.41127937 -55.00147265 377.02516204 -65.1484375 370.87109375 C-80.54109747 361.81529807 -96.09862458 365.02562772 -110.91577148 373.53833008 Z M-191.890625 429.2578125 C-191.890625 434.5378125 -191.890625 439.8178125 -191.890625 445.2578125 C-162.42038363 445.39465967 -132.95015728 445.50085574 -103.47966494 445.56420448 C-100.00117259 445.5717088 -96.52268087 445.57947473 -93.04418945 445.58740234 C-92.35167838 445.58897621 -91.6591673 445.59055007 -90.94567104 445.59217162 C-79.72952756 445.61828643 -68.51356842 445.66559755 -57.29753432 445.72072928 C-45.79059532 445.77681959 -34.28378608 445.80971196 -22.77671307 445.82234347 C-16.31253449 445.83017648 -9.84877413 445.84862934 -3.38472939 445.89219284 C2.69657047 445.93284576 8.77727888 445.94549604 14.85870171 445.93645859 C17.09325115 445.93811248 19.32781989 445.95009031 21.56225204 445.97304535 C24.60906139 446.00281706 27.653626 445.99575296 30.70048523 445.9793396 C31.58862103 445.99681665 32.47675682 446.0142937 33.39180583 446.03230035 C37.89542425 446.02792819 37.89542425 446.02792819 41.72355425 443.93683743 C43.26254918 442.14293724 43.26254918 442.14293724 45.109375 439.2578125 C50.51644759 434.72889586 56.33835782 432.08262564 63.109375 430.2578125 C63.109375 429.9278125 63.109375 429.5978125 63.109375 429.2578125 C-21.040625 429.2578125 -105.190625 429.2578125 -191.890625 429.2578125 Z M81.109375 429.2578125 C83.20846418 430.30735709 85.31118604 431.35111208 87.44140625 432.3359375 C94.20637702 435.53198668 99.90403394 438.94980091 104.109375 445.2578125 C107.16012584 445.5242995 110.00563679 445.60538396 113.0546875 445.55078125 C113.9396994 445.54653641 114.8247113 445.54229156 115.73654175 445.53791809 C118.56945945 445.52109509 121.40167152 445.48343675 124.234375 445.4453125 C126.15233349 445.43027032 128.07030311 445.41658111 129.98828125 445.40429688 C134.69558531 445.37117977 139.40236044 445.31937305 144.109375 445.2578125 C144.109375 439.9778125 144.109375 434.6978125 144.109375 429.2578125 C123.319375 429.2578125 102.529375 429.2578125 81.109375 429.2578125 Z M-251.6640625 456.4140625 C-255.59616927 462.32474528 -255.58925777 468.37896674 -254.890625 475.2578125 C-253.11720067 481.90254164 -248.4439603 486.43149209 -242.890625 490.2578125 C-236.89175496 493.19843507 -230.0077897 493.35665038 -223.578125 491.640625 C-217.44929639 488.93532175 -212.65109708 483.84917555 -209.71875 477.8671875 C-207.81256643 471.86091098 -207.82623813 464.75489692 -210.390625 458.9453125 C-213.87099758 453.01257775 -219.3262443 448.32617506 -225.890625 446.2578125 C-237.61457462 444.83172388 -244.19804861 447.57163265 -251.6640625 456.4140625 Z M52.3359375 456.4140625 C48.40383073 462.32474528 48.41074223 468.37896674 49.109375 475.2578125 C50.88279933 481.90254164 55.5560397 486.43149209 61.109375 490.2578125 C67.10824504 493.19843507 73.9922103 493.35665038 80.421875 491.640625 C86.55070361 488.93532175 91.34890292 483.84917555 94.28125 477.8671875 C96.18743357 471.86091098 96.17376187 464.75489692 93.609375 458.9453125 C90.12900242 453.01257775 84.6737557 448.32617506 78.109375 446.2578125 C66.38542538 444.83172388 59.80195139 447.57163265 52.3359375 456.4140625 Z " fill="#D69F5A" transform="translate(319.890625,2.7421875)"/>
<path d="M0 0 C0.66 -0.0103125 1.32 -0.020625 2 -0.03125 C5.00095582 0.76587889 6.09589153 2.05396703 8 4.5 C8.39482906 7.21379746 8.547765 9.5225121 8.51757812 12.234375 C8.5245874 13.00881958 8.53159668 13.78326416 8.53881836 14.58117676 C8.55640499 17.13781732 8.54477389 19.69334844 8.53125 22.25 C8.53394474 24.02832247 8.53782701 25.80664351 8.54284668 27.58496094 C8.54874261 31.31068968 8.54017587 35.03603464 8.52148438 38.76171875 C8.49869459 43.53699287 8.51181719 48.31136776 8.53577423 53.08660889 C8.55022975 56.75836968 8.54562739 60.42991735 8.53526306 64.10168457 C8.53259508 65.86234646 8.53586804 67.62302771 8.54518127 69.38366699 C8.55534308 71.84484087 8.53985253 74.3045595 8.51757812 76.765625 C8.52567505 77.4930188 8.53377197 78.2204126 8.54211426 78.96984863 C8.48438774 82.41344188 8.23622667 84.19654133 6.09265137 86.95019531 C3.82216931 88.63170031 2.78966582 89.04358853 0 89 C-0.66 89.0103125 -1.32 89.020625 -2 89.03125 C-5.00095582 88.23412111 -6.09589153 86.94603297 -8 84.5 C-8.39482906 81.78620254 -8.547765 79.4774879 -8.51757812 76.765625 C-8.5245874 75.99118042 -8.53159668 75.21673584 -8.53881836 74.41882324 C-8.55640499 71.86218268 -8.54477389 69.30665156 -8.53125 66.75 C-8.53394474 64.97167753 -8.53782701 63.19335649 -8.54284668 61.41503906 C-8.54874261 57.68931032 -8.54017587 53.96396536 -8.52148438 50.23828125 C-8.49869459 45.46300713 -8.51181719 40.68863224 -8.53577423 35.91339111 C-8.55022975 32.24163032 -8.54562739 28.57008265 -8.53526306 24.89831543 C-8.53259508 23.13765354 -8.53586804 21.37697229 -8.54518127 19.61633301 C-8.55534308 17.15515913 -8.53985253 14.6954405 -8.51757812 12.234375 C-8.52567505 11.5069812 -8.53377197 10.7795874 -8.54211426 10.03015137 C-8.48438774 6.58655812 -8.23622667 4.80345867 -6.09265137 2.04980469 C-3.82216931 0.36829969 -2.78966582 -0.04358853 0 0 Z " fill="#D69F5A" transform="translate(376,247.5)"/>
<path d="M0 0 C0.66 -0.0103125 1.32 -0.020625 2 -0.03125 C4.94491245 0.75099237 6.095818 2.14551704 8 4.5 C8.50793457 7.38378906 8.50793457 7.38378906 8.51757812 10.765625 C8.53018677 12.03374023 8.54279541 13.30185547 8.55578613 14.60839844 C8.5486263 15.98893795 8.54042231 17.36947239 8.53125 18.75 C8.53394562 20.16959906 8.53782863 21.58919631 8.54284668 23.00878906 C8.54873858 25.98129894 8.54018954 28.95332741 8.52148438 31.92578125 C8.498694 35.73258787 8.51181888 39.53826649 8.53577423 43.34503174 C8.55024114 46.27563956 8.54562235 49.20598074 8.53526306 52.13659668 C8.53259819 53.53999974 8.53585717 54.94342715 8.54518127 56.34680176 C8.55535941 58.30932135 8.5370904 60.27192602 8.51757812 62.234375 C8.51280457 63.90838379 8.51280457 63.90838379 8.50793457 65.61621094 C7.88691177 69.14205633 6.78107437 70.31835804 4 72.5 C2 73.03125 2 73.03125 0 73 C-0.66 73.0103125 -1.32 73.020625 -2 73.03125 C-4.94491245 72.24900763 -6.095818 70.85448296 -8 68.5 C-8.50793457 65.61621094 -8.50793457 65.61621094 -8.51757812 62.234375 C-8.53018677 60.96625977 -8.54279541 59.69814453 -8.55578613 58.39160156 C-8.5486263 57.01106205 -8.54042231 55.63052761 -8.53125 54.25 C-8.53394562 52.83040094 -8.53782863 51.41080369 -8.54284668 49.99121094 C-8.54873858 47.01870106 -8.54018954 44.04667259 -8.52148438 41.07421875 C-8.498694 37.26741213 -8.51181888 33.46173351 -8.53577423 29.65496826 C-8.55024114 26.72436044 -8.54562235 23.79401926 -8.53526306 20.86340332 C-8.53259819 19.46000026 -8.53585717 18.05657285 -8.54518127 16.65319824 C-8.55535941 14.69067865 -8.5370904 12.72807398 -8.51757812 10.765625 C-8.51439575 9.64961914 -8.51121338 8.53361328 -8.50793457 7.38378906 C-7.67108535 2.63259319 -4.87921549 -0.07623774 0 0 Z " fill="#D69F5A" transform="translate(248,207.5)"/>
<path d="M0 0 C2.5 1.5 2.5 1.5 4 4 C4.791013 8.02098277 4.62153384 10.96411027 2.5 14.5 C-1.03588973 16.62153384 -3.97901723 16.791013 -8 16 C-10.5 14.5 -10.5 14.5 -12 12 C-12.791013 7.97901723 -12.62153384 5.03588973 -10.5 1.5 C-6.96411027 -0.62153384 -4.02098277 -0.791013 0 0 Z " fill="#D69F5A" transform="translate(396,464)"/>
<path d="M0 0 C2.5 1.5 2.5 1.5 4 4 C4.791013 8.02098277 4.62153384 10.96411027 2.5 14.5 C-1.03588973 16.62153384 -3.97901723 16.791013 -8 16 C-10.5 14.5 -10.5 14.5 -12 12 C-12.791013 7.97901723 -12.62153384 5.03588973 -10.5 1.5 C-6.96411027 -0.62153384 -4.02098277 -0.791013 0 0 Z " fill="#D69F5A" transform="translate(92,464)"/>
</svg>
