<?xml version="1.0" encoding="UTF-8"?>
<svg version="1.1" xmlns="http://www.w3.org/2000/svg" width="445" height="79">
<path d="M0 0 C32.48412412 -0.34361025 64.96771609 -0.60836938 97.45324812 -0.76597994 C101.30509808 -0.78473625 105.15694445 -0.8041515 109.00878906 -0.82397461 C109.77548898 -0.82790927 110.54218889 -0.83184392 111.33212213 -0.83589781 C123.67965293 -0.90082902 136.02611561 -1.01890309 148.37301679 -1.15729194 C161.08121428 -1.29852192 173.78885996 -1.38108038 186.49780977 -1.41132742 C193.62033414 -1.4299052 200.74063001 -1.47422907 207.86235428 -1.58595085 C265.66612541 -2.46764177 265.66612541 -2.46764177 289 15 C289 15.66 289 16.32 289 17 C263.82345802 35.84705493 235.86882433 34.02530129 205.76614056 33.55306658 C198.61565395 33.44396499 191.46561186 33.42315069 184.31441121 33.40613098 C171.56888064 33.37355553 158.82481589 33.27443975 146.08007812 33.1315918 C133.72305471 32.99323626 121.36643392 32.88739328 109.00878906 32.82397461 C107.86016384 32.81806333 107.86016384 32.81806333 106.68833406 32.81203263 C102.84558112 32.7924526 99.00282539 32.77349805 95.1600678 32.75485408 C63.43897111 32.60014772 31.71971632 32.33552451 0 32 C0.95042087 30.88325489 1.90197608 29.76747511 2.85400391 28.65209961 C3.38377838 28.0306456 3.91355286 27.40919159 4.4593811 26.76890564 C6.34353861 24.60555632 8.32921803 22.57300987 10.375 20.5625 C11.40753906 19.54349609 11.40753906 19.54349609 12.4609375 18.50390625 C12.96882812 18.00761719 13.47671875 17.51132812 14 17 C12.34726179 12.67986784 9.13558835 9.94826304 5.875 6.8125 C3.89498444 4.89365197 1.93960842 2.96036875 0 1 C0 0.67 0 0.34 0 0 Z " fill="#0A1B2F" transform="translate(152,24)"/>
<path d="M0 0 C2.6875 1.4375 2.6875 1.4375 5 3 C4.73603132 4.4595915 4.46328585 5.91759512 4.1875 7.375 C4.03667969 8.18710938 3.88585937 8.99921875 3.73046875 9.8359375 C2.70452645 14.27985869 1.31053928 18.63153574 0 23 C4.95 27.95 9.9 32.9 15 38 C13.35412625 41.2917475 12.4470074 42.79705157 9.9609375 45.234375 C9.38085938 45.80800781 8.80078125 46.38164063 8.203125 46.97265625 C7.59984375 47.55917969 6.9965625 48.14570312 6.375 48.75 C5.76398438 49.35199219 5.15296875 49.95398437 4.5234375 50.57421875 C3.02011376 52.05405305 1.51065144 53.52764676 0 55 C0.37253906 56.18078125 0.74507812 57.3615625 1.12890625 58.578125 C1.60730125 60.13525381 2.08513666 61.69255461 2.5625 63.25 C2.80935547 64.02730469 3.05621094 64.80460937 3.31054688 65.60546875 C3.53935547 66.35957031 3.76816406 67.11367187 4.00390625 67.890625 C4.21861572 68.58188477 4.4333252 69.27314453 4.65454102 69.98535156 C5.06812899 72.39731477 4.97796565 73.7507084 4 76 C2.21289062 77.36743164 2.21289062 77.36743164 0 78 C-2.10351562 77.38061523 -2.10351562 77.38061523 -4.40625 76.12109375 C-5.28539062 75.64526855 -6.16453125 75.16944336 -7.0703125 74.67919922 C-12.57744841 71.52269249 -18.05497915 68.3245254 -23.5 65.0625 C-24.67038287 64.36491543 -25.84095507 63.6676484 -27.01171875 62.97070312 C-30.34422098 60.98559788 -33.67190181 58.99247984 -37 57 C-38.00160156 56.40429199 -39.00320312 55.80858398 -40.03515625 55.19482422 C-41.39447266 54.38489014 -41.39447266 54.38489014 -42.78125 53.55859375 C-43.57595703 53.08607178 -44.37066406 52.6135498 -45.18945312 52.12670898 C-47 51 -47 51 -48 50 C-48.44651624 46.45040849 -48.51141783 42.88579494 -48.625 39.3125 C-48.69589844 38.31798828 -48.76679687 37.32347656 -48.83984375 36.29882812 C-49.0207951 29.14172607 -49.0207951 29.14172607 -46.40698242 26.21826172 C-44.01905255 24.59103275 -41.58027712 23.30120205 -39 22 C-36.9241285 20.78851494 -34.85274853 19.56931138 -32.78515625 18.34375 C-30.54605448 17.05938546 -28.30513474 15.7781856 -26.0625 14.5 C-23.82373427 13.21959673 -21.5854461 11.93835807 -19.34765625 10.65625 C-18.27789551 10.04394531 -17.20813477 9.43164062 -16.10595703 8.80078125 C-12.37630927 6.63839468 -8.69194333 4.40725611 -5.02124023 2.14648438 C-3 1 -3 1 0 0 Z " fill="#0A1B2F" transform="translate(143,1)"/>
<path d="M0 0 C0 4.29 0 8.58 0 13 C20.46 13 40.92 13 62 13 C62 20.92 62 28.84 62 37 C41.54 37 21.08 37 0 37 C0 41.29 0 45.58 0 50 C-7.53238686 49.54349171 -11.77132386 48.32092403 -17.1875 42.75 C-22.4032413 34.83646148 -22.9213083 27.31777708 -22 18 C-20.37480497 10.78336017 -17.21151472 6.01921541 -11 2 C-6.82041799 -0.24270254 -5.13930581 0 0 0 Z " fill="#0A1B2F" transform="translate(25,15)"/>
</svg>
