<?xml version="1.0" encoding="UTF-8"?>
<svg version="1.1" xmlns="http://www.w3.org/2000/svg" width="33" height="32">
<path d="M0 0 C0.66 0.33 1.32 0.66 2 1 C2.5084635 2.59512265 2.9822366 4.20138653 3.4375 5.8125 C4.73457423 9.31309803 5.42749247 10.67202671 8.70703125 12.55078125 C11.45520538 13.52093258 14.16134458 14.34417271 17 15 C17 15.66 17 16.32 17 17 C16.26394531 17.16113281 15.52789063 17.32226562 14.76953125 17.48828125 C8.53973102 19.20498968 8.53973102 19.20498968 4.15625 23.71484375 C2.94613485 26.44815617 1.89018809 29.14746359 1 32 C0.34 31.67 -0.32 31.34 -1 31 C-1.5084635 29.40487735 -1.9822366 27.79861347 -2.4375 26.1875 C-3.73457423 22.68690197 -4.42749247 21.32797329 -7.70703125 19.44921875 C-10.45520538 18.47906742 -13.16134458 17.65582729 -16 17 C-16 16.34 -16 15.68 -16 15 C-15.26394531 14.83886719 -14.52789062 14.67773438 -13.76953125 14.51171875 C-7.53973102 12.79501032 -7.53973102 12.79501032 -3.15625 8.28515625 C-1.94613485 5.55184383 -0.89018809 2.85253641 0 0 Z " fill="#D69F5A" transform="translate(16,0)"/>
</svg>
