<?xml version="1.0" encoding="UTF-8"?>
<svg version="1.1" xmlns="http://www.w3.org/2000/svg" width="893" height="279">
<path d="M0 0 C3.57005307 2.66760723 6.56336233 5.44902956 9.45703125 8.8359375 C10.10671875 9.57199219 10.75640625 10.30804687 11.42578125 11.06640625 C25.25175301 28.0232593 33.46126703 49.34350312 40.45703125 69.8359375 C40.89676175 71.11286562 41.33671217 72.38971802 41.77685547 73.66650391 C47.04501138 88.9876407 52.01091389 104.373178 56.53710938 119.93139648 C59.92917312 131.5651693 63.64030592 143.09002045 67.40625 154.60742188 C68.38411773 157.61191139 69.34493181 160.62126066 70.30078125 163.6328125 C73.96779019 175.07367439 78.32163587 185.97731133 83.45703125 196.8359375 C84.22853516 198.51816406 84.22853516 198.51816406 85.015625 200.234375 C90.22047949 211.20829585 97.55705135 223.52122724 108.8984375 229.01953125 C114.18593696 230.70668756 119.71571686 230.99318579 124.890625 228.80859375 C154.5389847 210.25910007 164.43133165 161.49740969 173.3828125 130.52734375 C200.32800407 37.93386726 200.32800407 37.93386726 221.45703125 11.8359375 C222.2459375 10.78599609 222.2459375 10.78599609 223.05078125 9.71484375 C231.22901568 -0.56808337 243.39422773 -7.91769179 256.453125 -9.53515625 C270.88102295 -10.15429881 282.28040242 -3.39729757 292.6328125 6.01953125 C295.66984733 9.04355951 298.0831798 12.27241916 300.45703125 15.8359375 C301.01028076 16.66593262 301.01028076 16.66593262 301.57470703 17.51269531 C322.16530274 48.68876996 331.9284399 85.71225161 342.56192017 121.17210388 C357.19517311 182.4235207 357.19517311 182.4235207 394.28515625 229.0625 C399.84271763 231.04163157 405.43410158 230.57154829 410.89453125 228.5859375 C413.40122461 226.87404935 415.35529852 225.01273212 417.45703125 222.8359375 C418.11703125 222.8359375 418.77703125 222.8359375 419.45703125 222.8359375 C419.45703125 222.1759375 419.45703125 221.5159375 419.45703125 220.8359375 C421.12082683 219.16640469 422.78798193 217.5002181 424.45703125 215.8359375 C435.70581937 200.24310519 442.52359345 181.95627972 448.45703125 163.8359375 C448.93613658 162.38962901 449.4158346 160.94351678 449.89599609 159.49755859 C455.35459906 143.04844365 460.80187651 126.61368199 465.39453125 109.8984375 C472.41832533 84.52708546 480.3380208 58.27402371 492.45703125 34.8359375 C492.81039551 34.1337207 493.16375977 33.43150391 493.52783203 32.70800781 C502.65249387 14.73680022 515.09785918 -0.9169113 534.45703125 -8.1640625 C544.42676919 -10.67564011 554.20390553 -9.52712575 563.45703125 -5.1640625 C605.72375044 20.41098044 616.90181803 83.70132213 630.13671875 127.47265625 C641.58382885 166.72722702 641.58382885 166.72722702 658.45703125 203.8359375 C658.78558105 204.42971191 659.11413086 205.02348633 659.45263672 205.63525391 C665.32041178 216.09071839 672.00120172 225.26116729 683.45703125 229.8359375 C685.19764719 230.2152359 686.94882972 230.54899066 688.70703125 230.8359375 C692.180147 231.43009416 693.51775007 231.87806892 696.51953125 233.9609375 C698.97488747 237.60436931 699.75690248 240.45781756 699.45703125 244.8359375 C698.32810918 248.04445286 697.5844101 250.10351621 694.6953125 251.98046875 C687.11859578 254.87628195 677.67682121 252.99318107 670.45703125 249.8359375 C657.65004331 243.2830909 648.55975884 233.15310657 641.45703125 220.8359375 C640.90789063 219.97097656 640.35875 219.10601562 639.79296875 218.21484375 C635.91286372 211.96946922 632.86291275 205.51750931 629.95703125 198.7734375 C629.44197021 197.58065186 629.44197021 197.58065186 628.91650391 196.36376953 C622.31311275 180.68645562 616.99831336 164.62448299 612.09100342 148.34866333 C611.11823136 145.12374862 610.13733088 141.90139276 609.15478516 138.67944336 C606.29860451 129.30040258 603.46644505 119.91533366 600.71875 110.50390625 C587.15893199 57.43007051 587.15893199 57.43007051 554.40234375 16.82421875 C549.31536011 14.23986763 543.89376484 13.86710594 538.40625 15.4140625 C519.14490682 23.90603745 510.43758392 49.85845428 503.31788635 68.13896179 C499.63842741 77.76566309 496.5322422 87.58023185 493.42260742 97.40258789 C492.39852646 100.63582378 491.36500868 103.86592578 490.33007812 107.09570312 C486.92289038 117.77113065 483.65839996 128.47023116 480.61953735 139.25622559 C478.02244119 148.44654212 475.20297942 157.56025663 472.26953125 166.6484375 C471.85291733 167.93932281 471.85291733 167.93932281 471.42788696 169.25628662 C466.75690023 183.63246274 461.46421714 197.40854041 454.45703125 210.8359375 C454.0820752 211.55861816 453.70711914 212.28129883 453.32080078 213.02587891 C449.38142764 220.50694288 444.91814785 227.37278116 439.45703125 233.8359375 C438.915625 234.52171875 438.37421875 235.2075 437.81640625 235.9140625 C430.68510104 244.6449128 420.85253812 251.82134708 409.390625 253.05908203 C394.17235948 254.11443566 383.205247 250.9033355 371.45703125 240.8359375 C360.21070126 230.19041312 352.80693607 217.16538736 346.33203125 203.2734375 C345.86563232 202.27699219 345.3992334 201.28054687 344.91870117 200.25390625 C336.55873918 181.77872389 330.64579181 162.40958676 324.84588623 143.01495361 C322.89761956 136.50733155 320.92527547 130.00704229 318.94921875 123.5078125 C318.75472263 122.86777409 318.56022652 122.22773567 318.35983658 121.56830215 C313.38531103 105.21218841 308.10952647 88.97017873 302.45703125 72.8359375 C302.08433105 71.76907715 301.71163086 70.7022168 301.32763672 69.60302734 C294.28692477 49.67862181 285.70678219 28.11294357 267.58203125 15.8984375 C262.31375713 14.1072243 257.34547434 13.77746894 252.05859375 15.71484375 C226.09953534 29.1373603 216.35673167 70.26512167 208.25 95.69921875 C206.15721366 102.3647291 204.12167945 109.04743245 202.09503174 115.73327637 C181.05186095 185.08535076 181.05186095 185.08535076 171.47119141 204.74609375 C170.50664151 206.73370741 169.57757901 208.73425487 168.65625 210.7421875 C164.80216394 218.89335802 160.14614703 225.85384086 154.45703125 232.8359375 C153.53664063 234.03863281 153.53664063 234.03863281 152.59765625 235.265625 C148.76304244 240.00153693 144.51413702 243.44965993 139.45703125 246.7734375 C138.88766846 247.15137451 138.31830566 247.52931152 137.73168945 247.91870117 C128.11252096 253.92776679 116.48997015 254.10541921 105.515625 252.37109375 C99.37141293 250.74609869 94.5072049 247.6160076 89.45703125 243.8359375 C88.59078125 243.2171875 87.72453125 242.5984375 86.83203125 241.9609375 C55.03927289 213.51478529 45.05451916 164.27678748 33.52441406 124.8684082 C22.1438976 85.55873967 22.1438976 85.55873967 6.45703125 47.8359375 C5.9158667 46.72025391 5.9158667 46.72025391 5.36376953 45.58203125 C-0.4739935 33.71810342 -7.31998628 22.41826899 -18.91796875 15.3984375 C-25.56822257 13.97338311 -30.75919906 13.98567184 -36.79296875 17.3984375 C-50.96844492 26.94428693 -59.32970997 45.48548011 -65.10205078 61.02319336 C-66.06791612 63.60525756 -67.07165777 66.16795015 -68.10644531 68.72314453 C-72.37304466 79.31631292 -75.89474526 90.0195326 -79.11328125 100.97296143 C-80.49876863 105.68712848 -81.90866542 110.3940023 -83.31640625 115.1015625 C-83.59297058 116.02840851 -83.86953491 116.95525452 -84.15447998 117.91018677 C-86.85451371 126.93361399 -89.7281413 135.89410273 -92.64746094 144.84887695 C-94.59565981 150.83881393 -96.4474379 156.83948683 -98.16796875 162.8984375 C-104.19930409 183.89508788 -112.11327355 205.77210611 -124.54296875 223.8359375 C-125.20167969 224.80917969 -125.86039063 225.78242188 -126.5390625 226.78515625 C-134.68416006 238.4232781 -144.72264018 248.74945923 -158.92578125 252.40234375 C-164.77358259 253.3711586 -170.90020054 254.16291279 -176.3125 251.4453125 C-179.17124026 249.38261375 -179.79279703 248.28672743 -180.54296875 244.8359375 C-180.67687494 240.43278703 -180.44696974 237.02049053 -177.73046875 233.4609375 C-174.64661968 231.88877915 -172.08458305 231.17344118 -168.73046875 230.3984375 C-156.57814824 227.58719077 -149.76353545 220.11027277 -143.18554688 209.76635742 C-126.94330176 183.21306312 -118.9412232 152.17993043 -110.05499268 122.6355896 C-92.23191677 63.39160695 -92.23191677 63.39160695 -82.54296875 42.8359375 C-82.21345215 42.13146484 -81.88393555 41.42699219 -81.54443359 40.70117188 C-77.45759702 32.04669442 -73.07473875 23.6706332 -67.54296875 15.8359375 C-66.90101562 14.92328125 -66.2590625 14.010625 -65.59765625 13.0703125 C-48.89345771 -8.99648852 -23.74087831 -16.09896469 0 0 Z " fill="#E29C59" transform="translate(187.54296875,20.1640625)"/>
<path d="M0 0 C0.60585938 0.33773437 1.21171875 0.67546875 1.8359375 1.0234375 C6.32405258 3.41249568 10.26228971 5.22538128 15.3125 6 C18.76218469 6.59664358 20.07628058 7.05292938 23.0625 9.125 C25.51785622 12.76843181 26.29987123 15.62188006 26 20 C24.87107793 23.20851536 24.12737885 25.26757871 21.23828125 27.14453125 C13.71665967 30.01928714 4.17999846 28.16076019 -3 25 C-4.32 24.01 -5.64 23.02 -7 22 C-3.7 21.34 -0.4 20.68 3 20 C2.67 19.01 2.34 18.02 2 17 C1.9175 15.989375 1.835 14.97875 1.75 13.9375 C1.5025 12.968125 1.255 11.99875 1 11 C-1.33333333 9.58333333 -1.33333333 9.58333333 -4 9 C-4.99 8.67 -5.98 8.34 -7 8 C-7 7.34 -7 6.68 -7 6 C-6.030625 5.566875 -5.06125 5.13375 -4.0625 4.6875 C-0.72268235 3.2985139 -0.72268235 3.2985139 0 0 Z " fill="#DF9E5F" transform="translate(861,245)"/>
<path d="M0 0 C0.60585938 0.33773437 1.21171875 0.67546875 1.8359375 1.0234375 C7.19701724 3.87718149 11.94869575 5.67615714 17.96875 6.54296875 C20 7 20 7 22 9 C21.40832031 8.95359375 20.81664062 8.9071875 20.20703125 8.859375 C16.12413615 8.67288061 13.67551879 8.61193602 10.0625 10.6875 C7.94228842 13.06470692 6.92570369 14.97042428 6 18 C5.34 18 4.68 18 4 18 C1 13.61538462 1 13.61538462 1 11 C-1.65228812 9.92474806 -4.28368454 8.90543849 -7 8 C-7 7.34 -7 6.68 -7 6 C-6.030625 5.566875 -5.06125 5.13375 -4.0625 4.6875 C-0.72268235 3.2985139 -0.72268235 3.2985139 0 0 Z " fill="#F0C9A2" transform="translate(861,245)"/>
<path d="M0 0 C6.46323899 4.34918243 11.49230893 9.48984779 16.1875 15.6875 C15.5275 17.0075 14.8675 18.3275 14.1875 19.6875 C14.1875 18.3675 14.1875 17.0475 14.1875 15.6875 C13.40375 15.625625 12.62 15.56375 11.8125 15.5 C10.94625 15.231875 10.08 14.96375 9.1875 14.6875 C8.0625 12.25 8.0625 12.25 7.1875 9.6875 C6.1975 9.0275 5.2075 8.3675 4.1875 7.6875 C4.1875 7.0275 4.1875 6.3675 4.1875 5.6875 C2.8675 5.0275 1.5475 4.3675 0.1875 3.6875 C0.1875 3.0275 0.1875 2.3675 0.1875 1.6875 C-1.7925 1.3575 -3.7725 1.0275 -5.8125 0.6875 C-5.8125 0.0275 -5.8125 -0.6325 -5.8125 -1.3125 C-17.89983572 -4.36875117 -27.74957437 -6.40086118 -39.28515625 -0.55859375 C-42.41463778 0.98438092 -45.43323875 1.86145836 -48.8125 2.6875 C-36.5060425 -12.080249 -14.69950114 -8.91609085 0 0 Z " fill="#DCAD80" transform="translate(184.8125,18.3125)"/>
<path d="M0 0 C0.66 0 1.32 0 2 0 C0.09551541 6.68732789 -2.08879901 13.17618097 -4.6875 19.625 C-5.03417725 20.48601318 -5.38085449 21.34702637 -5.73803711 22.23413086 C-17.63698366 51.31179565 -17.63698366 51.31179565 -27 60 C-27.20086443 56.28400809 -27.1519437 55.22791555 -25 52 C-24.01 52 -23.02 52 -22 52 C-22.061875 51.21625 -22.12375 50.4325 -22.1875 49.625 C-22.125625 48.75875 -22.06375 47.8925 -22 47 C-21.01 46.34 -20.02 45.68 -19 45 C-18.67 44.01 -18.34 43.02 -18 42 C-17.34 42 -16.68 42 -16 42 C-15.896875 41.360625 -15.79375 40.72125 -15.6875 40.0625 C-14.76096927 35.93522674 -13.38339371 31.99357051 -12 28 C-11.34 28 -10.68 28 -10 28 C-9.74605469 26.78441406 -9.49210937 25.56882813 -9.23046875 24.31640625 C-8.88350358 22.73161937 -8.53580958 21.14699194 -8.1875 19.5625 C-8.02185547 18.76005859 -7.85621094 17.95761719 -7.68554688 17.13085938 C-7.22300247 15.06250042 -6.62023759 13.02666263 -6 11 C-5.01 10.67 -4.02 10.34 -3 10 C-2.23078715 7.92614148 -2.23078715 7.92614148 -1.875 5.5 C-1.07722008 1.07722008 -1.07722008 1.07722008 0 0 Z " fill="#DAAF7E" transform="translate(370,191)"/>
<path d="M0 0 C0.33 0 0.66 0 1 0 C0.63281136 6.88795238 -0.23054676 12.68300905 -3 19 C-5.57317597 25.2185086 -6.98811418 31.31076618 -8.25390625 37.92578125 C-9 41 -9 41 -11 44 C-13.05431387 50.10092458 -14.97445317 56.32732857 -15.625 62.75 C-16 66 -16 66 -18 68 C-18.71408334 69.98356483 -19.38617742 71.98315437 -20 74 C-20.66 73.67 -21.32 73.34 -22 73 C-19.39757185 62.98764741 -16.31046936 53.12894928 -13.25 43.25 C-12.44347712 40.63951428 -11.63762422 38.0288224 -10.83184814 35.41810608 C-10.3004214 33.69631704 -9.76880683 31.97458596 -9.23699951 30.25291443 C-7.05742133 23.19465517 -4.89699436 16.13074672 -2.75 9.0625 C-2.46286133 8.11729492 -2.17572266 7.17208984 -1.87988281 6.19824219 C-1.25271528 4.13232529 -0.62625312 2.06619427 0 0 Z " fill="#DBB184" transform="translate(85,118)"/>
<path d="M0 0 C1.32 0.33 2.64 0.66 4 1 C-1.52916768 9.29375152 -11.34096142 15.03800779 -21 17 C-31.22113076 18.10374687 -40.64526029 17.61555439 -50 13 C-50 12.67 -50 12.34 -50 12 C-47.03 12 -44.06 12 -41 12 C-41 12.99 -41 13.98 -41 15 C-37.60321197 14.91879294 -34.20817618 14.80597981 -30.8125 14.6875 C-29.85279297 14.66494141 -28.89308594 14.64238281 -27.90429688 14.61914062 C-22.73889766 14.42253373 -19.28046504 14.1609588 -15 11 C-11.6875 10.3125 -11.6875 10.3125 -9 10 C-9 9.34 -9 8.68 -9 8 C-6.09451118 5.95830515 -4.59857954 5 -1 5 C-0.67 3.35 -0.34 1.7 0 0 Z " fill="#D9AB7E" transform="translate(620,256)"/>
<path d="M0 0 C2.34607888 3.51911832 3.74775075 7.19959507 5.25 11.125 C5.70644897 12.31150146 5.70644897 12.31150146 6.17211914 13.52197266 C8.31204939 19.12076293 10.40601113 24.73595222 12.4375 30.375 C12.6962793 31.08156738 12.95505859 31.78813477 13.22167969 32.51611328 C14.4276212 35.91640515 15 38.34145808 15 42 C14.34 42 13.68 42 13 42 C12.81824219 41.26394531 12.63648438 40.52789062 12.44921875 39.76953125 C11.13534132 34.66899168 9.85051967 30.46168297 7 26 C5.6023372 21.8805728 4.73609227 18.35447751 5 14 C4.34 14 3.68 14 3 14 C0.96006486 9.07015675 -0.40652968 5.42039575 0 0 Z " fill="#D9AB7C" transform="translate(218,66)"/>
<path d="M0 0 C0.66 0 1.32 0 2 0 C-1.79091294 10.62604385 -10.68952969 20.69042508 -20 27 C-20.66 27 -21.32 27 -22 27 C-22 24 -22 24 -20.6875 22.3125 C-19 21 -19 21 -16 21 C-16 20.01 -16 19.02 -16 18 C-15.34 18 -14.68 18 -14 18 C-14 17.34 -14 16.68 -14 16 C-13.01 15.67 -12.02 15.34 -11 15 C-11 14.34 -11 13.68 -11 13 C-9.68 13 -8.36 13 -7 13 C-7 11.35 -7 9.7 -7 8 C-5.68 7.67 -4.36 7.34 -3 7 C-3 5.68 -3 4.36 -3 3 C-2.01 3 -1.02 3 0 3 C0 2.01 0 1.02 0 0 Z " fill="#DCAC7D" transform="translate(63,239)"/>
<path d="M0 0 C0.99 0.33 1.98 0.66 3 1 C3.87890625 3.25 3.87890625 3.25 4.5625 6 C5.20149184 8.68457638 5.20149184 8.68457638 6 11 C6.66 11.33 7.32 11.66 8 12 C8.81555591 14.36034977 9.50423249 16.65054757 10.125 19.0625 C10.39328613 20.08162476 10.39328613 20.08162476 10.66699219 21.12133789 C11.87090868 25.91808517 12.40071373 30.09125681 12 35 C9.84461063 31.76691594 8.84240027 28.89942344 7.6171875 25.21484375 C7.39805695 24.55795059 7.17892639 23.90105743 6.95315552 23.22425842 C6.4921625 21.83894364 6.03337825 20.45289214 5.57666016 19.06616211 C4.87581035 16.93995841 4.1669701 14.81654327 3.45703125 12.69335938 C0 2.27915915 0 2.27915915 0 0 Z " fill="#DAAA7A" transform="translate(202,84)"/>
<path d="M0 0 C0.99 0 1.98 0 3 0 C0.52564724 9.37039991 -2.31921942 18.60815234 -5.21484375 27.85546875 C-5.55902344 28.96277344 -5.90320313 30.07007813 -6.2578125 31.2109375 C-6.5686377 32.20399902 -6.87946289 33.19706055 -7.19970703 34.22021484 C-7.94309801 36.80235324 -8.51676494 39.35819433 -9 42 C-9.33 42 -9.66 42 -10 42 C-10.38331744 35.7391484 -9.59611084 31.79132419 -7 26 C-6.64974388 24.19441612 -6.3401026 22.38067197 -6.0625 20.5625 C-5.34200781 16.09911194 -4.06844951 12.78486827 -1.88671875 8.859375 C-0.49684835 5.94493309 -0.26658814 3.19905773 0 0 Z " fill="#DCB085" transform="translate(100,137)"/>
<path d="M0 0 C2.30502598 3.45753897 3.40547408 6.95548084 4.63671875 10.87890625 C4.88041702 11.64677963 5.1241153 12.41465302 5.37519836 13.20579529 C5.88776414 14.82644387 6.397813 16.44789033 6.90551758 18.07006836 C7.68652934 20.55940618 8.48049656 23.04436221 9.27539062 25.52929688 C9.77162612 27.10391704 10.26709537 28.67877894 10.76171875 30.25390625 C11.0012175 30.99975479 11.24071625 31.74560333 11.48747253 32.51405334 C13.11457972 37.77084055 13.11457972 37.77084055 12 40 C11.04729524 37.85641428 10.09553126 35.7124804 9.1484375 33.56640625 C8.42119854 31.94124979 7.678258 30.32295298 6.9140625 28.71484375 C4.80924776 24.22826495 3.38513178 19.99398012 2.4375 15.12890625 C1.97635814 12.71707142 1.97635814 12.71707142 0.875 9.3125 C0.01299975 6.04921335 -0.16371947 3.3562492 0 0 Z " fill="#D9AE80" transform="translate(800,94)"/>
<path d="M0 0 C0.99 0.33 1.98 0.66 3 1 C2.40832031 2.07636719 1.81664062 3.15273438 1.20703125 4.26171875 C-3.54823756 13.01374724 -7.65785873 21.60442213 -11 31 C-11.65918796 32.66963872 -12.32340605 34.33733863 -13 36 C-13.33 36 -13.66 36 -14 36 C-14 33.69 -14 31.38 -14 29 C-13.34 29 -12.68 29 -12 29 C-12 28.01 -12 27.02 -12 26 C-11.34 26 -10.68 26 -10 26 C-9.814375 24.7315625 -9.814375 24.7315625 -9.625 23.4375 C-8.97229673 19.84763202 -8.04752537 16.49175125 -7 13 C-6.34 13 -5.68 13 -5 13 C-5 11.68 -5 10.36 -5 9 C-4.34 9 -3.68 9 -3 9 C-3 7.68 -3 6.36 -3 5 C-2.34 5 -1.68 5 -1 5 C-0.67 3.35 -0.34 1.7 0 0 Z " fill="#DBB185" transform="translate(132,54)"/>
<path d="M0 0 C1.97806641 0.08314453 1.97806641 0.08314453 3.99609375 0.16796875 C7.92621078 0.87823086 9.22361577 1.63616361 11.5625 4.8125 C11.5625 5.4725 11.5625 6.1325 11.5625 6.8125 C12.160625 6.895 12.75875 6.9775 13.375 7.0625 C16.21611183 8.03659548 17.11232079 9.21744247 18.5625 11.8125 C18.2325 12.8025 17.9025 13.7925 17.5625 14.8125 C16.83546875 14.01585937 16.83546875 14.01585937 16.09375 13.203125 C10.81673666 7.64196479 6.29624263 3.16228394 -1.609375 2.578125 C-4.56486376 2.56424947 -7.48782197 2.63551932 -10.4375 2.8125 C-10.4375 2.1525 -10.4375 1.4925 -10.4375 0.8125 C-6.84229169 -0.38590277 -3.71948328 -0.21040222 0 0 Z " fill="#D9AF82" transform="translate(164.4375,32.1875)"/>
<path d="M0 0 C-1.55851755 0.82011312 -3.12201716 1.63076213 -4.6875 2.4375 C-5.55761719 2.88996094 -6.42773438 3.34242188 -7.32421875 3.80859375 C-11.91321782 5.85187071 -16.13582284 6.15623949 -21.125 6.1875 C-22.15882812 6.20167969 -23.19265625 6.21585937 -24.2578125 6.23046875 C-27 6 -27 6 -30 4 C-28.49759766 3.94392578 -28.49759766 3.94392578 -26.96484375 3.88671875 C-20.1175472 3.57027958 -14.15405429 3.28216229 -8 0 C-4.84946615 -1.08018303 -3.17826297 -0.86859361 0 0 Z " fill="#D9AC7C" transform="translate(41,267)"/>
<path d="M0 0 C0.66 0 1.32 0 2 0 C-1.72127031 9.71373846 -7.12719058 21.08479372 -16 27 C-15.4481437 23.13700588 -13.69346579 21.69346579 -11 19 C-10.31867549 17.33927151 -9.65257873 15.672233 -9 14 C-7.9790625 12.7625 -7.9790625 12.7625 -6.9375 11.5 C-4.90815227 8.8814868 -4.37100996 7.24633712 -4 4 C-3.01 4 -2.02 4 -1 4 C-0.67 2.68 -0.34 1.36 0 0 Z " fill="#D9AA7E" transform="translate(640,229)"/>
<path d="M0 0 C0.33 1.32 0.66 2.64 1 4 C1.66 4 2.32 4 3 4 C2.42655063 6.86724686 2.1385485 7.8614515 0 10 C-0.66 9.67 -1.32 9.34 -2 9 C-2.1546875 9.8353125 -2.1546875 9.8353125 -2.3125 10.6875 C-3.16490012 13.55466405 -4.19071306 15.60915654 -6 18 C-8.6875 18.8125 -8.6875 18.8125 -11 19 C-9.2546501 15.28998923 -7.10427938 11.84804888 -4.9375 8.375 C-2.33767727 4.26237409 -2.33767727 4.26237409 0 0 Z " fill="#DDA26F" transform="translate(621,221)"/>
<path d="M0 0 C0.33 0 0.66 0 1 0 C1.25 2.25 1.25 2.25 1 5 C-1.2477854 7.79035429 -2.57730016 8.85910005 -6 10 C-6.33 10.99 -6.66 11.98 -7 13 C-7.66 13 -8.32 13 -9 13 C-9.33 13.99 -9.66 14.98 -10 16 C-15.28 16 -20.56 16 -26 16 C-26 15.67 -26 15.34 -26 15 C-25.07380859 14.99613281 -25.07380859 14.99613281 -24.12890625 14.9921875 C-15.88084952 14.6155639 -10.60547353 11.7678213 -4.91796875 5.82421875 C-3.69102305 4.41735434 -2.48657108 2.9903448 -1.3125 1.5390625 C-0.6628125 0.77722656 -0.6628125 0.77722656 0 0 Z " fill="#DCAF81" transform="translate(326,236)"/>
<path d="M0 0 C0.66 0 1.32 0 2 0 C2.33 0.66 2.66 1.32 3 2 C3.66 1.34 4.32 0.68 5 0 C5.98316039 3.40388303 6.29411056 6.72259589 6.5625 10.25 C6.64628906 11.32765625 6.73007812 12.4053125 6.81640625 13.515625 C6.87699219 14.33546875 6.93757812 15.1553125 7 16 C7.66 16 8.32 16 9 16 C9 16.99 9 17.98 9 19 C9.99 19.33 10.98 19.66 12 20 C12.33 22.64 12.66 25.28 13 28 C7.62740889 21.2723043 0 8.85798325 0 0 Z " fill="#DAAC7B" transform="translate(814,208)"/>
<path d="M0 0 C0.33 0 0.66 0 1 0 C0.43889351 11.04799335 0.43889351 11.04799335 -3 16 C-3.71927295 18.31765729 -4.3909893 20.65095874 -5 23 C-5.33 23.99 -5.66 24.98 -6 26 C-6.66 26 -7.32 26 -8 26 C-8.33 27.98 -8.66 29.96 -9 32 C-9.66 31.67 -10.32 31.34 -11 31 C-8.73636641 24.09484644 -6.30988349 17.26127297 -3.8125 10.4375 C-3.44447266 9.42880859 -3.07644531 8.42011719 -2.69726562 7.38085938 C-1.79928712 4.92016504 -0.90017838 2.45989023 0 0 Z " fill="#DAAC7F" transform="translate(351,182)"/>
<path d="M0 0 C4.7184466 1.83495146 4.7184466 1.83495146 6.8125 3.0625 C10.13073378 4.48460019 13.41485649 4.64148565 17 5 C17 5.66 17 6.32 17 7 C16.28972656 6.91621094 15.57945312 6.83242187 14.84765625 6.74609375 C13.46900391 6.59333984 13.46900391 6.59333984 12.0625 6.4375 C11.14597656 6.33308594 10.22945313 6.22867188 9.28515625 6.12109375 C8.15400391 6.06115234 8.15400391 6.06115234 7 6 C6.67 6.33 6.34 6.66 6 7 C3.32941149 7.14115161 0.67567762 7.04247107 -2 7 C-2 5.68 -2 4.36 -2 3 C-1.34 3 -0.68 3 0 3 C0 2.01 0 1.02 0 0 Z " fill="#DBA068" transform="translate(291,247)"/>
<path d="M0 0 C3.11863468 4.67795202 4.39494524 10.06362182 6.05102539 15.39672852 C6.68522808 17.43021538 7.33535581 19.45815712 7.98632812 21.48632812 C8.39161252 22.78094127 8.79594167 24.07585392 9.19921875 25.37109375 C9.56877686 26.54599365 9.93833496 27.72089355 10.3190918 28.93139648 C10.96708398 31.85165959 11.05962124 33.25697889 10 36 C9.80365967 35.43079834 9.60731934 34.86159668 9.4050293 34.27514648 C8.50184463 31.66167031 7.59470188 29.04958428 6.6875 26.4375 C6.2244043 25.09461914 6.2244043 25.09461914 5.75195312 23.72460938 C4.38593365 19.79910079 3.01213079 15.93695235 1.28125 12.15625 C0.05708788 9.14063111 -0.3354874 7.26889373 -0.1875 4.0625 C-0.16042969 3.29035156 -0.13335938 2.51820313 -0.10546875 1.72265625 C-0.07066406 1.15417969 -0.03585937 0.58570313 0 0 Z " fill="#D7AA7D" transform="translate(527,135)"/>
<path d="M0 0 C2.97 0.495 2.97 0.495 6 1 C6 2.32 6 3.64 6 5 C7.32 5.33 8.64 5.66 10 6 C10 6.66 10 7.32 10 8 C12.49064888 8.68707555 14.37886292 9 17 9 C17 10.65 17 12.3 17 14 C17.66 14.33 18.32 14.66 19 15 C18.01 15.495 18.01 15.495 17 16 C10.86888651 11.45843445 5.10164216 6.69938225 0 1 C0 0.67 0 0.34 0 0 Z " fill="#DBAE82" transform="translate(836,251)"/>
<path d="M0 0 C1.10652097 3.31956291 0.95237748 3.88796417 -0.25 7 C-0.50265625 7.680625 -0.7553125 8.36125 -1.015625 9.0625 C-2.07899191 11.15547613 -3.30354863 12.39880392 -5 14 C-6.13350534 16.01669827 -6.13350534 16.01669827 -7 18 C-7.33 18.66 -7.66 19.32 -8 20 C-8.99 20 -9.98 20 -11 20 C-9.62825451 15.26711896 -7.56963615 11.31698731 -4.9375 7.1875 C-4.57333984 6.60291016 -4.20917969 6.01832031 -3.83398438 5.41601562 C-1.17597535 1.17597535 -1.17597535 1.17597535 0 0 Z " fill="#DBA775" transform="translate(119,38)"/>
<path d="M0 0 C13.58741862 -0.86728204 23.34891198 2.61108997 34 11 C32.171875 11.640625 32.171875 11.640625 30 12 C28.5430435 10.80794468 27.09197987 9.60630915 25.69921875 8.33984375 C22.79518538 6.04999675 19.49563428 5.0855583 16 4 C14.865625 3.62875 13.73125 3.2575 12.5625 2.875 C8.38658922 1.8493377 4.27700314 1.36853995 0 1 C0 0.67 0 0.34 0 0 Z " fill="#E1BA96" transform="translate(727,11)"/>
<path d="M0 0 C1.96670099 2.95005149 2.86971804 5.3018899 3.9453125 8.65625 C4.29980469 9.76097656 4.65429688 10.86570313 5.01953125 12.00390625 C5.38433594 13.15761719 5.74914062 14.31132812 6.125 15.5 C6.49753906 16.65371094 6.87007812 17.80742187 7.25390625 18.99609375 C10 27.61661516 10 27.61661516 10 31 C9.34 31 8.68 31 8 31 C6.22561997 27.07101564 5.3552182 23.19959671 4.5625 18.98828125 C4.11519053 16.78991637 4.11519053 16.78991637 2 15 C1.875 11.875 1.875 11.875 2 9 C1.34 9 0.68 9 0 9 C0 6.03 0 3.06 0 0 Z " fill="#DBB187" transform="translate(246,150)"/>
<path d="M0 0 C0.99 0.33 1.98 0.66 3 1 C4.16796875 4.01953125 4.16796875 4.01953125 5.1875 7.8125 C5.53167969 9.05644531 5.87585938 10.30039063 6.23046875 11.58203125 C7 15 7 15 7 19 C7.66 19 8.32 19 9 19 C9.625 22.375 9.625 22.375 10 26 C9.34 26.66 8.68 27.32 8 28 C6.66212755 23.70973483 5.33047065 19.41756578 4 15.125 C3.6184375 13.90167969 3.236875 12.67835938 2.84375 11.41796875 C2.4828125 10.25136719 2.121875 9.08476562 1.75 7.8828125 C1.41484375 6.80402832 1.0796875 5.72524414 0.734375 4.61376953 C0 2 0 2 0 0 Z " fill="#D8A87C" transform="translate(793,144)"/>
<path d="M0 0 C2.45120456 2.23496107 3.94114592 4.44881063 5.48046875 7.37890625 C5.92197266 8.21744141 6.36347656 9.05597656 6.81835938 9.91992188 C7.27017578 10.79197266 7.72199219 11.66402344 8.1875 12.5625 C8.65091797 13.43841797 9.11433594 14.31433594 9.59179688 15.21679688 C13 21.73705587 13 21.73705587 13 24 C12.01 23.67 11.02 23.34 10 23 C10 22.34 10 21.68 10 21 C9.34 21 8.68 21 8 21 C6.57499941 17.00999834 5.59924224 13.19469571 5 9 C3.68 8.67 2.36 8.34 1 8 C0.67 5.36 0.34 2.72 0 0 Z " fill="#DCB083" transform="translate(203,38)"/>
<path d="M0 0 C0.66 0 1.32 0 2 0 C2.67756882 1.55780332 3.34159457 3.12150096 4 4.6875 C4.37125 5.55761719 4.7425 6.42773438 5.125 7.32421875 C6.01870488 10.0572002 6.16449676 12.14700934 6 15 C6.66 15 7.32 15 8 15 C9.45184478 19.53701494 10.23509196 23.18061476 10 28 C8.25860085 25.38790127 7.3281343 23.42290804 6.30859375 20.5078125 C6.00373047 19.63769531 5.69886719 18.76757812 5.38476562 17.87109375 C5.07216797 16.96488281 4.75957031 16.05867188 4.4375 15.125 C4.12103516 14.22652344 3.80457031 13.32804688 3.47851562 12.40234375 C2.04337186 8.27668629 0.78686392 4.30508566 0 0 Z " fill="#DAAE82" transform="translate(804,180)"/>
<path d="M0 0 C0.33 0 0.66 0 1 0 C1.18315911 4.67055727 0.78538017 7.73492515 -1 12 C-1.49943714 14.52607874 -1.93623731 17.05454381 -2.33984375 19.59765625 C-3.079144 22.28800923 -4.20883158 23.8867141 -6 26 C-7.19997482 22.40007555 -6.68836502 21.23849244 -5.56640625 17.67578125 C-5.24736328 16.64775391 -4.92832031 15.61972656 -4.59960938 14.56054688 C-4.25736328 13.48869141 -3.91511719 12.41683594 -3.5625 11.3125 C-3.22412109 10.22904297 -2.88574219 9.14558594 -2.53710938 8.02929688 C-1.69918895 5.35031186 -0.85320898 2.6741474 0 0 Z " fill="#D9A878" transform="translate(371,118)"/>
<path d="M0 0 C0 0.66 0 1.32 0 2 C-0.97582031 2.31453125 -1.95164062 2.6290625 -2.95703125 2.953125 C-4.24242286 3.38471634 -5.52756639 3.817047 -6.8125 4.25 C-7.77639648 4.55744141 -7.77639648 4.55744141 -8.75976562 4.87109375 C-12.74538929 6.23405314 -14.73042843 7.47123091 -17 11 C-17.66 11 -18.32 11 -19 11 C-19 12.65 -19 14.3 -19 16 C-19.33 16 -19.66 16 -20 16 C-19.8135168 8.06598753 -19.8135168 8.06598753 -17.1875 4.625 C-12.06523291 2.01364815 -5.80774754 0 0 0 Z " fill="#E0B78F" transform="translate(27,249)"/>
<path d="M0 0 C3.34088197 4.17034639 4.96575226 8.53288538 6.8125 13.5 C7.14958984 14.35464844 7.48667969 15.20929688 7.83398438 16.08984375 C8.14271484 16.91613281 8.45144531 17.74242188 8.76953125 18.59375 C9.05417236 19.34333984 9.33881348 20.09292969 9.63208008 20.86523438 C10.09579739 23.55584102 9.41983187 24.72620895 8 27 C7.80664062 26.38511719 7.61328125 25.77023438 7.4140625 25.13671875 C7.15367187 24.32847656 6.89328125 23.52023438 6.625 22.6875 C6.36976563 21.88699219 6.11453125 21.08648437 5.8515625 20.26171875 C5.01168189 17.77275472 5.01168189 17.77275472 3 15 C1.33309157 9.9992747 0.5487715 5.21332925 0 0 Z " fill="#DBA871" transform="translate(790,68)"/>
<path d="M0 0 C2.31 0 4.62 0 7 0 C7.26554687 0.71027344 7.53109375 1.42054687 7.8046875 2.15234375 C8.15789062 3.07144531 8.51109375 3.99054687 8.875 4.9375 C9.39707031 6.31228516 9.39707031 6.31228516 9.9296875 7.71484375 C10.7819086 10.14941056 10.7819086 10.14941056 13 11 C12.67 12.65 12.34 14.3 12 16 C7.79397163 10.8233497 3.70072433 5.55108649 0 0 Z " fill="#DDA87B" transform="translate(463,41)"/>
<path d="M0 0 C2.25 -0.0625 2.25 -0.0625 5 1 C6.27964282 3.17002365 7.17128088 5.36871233 8.0859375 7.71484375 C8.98833017 10.1643151 8.98833017 10.1643151 10.75 12.8125 C12 15 12 15 12 19 C11.34 19 10.68 19 10 19 C9.52949219 18.10796875 9.05898437 17.2159375 8.57421875 16.296875 C7.94548973 15.11448908 7.31657357 13.93220265 6.6875 12.75 C6.07261719 11.58984375 5.45773438 10.4296875 4.82421875 9.234375 C3.13695015 6.07683007 3.13695015 6.07683007 1.26953125 3.703125 C0 2 0 2 0 0 Z " fill="#DCA979" transform="translate(183,47)"/>
<path d="M0 0 C1.26070809 2.9798555 0.99119908 4.02316031 -0.1875 7.125 C-2.11425615 10.18123389 -2.72724069 10.79394856 -6 12 C-8.83984375 12.23046875 -8.83984375 12.23046875 -11.9375 12.1875 C-13.46697266 12.17783203 -13.46697266 12.17783203 -15.02734375 12.16796875 C-17.78374048 12.01221966 -20.31378395 11.61837386 -23 11 C-23 10.67 -23 10.34 -23 10 C-17.06 10 -11.12 10 -5 10 C-5 9.01 -5 8.02 -5 7 C-3.68799596 5.64567325 -2.35368596 4.31266518 -1 3 C-0.67 2.01 -0.34 1.02 0 0 Z " fill="#DDB284" transform="translate(886,261)"/>
<path d="M0 0 C3.277627 2.41509358 5.54319827 4.16915101 7 8 C7.1953125 10.796875 7.1953125 10.796875 7.125 13.75 C7.10695312 14.73484375 7.08890625 15.7196875 7.0703125 16.734375 C7.03550781 17.85585937 7.03550781 17.85585937 7 19 C4.44612397 16.44612397 3.66911986 13.99273882 2.375 10.625 C1.92898437 9.48289063 1.48296875 8.34078125 1.0234375 7.1640625 C0 4 0 4 0 0 Z " fill="#D9B085" transform="translate(239,198)"/>
<path d="M0 0 C0.66 0.33 1.32 0.66 2 1 C-0.21379401 8.37931337 -3.1123969 15.32934955 -7 22 C-7.66 22.33 -8.32 22.66 -9 23 C-8.67 21.02 -8.34 19.04 -8 17 C-7.34 17 -6.68 17 -6 17 C-5.67 15.02 -5.34 13.04 -5 11 C-4.34 11 -3.68 11 -3 11 C-2.814375 9.39125 -2.814375 9.39125 -2.625 7.75 C-2.10356064 4.62136385 -1.59911746 2.66519576 0 0 Z " fill="#DBAE80" transform="translate(74,216)"/>
<path d="M0 0 C0.66 0 1.32 0 2 0 C0.17778624 6.61242722 -2.05223604 12.80520671 -5 19 C-5.66 19 -6.32 19 -7 19 C-7.33 19.66 -7.66 20.32 -8 21 C-7.34 17.7 -6.68 14.4 -6 11 C-5.01 10.67 -4.02 10.34 -3 10 C-2.23078715 7.92614148 -2.23078715 7.92614148 -1.875 5.5 C-1.07722008 1.07722008 -1.07722008 1.07722008 0 0 Z " fill="#D9A06D" transform="translate(370,191)"/>
<path d="M0 0 C2.09721098 3.14581646 3.05667086 5.8408918 4.1875 9.4375 C4.55230469 10.57058594 4.91710937 11.70367187 5.29296875 12.87109375 C5.96248932 15.8339997 6.07236414 17.22004965 5 20 C4.34 19.34 3.68 18.68 3 18 C3 17.01 3 16.02 3 15 C2.34 15 1.68 15 1 15 C-0.44207941 12.11584117 -0.09394887 9.58278472 -0.0625 6.375 C-0.05347656 5.18648438 -0.04445313 3.99796875 -0.03515625 2.7734375 C-0.02355469 1.85820313 -0.01195312 0.94296875 0 0 Z " fill="#DCAA79" transform="translate(521,115)"/>
<path d="M0 0 C1.63784562 2.45676844 2.64261119 4.38486343 3.69140625 7.08984375 C4.14870117 8.26643555 4.14870117 8.26643555 4.61523438 9.46679688 C4.92783203 10.28212891 5.24042969 11.09746094 5.5625 11.9375 C5.87896484 12.74896484 6.19542969 13.56042969 6.52148438 14.39648438 C9.6111304 22.39282939 9.6111304 22.39282939 10 25 C9.34 25.66 8.68 26.32 8 27 C5.31949074 21.37873787 3.39219436 16.06598969 2 10 C1.62875 8.9275 1.2575 7.855 0.875 6.75 C0 4 0 4 0 0 Z " fill="#DAA97C" transform="translate(830,189)"/>
<path d="M0 0 C6.43713278 12.46462985 6.43713278 12.46462985 5.375 18.625 C4 21 4 21 2 22 C1.93941406 21.15695313 1.87882812 20.31390625 1.81640625 19.4453125 C1.73261719 18.34960938 1.64882813 17.25390625 1.5625 16.125 C1.48128906 15.03445312 1.40007812 13.94390625 1.31640625 12.8203125 C1.16998297 10.05271029 1.16998297 10.05271029 0 8 C-0.13415472 5.3276379 -0.04318541 2.67749512 0 0 Z " fill="#DEAE7A" transform="translate(256,181)"/>
<path d="M0 0 C1.32 0 2.64 0 4 0 C2.29977612 7.12647031 0.42080258 14.0834212 -2 21 C-2.33 21 -2.66 21 -3 21 C-3.25 14.375 -3.25 14.375 -1 11 C-0.79576137 8.51688623 -0.79576137 8.51688623 -0.9375 5.875 C-0.99164105 4.25076856 -1.02038538 2.62500568 -1 1 C-0.67 0.67 -0.34 0.34 0 0 Z " fill="#D9AB7D" transform="translate(666,152)"/>
<path d="M0 0 C0.33 0.66 0.66 1.32 1 2 C0.02180976 3.31322788 -0.9575811 4.62556152 -1.9375 5.9375 C-2.75541016 7.03384766 -2.75541016 7.03384766 -3.58984375 8.15234375 C-5 10 -5 10 -6 11 C-8.67058851 11.14115161 -11.32432238 11.04247107 -14 11 C-13.01 10.34 -12.02 9.68 -11 9 C-9.18385535 7.43868188 -7.40221323 5.84327985 -5.62109375 4.2421875 C-4 3 -4 3 -2 3 C-2 2.34 -2 1.68 -2 1 C-1.34 0.67 -0.68 0.34 0 0 Z " fill="#DDA773" transform="translate(609,240)"/>
<path d="M0 0 C2.27034041 2.27034041 3.43076735 4.4792292 4.9375 7.3125 C6.47054269 10.18646494 7.99290285 12.98895121 9.75390625 15.73046875 C10.16511719 16.47941406 10.57632813 17.22835937 11 18 C10.67 18.66 10.34 19.32 10 20 C9.34 19.67 8.68 19.34 8 19 C8 18.34 8 17.68 8 17 C7.01 16.67 6.02 16.34 5 16 C3.29466783 12.67908998 3 10.81507216 3 7 C2.34 7 1.68 7 1 7 C0.67 4.69 0.34 2.38 0 0 Z " fill="#DDAD7F" transform="translate(840,214)"/>
<path d="M0 0 C0.66 0.33 1.32 0.66 2 1 C-0.31 7.27 -2.62 13.54 -5 20 C-5.33 20 -5.66 20 -6 20 C-6.33 17.03 -6.66 14.06 -7 11 C-6.34 11 -5.68 11 -5 11 C-4.34 9.02 -3.68 7.04 -3 5 C-2.34 5 -1.68 5 -1 5 C-0.67 3.35 -0.34 1.7 0 0 Z " fill="#DBAB7E" transform="translate(408,75)"/>
<path d="M0 0 C1.29653752 4.34778749 0.78866917 7.55477379 0 12 C-0.66 12.66 -1.32 13.32 -2 14 C-2.71408334 15.98356483 -3.38617742 17.98315437 -4 20 C-4.66 19.67 -5.32 19.34 -6 19 C-4.3186083 12.51292846 -2.46937673 6.2322365 0 0 Z " fill="#D8A877" transform="translate(69,172)"/>
<path d="M0 0 C0.66 0.99 1.32 1.98 2 3 C1.67 3.53625 1.34 4.0725 1 4.625 C-0.23690753 7.56265539 -0.13461189 9.83662059 0 13 C0 13.99 0 14.98 0 16 C-0.66 16 -1.32 16 -2 16 C-3.37310707 17.29233607 -4.71034824 18.62437146 -6 20 C-4.22089072 13.24947898 -2.29561809 6.59379663 0 0 Z " fill="#D9A876" transform="translate(644,160)"/>
<path d="M0 0 C1.31846585 2.17610868 2.06390665 3.44488662 1.76806641 6.01464844 C1.54812012 6.7059082 1.32817383 7.39716797 1.1015625 8.109375 C0.86953125 8.86347656 0.6375 9.61757812 0.3984375 10.39453125 C0.14320313 11.17183594 -0.11203125 11.94914063 -0.375 12.75 C-0.6225 13.54277344 -0.87 14.33554688 -1.125 15.15234375 C-1.73689932 17.10571467 -2.36673406 19.05345101 -3 21 C-4.11328125 19.4765625 -4.11328125 19.4765625 -5 17 C-4.52319565 14.33567509 -3.96352552 11.94697028 -3.1875 9.375 C-2.99607422 8.694375 -2.80464844 8.01375 -2.60742188 7.3125 C-1.88466032 4.78158411 -1.17966114 2.35932227 0 0 Z " fill="#DBAD7D" transform="translate(674,129)"/>
<path d="M0 0 C2.21938778 3.32908167 3.42348225 6.68145864 4.6875 10.4375 C4.92533203 11.10587891 5.16316406 11.77425781 5.40820312 12.46289062 C7.46116337 18.5374856 7.46116337 18.5374856 6 22 C1.43663474 15.15495211 0 8.19813933 0 0 Z " fill="#DFAA7C" transform="translate(514,93)"/>
<path d="M0 0 C1.32 0.33 2.64 0.66 4 1 C0.7 7.27 -2.6 13.54 -6 20 C-7 16 -7 16 -5.69921875 13.61328125 C-5.13847656 12.75089844 -4.57773437 11.88851562 -4 11 C-3.22535596 9.08022999 -2.49533154 7.14181097 -1.8125 5.1875 C-1.46832031 4.21167969 -1.12414062 3.23585937 -0.76953125 2.23046875 C-0.51558594 1.49441406 -0.26164063 0.75835937 0 0 Z " fill="#D9AA79" transform="translate(703,53)"/>
<path d="M0 0 C1 3 1 3 -0.3125 5.6875 C-0.869375 6.450625 -1.42625 7.21375 -2 8 C-2.66 8 -3.32 8 -4 8 C-4.268125 8.639375 -4.53625 9.27875 -4.8125 9.9375 C-6 12 -6 12 -9 13 C-8.41273335 9.37036582 -6.95905107 7.49830783 -4.5 4.8125 C-3.8709375 4.11769531 -3.241875 3.42289063 -2.59375 2.70703125 C-1.74091381 1.79357681 -0.88366526 0.88366526 0 0 Z " fill="#DDA777" transform="translate(703,23)"/>
<path d="M0 0 C1.58409994 0.11487748 3.16728963 0.24234508 4.75 0.375 C6.07257813 0.47941406 6.07257813 0.47941406 7.421875 0.5859375 C10 1 10 1 11.875 2 C14.95841702 3.45101977 17.86554275 3.4369746 21.25 3.625 C22.51328125 3.69976562 23.7765625 3.77453125 25.078125 3.8515625 C26.04234375 3.90054687 27.0065625 3.94953125 28 4 C28 4.33 28 4.66 28 5 C9.72170588 5.61230018 9.72170588 5.61230018 2 2 C1.34 1.34 0.68 0.68 0 0 Z " fill="#D9B185" transform="translate(284,268)"/>
<path d="M0 0 C0.33 0 0.66 0 1 0 C1.375 2.6875 1.375 2.6875 1 6 C-2.36967324 9.52640222 -5.08523756 11.56634449 -10 12 C-9.61328125 11.55269531 -9.2265625 11.10539063 -8.828125 10.64453125 C-6.39439259 7.81923299 -3.99472951 4.99330506 -1.6875 2.0625 C-1.130625 1.381875 -0.57375 0.70125 0 0 Z " fill="#E0B289" transform="translate(41,235)"/>
<path d="M0 0 C0.33 0 0.66 0 1 0 C0.64249043 9.40250181 -1.77155515 16.67584176 -6 25 C-7.18878413 21.43364762 -6.72013686 20.39620485 -5.56640625 16.89453125 C-5.24736328 15.91162109 -4.92832031 14.92871094 -4.59960938 13.91601562 C-4.25736328 12.89185547 -3.91511719 11.86769531 -3.5625 10.8125 C-3.22412109 9.77673828 -2.88574219 8.74097656 -2.53710938 7.67382812 C-1.69929252 5.1131766 -0.85331644 2.5555198 0 0 Z " fill="#D8B181" transform="translate(363,144)"/>
<path d="M0 0 C3.44216672 2.6598561 3.99504674 5.90288286 5 10 C3.02 10 1.04 10 -1 10 C-2.23076923 4.58461538 -2.23076923 4.58461538 -1.0625 1.625 C-0.5365625 0.820625 -0.5365625 0.820625 0 0 Z " fill="#DDA269" transform="translate(261,198)"/>
<path d="M0 0 C5.01047725 -0.16984669 8.38638808 -0.10907974 13 2 C13.99 2 14.98 2 16 2 C16 3.65 16 5.3 16 7 C11 5 11 5 8.625 3.9375 C5.44341697 2.80122035 2.34711199 2.39377788 -1 2 C-0.67 1.34 -0.34 0.68 0 0 Z " fill="#DCB081" transform="translate(731,32)"/>
<path d="M0 0 C0.99 0.33 1.98 0.66 3 1 C1.58791833 2.60820412 0.17013964 4.21140708 -1.25 5.8125 C-2.03890625 6.70582031 -2.8278125 7.59914063 -3.640625 8.51953125 C-5.66975386 10.65280415 -7.53001913 12.41140119 -10 14 C-10.66 14 -11.32 14 -12 14 C-10.76210371 10.28631113 -9.14775123 9.22645819 -6 7 C-5.34 7 -4.68 7 -4 7 C-4 6.01 -4 5.02 -4 4 C-2 1.8125 -2 1.8125 0 0 Z " fill="#D8AF7F" transform="translate(340,251)"/>
<path d="M0 0 C2.3145363 3.47180445 3.44955764 6.99795123 4.6875 10.9375 C4.92533203 11.65357422 5.16316406 12.36964844 5.40820312 13.10742188 C6.58772664 16.83969715 7.18041207 19.26865804 6 23 C1.92426178 16.20710296 0 7.87497004 0 0 Z " fill="#DCAC7F" transform="translate(233,108)"/>
<path d="M0 0 C-1.62184501 3.58513106 -3.79256239 6.58992323 -6.125 9.75 C-6.84945312 10.73484375 -7.57390625 11.7196875 -8.3203125 12.734375 C-8.87460938 13.48203125 -9.42890625 14.2296875 -10 15 C-11.125 11.25 -11.125 11.25 -10 9 C-9.34 9 -8.68 9 -8 9 C-7.9071875 8.1646875 -7.9071875 8.1646875 -7.8125 7.3125 C-6.59675838 3.8523123 -3.91903476 0 0 0 Z " fill="#DBB085" transform="translate(146,39)"/>
<path d="M0 0 C0.66 0.33 1.32 0.66 2 1 C1.04864681 3.79422603 0.08930407 6.58524589 -0.875 9.375 C-1.14441406 10.1690625 -1.41382812 10.963125 -1.69140625 11.78125 C-1.95566406 12.54179687 -2.21992187 13.30234375 -2.4921875 14.0859375 C-2.73308105 14.7876709 -2.97397461 15.4894043 -3.22216797 16.21240234 C-4 18 -4 18 -6 20 C-5.85904936 18.3745692 -5.71207913 16.74965949 -5.5625 15.125 C-5.48128906 14.22007812 -5.40007812 13.31515625 -5.31640625 12.3828125 C-5 10 -5 10 -4 8 C-3.34 8 -2.68 8 -2 8 C-1.855625 7.236875 -1.71125 6.47375 -1.5625 5.6875 C-1 3 -1 3 0 0 Z " fill="#DDAF85" transform="translate(84,192)"/>
<path d="M0 0 C2.01635978 3.02453967 3.03246502 5.63075348 4.1875 9.0625 C4.55230469 10.12597656 4.91710937 11.18945312 5.29296875 12.28515625 C6 15 6 15 5 17 C1.26092896 14.50728597 1.02086922 13.31906209 0 9 C-0.15216356 5.99108829 -0.12038111 3.00952786 0 0 Z " fill="#DAA87A" transform="translate(540,177)"/>
<path d="M0 0 C2.10900699 3.16351048 3.0584157 5.88040844 4.1875 9.5 C4.55230469 10.6446875 4.91710937 11.789375 5.29296875 12.96875 C6 16 6 16 5 19 C4.34 18.67 3.68 18.34 3 18 C2.40234375 15.96875 2.40234375 15.96875 1.9375 13.5 C1.54135157 10.46226779 1.54135157 10.46226779 0 8 C-0.14115161 5.32941149 -0.04247107 2.67567762 0 0 Z " fill="#D9AD80" transform="translate(240,131)"/>
<path d="M0 0 C0.66 0.33 1.32 0.66 2 1 C1.34 2.98 0.68 4.96 0 7 C-0.66 7 -1.32 7 -2 7 C-2 7.66 -2 8.32 -2 9 C-3.98 9 -5.96 9 -8 9 C-6.4169423 4.7257442 -3.49431596 2.73468206 0 0 Z " fill="#DDAE7C" transform="translate(134,21)"/>
<path d="M0 0 C8.83250989 -0.56377723 15.78527339 0.73741354 24 4 C24 4.33 24 4.66 24 5 C18.41868967 4.51907076 13.39410006 3.56919274 8 2 C5.33587881 1.57637649 2.6844063 1.28256908 0 1 C0 0.67 0 0.34 0 0 Z " fill="#E0B58A" transform="translate(441,11)"/>
<path d="M0 0 C0.66 0.33 1.32 0.66 2 1 C-3.36812782 4.86904957 -7.36501601 6.64455443 -14 7 C-13 5 -13 5 -11 3 C-8.24627091 2.63066355 -5.79634339 2.81663322 -3 3 C-3 2.34 -3 1.68 -3 1 C-2.01 0.67 -1.02 0.34 0 0 Z " fill="#D9A779" transform="translate(326,265)"/>
<path d="M0 0 C1.96460685 5.86727182 -1.17038801 11.24859692 -3.6875 16.5625 C-4.120625 17.366875 -4.55375 18.17125 -5 19 C-5.66 19 -6.32 19 -7 19 C-4.94235079 12.54646385 -2.57616518 6.2638737 0 0 Z " fill="#DBB086" transform="translate(634,191)"/>
<path d="M0 0 C1.24546405 2.49092811 0.7767578 3.41080733 0 6 C-0.99 6 -1.98 6 -3 6 C-3.33 6.99 -3.66 7.98 -4 9 C-7.0625 10.1875 -7.0625 10.1875 -10 11 C-7.17477391 6.32751069 -4.32239956 3.34003602 0 0 Z " fill="#DBAD7E" transform="translate(420,21)"/>
<path d="M0 0 C1.29065057 3.8719517 0.22324098 6.44232601 -0.9375 10.1875 C-1.23043945 11.16879883 -1.23043945 11.16879883 -1.52929688 12.16992188 C-2.01182563 13.78227407 -2.50490205 15.39146289 -3 17 C-3.33 17 -3.66 17 -4 17 C-3.67 11.72 -3.34 6.44 -3 1 C-2.01 0.67 -1.02 0.34 0 0 Z " fill="#DAAD81" transform="translate(107,119)"/>
<path d="M0 0 C1.7866789 2.68001835 2.9322137 5.03128744 4.125 8 C4.47820313 8.86625 4.83140625 9.7325 5.1953125 10.625 C6 13 6 13 6 16 C5.34 16 4.68 16 4 16 C3.67 14.02 3.34 12.04 3 10 C2.01 10 1.02 10 0 10 C0 6.7 0 3.4 0 0 Z " fill="#DBAC7F" transform="translate(508,77)"/>
<path d="M0 0 C0.66 0 1.32 0 2 0 C1.37321829 3.66172475 0.35548154 6.8818995 -1.0625 10.3125 C-1.42472656 11.19550781 -1.78695312 12.07851562 -2.16015625 12.98828125 C-2.43730469 13.65214844 -2.71445312 14.31601563 -3 15 C-3.33 15 -3.66 15 -4 15 C-4 12.03 -4 9.06 -4 6 C-3.01 5.67 -2.02 5.34 -1 5 C-0.67 3.35 -0.34 1.7 0 0 Z " fill="#DCA672" transform="translate(694,73)"/>
<path d="M0 0 C0.33 0 0.66 0 1 0 C1 1.65 1 3.3 1 5 C0.360625 5.226875 -0.27875 5.45375 -0.9375 5.6875 C-3.26352314 6.83529804 -3.26352314 6.83529804 -3.625 9.5 C-3.74875 10.325 -3.8725 11.15 -4 12 C-4.66 12.66 -5.32 13.32 -6 14 C-7 11 -7 11 -5.8203125 8.5546875 C-4.98113281 7.22824219 -4.98113281 7.22824219 -4.125 5.875 C-3.57070313 4.98554687 -3.01640625 4.09609375 -2.4453125 3.1796875 C-1 1 -1 1 0 0 Z " fill="#DCAA7B" transform="translate(691,37)"/>
<path d="M0 0 C1 2 1 2 0.25 5 C-1 8 -1 8 -4 10 C-4.33 10.680625 -4.66 11.36125 -5 12.0625 C-6 14 -6 14 -9 15 C-7.61219205 11.10993227 -5.7847773 8.03441292 -3.375 4.6875 C-2.74335938 3.80449219 -2.11171875 2.92148437 -1.4609375 2.01171875 C-0.97882813 1.34785156 -0.49671875 0.68398438 0 0 Z " fill="#DCB082" transform="translate(409,32)"/>
<path d="M0 0 C-0.56847656 0.31453125 -1.13695312 0.6290625 -1.72265625 0.953125 C-6.50161643 3.60189759 -11.26220422 6.27828753 -16 9 C-16.66 8.34 -17.32 7.68 -18 7 C-3.82136602 -1.91068301 -3.82136602 -1.91068301 0 0 Z " fill="#DAB087" transform="translate(439,13)"/>
<path d="M0 0 C0.66 0 1.32 0 2 0 C1.31063929 3.91121498 0.21749819 7.55508596 -1.0625 11.3125 C-1.42472656 12.38113281 -1.78695312 13.44976562 -2.16015625 14.55078125 C-2.43730469 15.35902344 -2.71445313 16.16726562 -3 17 C-3.33 17 -3.66 17 -4 17 C-2.77419355 2.77419355 -2.77419355 2.77419355 0 0 Z " fill="#DCB68B" transform="translate(116,90)"/>
<path d="M0 0 C7 8.20689655 7 8.20689655 7 13 C5.68 12.67 4.36 12.34 3 12 C2.67 10.35 2.34 8.7 2 7 C1.34 7 0.68 7 0 7 C0 4.69 0 2.38 0 0 Z " fill="#D9A677" transform="translate(777,42)"/>
<path d="M0 0 C1.875 0.125 1.875 0.125 4 1 C5.25 4.0625 5.25 4.0625 6 7 C6.66 7 7.32 7 8 7 C8.33 9.31 8.66 11.62 9 14 C6.67489755 11.15820812 4.42299401 8.27173401 2.25 5.3125 C1.82203125 4.73113281 1.3940625 4.14976562 0.953125 3.55078125 C0 2 0 2 0 0 Z " fill="#DAAE7E" transform="translate(827,236)"/>
<path d="M0 0 C3 0 3 0 4.7890625 1.64453125 C5.39492188 2.35996094 6.00078125 3.07539063 6.625 3.8125 C7.23601562 4.52019531 7.84703125 5.22789062 8.4765625 5.95703125 C10 8 10 8 11 11 C10.01 11.495 10.01 11.495 9 12 C7.86966702 10.75482035 6.74594964 9.50363348 5.625 8.25 C4.99851562 7.55390625 4.37203125 6.8578125 3.7265625 6.140625 C2.12494817 4.15491312 1.03479932 2.32045907 0 0 Z " fill="#DCA97E" transform="translate(263,248)"/>
<path d="M0 0 C2.52940738 3.13164723 4.44920018 6.27808042 6 10 C5.6875 12.375 5.6875 12.375 5 14 C4.34 14 3.68 14 3 14 C2.49307308 12.4188708 1.99473557 10.83498617 1.5 9.25 C1.2215625 8.36828125 0.943125 7.4865625 0.65625 6.578125 C0 4 0 4 0 0 Z " fill="#DBA777" transform="translate(266,209)"/>
<path d="M0 0 C4.09215914 2.28679482 7.49950248 4.90653707 11 8 C11 8.33 11 8.66 11 9 C8.875 9.4375 8.875 9.4375 6 9 C3.66537246 6.916878 1.72024819 4.61288556 0 2 C0 1.34 0 0.68 0 0 Z " fill="#DDAD7E" transform="translate(470,19)"/>
<path d="M0 0 C0.66 0 1.32 0 2 0 C4.4793824 6.24273068 5.31985731 11.28299653 5 18 C3.31099986 14.89370844 2.29373333 11.84794949 1.375 8.4375 C1.11460937 7.48746094 0.85421875 6.53742188 0.5859375 5.55859375 C0 3 0 3 0 0 Z " fill="#D9AD80" transform="translate(222,144)"/>
<path d="M0 0 C0.99 0.33 1.98 0.66 3 1 C3.94921875 4.16015625 3.94921875 4.16015625 4.6875 8.0625 C4.93886719 9.35285156 5.19023437 10.64320313 5.44921875 11.97265625 C5.63097656 12.97167969 5.81273437 13.97070312 6 15 C5.01 15.495 5.01 15.495 4 16 C3.32815382 13.89748139 2.66269032 11.79292237 2 9.6875 C1.443125 7.92986328 1.443125 7.92986328 0.875 6.13671875 C0 3 0 3 0 0 Z " fill="#D9AE7E" transform="translate(504,133)"/>
<path d="M0 0 C1.15431591 3.94897547 0.80958981 6.95205095 0 11 C-0.99 12.485 -0.99 12.485 -2 14 C-2.38499891 15.65549531 -2.72793135 17.3222433 -3 19 C-3.66 19 -4.32 19 -5 19 C-3.64746536 12.54945018 -1.96939767 6.28894321 0 0 Z " fill="#DCB082" transform="translate(91,99)"/>
<path d="M0 0 C1.32 0 2.64 0 4 0 C4 0.99 4 1.98 4 3 C5.32 3.33 6.64 3.66 8 4 C8.33 5.65 8.66 7.3 9 9 C8.01 9 7.02 9 6 9 C4.39453125 7.03125 4.39453125 7.03125 2.8125 4.5 C2.28269531 3.6646875 1.75289062 2.829375 1.20703125 1.96875 C0.80871094 1.3190625 0.41039062 0.669375 0 0 Z " fill="#DBAC7D" transform="translate(749,41)"/>
<path d="M0 0 C4.00972202 3.67557852 6.45335415 7.18966896 9 12 C8.01 12 7.02 12 6 12 C2 7.77142857 2 7.77142857 2 4 C1.34 4 0.68 4 0 4 C0 2.68 0 1.36 0 0 Z " fill="#DEAE7F" transform="translate(481,28)"/>
<path d="M0 0 C1.79068573 2.6860286 2.66055791 4.6626589 3.625 7.6875 C3.88539063 8.49574219 4.14578125 9.30398437 4.4140625 10.13671875 C4.60742188 10.75160156 4.80078125 11.36648437 5 12 C4.34 12 3.68 12 3 12 C3 11.34 3 10.68 3 10 C2.01 9.67 1.02 9.34 0 9 C-1.125 2.25 -1.125 2.25 0 0 Z " fill="#DDA876" transform="translate(546,194)"/>
<path d="M0 0 C0.66 0 1.32 0 2 0 C4.63463787 5.84560277 6.56131481 10.54487966 6 17 C3.97774806 13.9666221 3.00652476 11.38655511 1.875 7.9375 C1.52179688 6.87402344 1.16859375 5.81054688 0.8046875 4.71484375 C0 2 0 2 0 0 Z " fill="#D9AD81" transform="translate(492,96)"/>
<path d="M0 0 C0.66 0.33 1.32 0.66 2 1 C-6.07744875 7.70387244 -6.07744875 7.70387244 -12 8 C-8.2646504 3.81188075 -5.22578394 1.77479455 0 0 Z " fill="#DFAF85" transform="translate(148,13)"/>
<path d="M0 0 C4.62 0.66 9.24 1.32 14 2 C10.68629 4.20914 9.6553979 4.22481553 5.8125 4.125 C4.91144531 4.10695312 4.01039063 4.08890625 3.08203125 4.0703125 C2.39496094 4.04710937 1.70789063 4.02390625 1 4 C0.67 2.68 0.34 1.36 0 0 Z " fill="#DAAE7F" transform="translate(580,249)"/>
<path d="M0 0 C2.40118527 2.40118527 2.75220861 4.05496042 3.625 7.3125 C3.88539063 8.25738281 4.14578125 9.20226562 4.4140625 10.17578125 C4.97479648 12.87851902 5.1101876 15.25031848 5 18 C2.99593518 14.99390278 1.96923742 12.40757305 0.8125 9 C0.44769531 7.948125 0.08289063 6.89625 -0.29296875 5.8125 C-1 3 -1 3 0 0 Z " fill="#E1BB92" transform="translate(780,99)"/>
<path d="M0 0 C6.2688159 1.20977149 9.99350015 3.03652095 15 7 C13.18359375 7.64453125 13.18359375 7.64453125 11 8 C9.47653831 6.80067909 7.95705971 5.59091348 6.52734375 4.28125 C4.53561765 2.61044141 2.45739212 1.79503863 0 1 C0 0.67 0 0.34 0 0 Z " fill="#DCAB7A" transform="translate(746,15)"/>
<path d="M0 0 C1.32 0.99 2.64 1.98 4 3 C3.8125 5.375 3.8125 5.375 3 8 C0.4375 9.3125 0.4375 9.3125 -2 10 C-1.67 9.01 -1.34 8.02 -1 7 C-0.34 7 0.32 7 1 7 C0.67 4.69 0.34 2.38 0 0 Z " fill="#DCA874" transform="translate(857,241)"/>
<path d="M0 0 C3.21880117 3.7935871 5.6163187 7.65829477 8 12 C6.68 12 5.36 12 4 12 C3.67 10.02 3.34 8.04 3 6 C2.01 5.67 1.02 5.34 0 5 C0 3.35 0 1.7 0 0 Z " fill="#DAAE81" transform="translate(559,224)"/>
<path d="M0 0 C3 1 3 1 5 4 C5.6328125 6.26171875 5.6328125 6.26171875 6.125 8.6875 C6.29257812 9.49574219 6.46015625 10.30398437 6.6328125 11.13671875 C6.75398438 11.75160156 6.87515625 12.36648437 7 13 C4.64283596 10.84545751 3.21033856 8.80280126 1.8125 5.9375 C1.29623047 4.89916016 1.29623047 4.89916016 0.76953125 3.83984375 C0 2 0 2 0 0 Z " fill="#DDAD81" transform="translate(252,229)"/>
<path d="M0 0 C0.99 0.33 1.98 0.66 3 1 C3.984375 3.36328125 3.984375 3.36328125 4.75 6.3125 C5.01296875 7.27800781 5.2759375 8.24351563 5.546875 9.23828125 C5.98967528 11.9370726 5.89543883 13.45283955 5 16 C4.16280617 13.70967689 3.3301071 11.41789043 2.5 9.125 C2.14228516 8.14853516 2.14228516 8.14853516 1.77734375 7.15234375 C0 2.2265625 0 2.2265625 0 0 Z " fill="#DCAC84" transform="translate(486,80)"/>
<path d="M0 0 C4 5 4 5 8 10 C7.67 10.66 7.34 11.32 7 12 C6.01 12 5.02 12 4 12 C3.34 9.36 2.68 6.72 2 4 C1.34 4 0.68 4 0 4 C0 2.68 0 1.36 0 0 Z " fill="#DBAE80" transform="translate(769,31)"/>
<path d="M0 0 C0.66 0.33 1.32 0.66 2 1 C1.54636829 2.58468677 1.08688548 4.16769924 0.625 5.75 C0.36976563 6.63171875 0.11453125 7.5134375 -0.1484375 8.421875 C-0.9209934 10.76080572 -1.83625676 12.83442562 -3 15 C-3.05399736 13.54207116 -3.09279177 12.08357288 -3.125 10.625 C-3.15980469 9.40683594 -3.15980469 9.40683594 -3.1953125 8.1640625 C-3 6 -3 6 -1 4 C-0.3574765 1.93125966 -0.3574765 1.93125966 0 0 Z " fill="#DCB487" transform="translate(656,189)"/>
<path d="M0 0 C0.33 0 0.66 0 1 0 C1.6875 3.3125 1.6875 3.3125 2 7 C0.625 8.625 0.625 8.625 -1 10 C-1.72197162 12.60611077 -1.72197162 12.60611077 -2 15 C-2.66 14.67 -3.32 14.34 -4 14 C-3.52188823 12.22888156 -3.0424722 10.45811517 -2.5625 8.6875 C-2.29566406 7.70136719 -2.02882813 6.71523437 -1.75390625 5.69921875 C-1.21920575 3.78482474 -0.62855462 1.88566385 0 0 Z " fill="#D8A878" transform="translate(381,87)"/>
<path d="M0 0 C0.33 0 0.66 0 1 0 C0.54177532 3.46941546 0.10868317 6.67395049 -1 10 C-1.66 10 -2.32 10 -3 10 C-3.33 10.99 -3.66 11.98 -4 13 C-5 10 -5 10 -4.00390625 7.51953125 C-3.52824219 6.62621094 -3.05257813 5.73289062 -2.5625 4.8125 C-2.08941406 3.91144531 -1.61632812 3.01039062 -1.12890625 2.08203125 C-0.75636719 1.39496094 -0.38382812 0.70789062 0 0 Z " fill="#D9AA7A" transform="translate(395,54)"/>
<path d="M0 0 C3.25543229 0.34879632 4.01873107 1.02133261 6.25 3.5625 C6.8275 4.366875 7.405 5.17125 8 6 C7.34 7.32 6.68 8.64 6 10 C6 8.68 6 7.36 6 6 C4.35 5.67 2.7 5.34 1 5 C0.67 3.35 0.34 1.7 0 0 Z " fill="#DBA879" transform="translate(193,28)"/>
<path d="M0 0 C1.14926266 0.95421808 2.29430541 1.91352045 3.4375 2.875 C4.07558594 3.40867187 4.71367188 3.94234375 5.37109375 4.4921875 C7 6 7 6 8 8 C5.69 8 3.38 8 1 8 C0.67 5.36 0.34 2.72 0 0 Z " fill="#DCA572" transform="translate(761,23)"/>
<path d="M0 0 C1.15782198 3.38084018 0.83835147 5.29663219 -0.375 8.625 C-0.65085937 9.40101563 -0.92671875 10.17703125 -1.2109375 10.9765625 C-2 13 -2 13 -3 15 C-3.66 15 -4.32 15 -5 15 C-3.33333333 10 -1.66666667 5 0 0 Z " fill="#DEB489" transform="translate(60,196)"/>
<path d="M0 0 C1.28497537 3.85492611 0.4052209 5.40346836 -0.9375 9.1875 C-1.31777344 10.27417969 -1.69804688 11.36085937 -2.08984375 12.48046875 C-2.39019531 13.31191406 -2.69054687 14.14335937 -3 15 C-3.33 15 -3.66 15 -4 15 C-3.67793494 12.33146093 -3.34457004 9.6656321 -3 7 C-2.855625 5.865625 -2.71125 4.73125 -2.5625 3.5625 C-2.376875 2.716875 -2.19125 1.87125 -2 1 C-1.34 0.67 -0.68 0.34 0 0 Z " fill="#DEB086" transform="translate(662,174)"/>
<path d="M0 0 C0.66 0 1.32 0 2 0 C2 0.99 2 1.98 2 3 C2.66 3 3.32 3 4 3 C4.625 6.375 4.625 6.375 5 10 C4.34 10.66 3.68 11.32 3 12 C2.49440092 10.56445975 1.9957251 9.1264798 1.5 7.6875 C1.2215625 6.88699219 0.943125 6.08648437 0.65625 5.26171875 C0 3 0 3 0 0 Z " fill="#DEB089" transform="translate(798,160)"/>
<path d="M0 0 C0.66 0 1.32 0 2 0 C4.5393228 3.41831915 5.3636198 5.75776898 5 10 C4.01 10.495 4.01 10.495 3 11 C2.01 7.37 1.02 3.74 0 0 Z " fill="#DAA97C" transform="translate(498,114)"/>
<path d="M0 0 C0.99 0 1.98 0 3 0 C2.01 3.96 1.02 7.92 0 12 C-0.33 12 -0.66 12 -1 12 C-1.02712066 10.56260487 -1.04645067 9.12506137 -1.0625 7.6875 C-1.07410156 6.88699219 -1.08570312 6.08648437 -1.09765625 5.26171875 C-1 3 -1 3 0 0 Z " fill="#DEB48A" transform="translate(109,107)"/>
<path d="M0 0 C0.66 0 1.32 0 2 0 C2.69937202 1.4317616 3.38412718 2.87067032 4.0625 4.3125 C4.63677734 5.51326172 4.63677734 5.51326172 5.22265625 6.73828125 C6 9 6 9 5 12 C2.65085508 9.65085508 2.26859643 8.04320554 1.375 4.875 C1.11460937 3.96492188 0.85421875 3.05484375 0.5859375 2.1171875 C0.39257812 1.41851562 0.19921875 0.71984375 0 0 Z " fill="#DBAB81" transform="translate(768,71)"/>
<path d="M0 0 C2.31 0 4.62 0 7 0 C7.66 2.31 8.32 4.62 9 7 C8.34 7 7.68 7 7 7 C6.67 6.34 6.34 5.68 6 5 C5.175 4.505 4.35 4.01 3.5 3.5 C1 2 1 2 0 0 Z " fill="#E0A56E" transform="translate(463,41)"/>
<path d="M0 0 C6 7.71428571 6 7.71428571 6 11 C2.83884224 9.63016497 2.0072908 9.0109362 0 6 C-0.125 2.8125 -0.125 2.8125 0 0 Z " fill="#DDAB7E" transform="translate(272,221)"/>
<path d="M0 0 C1 4 1 4 0.22265625 5.921875 C-0.8515625 7.61458333 -1.92578125 9.30729167 -3 11 C-3.99 11 -4.98 11 -6 11 C-4.02 7.37 -2.04 3.74 0 0 Z " fill="#DCAC7F" transform="translate(51,218)"/>
<path d="M0 0 C3 1 3 1 3.984375 2.9609375 C4.23703125 3.75757813 4.4896875 4.55421875 4.75 5.375 C5.14445313 6.56222656 5.14445313 6.56222656 5.546875 7.7734375 C6 10 6 10 5 13 C4.16209211 11.21046815 3.32980604 9.41830305 2.5 7.625 C1.80390625 6.12839844 1.80390625 6.12839844 1.09375 4.6015625 C0 2 0 2 0 0 Z " fill="#D9AB7D" transform="translate(529,210)"/>
<path d="M0 0 C0.33 0 0.66 0 1 0 C1.38281159 5.23175837 0.21854707 8.37802694 -2 13 C-2.66 13 -3.32 13 -4 13 C-3.52343588 11.20763933 -3.04366502 9.41613103 -2.5625 7.625 C-2.29566406 6.62726563 -2.02882813 5.62953125 -1.75390625 4.6015625 C-1 2 -1 2 0 0 Z " fill="#DCB387" transform="translate(386,74)"/>
<path d="M0 0 C3.42931954 3.7559214 4.56429083 8.23466745 6 13 C5.01 13.495 5.01 13.495 4 14 C3.79503906 13.43410156 3.59007812 12.86820313 3.37890625 12.28515625 C3.10949219 11.55167969 2.84007812 10.81820312 2.5625 10.0625 C2.29566406 9.33160156 2.02882813 8.60070312 1.75390625 7.84765625 C1.14613052 6.01694322 1.14613052 6.01694322 0 5 C-0.04063832 3.33382885 -0.042721 1.66611905 0 0 Z " fill="#DAAB7E" transform="translate(784,55)"/>
<path d="M0 0 C2.96175123 0.61277612 4.38058783 1.25372522 7 3 C7 3.66 7 4.32 7 5 C9.97 5.495 9.97 5.495 13 6 C11.02 6.99 11.02 6.99 9 8 C7.49712782 6.85793642 5.99776716 5.71125043 4.5 4.5625 C3.6646875 3.92441406 2.829375 3.28632813 1.96875 2.62890625 C1.3190625 2.09136719 0.669375 1.55382812 0 1 C0 0.67 0 0.34 0 0 Z " fill="#DDB28A" transform="translate(273,260)"/>
<path d="M0 0 C1.75 0.0625 1.75 0.0625 4 1 C5.59501537 3.24164322 6.74543018 5.53566643 8 8 C7.34 8.66 6.68 9.32 6 10 C4.99723227 8.52270825 3.99785546 7.04311423 3 5.5625 C2.443125 4.73878906 1.88625 3.91507813 1.3125 3.06640625 C0 1 0 1 0 0 Z " fill="#DCB183" transform="translate(544,241)"/>
<path d="M0 0 C0.33 0 0.66 0 1 0 C1.125 5.75 1.125 5.75 0 8 C-0.66 8 -1.32 8 -2 8 C-2.33 9.32 -2.66 10.64 -3 12 C-4.21386936 8.35839192 -3.6674695 7.66834531 -2.0625 4.3125 C-1.49208984 3.10013672 -1.49208984 3.10013672 -0.91015625 1.86328125 C-0.60980469 1.24839844 -0.30945313 0.63351563 0 0 Z " fill="#DCAE81" transform="translate(105,63)"/>
<path d="M0 0 C2.02558881 3.34939881 2.21738987 5.86962551 2.125 9.75 C2.10695312 10.73484375 2.08890625 11.7196875 2.0703125 12.734375 C2.04710937 13.48203125 2.02390625 14.2296875 2 15 C-0.66472044 12.33527956 -0.41765644 10.64895482 -0.6875 6.9375 C-0.81705078 5.31134766 -0.81705078 5.31134766 -0.94921875 3.65234375 C-0.96597656 2.77707031 -0.98273438 1.90179688 -1 1 C-0.67 0.67 -0.34 0.34 0 0 Z " fill="#DEA86F" transform="translate(244,202)"/>
<path d="M0 0 C0.66 0.33 1.32 0.66 2 1 C2 3.31 2 5.62 2 8 C0.02 8.99 0.02 8.99 -2 10 C-1.34 6.7 -0.68 3.4 0 0 Z " fill="#DCAA7B" transform="translate(637,181)"/>
<path d="M0 0 C2.31 0.33 4.62 0.66 7 1 C7 1.66 7 2.32 7 3 C8.32 3.33 9.64 3.66 11 4 C10.67 4.99 10.34 5.98 10 7 C9.52949219 6.66226563 9.05898438 6.32453125 8.57421875 5.9765625 C7.95160156 5.53054687 7.32898438 5.08453125 6.6875 4.625 C6.07261719 4.18414062 5.45773437 3.74328125 4.82421875 3.2890625 C3.2347608 2.16589093 1.61937829 1.07958553 0 0 Z " fill="#DDAF7F" transform="translate(452,34)"/>
<path d="M0 0 C3.87302138 1.14430177 7.00263439 2.23320098 10 5 C10 5.66 10 6.32 10 7 C5.56541027 5.6062718 3.12621626 3.39417765 0 0 Z " fill="#DDAF84" transform="translate(560,261)"/>
<path d="M0 0 C0.66 0.33 1.32 0.66 2 1 C2 2.65 2 4.3 2 6 C2.66 6.33 3.32 6.66 4 7 C3.01 7.495 3.01 7.495 2 8 C0.68 7.01 -0.64 6.02 -2 5 C-1.125 1.125 -1.125 1.125 0 0 Z " fill="#DAA46F" transform="translate(851,259)"/>
<path d="M0 0 C0.66 0 1.32 0 2 0 C0.54955729 4.10958767 -1.51110752 7.43258745 -4 11 C-4.33 9.68 -4.66 8.36 -5 7 C-4.34 7 -3.68 7 -3 7 C-3 5.68 -3 4.36 -3 3 C-2.01 3 -1.02 3 0 3 C0 2.01 0 1.02 0 0 Z " fill="#DCB38D" transform="translate(63,239)"/>
<path d="M0 0 C0.33 0 0.66 0 1 0 C0.8864371 1.64666203 0.75882619 3.29236082 0.625 4.9375 C0.52058594 6.31228516 0.52058594 6.31228516 0.4140625 7.71484375 C0.27742188 8.46894531 0.14078125 9.22304687 0 10 C-0.99 10.495 -0.99 10.495 -2 11 C-2.25 3.375 -2.25 3.375 0 0 Z " fill="#D9A677" transform="translate(97,149)"/>
<path d="M0 0 C0.66 0 1.32 0 2 0 C2 1.32 2 2.64 2 4 C2.66 4 3.32 4 4 4 C4.33 5.98 4.66 7.96 5 10 C4.01 10.495 4.01 10.495 3 11 C2.49384702 9.73160474 1.99530901 8.46016898 1.5 7.1875 C1.2215625 6.47980469 0.943125 5.77210937 0.65625 5.04296875 C0 3 0 3 0 0 Z " fill="#DDAB81" transform="translate(775,88)"/>
<path d="M0 0 C1.33332095 2.6666419 0.67102033 4.16680303 0 7 C-1.65 7.33 -3.3 7.66 -5 8 C-3.62845496 5.04590299 -2.01136276 2.55991624 0 0 Z " fill="#DEAE7F" transform="translate(125,30)"/>
<path d="M0 0 C0.845625 0.309375 1.69125 0.61875 2.5625 0.9375 C6.0497854 2.01538821 9.38177535 2.56581304 13 3 C13 3.33 13 3.66 13 4 C5.78777589 5.34465195 5.78777589 5.34465195 2 3.6875 C1.34 3.130625 0.68 2.57375 0 2 C0 1.34 0 0.68 0 0 Z " fill="#F1D9C4" transform="translate(865,248)"/>
<path d="M0 0 C0.33 0 0.66 0 1 0 C1.3125 2.75 1.3125 2.75 1 6 C-1.5 8.375 -1.5 8.375 -4 10 C-3.29445932 6.33118845 -1.72264494 3.29549466 0 0 Z " fill="#DDA673" transform="translate(41,235)"/>
<path d="M0 0 C1.32 0.33 2.64 0.66 4 1 C4.33 2.98 4.66 4.96 5 7 C4.01 7.495 4.01 7.495 3 8 C0 2.25 0 2.25 0 0 Z " fill="#D9A876" transform="translate(247,219)"/>
<path d="M0 0 C1.32 0 2.64 0 4 0 C3.67 1.98 3.34 3.96 3 6 C2.34 6 1.68 6 1 6 C1 5.34 1 4.68 1 4 C0.34 4 -0.32 4 -1 4 C-0.67 2.68 -0.34 1.36 0 0 Z " fill="#DEA374" transform="translate(666,152)"/>
<path d="M0 0 C0.99 0.495 0.99 0.495 2 1 C2.144375 1.66 2.28875 2.32 2.4375 3 C2.623125 3.66 2.80875 4.32 3 5 C3.99 5.33 4.98 5.66 6 6 C5.01 7.32 4.02 8.64 3 10 C0 3.375 0 3.375 0 0 Z " fill="#DEAE85" transform="translate(198,74)"/>
<path d="M0 0 C0.33 0 0.66 0 1 0 C1.32613618 4.67461851 0.70582788 7.16674383 -2 11 C-2.66 10.67 -3.32 10.34 -4 10 C-2.68 6.7 -1.36 3.4 0 0 Z " fill="#D8AB80" transform="translate(674,68)"/>
<path d="M0 0 C0.66 0 1.32 0 2 0 C5 5.75 5 5.75 5 8 C4.01 7.67 3.02 7.34 2 7 C2 6.34 2 5.68 2 5 C1.34 5 0.68 5 0 5 C0 3.35 0 1.7 0 0 Z " fill="#D9A572" transform="translate(211,54)"/>
<path d="M0 0 C0.66 0 1.32 0 2 0 C3.6875 2.375 3.6875 2.375 5 5 C4.67 5.66 4.34 6.32 4 7 C2.35 6.67 0.7 6.34 -1 6 C-0.67 4.02 -0.34 2.04 0 0 Z " fill="#DBA773" transform="translate(490,42)"/>
<path d="M0 0 C1.33332095 2.6666419 0.67102033 4.16680303 0 7 C-1.65 7.33 -3.3 7.66 -5 8 C-3.62845496 5.04590299 -2.01136276 2.55991624 0 0 Z " fill="#DCB086" transform="translate(615,232)"/>
<path d="M0 0 C0.95465783 2.16967689 1.14401212 3.56328793 0.3984375 5.82421875 C-0.35870385 7.5684743 -1.17609198 9.28627131 -2 11 C-2.66 11 -3.32 11 -4 11 C-2.7874262 7.27566618 -1.49140021 3.62197194 0 0 Z " fill="#DAAC7A" transform="translate(626,210)"/>
<path d="M0 0 C2 2 2 2 2.1953125 3.9453125 C2.13020833 5.96354167 2.06510417 7.98177083 2 10 C-0.05619793 7.68677733 -0.95899829 6.44076838 -1.25 3.3125 C-1 1 -1 1 0 0 Z " fill="#D99D62" transform="translate(786,112)"/>
<path d="M0 0 C2.14331139 2.14331139 2.514193 3.14086424 3.25 6 C3.44078125 6.70125 3.6315625 7.4025 3.828125 8.125 C3.88484375 8.74375 3.9415625 9.3625 4 10 C3.34 10.66 2.68 11.32 2 12 C0.86235649 7.73383684 0 4.43513689 0 0 Z " fill="#DCB085" transform="translate(796,83)"/>
<path d="M0 0 C0.66 0.33 1.32 0.66 2 1 C-0.475 5.455 -0.475 5.455 -3 10 C-3.66 8.68 -4.32 7.36 -5 6 C-4.34 6 -3.68 6 -3 6 C-2.87625 5.38125 -2.7525 4.7625 -2.625 4.125 C-2 2 -2 2 0 0 Z " fill="#DCAD7E" transform="translate(419,54)"/>
<path d="M0 0 C0.99 0.33 1.98 0.66 3 1 C0.03 4.96 0.03 4.96 -3 9 C-3.33 7.68 -3.66 6.36 -4 5 C-3.34 5 -2.68 5 -2 5 C-2 3.68 -2 2.36 -2 1 C-1.34 0.67 -0.68 0.34 0 0 Z " fill="#DDB184" transform="translate(426,43)"/>
<path d="M0 0 C0.90105469 0.00902344 1.80210937 0.01804688 2.73046875 0.02734375 C3.41753906 0.03894531 4.10460937 0.05054688 4.8125 0.0625 C4.8125 0.3925 4.8125 0.7225 4.8125 1.0625 C4.05324219 1.19527344 3.29398437 1.32804687 2.51171875 1.46484375 C1.51785156 1.64144531 0.52398437 1.81804688 -0.5 2 C-1.48613281 2.17402344 -2.47226562 2.34804688 -3.48828125 2.52734375 C-6.26939213 3.01996847 -6.26939213 3.01996847 -9.1875 4.0625 C-8.8575 3.0725 -8.5275 2.0825 -8.1875 1.0625 C-5.17259443 0.05753148 -3.14568308 -0.04085303 0 0 Z " fill="#DEAF85" transform="translate(445.1875,32.9375)"/>
<path d="M0 0 C-6 4 -6 4 -10 4 C-10 3.34 -10 2.68 -10 2 C-6.5980513 -0.09350689 -3.94727588 -0.17942163 0 0 Z " fill="#D9B28B" transform="translate(610,268)"/>
<path d="M0 0 C0.66 0.99 1.32 1.98 2 3 C-3.41538462 6.07692308 -3.41538462 6.07692308 -6.375 5.6875 C-6.91125 5.460625 -7.4475 5.23375 -8 5 C-7.05125 4.54625 -6.1025 4.0925 -5.125 3.625 C-1.99686321 2.19761746 -1.99686321 2.19761746 0 0 Z " fill="#DEAF88" transform="translate(603,245)"/>
<path d="M0 0 C0.66 0 1.32 0 2 0 C1.01 3.3 0.02 6.6 -1 10 C-1.33 10 -1.66 10 -2 10 C-1.85950482 8.52031676 -1.71245174 7.04125484 -1.5625 5.5625 C-1.48128906 4.73878906 -1.40007812 3.91507813 -1.31640625 3.06640625 C-1 1 -1 1 0 0 Z " fill="#D7AC80" transform="translate(370,191)"/>
<path d="M0 0 C0.66 0 1.32 0 2 0 C2.33 2.97 2.66 5.94 3 9 C2.34 9 1.68 9 1 9 C0.67 6.03 0.34 3.06 0 0 Z " fill="#DCA370" transform="translate(802,170)"/>
<path d="M0 0 C0.33 0 0.66 0 1 0 C1 2.64 1 5.28 1 8 C0.34 8 -0.32 8 -1 8 C-1.33 8.99 -1.66 9.98 -2 11 C-3 9 -3 9 -2.44140625 6.8359375 C-2.15136719 6.02382812 -1.86132812 5.21171875 -1.5625 4.375 C-1.27503906 3.55773437 -0.98757813 2.74046875 -0.69140625 1.8984375 C-0.46324219 1.27195312 -0.23507812 0.64546875 0 0 Z " fill="#D8AC83" transform="translate(661,104)"/>
<path d="M0 0 C0.33 0 0.66 0 1 0 C1.36923077 6.52307692 1.36923077 6.52307692 -0.5 8.9375 C-0.995 9.288125 -1.49 9.63875 -2 10 C-3 8 -3 8 -2.44140625 6.0546875 C-2.15136719 5.33539063 -1.86132812 4.61609375 -1.5625 3.875 C-1.27503906 3.15054688 -0.98757813 2.42609375 -0.69140625 1.6796875 C-0.46324219 1.12539062 -0.23507812 0.57109375 0 0 Z " fill="#DBAF85" transform="translate(669,81)"/>
<path d="M0 0 C0.99 0 1.98 0 3 0 C3.66 2.31 4.32 4.62 5 7 C4.01 7.495 4.01 7.495 3 8 C0 2.25 0 2.25 0 0 Z " fill="#D9A87A" transform="translate(478,62)"/>
<path d="M0 0 C0.33 0 0.66 0 1 0 C0.67 3.3 0.34 6.6 0 10 C-0.99 10.33 -1.98 10.66 -3 11 C-2.01 7.37 -1.02 3.74 0 0 Z " fill="#DCAD86" transform="translate(355,170)"/>
<path d="M0 0 C3 1 3 1 5 4 C4.625 6.1875 4.625 6.1875 4 8 C1.84622436 5.37801226 0.59927826 3.35595828 0 0 Z " fill="#DDB388" transform="translate(761,57)"/>
<path d="M0 0 C1.98 0 3.96 0 6 0 C6 1.65 6 3.3 6 5 C3.5625 4.1875 3.5625 4.1875 1 3 C0.67 2.01 0.34 1.02 0 0 Z " fill="#DCA772" transform="translate(741,34)"/>
<path d="M0 0 C2.64 0 5.28 0 8 0 C8.33 0.99 8.66 1.98 9 3 C2.25 2.25 2.25 2.25 0 0 Z " fill="#DAA876" transform="translate(164,33)"/>
<path d="M0 0 C0.99 0.33 1.98 0.66 3 1 C2.01 1.495 2.01 1.495 1 2 C1 2.66 1 3.32 1 4 C-0.98 4.33 -2.96 4.66 -5 5 C-4.01 4.67 -3.02 4.34 -2 4 C-2 3.01 -2 2.02 -2 1 C-1.34 0.67 -0.68 0.34 0 0 Z " fill="#DDA575" transform="translate(29,247)"/>
<path d="M0 0 C1.65 1.65 3.3 3.3 5 5 C4.01 5.33 3.02 5.66 2 6 C1.34 5.67 0.68 5.34 0 5 C0 3.35 0 1.7 0 0 Z " fill="#DFB080" transform="translate(569,239)"/>
<path d="M0 0 C0.33 0.66 0.66 1.32 1 2 C1.66 2 2.32 2 3 2 C3.33 3.65 3.66 5.3 4 7 C3.01 7.495 3.01 7.495 2 8 C0.4375 5.6875 0.4375 5.6875 -1 3 C-0.67 2.01 -0.34 1.02 0 0 Z " fill="#DCAE79" transform="translate(541,233)"/>
<path d="M0 0 C0.66 0 1.32 0 2 0 C1.67 1.65 1.34 3.3 1 5 C0.01 5.33 -0.98 5.66 -2 6 C-1.125 1.125 -1.125 1.125 0 0 Z " fill="#D9A97A" transform="translate(116,90)"/>
<path d="M0 0 C0.99 0.33 1.98 0.66 3 1 C3.33 3.97 3.66 6.94 4 10 C1.81024227 6.71536341 1.00193437 3.79303725 0 0 Z " fill="#DCB086" transform="translate(202,84)"/>
<path d="M0 0 C0.66 0 1.32 0 2 0 C1.01 2.97 0.02 5.94 -1 9 C-1.33 9 -1.66 9 -2 9 C-1.125 1.125 -1.125 1.125 0 0 Z " fill="#DDB78C" transform="translate(692,79)"/>
<path d="M0 0 C2.50298434 2.93828597 3.46930939 5.17902761 4 9 C3.01 8.67 2.02 8.34 1 8 C0.67 5.36 0.34 2.72 0 0 Z " fill="#DEAB83" transform="translate(790,68)"/>
<path d="M0 0 C0.99 0.33 1.98 0.66 3 1 C0.03 3.475 0.03 3.475 -3 6 C-2.625 3.5625 -2.625 3.5625 -2 1 C-1.34 0.67 -0.68 0.34 0 0 Z " fill="#E0B285" transform="translate(714,41)"/>
</svg>
